<?xml version="1.0" encoding="utf-8"?>
<!-- Generator: Adobe Illustrator 16.0.0, SVG Export Plug-In . SVG Version: 6.00 Build 0)  -->
<!DOCTYPE svg PUBLIC "-//W3C//DTD SVG 1.1//EN" "http://www.w3.org/Graphics/SVG/1.1/DTD/svg11.dtd">
<svg version="1.1" id="Layer_1" xmlns="http://www.w3.org/2000/svg" xmlns:xlink="http://www.w3.org/1999/xlink" x="0px" y="0px"
	 width="72px" height="100px" viewBox="0 0 72 100" enable-background="new 0 0 72 100" xml:space="preserve">
<path id="fondo_x5F_icono" fill="#FFFFFF" d="M70.6,35.367c0-18.833-15.275-34.109-34.109-34.109
	c-18.833,0-34.109,15.276-34.109,34.109c0,1.444,0.1,2.836,0.274,4.229c0.447,5.275,4.18,25.503,33.86,60.233
	C71.42,59.002,70.451,38.852,70.451,38.852C70.551,37.707,70.6,36.562,70.6,35.367"/>
<path fill="#F59720" d="M36.285,5.65c16.342,0,29.637,13.295,29.637,29.636c0,1.059-0.043,2.073-0.133,3.097l-0.043,0.24
	l0.029,0.351c-0.016,0.934-0.703,18.929-29.464,53.872C25.623,79.85,17.618,67.721,12.487,56.736
	c-4.506-9.642-5.402-15.516-5.578-17.594L6.9,39.052L6.89,38.959c-0.162-1.286-0.24-2.487-0.24-3.673
	C6.65,18.945,19.945,5.65,36.285,5.65 M36.285,1C17.355,1,2,16.355,2,35.286c0,1.45,0.1,2.85,0.276,4.25
	c0.45,5.302,4.201,25.633,34.035,60.543c35.086-41.037,34.111-61.293,34.111-61.293c0.1-1.15,0.15-2.302,0.15-3.5
	C70.572,16.355,55.217,1,36.285,1"/>
<g id="triangiulo_inferior">
	<path fill="#F59720" d="M7.481,57.183C12.23,67.5,20.784,81.704,36.208,99.751c15.521-18.154,24.095-32.302,28.827-42.494
		c-8.219-5.589-18.139-8.855-28.827-8.855C25.565,48.402,15.68,51.639,7.481,57.183"/>
	<path fill="#FFFFFF" d="M41.943,73.224c-0.053,0.068-0.102,0.136-0.162,0.196c-0.496,0.496-1.303,0.496-1.801,0
		c-0.492-0.493-0.492-1.299,0-1.796c0.047-0.044,0.096-0.086,0.146-0.126c1.277-1.095,2.084-2.717,2.084-4.522
		c0-1.759-0.766-3.336-1.977-4.426c-0.092-0.055-0.176-0.117-0.254-0.198c-0.492-0.493-0.492-1.298,0-1.796
		c0.498-0.497,1.305-0.497,1.801,0c0.041,0.04,0.076,0.089,0.109,0.127c1.727,1.548,2.82,3.799,2.82,6.293
		C44.711,69.449,43.641,71.675,41.943,73.224 M32.28,62.555c0.089-0.052,0.177-0.118,0.253-0.192c0.497-0.5,0.497-1.303,0-1.8
		c-0.498-0.497-1.303-0.497-1.798,0c-0.034,0.033-0.07,0.076-0.098,0.109c-1.736,1.555-2.828,3.798-2.828,6.304
		c0,2.466,1.062,4.686,2.751,6.226c0.05,0.083,0.105,0.158,0.175,0.229c0.495,0.49,1.3,0.49,1.798,0
		c0.497-0.503,0.497-1.303,0-1.806c-0.042-0.035-0.083-0.069-0.122-0.102v-0.01c-1.289-1.094-2.11-2.718-2.11-4.537
		C30.302,65.227,31.067,63.646,32.28,62.555 M38.924,64.051c-0.023-0.019-0.041-0.04-0.057-0.057
		c-0.168-0.169-0.389-0.263-0.621-0.263c-0.238,0-0.459,0.094-0.627,0.263c-0.346,0.347-0.346,0.902,0,1.243
		c0.043,0.041,0.09,0.08,0.141,0.118c0.457,0.421,0.719,1.012,0.719,1.631c0,0.645-0.279,1.263-0.775,1.685l-0.018,0.013
		c-0.02,0.013-0.039,0.03-0.066,0.061c-0.166,0.162-0.252,0.384-0.252,0.621c0,0.235,0.086,0.458,0.252,0.622
		c0.168,0.169,0.389,0.263,0.627,0.263c0.232,0,0.453-0.094,0.621-0.263c0.027-0.027,0.057-0.061,0.086-0.098
		c0.809-0.752,1.266-1.811,1.266-2.903C40.219,65.874,39.754,64.803,38.924,64.051 M34.898,65.24
		c0.167-0.165,0.262-0.392,0.262-0.624c0-0.234-0.094-0.456-0.262-0.622c-0.17-0.169-0.389-0.258-0.622-0.258
		c-0.238,0-0.459,0.089-0.627,0.258c-0.012,0.017-0.032,0.038-0.046,0.057c-0.833,0.752-1.309,1.818-1.309,2.936
		c0,1.089,0.463,2.142,1.262,2.896c0.028,0.041,0.061,0.072,0.093,0.111c0.167,0.163,0.389,0.257,0.627,0.257
		c0.233,0,0.452-0.094,0.622-0.257c0.167-0.17,0.262-0.389,0.262-0.622c0-0.237-0.094-0.46-0.266-0.631
		c-0.02-0.02-0.034-0.03-0.052-0.044l-0.019-0.021c-0.494-0.426-0.785-1.04-0.785-1.688c0-0.619,0.262-1.206,0.715-1.631
		C34.805,65.322,34.855,65.285,34.898,65.24 M44.443,55.846c-0.041-0.045-0.098-0.082-0.154-0.124
		c-0.658-0.434-1.547-0.258-1.98,0.403c-0.406,0.613-0.277,1.436,0.289,1.894c0.018,0.014,0.039,0.021,0.055,0.037
		c0.018,0.013,0.037,0.034,0.059,0.044c2.705,1.987,4.471,5.192,4.471,8.804c0,6.033-4.893,10.919-10.924,10.919
		c-6.029,0-10.916-4.886-10.916-10.919c0-3.596,1.738-6.777,4.422-8.771h-0.004h0.004c0.653-0.444,0.82-1.326,0.379-1.978
		c-0.442-0.65-1.324-0.823-1.978-0.379c-0.042,0.025-0.08,0.057-0.122,0.091c-3.369,2.507-5.55,6.522-5.55,11.037
		c0,7.605,6.165,13.769,13.765,13.769c7.602,0,13.768-6.163,13.768-13.769C50.025,62.373,47.828,58.355,44.443,55.846"/>
</g>
<g id="bp">
	<path id="XMLID_9644_" fill-rule="evenodd" clip-rule="evenodd" fill="#129648" d="M30.849,27.012
		C30.849,27.012,30.849,27.012,30.849,27.012S30.849,27.012,30.849,27.012S30.849,27.012,30.849,27.012S30.849,27.012,30.849,27.012
		L30.849,27.012z M23.937,15.04c0.096-1.864,0.456-3.553,0.825-4.752c1.053,0.682,2.415,1.745,3.688,3.11
		c0.728-1.719,1.644-3.182,2.4-4.184c0.756,1.001,1.671,2.465,2.4,4.183c1.272-1.365,2.634-2.427,3.688-3.109
		c0.37,1.199,0.727,2.888,0.825,4.752c1.662-0.849,3.305-1.381,4.529-1.661c-0.066,1.253-0.305,2.963-0.852,4.747
		c1.854-0.229,3.578-0.167,4.824-0.013c-0.49,1.156-1.299,2.682-2.424,4.172c1.818,0.418,3.42,1.066,4.537,1.637
		c-0.854,0.92-2.137,2.076-3.701,3.091c1.564,1.015,2.848,2.171,3.701,3.091c-1.117,0.57-2.719,1.219-4.537,1.637
		c1.125,1.49,1.934,3.016,2.424,4.172c-1.246,0.154-2.971,0.215-4.824-0.014c0.547,1.785,0.785,3.494,0.852,4.749
		c-1.225-0.28-2.867-0.814-4.529-1.661c-0.098,1.863-0.455,3.551-0.825,4.752c-1.054-0.684-2.416-1.745-3.687-3.109
		c-0.729,1.718-1.645,3.182-2.401,4.183c-0.757-1.001-1.672-2.465-2.4-4.183c-1.272,1.364-2.632,2.426-3.687,3.109
		c-0.37-1.201-0.729-2.889-0.826-4.752c-1.663,0.848-3.306,1.381-4.528,1.661c0.063-1.255,0.302-2.964,0.849-4.749
		c-1.851,0.229-3.576,0.168-4.822,0.014c0.488-1.156,1.298-2.681,2.422-4.172c-1.819-0.418-3.419-1.064-4.537-1.637
		c0.855-0.92,2.137-2.074,3.703-3.091c-1.565-1.015-2.847-2.17-3.703-3.091c1.118-0.571,2.718-1.219,4.537-1.637
		c-1.125-1.49-1.934-3.014-2.423-4.17c1.246-0.156,2.971-0.217,4.823,0.011c-0.546-1.783-0.785-3.493-0.85-4.747
		C20.631,13.658,22.274,14.19,23.937,15.04L23.937,15.04z M30.849,27.012 M30.849,27.012"/>
	<path id="XMLID_9640_" fill-rule="evenodd" clip-rule="evenodd" fill="#A7CA38" d="M30.849,27.012L30.849,27.012L30.849,27.012
		C30.85,27.012,30.85,27.012,30.849,27.012C30.85,27.012,30.85,27.012,30.849,27.012C30.85,27.012,30.85,27.012,30.849,27.012
		L30.849,27.012z M20.673,28.807c-1.322-0.445-2.556-1.084-3.648-1.794c1.093-0.709,2.326-1.351,3.648-1.794
		c-1.09-0.87-2.03-1.895-2.815-2.934c1.271-0.293,2.648-0.473,4.043-0.438c-0.729-1.191-1.261-2.474-1.644-3.722
		c1.294,0.16,2.651,0.462,3.951,0.973c-0.278-1.369-0.339-2.756-0.271-4.058c1.162,0.592,2.332,1.34,3.378,2.264
		c0.208-1.379,0.625-2.707,1.134-3.907c0.888,0.956,1.733,2.058,2.4,3.285c0.667-1.227,1.512-2.329,2.401-3.285
		c0.509,1.201,0.925,2.528,1.132,3.907c1.046-0.924,2.218-1.671,3.379-2.264c0.066,1.302,0.006,2.689-0.271,4.058
		c1.299-0.51,2.656-0.813,3.949-0.973c-0.381,1.248-0.914,2.531-1.643,3.722c1.395-0.036,2.773,0.144,4.043,0.438
		c-0.785,1.04-1.723,2.064-2.814,2.934c1.322,0.443,2.555,1.085,3.65,1.794c-1.096,0.71-2.328,1.349-3.65,1.794
		c1.092,0.869,2.029,1.894,2.814,2.934c-1.27,0.293-2.648,0.473-4.043,0.438c0.729,1.191,1.262,2.475,1.643,3.721
		c-1.293-0.159-2.65-0.461-3.949-0.971c0.277,1.367,0.338,2.756,0.271,4.059c-1.162-0.594-2.333-1.34-3.379-2.265
		c-0.207,1.38-0.623,2.706-1.132,3.907c-0.889-0.955-1.733-2.059-2.401-3.284c-0.667,1.226-1.513,2.329-2.4,3.284
		c-0.509-1.201-0.926-2.527-1.134-3.907c-1.046,0.925-2.216,1.671-3.378,2.265c-0.067-1.303-0.007-2.691,0.271-4.06
		c-1.3,0.511-2.656,0.813-3.951,0.972c0.383-1.246,0.915-2.529,1.644-3.721c-1.395,0.035-2.772-0.145-4.043-0.438
		C18.643,30.7,19.583,29.676,20.673,28.807L20.673,28.807z M20.673,28.807"/>
	<path id="XMLID_9632_" fill-rule="evenodd" clip-rule="evenodd" fill="#FDD728" d="M30.849,27.012 M30.849,27.012
		C30.849,27.013,30.849,27.013,30.849,27.012C30.849,27.013,30.849,27.013,30.849,27.012C30.849,27.013,30.849,27.013,30.849,27.012
		C30.849,27.013,30.849,27.013,30.849,27.012C30.849,27.013,30.849,27.013,30.849,27.012L30.849,27.012
		C30.849,27.012,30.85,27.012,30.849,27.012C30.85,27.012,30.849,27.012,30.849,27.012C30.85,27.012,30.85,27.012,30.849,27.012
		L30.849,27.012z M30.85,27.012C30.85,27.012,30.85,27.012,30.85,27.012S30.85,27.012,30.85,27.012L30.85,27.012
		C30.849,27.012,30.849,27.012,30.85,27.012C30.849,27.012,30.849,27.012,30.85,27.012L30.85,27.012z M30.849,27.012 M29.621,20.046
		c0.226-1.199,0.663-2.328,1.229-3.366c0.564,1.038,1.002,2.167,1.228,3.366c0.623-1.05,1.419-1.96,2.306-2.743
		c0.175,1.17,0.201,2.378,0.003,3.583c0.944-0.774,2.004-1.356,3.105-1.789c-0.234,1.159-0.625,2.302-1.223,3.368
		c1.153-0.405,2.346-0.589,3.53-0.619c-0.617,1.009-1.375,1.95-2.303,2.747c1.223,0.014,2.408,0.249,3.529,0.625
		c-0.924,0.737-1.959,1.363-3.102,1.794c1.143,0.432,2.178,1.058,3.104,1.794c-1.123,0.375-2.309,0.61-3.531,0.625
		c0.928,0.796,1.686,1.738,2.303,2.746c-1.184-0.029-2.377-0.215-3.53-0.618c0.599,1.063,0.989,2.208,1.223,3.367
		c-1.101-0.433-2.161-1.015-3.104-1.789c0.197,1.205,0.173,2.413-0.004,3.583c-0.885-0.783-1.681-1.693-2.305-2.743
		c-0.226,1.2-0.663,2.327-1.229,3.367c-0.565-1.04-1-2.167-1.229-3.367c-0.623,1.05-1.419,1.96-2.306,2.743
		c-0.175-1.17-0.201-2.377-0.002-3.583c-0.945,0.774-2.004,1.356-3.105,1.79c0.234-1.16,0.624-2.305,1.223-3.368
		c-1.153,0.403-2.347,0.589-3.53,0.618c0.619-1.008,1.375-1.95,2.301-2.746c-1.222-0.015-2.407-0.25-3.528-0.625
		c0.925-0.736,1.959-1.362,3.102-1.794c-1.142-0.431-2.177-1.057-3.102-1.794c1.121-0.375,2.307-0.61,3.528-0.625
		c-0.926-0.797-1.683-1.738-2.301-2.747c1.183,0.03,2.377,0.215,3.53,0.619c-0.599-1.064-0.988-2.209-1.223-3.368
		c1.101,0.433,2.16,1.015,3.105,1.79c-0.199-1.206-0.173-2.415,0.002-3.584C28.202,18.086,28.998,18.997,29.621,20.046
		L29.621,20.046z M30.849,27.012 M30.849,27.012"/>
	<path id="XMLID_9629_" fill-rule="evenodd" clip-rule="evenodd" fill="#FFFFFF" d="M29.606,23.598
		c-0.224-1.24-0.198-2.428,0.014-3.551c0.584,0.983,1.015,2.09,1.229,3.332c0.213-1.241,0.645-2.349,1.228-3.332
		c0.212,1.123,0.239,2.311,0.014,3.551c0.624-1.094,1.41-1.986,2.294-2.71c-0.186,1.128-0.566,2.253-1.201,3.341
		c0.959-0.814,2.002-1.384,3.083-1.763c-0.562,0.997-1.303,1.925-2.271,2.729c1.182-0.436,2.355-0.615,3.499-0.601
		c-0.866,0.745-1.881,1.363-3.066,1.788c1.258-0.006,2.423,0.227,3.492,0.631c-1.069,0.404-2.234,0.637-3.492,0.63
		c1.185,0.426,2.2,1.043,3.066,1.787c-1.143,0.015-2.317-0.164-3.499-0.6c0.969,0.805,1.71,1.73,2.271,2.729
		c-1.08-0.379-2.123-0.949-3.083-1.764c0.634,1.088,1.015,2.214,1.201,3.342c-0.884-0.725-1.67-1.617-2.294-2.711
		c0.225,1.24,0.198,2.428-0.014,3.551c-0.583-0.982-1.015-2.09-1.228-3.331c-0.213,1.241-0.645,2.349-1.229,3.331
		c-0.212-1.123-0.238-2.311-0.014-3.551c-0.624,1.094-1.41,1.986-2.293,2.711c0.185-1.128,0.566-2.254,1.2-3.342
		c-0.96,0.814-2.002,1.385-3.082,1.764c0.56-0.998,1.302-1.926,2.271-2.729c-1.181,0.436-2.356,0.614-3.5,0.602
		c0.869-0.746,1.884-1.363,3.068-1.789c-1.258,0.007-2.424-0.227-3.494-0.63c1.07-0.404,2.236-0.637,3.494-0.631
		c-1.186-0.426-2.199-1.042-3.068-1.788c1.144-0.014,2.319,0.165,3.5,0.601c-0.969-0.805-1.711-1.732-2.271-2.729
		c1.08,0.379,2.122,0.949,3.082,1.762c-0.634-1.087-1.015-2.212-1.2-3.34C28.197,21.612,28.982,22.504,29.606,23.598L29.606,23.598z
		 M29.606,23.598"/>
	<g id="XMLID_9620_">
		<path id="XMLID_9625_" fill-rule="evenodd" clip-rule="evenodd" fill="#129648" d="M47.096,32.818v8.691h1.295v-0.834
			c0.531,0.713,1.123,1.041,1.982,1.041c1.596,0,2.732-1.295,2.732-3.361c0-2.128-1.16-3.42-2.721-3.42
			c-0.857,0-1.523,0.361-1.982,1.051v-3.168H47.096z M50.07,36.119c1.027,0,1.668,0.799,1.668,2.248
			c0,1.377-0.641,2.164-1.668,2.164c-1.076,0-1.691-0.762-1.691-2.2C48.379,36.867,48.959,36.119,50.07,36.119L50.07,36.119z
			 M50.07,36.119"/>
		<path id="XMLID_9621_" fill-rule="evenodd" clip-rule="evenodd" fill="#129648" d="M56.953,36.119
			c1.016,0,1.668,0.799,1.668,2.176c0,1.449-0.641,2.236-1.668,2.236c-1.1,0-1.691-0.737-1.691-2.164
			C55.262,36.881,55.867,36.119,56.953,36.119L56.953,36.119z M55.285,40.725c0.447,0.652,1.125,0.992,1.984,0.992
			c1.557,0,2.719-1.295,2.719-3.422c0-2.067-1.137-3.359-2.732-3.359c-0.869,0-1.463,0.338-1.98,1.1V35.14H53.98v8.911h1.305V40.725
			z M55.285,40.725"/>
	</g>
</g>
</svg>
