<?xml version="1.0" encoding="utf-8"?>
<!-- Generator: Adobe Illustrator 16.0.0, SVG Export Plug-In . SVG Version: 6.00 Build 0)  -->
<!DOCTYPE svg PUBLIC "-//W3C//DTD SVG 1.1//EN" "http://www.w3.org/Graphics/SVG/1.1/DTD/svg11.dtd">
<svg version="1.1" id="Layer_1" xmlns="http://www.w3.org/2000/svg" xmlns:xlink="http://www.w3.org/1999/xlink" x="0px" y="0px"
	 width="72px" height="100px" viewBox="0 0 72 100" enable-background="new 0 0 72 100" xml:space="preserve">
<path id="fondo_x5F_icono" fill="#FFFFFF" d="M70.6,35.367c0-18.833-15.275-34.109-34.109-34.109
	c-18.833,0-34.109,15.276-34.109,34.109c0,1.444,0.1,2.836,0.274,4.229c0.447,5.275,4.18,25.503,33.86,60.233
	C71.42,59.002,70.451,38.852,70.451,38.852C70.551,37.707,70.6,36.562,70.6,35.367"/>
<path fill="#F59720" d="M36.285,5.65c16.342,0,29.637,13.295,29.637,29.636c0,1.059-0.043,2.073-0.133,3.097l-0.043,0.24
	l0.029,0.351c-0.016,0.934-0.703,18.929-29.464,53.872C25.623,79.85,17.618,67.721,12.487,56.736
	c-4.506-9.642-5.402-15.516-5.578-17.594L6.9,39.052L6.89,38.959c-0.162-1.286-0.24-2.487-0.24-3.673
	C6.65,18.945,19.945,5.65,36.285,5.65 M36.285,1C17.355,1,2,16.355,2,35.286c0,1.45,0.1,2.85,0.276,4.25
	c0.45,5.302,4.201,25.633,34.035,60.543c35.086-41.037,34.111-61.293,34.111-61.293c0.1-1.15,0.15-2.302,0.15-3.5
	C70.572,16.355,55.217,1,36.285,1"/>
<g id="triangiulo_inferior">
	<path fill="#F59720" d="M7.481,57.183C12.23,67.5,20.784,81.704,36.208,99.751c15.521-18.154,24.095-32.302,28.827-42.494
		c-8.219-5.589-18.139-8.855-28.827-8.855C25.565,48.402,15.68,51.639,7.481,57.183"/>
	<path fill="#FFFFFF" d="M41.943,73.224c-0.053,0.068-0.102,0.136-0.162,0.196c-0.496,0.496-1.303,0.496-1.801,0
		c-0.492-0.493-0.492-1.299,0-1.796c0.047-0.044,0.096-0.086,0.146-0.126c1.277-1.095,2.084-2.717,2.084-4.522
		c0-1.759-0.766-3.336-1.977-4.426c-0.092-0.055-0.176-0.117-0.254-0.198c-0.492-0.493-0.492-1.298,0-1.796
		c0.498-0.497,1.305-0.497,1.801,0c0.041,0.04,0.076,0.089,0.109,0.127c1.727,1.548,2.82,3.799,2.82,6.293
		C44.711,69.449,43.641,71.675,41.943,73.224 M32.28,62.555c0.089-0.052,0.177-0.118,0.253-0.192c0.497-0.5,0.497-1.303,0-1.8
		c-0.498-0.497-1.303-0.497-1.798,0c-0.034,0.033-0.07,0.076-0.098,0.109c-1.736,1.555-2.828,3.798-2.828,6.304
		c0,2.466,1.062,4.686,2.751,6.226c0.05,0.083,0.105,0.158,0.175,0.229c0.495,0.49,1.3,0.49,1.798,0
		c0.497-0.503,0.497-1.303,0-1.806c-0.042-0.035-0.083-0.069-0.122-0.102v-0.01c-1.289-1.094-2.11-2.718-2.11-4.537
		C30.302,65.227,31.067,63.646,32.28,62.555 M38.924,64.051c-0.023-0.019-0.041-0.04-0.057-0.057
		c-0.168-0.169-0.389-0.263-0.621-0.263c-0.238,0-0.459,0.094-0.627,0.263c-0.346,0.347-0.346,0.902,0,1.243
		c0.043,0.041,0.09,0.08,0.141,0.118c0.457,0.421,0.719,1.012,0.719,1.631c0,0.645-0.279,1.263-0.775,1.685l-0.018,0.013
		c-0.02,0.013-0.039,0.03-0.066,0.061c-0.166,0.162-0.252,0.384-0.252,0.621c0,0.235,0.086,0.458,0.252,0.622
		c0.168,0.169,0.389,0.263,0.627,0.263c0.232,0,0.453-0.094,0.621-0.263c0.027-0.027,0.057-0.061,0.086-0.098
		c0.809-0.752,1.266-1.811,1.266-2.903C40.219,65.874,39.754,64.803,38.924,64.051 M34.898,65.24
		c0.167-0.165,0.262-0.392,0.262-0.624c0-0.234-0.094-0.456-0.262-0.622c-0.17-0.169-0.389-0.258-0.622-0.258
		c-0.238,0-0.459,0.089-0.627,0.258c-0.012,0.017-0.032,0.038-0.046,0.057c-0.833,0.752-1.309,1.818-1.309,2.936
		c0,1.089,0.463,2.142,1.262,2.896c0.028,0.041,0.061,0.072,0.093,0.111c0.167,0.163,0.389,0.257,0.627,0.257
		c0.233,0,0.452-0.094,0.622-0.257c0.167-0.17,0.262-0.389,0.262-0.622c0-0.237-0.094-0.46-0.266-0.631
		c-0.02-0.02-0.034-0.03-0.052-0.044l-0.019-0.021c-0.494-0.426-0.785-1.04-0.785-1.688c0-0.619,0.262-1.206,0.715-1.631
		C34.805,65.322,34.855,65.285,34.898,65.24 M44.443,55.846c-0.041-0.045-0.098-0.082-0.154-0.124
		c-0.658-0.434-1.547-0.258-1.98,0.403c-0.406,0.613-0.277,1.436,0.289,1.894c0.018,0.014,0.039,0.021,0.055,0.037
		c0.018,0.013,0.037,0.034,0.059,0.044c2.705,1.987,4.471,5.192,4.471,8.804c0,6.033-4.893,10.919-10.924,10.919
		c-6.029,0-10.916-4.886-10.916-10.919c0-3.596,1.738-6.777,4.422-8.771h-0.004h0.004c0.653-0.444,0.82-1.326,0.379-1.978
		c-0.442-0.65-1.324-0.823-1.978-0.379c-0.042,0.025-0.08,0.057-0.122,0.091c-3.369,2.507-5.55,6.522-5.55,11.037
		c0,7.605,6.165,13.769,13.765,13.769c7.602,0,13.768-6.163,13.768-13.769C50.025,62.373,47.828,58.355,44.443,55.846"/>
</g>
<g id="campsa">
	<path id="XMLID_236_" fill-rule="evenodd" clip-rule="evenodd" fill="#F79239" d="M38.793,15.868h-11
		c-2.896,0-5.244,2.347-5.244,5.243c0,2.897,2.347,5.244,5.244,5.244l9.43-0.021c1.457,0,2.34-0.133,3.326-1.055l1.182-1.185
		c0.986-0.921,1.885-1.044,3.34-1.044l6.936,0.003c0.555,0,1.051-0.22,1.385-0.61l2.734-2.724l-9.168-0.007
		c-0.553,0-1.094,0.215-1.428,0.604l-1.623,1.675c-0.986,0.921-1.871,1.045-3.326,1.045l-12.754,0.016
		c-1.044,0-1.891-0.846-1.891-1.891s0.847-1.891,1.891-1.891l6.748,0.009c0.553,0,1.049-0.22,1.383-0.609L38.793,15.868
		L38.793,15.868z"/>
	<path id="XMLID_235_" fill-rule="evenodd" clip-rule="evenodd" fill="#F15D2F" d="M51.275,26.007l-9.092-0.011
		c-0.555,0-0.963,0.207-1.299,0.597l-1.637,1.663c-0.986,0.92-1.869,1.031-3.327,1.031h-8.128c-4.516,0-8.177-3.66-8.177-8.177
		c0-4.515,3.661-8.203,8.177-8.203l11.781,0.001c0.553,0,1.049-0.238,1.383-0.627l2.719-2.725H27.793
		c-6.381,0-11.553,5.173-11.553,11.554c0,6.382,5.172,11.556,11.553,11.556l4.616,0.006c1.456,0,2.455-0.213,3.441-1.134
		l1.179-1.187c0.988-0.921,1.93-1.05,3.385-1.05l6.748,0.003c0.553,0,1.051-0.22,1.385-0.609L51.275,26.007L51.275,26.007z"/>
	<path id="XMLID_225_" fill-rule="evenodd" clip-rule="evenodd" fill="#004FA3" d="M28.907,42.59c0,0.381,0.011,0.764,0.046,1.026
		h-1.779c-0.023-0.187-0.023-0.339-0.035-0.646l-0.779,0.705c-0.222,0.025-0.373,0.043-0.64,0.043c-2.035,0-2.151-1.045-2.151-1.301
		c0-0.813,0.86-1.136,1.174-1.238c0.477-0.145,1.011-0.188,1.535-0.188c0.372,0,0.698,0.034,0.861,0.051
		c-0.035-0.407-0.198-0.84-1.279-0.84c-0.744,0-1.43,0.213-1.814,0.331l0.849-1.078c0.512-0.085,1.023-0.136,1.546-0.136
		c0.42,0,1.221,0.025,1.802,0.356c0.651,0.374,0.664,0.874,0.664,1.163V42.59L28.907,42.59z M57.449,42.59
		c0,0.381,0.012,0.764,0.047,1.026h-1.779c-0.023-0.187-0.023-0.339-0.033-0.646l-0.779,0.705c-0.221,0.025-0.373,0.043-0.641,0.043
		c-2.033,0-2.15-1.045-2.15-1.301c0-0.813,0.859-1.136,1.174-1.238c0.477-0.145,1.012-0.188,1.535-0.188
		c0.371,0,0.697,0.034,0.861,0.051c-0.035-0.407-0.199-0.84-1.279-0.84c-0.744,0-1.432,0.213-1.814,0.331l0.848-1.078
		c0.512-0.085,1.023-0.136,1.547-0.136c0.42,0,1.223,0.025,1.803,0.356c0.652,0.374,0.662,0.874,0.662,1.163V42.59L57.449,42.59z
		 M43.303,39.422c0.186-0.043,0.428-0.102,0.777-0.102c1.535,0,2.479,0.865,2.479,2.14c0,1.46-1.246,2.259-2.652,2.259
		c-0.697,0-1.162-0.195-1.406-0.305v2.021h-1.896v-6.014H42.5v0.841L43.303,39.422L43.303,39.422z M21.596,43.664
		c-0.359,0.064-0.489,0.105-1.396,0.105c-2.94,0-4.673-1.352-4.673-3.082c0-1.69,1.639-3.219,4.825-3.219
		c0.93,0,1.639,0.127,2.198,0.246v1.334c-0.291-0.137-0.965-0.451-1.941-0.451c-1.814,0-2.849,0.926-2.849,2.021
		c0,1.155,1.116,2.055,3.023,2.055c0.732,0,1.465-0.119,2.139-0.322L21.596,43.664L21.596,43.664z M55.684,41.808
		c-0.141-0.007-0.42-0.025-0.547-0.025c-0.258,0-0.443,0.019-0.594,0.052c-0.559,0.109-0.641,0.398-0.641,0.535
		c0,0.295,0.303,0.51,0.92,0.51c0.371,0,0.697-0.095,0.861-0.146V41.808L55.684,41.808z M50.346,41.247
		c0.209,0.068,0.477,0.153,0.674,0.29c0.279,0.178,0.5,0.457,0.5,0.832c0,0.652-0.686,1.35-2.338,1.35
		c-0.313,0-1.15-0.025-1.965-0.305v-1.055c0.467,0.23,1.014,0.451,1.594,0.451c0.559,0,0.779-0.246,0.779-0.451
		c0-0.297-0.432-0.407-0.688-0.475l-0.521-0.137c-0.35-0.102-1.199-0.348-1.199-1.086c0-0.595,0.617-1.342,2.256-1.342
		c0.896,0,1.559,0.229,1.756,0.297v1.027c-0.186-0.136-0.639-0.45-1.383-0.45c-0.57,0-0.732,0.263-0.732,0.425
		c0,0.255,0.338,0.357,0.627,0.45L50.346,41.247L50.346,41.247z M42.5,42.496c0.104,0.059,0.418,0.236,0.859,0.236
		c0.768,0,1.256-0.508,1.256-1.256c0-0.306-0.092-0.629-0.314-0.857c-0.209-0.203-0.545-0.348-0.977-0.348
		c-0.303,0-0.559,0.059-0.824,0.17V42.496L42.5,42.496z M29.989,39.413h1.883v0.884l0.825-0.841c0.151-0.034,0.64-0.146,1.141-0.146
		c1.581,0,1.79,0.791,1.848,1.012l0.86-0.875c0.384-0.085,0.78-0.137,1.163-0.137c0.547,0,1.104,0.111,1.465,0.408
		c0.395,0.322,0.395,0.68,0.395,1.062v2.836h-1.883v-2.122c0-0.468-0.01-0.688-0.139-0.866c-0.164-0.221-0.479-0.314-0.828-0.314
		c-0.463,0-0.823,0.161-1.01,0.246c0.012,0.103,0.012,0.221,0.012,0.51v2.547h-1.883v-2.31c0-0.653-0.187-0.984-0.966-0.984
		c-0.36,0-0.687,0.094-1,0.221v3.073h-1.883V39.413L29.989,39.413z M27.14,41.808c-0.14-0.007-0.419-0.025-0.546-0.025
		c-0.256,0-0.443,0.019-0.593,0.052c-0.558,0.109-0.64,0.398-0.64,0.535c0,0.295,0.302,0.51,0.918,0.51
		c0.372,0,0.698-0.095,0.861-0.146V41.808L27.14,41.808z"/>
</g>
</svg>
