<?xml version="1.0" encoding="utf-8"?>
<!-- Generator: Adobe Illustrator 16.0.0, SVG Export Plug-In . SVG Version: 6.00 Build 0)  -->
<!DOCTYPE svg PUBLIC "-//W3C//DTD SVG 1.1//EN" "http://www.w3.org/Graphics/SVG/1.1/DTD/svg11.dtd">
<svg version="1.1" id="Layer_1" xmlns="http://www.w3.org/2000/svg" xmlns:xlink="http://www.w3.org/1999/xlink" x="0px" y="0px"
	 width="43px" height="60px" viewBox="0 0 43 60" enable-background="new 0 0 43 60" xml:space="preserve">
<path id="fondo_x5F_icono" fill="#FFFFFF" d="M42.054,21.176c0-11.286-9.154-20.44-20.439-20.44c-11.286,0-20.44,9.154-20.44,20.44
	c0,0.865,0.061,1.7,0.164,2.534c0.269,3.161,2.505,15.283,20.291,36.094c20.917-24.466,20.337-36.541,20.337-36.541
	C42.024,22.578,42.054,21.892,42.054,21.176"/>
<path fill="#F59720" d="M21.491,3.369c9.793,0,17.76,7.967,17.76,17.759c0,0.635-0.025,1.242-0.08,1.856l-0.025,0.144l0.018,0.21
	c-0.01,0.56-0.42,11.344-17.656,32.283C15.102,47.832,10.306,40.563,7.23,33.981c-2.7-5.778-3.237-9.298-3.343-10.543l-0.005-0.054
	l-0.007-0.056c-0.097-0.771-0.144-1.49-0.144-2.201C3.732,11.335,11.7,3.369,21.491,3.369 M21.491,0.582
	c-11.344,0-20.545,9.202-20.545,20.546c0,0.869,0.06,1.708,0.165,2.547c0.27,3.177,2.518,15.36,20.396,36.28
	c21.025-24.591,20.441-36.73,20.441-36.73c0.059-0.689,0.09-1.379,0.09-2.098C42.038,9.783,32.837,0.582,21.491,0.582"/>
<g id="carrefour">
	<path id="XMLID_197_" fill-rule="evenodd" clip-rule="evenodd" fill="#074C80" d="M8.855,23.627
		c0.435-0.105,0.984-0.105,1.285,0.277c0.058-0.115,0.101-0.277,0.254-0.295c0.139-0.025,0.349-0.005,0.377,0.167
		c0.053,0.229-0.009,0.474,0.01,0.707c-0.005,0.225,0.071,0.469-0.058,0.669c-0.129,0.139-0.353,0.143-0.525,0.091
		c-0.167-0.043-0.201-0.235-0.234-0.378c-0.042-0.186-0.076-0.416-0.271-0.497c-0.249-0.105-0.564-0.048-0.755,0.144
		c-0.23,0.267-0.288,0.635-0.288,0.974c0,0.334,0.039,0.688,0.244,0.965c0.215,0.32,0.745,0.349,1.003,0.066
		c0.162-0.195,0.063-0.478,0.158-0.697c0.196-0.292,0.716-0.195,0.812,0.139c0.077,0.282,0.039,0.597-0.109,0.851
		c-0.201,0.324-0.568,0.521-0.941,0.579c-0.431,0.076-0.899,0.082-1.301-0.125c-0.391-0.186-0.668-0.569-0.792-0.98
		c-0.152-0.487-0.143-1.022-0.01-1.509C7.857,24.23,8.297,23.753,8.855,23.627L8.855,23.627z"/>
	<path id="XMLID_196_" fill-rule="evenodd" clip-rule="evenodd" fill="#074C80" d="M20.557,5.997
		c0.875-0.196,1.805,0.034,2.542,0.525c0.436,0.282,0.803,0.664,1.107,1.085c0.126,0.209,0.284,0.449,0.195,0.702
		c-0.228,0.033-0.452-0.058-0.682-0.039c-0.443,0.01-0.855,0.301-1.056,0.693c-0.239,0.463-0.276,1.008-0.269,1.524
		c0.011,0.464,0.149,0.937,0.453,1.295c0.369,0.434,0.933,0.659,1.492,0.711c0.751,0.053,1.559-0.124,2.123-0.655
		c0.52-0.492,0.729-1.228,0.739-1.931c0.014-0.802-0.188-1.596-0.458-2.35c-0.139-0.411-0.44-0.741-0.617-1.132
		c0.014-0.033,0.048-0.091,0.068-0.124c0.074,0,0.167-0.024,0.218,0.047c2.118,2.155,4.234,4.31,6.347,6.465
		c0.229,0.247,0.491,0.539,0.462,0.902c-0.09,0.368-0.371,0.646-0.629,0.908c-1.993,2.006-3.985,4.009-5.979,6.016
		c-0.138,0.129-0.258,0.311-0.458,0.334c-0.016-0.034-0.044-0.096-0.063-0.129c0.043-0.287,0.202-0.534,0.311-0.798
		c0.124-0.282,0.268-0.549,0.354-0.846c0.12-0.43,0.269-0.86,0.288-1.313c0.019-0.526-0.02-1.052-0.092-1.573
		c-0.08-0.53-0.367-1.023-0.803-1.337c-0.589-0.44-1.362-0.607-2.083-0.479c-0.616,0.129-1.109,0.598-1.41,1.133
		c-0.334,0.579-0.396,1.281-0.239,1.92c0.087,0.33,0.206,0.666,0.417,0.937c0.238,0.311,0.688,0.482,1.064,0.339
		c0.12-0.039,0.238-0.085,0.363-0.052c0.205,0.186,0.086,0.492,0.005,0.711c-0.272,0.535-0.669,1.032-1.203,1.328
		c-0.679,0.383-1.483,0.559-2.256,0.435c-0.85-0.109-1.62-0.606-2.126-1.29c-0.736-0.971-1.06-2.179-1.275-3.365
		c-0.206-1.294-0.273-2.613-0.192-3.917c0.096-1.252,0.302-2.499,0.717-3.684c0.249-0.727,0.593-1.429,1.09-2.017
		C19.42,6.513,19.95,6.131,20.557,5.997L20.557,5.997z"/>
	<path id="XMLID_195_" fill-rule="evenodd" clip-rule="evenodd" fill="#ED3025" d="M15.306,6.656
		c0.129-0.115,0.234-0.258,0.387-0.344c0.058,0.01,0.115,0.024,0.172,0.043c0.024,0.195-0.12,0.344-0.215,0.501
		c-0.21,0.344-0.411,0.698-0.626,1.042c-0.592,0.964-0.879,2.073-1.084,3.177c-0.096,0.625-0.177,1.257-0.196,1.892
		c-0.086,1.219,0.023,2.447,0.291,3.637c0.253,1.032,0.612,2.049,1.161,2.966c0.206,0.393,0.45,0.765,0.675,1.147
		c0.057,0.071,0.042,0.167,0.038,0.253c-0.191,0.048-0.321-0.109-0.439-0.229c-2.136-2.103-4.286-4.186-6.417-6.288
		c-0.22-0.234-0.479-0.517-0.454-0.86c0.086-0.454,0.477-0.75,0.783-1.06C11.354,10.57,13.333,8.615,15.306,6.656L15.306,6.656z"/>
	<path id="XMLID_194_" fill-rule="evenodd" clip-rule="evenodd" fill="#074C80" d="M24.715,23.805
		c0.224-0.225,0.563-0.254,0.864-0.243c0.248,0.004,0.516,0.051,0.706,0.219c0.148,0.135,0.196,0.378,0.106,0.56
		c-0.135,0.214-0.463,0.233-0.659,0.09c-0.107-0.076-0.096-0.22-0.125-0.334c-0.072,0-0.168-0.019-0.219,0.043
		c-0.116,0.128-0.084,0.319-0.087,0.477c0.157-0.004,0.315-0.023,0.472-0.008c0.255,0.071,0.264,0.467,0.063,0.606
		c-0.162,0.033-0.335-0.005-0.502,0.015c-0.016,0.501-0.024,1.003,0.004,1.505c0.169,0.019,0.33-0.043,0.498-0.015
		c0.216,0.058,0.268,0.349,0.161,0.52c-0.081,0.12-0.233,0.144-0.366,0.135c-0.445-0.033-0.899-0.039-1.348-0.01
		c-0.163,0.01-0.359,0.038-0.488-0.095c-0.119-0.177-0.076-0.483,0.148-0.55c0.166-0.024,0.33,0.034,0.492,0.015
		c0.039-0.321,0.015-0.641,0.02-0.961c-0.005-0.186,0.034-0.387-0.049-0.564c-0.157,0.005-0.319,0.039-0.472,0.005
		c-0.207-0.086-0.201-0.397-0.073-0.545c0.174-0.128,0.407-0.048,0.607-0.053C24.484,24.335,24.494,24.011,24.715,23.805
		L24.715,23.805z"/>
	<path id="XMLID_193_" fill-rule="evenodd" clip-rule="evenodd" fill="#074C80" d="M11.646,24.694
		c0.302-0.177,0.655-0.202,0.989-0.192c0.301,0,0.621,0.034,0.879,0.201c0.157,0.1,0.248,0.282,0.262,0.463
		c0.058,0.512,0,1.023,0.039,1.534c0.124,0.053,0.277,0.053,0.396,0.125c0.12,0.167,0.068,0.444-0.118,0.54
		c-0.316,0.162-0.736,0.077-0.932-0.224c-0.368,0.282-0.855,0.348-1.305,0.272c-0.325-0.063-0.625-0.311-0.683-0.645
		c-0.034-0.23-0.024-0.478,0.109-0.679c0.101-0.158,0.282-0.249,0.464-0.296c0.292-0.095,0.606-0.105,0.898-0.202
		c0.125-0.037,0.258-0.115,0.296-0.252c0-0.125-0.062-0.259-0.181-0.311c-0.124-0.058-0.262-0.019-0.392,0.004
		c-0.033,0.148,0.028,0.354-0.129,0.44c-0.249,0.144-0.631,0.134-0.793-0.129C11.326,25.119,11.426,24.813,11.646,24.694
		L11.646,24.694z"/>
	<path id="XMLID_192_" fill-rule="evenodd" clip-rule="evenodd" fill="#074C80" d="M21.795,24.526
		c0.401-0.062,0.825-0.033,1.184,0.172c0.308,0.191,0.503,0.531,0.537,0.889c0.009,0.158,0.046,0.353-0.078,0.478
		c-0.075,0.034-0.161,0.028-0.238,0.034c-0.52,0-1.041-0.005-1.563,0c0.01,0.176,0.022,0.372,0.144,0.516
		c0.138,0.172,0.386,0.201,0.597,0.163c0.242-0.042,0.229-0.382,0.453-0.464c0.182-0.067,0.411-0.062,0.558,0.077
		c0.098,0.081,0.107,0.22,0.093,0.339c-0.028,0.215-0.189,0.382-0.368,0.492c-0.367,0.22-0.816,0.244-1.232,0.201
		c-0.393-0.043-0.77-0.262-0.975-0.607c-0.241-0.396-0.264-0.893-0.153-1.333C20.873,24.989,21.303,24.603,21.795,24.526
		L21.795,24.526z"/>
	<path id="XMLID_191_" fill-rule="evenodd" clip-rule="evenodd" fill="#074C80" d="M27.563,24.517
		c0.396-0.053,0.821-0.01,1.156,0.219c0.33,0.22,0.534,0.598,0.573,0.99c0.057,0.463-0.034,0.985-0.383,1.324
		c-0.273,0.292-0.688,0.401-1.08,0.392c-0.402,0.01-0.816-0.134-1.084-0.439c-0.345-0.382-0.408-0.946-0.312-1.434
		C26.529,25.019,27.008,24.574,27.563,24.517L27.563,24.517z"/>
	<path id="XMLID_190_" fill-rule="evenodd" clip-rule="evenodd" fill="#074C80" d="M16.186,24.641
		c0.238-0.139,0.54-0.143,0.798-0.062c0.415,0.148,0.583,0.735,0.311,1.074c-0.201,0.187-0.593,0.177-0.741-0.071
		c-0.071-0.115-0.038-0.258-0.029-0.392c-0.118,0.038-0.243,0.081-0.325,0.181c-0.152,0.192-0.167,0.449-0.167,0.684
		c0.009,0.229-0.024,0.462,0.028,0.687c0.158,0,0.315-0.042,0.473-0.032c0.311,0.061,0.296,0.625-0.029,0.654
		c-0.319,0.024-0.634-0.038-0.955-0.029c-0.287-0.009-0.574,0.062-0.855,0.024c-0.133-0.033-0.181-0.176-0.181-0.296
		c-0.01-0.134,0.029-0.311,0.176-0.349c0.149-0.015,0.292,0.023,0.44,0.028c0.034-0.243,0.014-0.487,0.019-0.73
		c-0.004-0.278,0.015-0.555-0.019-0.828c-0.148-0.009-0.291,0.02-0.435,0.024c-0.287-0.104-0.229-0.635,0.086-0.649
		c0.334,0.009,0.669,0.014,0.999,0.014c0.038,0.172,0.043,0.349,0.034,0.531C15.908,24.928,16.008,24.746,16.186,24.641
		L16.186,24.641z"/>
	<path id="XMLID_189_" fill-rule="evenodd" clip-rule="evenodd" fill="#074C80" d="M19.306,24.608
		c0.262-0.116,0.578-0.11,0.831,0.013c0.305,0.168,0.425,0.57,0.31,0.89c-0.12,0.319-0.615,0.367-0.813,0.1
		c-0.095-0.12-0.061-0.277-0.052-0.415c-0.311,0.042-0.469,0.358-0.478,0.64c-0.015,0.295-0.019,0.592,0,0.884
		c0.162,0.048,0.325-0.024,0.488-0.009c0.315,0.061,0.305,0.625-0.029,0.654c-0.287,0.024-0.573-0.029-0.861-0.029
		c-0.287-0.015-0.573,0.039-0.859,0.033c-0.31,0.005-0.339-0.444-0.167-0.62c0.157-0.082,0.344-0.006,0.51-0.006
		c0.038-0.257,0.02-0.521,0.024-0.778c-0.005-0.259,0.014-0.521-0.024-0.78c-0.144-0.009-0.291,0.02-0.435,0.02
		c-0.206-0.076-0.225-0.378-0.105-0.535c0.11-0.152,0.32-0.109,0.482-0.105c0.239,0.024,0.478-0.004,0.717,0.005
		c0.033,0.177,0.033,0.354,0.023,0.531C18.981,24.908,19.1,24.703,19.306,24.608L19.306,24.608z"/>
	<path id="XMLID_180_" fill-rule="evenodd" clip-rule="evenodd" fill="#074C80" d="M29.627,24.564
		c0.146-0.039,0.3-0.004,0.448-0.004c0.276,0.024,0.556-0.029,0.83-0.006c0.063,0.23,0.044,0.464,0.044,0.693
		c0.006,0.335-0.005,0.668,0.006,1.003c-0.006,0.158,0.065,0.33,0.219,0.393c0.171,0.067,0.401,0.038,0.512-0.121
		c0.095-0.147,0.104-0.334,0.114-0.51c0.004-0.272,0.01-0.545-0.014-0.817c-0.179-0.02-0.383,0.038-0.531-0.077
		c-0.104-0.152-0.104-0.387,0.043-0.51c0.097-0.087,0.235-0.058,0.353-0.058c0.326,0.034,0.656-0.015,0.981,0.004
		c0.02,0.073,0.042,0.144,0.047,0.216c0.02,0.649-0.019,1.3,0.02,1.949c0.191,0.029,0.411-0.066,0.578,0.058
		c0.109,0.153,0.109,0.406-0.033,0.536c-0.129,0.119-0.312,0.052-0.465,0.052c-0.266-0.033-0.538,0.029-0.812,0.01
		c-0.014-0.148-0.014-0.3-0.005-0.449c-0.286,0.491-0.984,0.668-1.476,0.396c-0.206-0.109-0.354-0.319-0.382-0.553
		c-0.063-0.521-0.007-1.047-0.05-1.572c-0.157-0.02-0.324,0.019-0.482-0.024C29.368,25.032,29.406,24.669,29.627,24.564
		L29.627,24.564z"/>
	<path id="XMLID_179_" fill-rule="evenodd" clip-rule="evenodd" fill="#074C80" d="M33.802,24.554
		c0.311,0.01,0.625,0.039,0.937,0.006c0.066,0.162,0.053,0.339,0.059,0.511c0.104-0.153,0.19-0.33,0.357-0.426
		c0.266-0.163,0.619-0.163,0.898-0.019c0.291,0.148,0.396,0.52,0.329,0.826c-0.077,0.358-0.625,0.45-0.836,0.158
		c-0.091-0.12-0.053-0.277-0.047-0.415c-0.11,0.033-0.226,0.066-0.304,0.157c-0.17,0.191-0.186,0.463-0.186,0.703
		c0,0.229-0.019,0.462,0.029,0.687c0.167,0,0.33-0.052,0.497-0.028c0.215,0.076,0.243,0.372,0.134,0.544
		c-0.087,0.12-0.253,0.115-0.387,0.115c-0.368-0.024-0.736-0.057-1.099-0.024c-0.178,0.004-0.359,0.043-0.53,0
		c-0.221-0.11-0.216-0.477-0.034-0.621c0.162-0.047,0.335,0.029,0.497-0.01c0.015-0.505,0.015-1.013-0.005-1.519
		c-0.182-0.082-0.436,0.114-0.56-0.091C33.401,24.913,33.52,24.541,33.802,24.554L33.802,24.554z"/>
	<path id="XMLID_178_" fill-rule="evenodd" clip-rule="evenodd" fill="#FFFFFF" d="M21.808,25.248
		c0.153-0.158,0.412-0.167,0.603-0.076c0.148,0.081,0.192,0.263,0.205,0.42c-0.316,0.01-0.636,0.01-0.957,0
		C21.684,25.468,21.713,25.333,21.808,25.248L21.808,25.248z"/>
	<path id="XMLID_177_" fill-rule="evenodd" clip-rule="evenodd" fill="#FFFFFF" d="M27.57,25.233
		c0.264-0.144,0.631-0.048,0.761,0.234c0.134,0.311,0.139,0.688,0,0.999c-0.135,0.348-0.664,0.41-0.89,0.124
		c-0.176-0.215-0.186-0.507-0.17-0.77C27.289,25.597,27.369,25.353,27.57,25.233L27.57,25.233z"/>
	<path id="XMLID_176_" fill-rule="evenodd" clip-rule="evenodd" fill="#FFFFFF" d="M12.215,26.308
		c0.229-0.091,0.473-0.119,0.702-0.2c0,0.2,0.019,0.426-0.125,0.587c-0.148,0.148-0.401,0.172-0.583,0.082
		C12.033,26.686,12.028,26.385,12.215,26.308L12.215,26.308z"/>
</g>
</svg>
