<?xml version="1.0" encoding="utf-8"?>
<!-- Generator: Adobe Illustrator 16.0.0, SVG Export Plug-In . SVG Version: 6.00 Build 0)  -->
<!DOCTYPE svg PUBLIC "-//W3C//DTD SVG 1.1//EN" "http://www.w3.org/Graphics/SVG/1.1/DTD/svg11.dtd">
<svg version="1.1" id="Layer_1" xmlns="http://www.w3.org/2000/svg" xmlns:xlink="http://www.w3.org/1999/xlink" x="0px" y="0px"
	 width="43px" height="60px" viewBox="0 0 43 60" enable-background="new 0 0 43 60" xml:space="preserve">
<path id="fondo_x5F_icono" fill="#FFFFFF" d="M42.054,21.176c0-11.286-9.154-20.44-20.439-20.44c-11.286,0-20.44,9.154-20.44,20.44
	c0,0.865,0.061,1.7,0.164,2.534c0.269,3.161,2.505,15.283,20.291,36.094c20.917-24.466,20.337-36.541,20.337-36.541
	C42.024,22.578,42.054,21.892,42.054,21.176"/>
<path fill="#F59720" d="M21.491,3.369c9.793,0,17.76,7.967,17.76,17.759c0,0.635-0.025,1.242-0.08,1.856l-0.025,0.144l0.018,0.21
	c-0.01,0.56-0.42,11.344-17.656,32.283C15.102,47.832,10.306,40.563,7.23,33.981c-2.7-5.778-3.237-9.298-3.343-10.543l-0.005-0.054
	l-0.007-0.056c-0.097-0.771-0.144-1.49-0.144-2.201C3.732,11.335,11.7,3.369,21.491,3.369 M21.491,0.582
	c-11.344,0-20.545,9.202-20.545,20.546c0,0.869,0.06,1.708,0.165,2.547c0.27,3.177,2.518,15.36,20.396,36.28
	c21.025-24.591,20.441-36.73,20.441-36.73c0.059-0.689,0.09-1.379,0.09-2.098C42.038,9.783,32.837,0.582,21.491,0.582"/>
<g id="XMLID_648_">
	<path id="XMLID_689_" fill="#E2231A" d="M13.138,22.53c-0.005-0.537-0.196-0.759-0.432-0.89c-0.241-0.129-0.549-0.141-0.762-0.161
		c-0.198-0.019-0.46-0.025-0.731-0.025c-0.543,0-1.123,0.025-1.35,0.026c-1.254,0.008-1.651,0.682-1.875,1.312
		c-0.216,0.627-0.672,2.816-0.738,3.492c-0.007,0.082-0.011,0.163-0.011,0.24c0,0.289,0.057,0.549,0.191,0.737
		c0.135,0.188,0.344,0.318,0.704,0.346c0.409,0.03,0.898,0.049,1.379,0.049c0.543,0,1.079-0.023,1.474-0.078
		c0.828-0.104,1.368-0.737,1.447-1.09l0.183-1.056h-1.507l-0.055,0.277c-0.061,0.344-0.375,0.633-0.848,0.666H9.48
		c-0.201,0-0.371-0.09-0.479-0.223c-0.11-0.13-0.165-0.301-0.165-0.47c0-0.048,0.003-0.096,0.013-0.146l0.422-1.949
		c0.025-0.128,0.086-0.319,0.21-0.489c0.121-0.169,0.323-0.319,0.599-0.32h0.897c0.062,0.001,0.193,0,0.317,0.084
		c0.127,0.084,0.217,0.255,0.214,0.512c0,0.051-0.002,0.106-0.01,0.167h1.488l0.126-0.679C13.131,22.74,13.138,22.63,13.138,22.53
		L13.138,22.53z"/>
	<path id="XMLID_684_" fill="#E2231A" d="M29.893,21.633c-0.182-0.101-0.415-0.13-0.57-0.154c-0.204-0.033-0.716-0.052-1.248-0.051
		c-0.591-0.001-1.219,0.022-1.509,0.067c-1.006,0.151-1.336,0.867-1.426,1.32l-0.205,0.984c-0.016,0.092-0.023,0.181-0.023,0.267
		c0.012,0.461,0.194,0.801,0.843,0.888c0.853,0.094,1.482,0.124,1.895,0.155c0.368,0.022,0.524,0.296,0.516,0.479
		c0,0.016,0,0.028-0.001,0.042c-0.013,0.118-0.002,0.168-0.091,0.487l-0.006,0.016c-0.07,0.154-0.225,0.24-0.394,0.313
		c-0.171,0.07-0.357,0.114-0.513,0.114h-0.647c-0.226,0-0.384-0.038-0.497-0.124c-0.115-0.086-0.152-0.22-0.151-0.334
		c0-0.109,0.027-0.217,0.051-0.313h-1.426l-0.171,0.934c-0.004,0.027-0.005,0.054-0.005,0.081c0.004,0.348,0.239,0.724,0.817,0.791
		c0.288,0.033,0.932,0.045,1.507,0.045c0.431,0,0.826-0.007,1.013-0.015c1.147-0.063,1.719-0.521,1.917-1.184l0.269-1.214
		c0.021-0.1,0.032-0.193,0.032-0.278c-0.002-0.266-0.09-0.455-0.26-0.602c-0.171-0.146-0.437-0.249-0.787-0.29
		c-0.003,0-1.394-0.142-1.67-0.166c-0.106-0.011-0.25-0.028-0.383-0.08c-0.125-0.047-0.269-0.15-0.27-0.333
		c0-0.013,0-0.028,0.002-0.041c0.022-0.165,0.053-0.461,0.153-0.632c0.09-0.134,0.277-0.238,0.557-0.256
		c0.101-0.006,0.238-0.008,0.371-0.008c0.156,0,0.304,0.002,0.388,0.008c0.052,0.004,0.211-0.006,0.365,0.061
		c0.159,0.062,0.306,0.239,0.3,0.515c0,0.037-0.002,0.076-0.006,0.117h1.389l0.164-0.764c0.02-0.102,0.028-0.191,0.028-0.271
		C30.206,21.881,30.072,21.736,29.893,21.633L29.893,21.633z"/>
	<path id="XMLID_665_" fill="#E2231A" d="M14.344,21.511l-0.982,4.684c-0.025,0.102-0.038,0.197-0.038,0.287
		c0.002,0.57,0.472,0.957,1.23,0.964h2.873l0.24-1.207h-2.735c-0.035,0-0.069-0.016-0.09-0.043
		c-0.022-0.026-0.032-0.063-0.025-0.098l0.194-0.969c0.01-0.055,0.059-0.095,0.115-0.095h2.62l0.205-1.037h-2.548
		c-0.034,0-0.069-0.015-0.091-0.043c-0.022-0.027-0.031-0.063-0.024-0.098l0.191-0.944c0.011-0.055,0.06-0.095,0.115-0.095h2.813
		l0.284-1.306H14.344L14.344,21.511z"/>
	<path id="XMLID_656_" fill="#E2231A" d="M20.822,22.911c0.011-0.054,0.059-0.094,0.115-0.094h1.278
		c0.053,0.001,0.168,0.009,0.289,0.072c0.121,0.061,0.244,0.204,0.241,0.415c0,0.043-0.005,0.089-0.013,0.137l-0.001,0.006
		l-0.178,0.721c-0.032,0.188-0.149,0.312-0.27,0.374c-0.118,0.063-0.237,0.074-0.313,0.075h-1.373c-0.035,0-0.069-0.016-0.091-0.044
		c-0.023-0.027-0.031-0.063-0.024-0.099L20.822,22.911L20.822,22.911z M19.851,27.446l0.313-1.524
		c0.012-0.055,0.06-0.094,0.115-0.094h2.223c0.525,0,1.328-0.387,1.522-1.243l0.365-1.691c0.024-0.117,0.035-0.227,0.035-0.327
		c0-0.69-0.513-1.049-0.998-1.055h-3.803l-1.251,5.935H19.851L19.851,27.446z"/>
	<path id="XMLID_653_" fill="#E2231A" d="M32.444,24.617c-0.034,0-0.067-0.017-0.09-0.043c-0.022-0.027-0.033-0.063-0.025-0.098
		l0.297-1.563c0.011-0.056,0.061-0.096,0.116-0.096l1.402,0.001c0.094,0.008,0.229,0.002,0.362,0.065
		c0.138,0.061,0.241,0.223,0.235,0.447c0,0.064-0.006,0.132-0.019,0.208l-0.001,0.006l-0.216,0.979
		c-0.012,0.055-0.06,0.093-0.114,0.093H32.444L32.444,24.617z M35.424,27.446l0.998-4.534c0.024-0.125,0.036-0.238,0.036-0.34
		c-0.002-0.429-0.185-0.672-0.426-0.833c-0.241-0.16-0.555-0.221-0.781-0.228h-3.854l-1.272,5.935h1.509l0.345-1.525
		c0.012-0.054,0.059-0.093,0.115-0.093h1.971c0.035,0,0.068,0.017,0.091,0.043c0.023,0.028,0.031,0.063,0.025,0.098l-0.281,1.478
		H35.424L35.424,27.446z"/>
</g>
<g id="XMLID_695_">
	<path id="XMLID_652_" fill="#E2231A" d="M13.327,12.342c-0.275,0-0.341-0.219,0.081-0.531c0.793-0.584,1.542-1.195,1.677-1.297
		c0.167-0.125,0.364-0.215,0.612-0.215h2.35c0.159,0,0.341-0.065,0.48-0.172c0.642-0.495,2.447-1.888,2.488-1.922
		c0.213-0.175,0.463-0.093,0.405,0.176c-0.212,1-0.487,2.342-0.515,2.47c-0.154,0.728-1.253,1.491-2.227,1.491H13.327L13.327,12.342
		z"/>
	<path id="XMLID_651_" fill="#E2231A" d="M19.415,17.87c-0.088,0.417-0.358,0.687-0.556,0.831c-0.771,0.563-1.745,1.269-1.799,1.309
		c-0.151,0.114-0.396,0.081-0.34-0.193c0.036-0.165,0.613-3.124,0.901-4.479c0.036-0.176,0-0.323-0.324-0.323h-4.696
		c-0.209,0-0.383-0.158-0.057-0.415c0.206-0.162,1.158-0.893,1.837-1.384c0.196-0.133,0.401-0.218,0.657-0.218h3.298
		c1.089,0,1.95,0.696,1.723,1.764C19.861,15.688,19.618,16.92,19.415,17.87L19.415,17.87z"/>
	<path id="XMLID_650_" fill="#E2231A" d="M28.499,12.978c0.274,0,0.357,0.222-0.081,0.53c-0.804,0.57-1.553,1.196-1.688,1.298
		c-0.167,0.124-0.365,0.214-0.611,0.214h-2.351c-0.159,0-0.342,0.065-0.48,0.173c-0.643,0.495-2.446,1.888-2.487,1.922
		c-0.213,0.174-0.463,0.094-0.405-0.176c0.212-0.999,0.487-2.341,0.514-2.47c0.156-0.728,1.255-1.491,2.229-1.491H28.499
		L28.499,12.978z"/>
	<path id="XMLID_649_" fill="#E2231A" d="M22.398,7.45c0.09-0.417,0.361-0.687,0.559-0.831c0.77-0.563,1.743-1.268,1.798-1.309
		c0.152-0.112,0.398-0.08,0.34,0.193c-0.035,0.166-0.612,3.125-0.9,4.479c-0.037,0.178,0,0.325,0.323,0.325h4.744
		c0.208,0,0.382,0.158,0.054,0.414c-0.206,0.162-1.702,1.301-1.834,1.385c-0.196,0.133-0.402,0.217-0.657,0.217H23.48
		c-1.09,0-1.951-0.695-1.724-1.763C21.953,9.632,22.196,8.399,22.398,7.45L22.398,7.45z"/>
</g>
</svg>
