<?xml version="1.0" encoding="utf-8"?>
<!-- Generator: Adobe Illustrator 16.0.0, SVG Export Plug-In . SVG Version: 6.00 Build 0)  -->
<!DOCTYPE svg PUBLIC "-//W3C//DTD SVG 1.1//EN" "http://www.w3.org/Graphics/SVG/1.1/DTD/svg11.dtd" [
	<!ENTITY ns_flows "http://ns.adobe.com/Flows/1.0/">
	<!ENTITY ns_extend "http://ns.adobe.com/Extensibility/1.0/">
	<!ENTITY ns_ai "http://ns.adobe.com/AdobeIllustrator/10.0/">
	<!ENTITY ns_graphs "http://ns.adobe.com/Graphs/1.0/">
]>
<svg version="1.1" id="Layer_1" xmlns:x="&ns_extend;" xmlns:i="&ns_ai;" xmlns:graph="&ns_graphs;"
	 xmlns="http://www.w3.org/2000/svg" xmlns:xlink="http://www.w3.org/1999/xlink" xmlns:a="http://ns.adobe.com/AdobeSVGViewerExtensions/3.0/"
	 x="0px" y="0px" width="43px" height="60px" viewBox="0 0 43 60" enable-background="new 0 0 43 60" xml:space="preserve">
<path id="fondo_x5F_icono" fill="#FFFFFF" d="M42.054,21.176c0-11.286-9.154-20.44-20.439-20.44c-11.286,0-20.44,9.154-20.44,20.44
	c0,0.865,0.061,1.7,0.164,2.534c0.269,3.161,2.505,15.283,20.291,36.094c20.917-24.466,20.337-36.541,20.337-36.541
	C42.024,22.578,42.054,21.892,42.054,21.176"/>
<path fill="#F59720" d="M21.491,3.369c9.793,0,17.76,7.967,17.76,17.759c0,0.635-0.025,1.242-0.08,1.856l-0.025,0.144l0.018,0.21
	c-0.01,0.56-0.42,11.344-17.656,32.283C15.102,47.832,10.306,40.563,7.23,33.981c-2.7-5.778-3.237-9.298-3.343-10.543l-0.005-0.054
	l-0.007-0.056c-0.097-0.771-0.144-1.49-0.144-2.201C3.732,11.335,11.7,3.369,21.491,3.369 M21.491,0.582
	c-11.344,0-20.545,9.202-20.545,20.546c0,0.869,0.06,1.708,0.165,2.547c0.27,3.177,2.518,15.36,20.396,36.28
	c21.025-24.591,20.441-36.73,20.441-36.73c0.059-0.689,0.09-1.379,0.09-2.098C42.038,9.783,32.837,0.582,21.491,0.582"/>
<g id="XMLID_13_">
	<path id="XMLID_1019_" fill="#1A659C" d="M7.916,21.843c0.003-0.022,0.006-0.045,0.008-0.067c0.002-0.022,0.004-0.044,0.005-0.066
		v0.001c0.056-0.226,0.076-0.458,0.091-0.689c0.009-0.157,0.069-0.191,0.212-0.185c0.216,0.011,0.432-0.001,0.647,0.004
		c1.487,0.036,2.976-0.082,4.461,0.072h0.001c0.021,0.006,0.044,0.013,0.064,0.019c0.022,0.004,0.046,0.009,0.068,0.013
		c0.188,0.068,0.377,0.135,0.565,0.203l0.014,0.006c0.106,0.061,0.213,0.122,0.319,0.183c0.005,0.01,0.013,0.013,0.023,0.012
		c0.261,0.192,0.503,0.405,0.707,0.659c0.016,0.022,0.031,0.044,0.046,0.066c0.074,0.122,0.147,0.243,0.221,0.364l0.001,0.001
		c0.113,0.282,0.203,0.569,0.241,0.875c0.045,0.369-0.019,0.726-0.078,1.085v0.001c-0.004,0.009-0.008,0.019-0.011,0.028
		c-0.007,0.024-0.013,0.048-0.02,0.072c-0.039,0.111-0.08,0.222-0.12,0.332c-0.006,0.019-0.013,0.038-0.018,0.056
		c-0.274,0.56-0.637,1.047-1.136,1.427c-0.352,0.268-0.744,0.455-1.154,0.608c-0.033,0.011-0.066,0.021-0.1,0.032
		c-0.166,0.035-0.331,0.071-0.498,0.106c-0.032,0.003-0.065,0.007-0.099,0.009c-0.159,0.007-0.319,0.021-0.479,0.021
		c-1.439,0.002-2.881,0-4.321,0c-0.279,0-0.278,0-0.253-0.269c0.002-0.033,0.001-0.066,0.002-0.099c0-0.011,0.001-0.022,0.002-0.033
		c0.062-0.319,0.089-0.642,0.122-0.964c0.003-0.034,0.006-0.068,0.01-0.103c0.021-0.165,0.041-0.33,0.062-0.495
		c0.002-0.033,0.004-0.066,0.007-0.098c0.06-0.341,0.101-0.685,0.125-1.03c0.003-0.022,0.005-0.044,0.007-0.067
		c0.083-0.552,0.152-1.104,0.2-1.661v0.001C7.899,22.133,7.913,21.988,7.916,21.843z M10.548,26.061L10.548,26.061
		c0.111,0,0.222,0.001,0.332,0c0.614-0.008,1.12-0.25,1.504-0.724c0.529-0.654,0.692-1.416,0.568-2.233
		c-0.109-0.713-0.523-1.104-1.238-1.208c-0.385-0.057-0.774-0.012-1.161-0.025c-0.107-0.004-0.093,0.07-0.101,0.133
		c-0.05,0.417-0.101,0.834-0.15,1.252c-0.108,0.89-0.213,1.78-0.327,2.669c-0.016,0.12,0.018,0.142,0.126,0.137
		C10.249,26.056,10.398,26.061,10.548,26.061z"/>
	<path id="XMLID_1016_" fill="#1A659C" d="M36.642,22.306c-0.004,0.035-0.006,0.068-0.012,0.103
		c-0.02,0.154-0.039,0.309-0.059,0.463c-0.002,0.033-0.004,0.066-0.008,0.099c-0.059,0.33-0.094,0.662-0.123,0.996
		c-0.002,0.034-0.006,0.068-0.01,0.103c-0.084,0.529-0.141,1.061-0.195,1.593c0,0.022-0.002,0.045-0.004,0.067
		c-0.039,0.152-0.051,0.308-0.059,0.464c-0.004,0.033-0.006,0.066-0.01,0.1c-0.057,0.262-0.072,0.529-0.102,0.794
		c-0.01,0.004-0.021,0.008-0.031,0.012c-0.055-0.002-0.111-0.007-0.164-0.007c-1.279,0-2.557-0.007-3.834,0.002
		c-0.607,0.005-1.205-0.02-1.781-0.233c-0.006-0.008-0.014-0.011-0.023-0.008c-0.133-0.068-0.266-0.132-0.395-0.206
		c-0.598-0.344-1-0.852-1.238-1.493c-0.006-0.02-0.008-0.039-0.014-0.057c-0.186-0.716-0.109-1.409,0.184-2.082
		c0.219-0.499,0.553-0.911,0.949-1.277l0.002-0.002c0.465-0.375,0.986-0.638,1.561-0.794l0.004-0.001
		c0.299-0.051,0.598-0.103,0.904-0.102c1.482,0.001,2.965,0.004,4.449-0.004c0.16,0,0.178,0.049,0.158,0.188
		C36.737,21.45,36.692,21.879,36.642,22.306z M32.972,26.062c0.199,0,0.359-0.008,0.52,0.002c0.115,0.008,0.148-0.034,0.16-0.145
		c0.156-1.307,0.316-2.613,0.48-3.92c0.014-0.11-0.021-0.131-0.121-0.129c-0.266,0.006-0.531-0.002-0.799,0.002
		c-0.5,0.008-0.947,0.173-1.305,0.526c-0.67,0.661-0.881,1.479-0.762,2.389c0.096,0.729,0.512,1.132,1.236,1.252
		C32.591,26.075,32.8,26.056,32.972,26.062z"/>
	<path id="XMLID_1015_" fill="#1A659C" d="M21.081,26.922l-0.006-0.007l-0.009,0.003c-0.227-0.079-0.443-0.183-0.682-0.225
		c-0.021-0.016-0.042-0.033-0.063-0.049c-0.104-0.052-0.205-0.107-0.311-0.154c-0.094-0.042-0.091-0.083-0.024-0.154
		c0.176-0.191,0.353-0.383,0.514-0.585c0.066-0.082,0.116-0.094,0.207-0.057c0.24,0.1,0.481,0.192,0.741,0.232
		c0.629,0.179,1.271,0.216,1.922,0.208c0.188-0.002,0.375-0.012,0.559-0.067c0.354-0.107,0.443-0.396,0.203-0.674
		c-0.279-0.323-0.643-0.54-1.004-0.755c-0.386-0.229-0.783-0.435-1.148-0.696c-0.194-0.14-0.379-0.289-0.538-0.466
		c-0.601-0.668-0.524-1.501,0.188-2.052c0.479-0.369,1.037-0.547,1.621-0.639c1.652-0.262,3.262-0.086,4.826,0.511
		c0.035,0.014,0.078,0.016,0.102,0.067c-0.191,0.215-0.389,0.431-0.578,0.653c-0.063,0.072-0.121,0.032-0.18,0.016
		c-0.734-0.21-1.482-0.303-2.246-0.304c-0.221,0-0.441,0.014-0.656,0.078c-0.086,0.026-0.166,0.06-0.236,0.115
		c-0.158,0.12-0.186,0.29-0.074,0.452c0.045,0.063,0.098,0.121,0.158,0.169c0.27,0.222,0.572,0.393,0.895,0.532
		c0.113,0.085,0.242,0.142,0.373,0.192l0.004,0.001c0.104,0.058,0.207,0.117,0.311,0.174c0.381,0.21,0.76,0.422,1.098,0.702
		c0.322,0.269,0.57,0.584,0.619,1.02c0,0.044,0,0.088,0,0.132c0,0.022-0.002,0.044-0.004,0.066c-0.006,0.01-0.008,0.02-0.002,0.03
		c-0.096,0.583-0.398,1.022-0.898,1.331c-0.01,0.007-0.025,0.015-0.035,0.022c-0.305,0.168-0.637,0.264-0.965,0.371l-0.002-0.003
		c-0.307,0.047-0.615,0.095-0.924,0.143c-0.02,0.001-0.045,0.002-0.064,0.004c-0.166,0-0.332,0-0.496,0.03l-0.004,0.001
		c-0.385-0.009-0.773-0.017-1.16-0.025c-0.057-0.003-0.111-0.006-0.168-0.009C22.315,27.185,21.692,27.086,21.081,26.922z"/>
	<path id="XMLID_1014_" fill="#1A659C" d="M17.262,20.814c0.786,0.014,1.572,0.014,2.358,0c0.083,0.003,0.154,0.021,0.134,0.129
		c-0.006,0.035-0.01,0.068-0.017,0.103c-0.058,0.486-0.117,0.972-0.176,1.458c-0.002,0.022-0.004,0.045-0.006,0.067
		c-0.059,0.33-0.094,0.662-0.124,0.995c-0.07,0.586-0.141,1.173-0.211,1.76c-0.038,0.176-0.061,0.354-0.063,0.534
		c-0.008,0.01-0.008,0.02-0.004,0.03c-0.063,0.32-0.089,0.644-0.122,0.967c-0.003,0.034-0.006,0.068-0.008,0.102
		c-0.023,0.062-0.021,0.133-0.129,0.132c-0.824-0.006-1.649-0.005-2.473-0.001c-0.096,0-0.112-0.033-0.101-0.118
		c0.017-0.104,0.021-0.208,0.031-0.313c0.004-0.035,0.008-0.07,0.012-0.105c0.017-0.132,0.034-0.264,0.052-0.396
		c0.001-0.022,0.003-0.045,0.005-0.068c0.044-0.329,0.114-0.656,0.108-0.991c0.005-0.069-0.009-0.141,0.035-0.202
		c0.009-0.032,0.021-0.064,0.024-0.096c0.067-0.554,0.137-1.108,0.203-1.662c0.057-0.477,0.11-0.955,0.165-1.432
		c0.002-0.022,0.004-0.044,0.006-0.066c0.029-0.207,0.07-0.414,0.082-0.623C17.054,20.866,17.112,20.802,17.262,20.814z"/>
</g>
<g id="XMLID_808_">
	<path id="XMLID_1013_" fill="#6DB85C" d="M20.82,16.134c-0.014-0.001-0.025,0.001-0.036,0.006c-0.763,0.11-1.518,0.249-2.256,0.473
		l-0.002,0.001c-0.18,0.013-0.332,0.121-0.504,0.158c-0.06,0.046-0.225-0.145-0.199,0.089l-0.003-0.01
		c-0.016,0.018-0.03,0.035-0.045,0.053c-0.024,0.012-0.048,0.023-0.073,0.035c-0.091-0.086-0.183-0.089-0.305-0.049
		c-0.16,0.053-0.304-0.05-0.386-0.167c-0.08-0.116,0.028-0.213,0.128-0.287c0.12-0.087,0.236-0.179,0.354-0.271
		c0.457-0.36,0.888-0.761,1.454-0.956c0.068-0.023,0.16-0.041,0.173-0.142c0.026,0,0.052,0,0.078,0
		c0.027,0.041,0.054,0.04,0.08-0.001c0.061,0.005,0.082-0.062,0.134-0.075c0.5-0.127,0.976-0.321,1.447-0.524
		c0.152-0.03,0.272-0.094,0.279-0.273c0.013-0.001,0.026-0.001,0.038-0.001c0.055,0,0.08-0.025,0.08-0.079
		c0.025-0.04,0.085-0.057,0.08-0.118c0.172-0.079,0.276-0.212,0.314-0.396l0.002-0.001c0.108-0.01,0.072-0.095,0.08-0.156
		c0.014,0,0.025-0.001,0.039-0.002c0.258-0.129,0.445-0.36,0.436-0.541c-0.09,0.016-0.115,0.139-0.209,0.132
		c-0.426-0.029-0.861,0.084-1.273-0.106c-0.229-0.107-0.494-0.077-0.726-0.16c-0.245-0.088-0.481-0.214-0.736-0.265
		c-0.229-0.046-0.423-0.172-0.625-0.264c-0.427-0.194-0.825-0.452-1.236-0.683c-0.261-0.146-0.508-0.312-0.627-0.601
		c-0.078-0.192-0.188-0.358-0.318-0.517c-0.056-0.067-0.091-0.146-0.053-0.238c0.053-0.126,0.007-0.232-0.08-0.324
		c-0.134-0.141-0.176-0.321-0.211-0.501c-0.018-0.086-0.011-0.197,0.12-0.161c0.124,0.034,0.251,0.037,0.377,0.094
		c0.289,0.131,0.569,0.29,0.883,0.367c0.574,0.142,1.116,0.374,1.658,0.606c0.167,0.072,0.326,0.165,0.497,0.227
		c0.302,0.109,0.572,0.291,0.89,0.364c0.09,0.021,0.142,0.136,0.26,0.12c0.112-0.016,0.205,0.036,0.281,0.116
		c0.195,0.206,0.448,0.347,0.696,0.458c0.302,0.136,0.61,0.263,0.917,0.395c0.281,0.12,0.705-0.041,0.857-0.315
		c0.129-0.236,0.248-0.486,0.42-0.688c0.271-0.317,0.588-0.595,0.891-0.884c0.17-0.164,0.326-0.344,0.41-0.585
		c0.17-0.487,0.242-0.645,0.842-0.638c0.412,0.004,0.824,0.042,1.236,0.004c0.215-0.021,0.43,0.068,0.648,0.032l-0.002,0
		c0.006,0.021,0.014,0.033,0.035,0.013c0.025-0.006,0.035,0.008,0.041,0.029c0.041,0.159,0.16,0.171,0.293,0.158l0.014-0.004
		l0.012,0.008c-0.025,0.085,0.141,0.061,0.094,0.162c-0.025,0.055-0.066,0.08-0.125,0.074c-0.281-0.029-0.436,0.23-0.678,0.294
		c-0.002,0.001-0.004,0.012-0.004,0.019c-0.025,0.004-0.051,0.007-0.076,0.011c-0.09-0.08-0.129-0.013-0.162,0.061
		c-0.289,0.122-0.584,0.233-0.793,0.486v0c-0.242,0.16-0.42,0.38-0.557,0.631l0,0c-0.035,0.014-0.049,0.041-0.051,0.076l0.004-0.003
		c-0.01,0.016-0.021,0.032-0.035,0.048l0.002-0.002c-0.279,0.331-0.479,0.708-0.639,1.107h0.002
		c-0.021,0.018-0.045,0.036-0.064,0.053c-0.02-0.082,0.002-0.155,0.041-0.228c0.035-0.071,0-0.104-0.068-0.089
		c-0.207,0.044-0.414,0.033-0.623,0.032c-0.287-0.001-0.555,0.074-0.816,0.193c-0.195,0.09-0.318,0.278-0.488,0.385
		c-0.367,0.229-0.705,0.495-1.045,0.758c-0.086,0.066-0.189,0.106-0.256,0.209c-0.162,0.249-0.335,0.493-0.527,0.718
		c-0.24,0.277-0.571,0.461-0.786,0.768c-0.117,0.165-0.162,0.569-0.051,0.74c0.033,0.05,0.077,0.056,0.127,0.076
		c0.251,0.098,0.53,0.119,0.761,0.271C21.335,16.043,21.061,16.024,20.82,16.134z"/>
	<path id="XMLID_1012_" fill="#60A150" d="M27.997,8.881c-0.219,0.036-0.434-0.053-0.648-0.032c-0.412,0.039-0.824,0-1.236-0.004
		c-0.6-0.007-0.672,0.151-0.842,0.638c-0.084,0.241-0.24,0.422-0.41,0.585c-0.303,0.289-0.619,0.567-0.891,0.884
		c-0.172,0.203-0.291,0.453-0.42,0.688c-0.152,0.275-0.576,0.436-0.857,0.315c-0.307-0.132-0.615-0.259-0.917-0.395
		c-0.248-0.112-0.501-0.252-0.696-0.458c-0.076-0.081-0.169-0.132-0.281-0.116c-0.118,0.017-0.17-0.099-0.26-0.12
		c-0.317-0.073-0.588-0.254-0.89-0.364c-0.171-0.062-0.33-0.155-0.497-0.227c-0.542-0.232-1.084-0.464-1.658-0.606
		c-0.313-0.077-0.594-0.235-0.883-0.367c-0.126-0.057-0.253-0.06-0.377-0.094c-0.131-0.036-0.138,0.075-0.12,0.161
		c0.035,0.181,0.077,0.361,0.211,0.501c0.087,0.092,0.133,0.198,0.08,0.324c-0.038,0.093-0.003,0.171,0.053,0.238
		c0.13,0.158,0.24,0.325,0.318,0.517c0.119,0.289,0.366,0.454,0.627,0.601c0.411,0.231,0.81,0.489,1.236,0.683
		c0.202,0.092,0.396,0.218,0.625,0.264c0.255,0.051,0.491,0.177,0.736,0.265c0.231,0.083,0.496,0.053,0.726,0.16
		c0.412,0.191,0.848,0.077,1.273,0.106c0.094,0.007,0.119-0.117,0.209-0.132c0.01,0.181-0.178,0.412-0.436,0.541
		c0-0.106,0.1-0.165,0.127-0.271c-0.156,0.068-0.315,0.109-0.473,0.156c-0.006,0.003-0.008,0.024-0.012,0.036
		c-0.078,0-0.156,0.001-0.236,0.002c-0.364,0.03-0.693-0.181-1.058-0.165c-0.013,0-0.027-0.005-0.036-0.013
		c-0.267-0.232-0.627-0.221-0.933-0.36c-0.307-0.139-0.645-0.208-0.932-0.404c-0.08-0.054-0.176-0.115-0.268-0.118
		c-0.234-0.009-0.384-0.191-0.588-0.266c-0.233-0.085-0.46-0.239-0.669-0.398c-0.336-0.254-0.746-0.403-1.035-0.722
		c-0.101-0.111-0.206-0.188-0.354-0.206c-0.022-0.002-0.044-0.005-0.066-0.007l0.001,0.001c-0.055-0.143-0.135-0.272-0.218-0.4
		c-0.007-0.011-0.013-0.022-0.021-0.033c-0.177-0.405-0.333-0.818-0.476-1.236c0.004-0.011,0.002-0.022-0.007-0.03
		c-0.069-0.317-0.139-0.634-0.207-0.952l0.014,0.002c0.103-0.061,0.232-0.138,0.326-0.061c0.176,0.146,0.394,0.177,0.587,0.269
		c0.281,0.133,0.521,0.354,0.849,0.388c0.041,0.004,0.078,0.045,0.119,0.066c0.412,0.212,0.836,0.412,1.276,0.542
		c0.36,0.105,0.704,0.249,1.046,0.383c0.317,0.125,0.615,0.318,0.923,0.479c0.383,0.2,0.773,0.38,1.172,0.547
		c0.013,0,0.025,0.001,0.038,0.001c0.153,0.224,0.397,0.303,0.634,0.396c0.013,0,0.025,0.001,0.039,0.001
		c-0.008,0.067,0.024,0.108,0.08,0.143c0.308,0.2,0.615,0.397,0.992,0.45c0.025,0,0.051,0,0.076,0c0,0.072,0.059,0.083,0.108,0.093
		c0.303,0.059,0.581-0.006,0.774-0.252c0.383-0.492,0.756-0.994,1.096-1.519c0.084-0.127,0.117-0.265,0.121-0.41
		c0.01-0.508,0.666-1.054,1.119-1.081c0.461-0.026,0.92,0.024,1.379,0.041c0.174,0.006,0.355-0.044,0.518,0.069
		c0.037,0.026,0.09,0.007,0.119-0.039C27.831,8.651,27.938,8.746,27.997,8.881z"/>
	<path id="XMLID_1011_" fill="#1D6332" d="M18.285,13.837c0.012-0.008,0.023-0.017,0.036-0.026c0.103-0.092,0.211-0.099,0.341-0.046
		c0.169,0.07,0.351,0.1,0.542,0.087c-0.4-0.1-0.744-0.325-1.113-0.492v0c-0.037-0.025-0.073-0.053-0.111-0.076
		c-0.449-0.259-0.894-0.527-1.273-0.886c0.147-0.055,0.28-0.014,0.416,0.051c0.163,0.078,0.318,0.168,0.499,0.221
		c0.171,0.05,0.353,0.099,0.512,0.175c0.366,0.176,0.744,0.311,1.13,0.423c0.324,0.094,0.617,0.272,0.96,0.315
		c0.124,0.016,0.26-0.018,0.405,0.052c-0.148,0.083-0.289,0.138-0.4,0.229c-0.264,0.214-0.578,0.317-0.881,0.45
		c-0.172,0.077-0.354,0.136-0.514,0.234c-0.283,0.177-0.599,0.283-0.889,0.453c-0.344,0.203-0.68,0.407-0.951,0.702
		c-0.14,0.15-0.235,0.339-0.365,0.49c-0.262,0.302-0.457,0.638-0.629,0.992c-0.148,0.307-0.209,0.642-0.274,0.971
		c-0.065,0.324-0.054,0.66-0.127,0.985c-0.009,0.037-0.013,0.084,0.031,0.105c0.064,0.031,0.07-0.03,0.096-0.065
		c0.014-0.018,0.043-0.025,0.066-0.036c-0.043,0.138-0.081,0.278-0.128,0.415c-0.057,0.165-0.147,0.311-0.274,0.43
		c-0.047,0.043-0.101,0.109-0.168,0.083c-0.079-0.03-0.042-0.114-0.041-0.177c0.004-0.171,0.011-0.342,0.017-0.513
		c0.002-0.039,0.005-0.078,0.007-0.117c0.026-0.038,0.024-0.079,0.016-0.121c0.008-0.101,0.016-0.202,0.023-0.303
		c0.137-0.959,0.413-1.871,0.927-2.701c0.013-0.007,0.018-0.018,0.016-0.032c0.373-0.564,0.816-1.07,1.286-1.555
		c0.017-0.015,0.034-0.031,0.051-0.046C17.776,14.283,18.031,14.06,18.285,13.837z"/>
	<path id="XMLID_1008_" fill="#96C85B" d="M21.575,15.934c-0.23-0.152-0.51-0.173-0.761-0.271c-0.05-0.02-0.094-0.025-0.127-0.076
		c-0.111-0.171-0.066-0.576,0.051-0.74c0.215-0.307,0.546-0.49,0.786-0.768c0.192-0.225,0.365-0.47,0.527-0.718
		c0.066-0.103,0.17-0.144,0.256-0.209c0.34-0.263,0.678-0.529,1.045-0.758c0.17-0.107,0.293-0.294,0.488-0.385
		c0.262-0.119,0.529-0.194,0.816-0.193c0.209,0.001,0.416,0.013,0.623-0.032c0.068-0.015,0.104,0.018,0.068,0.089
		c-0.039,0.073-0.061,0.146-0.041,0.228l-0.002-0.004c-0.133,0.032-0.105,0.146-0.125,0.237l0.002-0.002
		c-0.039,0.018-0.045,0.043-0.016,0.075c-0.086,0.213-0.174,0.426-0.26,0.639c-0.01,0.01-0.014,0.022-0.014,0.036
		c-0.215,0.34-0.391,0.702-0.617,1.037c-0.096,0.145-0.238,0.257-0.305,0.423c-0.01,0.011-0.02,0.022-0.029,0.033
		c-0.088,0.047-0.146,0.122-0.191,0.209v-0.001c-0.189,0.158-0.379,0.314-0.57,0.472c-0.01,0.008-0.02,0.016-0.031,0.023
		c-0.084,0.048-0.172,0.091-0.255,0.143c-0.337,0.214-0.724,0.314-1.081,0.476c-0.026,0.005-0.053,0.01-0.078,0.015
		C21.683,15.919,21.629,15.926,21.575,15.934z M24.464,12.609c-0.045,0-0.092-0.003-0.137,0.001
		c-0.209,0.016-0.449-0.023-0.619,0.067c-0.191,0.103-0.391,0.2-0.586,0.305c-0.28,0.154-0.49,0.39-0.71,0.609
		c-0.159,0.159-0.323,0.318-0.47,0.487c-0.166,0.191-0.289,0.423-0.41,0.648c-0.131,0.237,0.063,0.549,0.32,0.534
		c0.342-0.02,0.676-0.135,0.955-0.292c0.318-0.178,0.664-0.33,0.936-0.583c0.193-0.176,0.377-0.361,0.514-0.583
		c0.154-0.252,0.258-0.534,0.432-0.776c0.078-0.112,0.105-0.262,0.094-0.362c-0.012-0.11-0.193-0.037-0.299-0.056
		C24.478,12.608,24.472,12.609,24.464,12.609z"/>
	<path id="XMLID_1007_" fill="#427E42" d="M21.337,11.065c-0.014,0-0.026,0-0.039-0.001c-0.186-0.174-0.358-0.367-0.634-0.396
		c-0.013,0-0.025-0.001-0.038-0.001c0-0.073-0.005-0.126-0.09-0.171c-0.18-0.097-0.393-0.149-0.542-0.267
		c-0.184-0.144-0.414-0.188-0.586-0.352c-0.091-0.086-0.206-0.188-0.332-0.226c-0.438-0.128-0.783-0.446-1.223-0.57
		c-0.379-0.107-0.755-0.222-1.101-0.429c-0.272-0.162-0.595-0.221-0.875-0.385c-0.465-0.271-0.979-0.449-1.452-0.711
		c-0.041-0.022-0.103-0.008-0.154-0.011c-0.021-0.208-0.042-0.415-0.067-0.661c0.368,0.223,0.675,0.447,1.02,0.605
		c0.012,0.006,0.022,0.011,0.034,0.017c0.089,0.068,0.184,0.126,0.294,0.156L15.55,7.662c0.41,0.237,0.835,0.445,1.268,0.638
		l-0.002-0.002c0.306,0.183,0.63,0.331,0.95,0.486c0.023,0.01,0.047,0.021,0.07,0.031c0.274,0.16,0.554,0.307,0.847,0.429h0.001
		c0.131,0.096,0.277,0.16,0.426,0.223c0.013,0.006,0.025,0.012,0.038,0.018c0.143,0.088,0.288,0.172,0.447,0.228
		c0.005,0.011,0.013,0.015,0.023,0.012c0.558,0.296,1.098,0.623,1.639,0.946v0c0.23,0.168,0.461,0.337,0.715,0.474
		c0.131,0.092,0.262,0.184,0.393,0.275c0.053,0,0.082-0.024,0.08-0.079c0.403-0.024,0.648-0.271,0.838-0.593
		c0.045-0.077,0.086-0.161,0.074-0.262c-0.039-0.318-0.043-0.629,0.215-0.875c0.018-0.018,0.037-0.04,0.047-0.064
		c0.143-0.404,0.51-0.635,0.758-0.959c0.154-0.205,0.402-0.336,0.639-0.444c0.275-0.124,0.557-0.199,0.873-0.177
		c0.289,0.02,0.588,0.061,0.877-0.03c0.088-0.035,0.152,0.083,0.242,0.033v0c0.002,0.021,0.01,0.035,0.033,0.016
		c0.051,0.029,0.102,0.059,0.154,0.088c0.018,0.032,0.041,0.059,0.082,0.064c0.029,0.035,0.061,0.069,0.092,0.104
		c-0.057,0.018-0.111,0.043-0.17,0.05c-0.471,0.06-0.932-0.108-1.406-0.06c-0.168,0.017-0.344,0.008-0.49,0.091
		c-0.363,0.207-0.703,0.44-0.955,0.788c-0.166,0.231-0.34,0.468-0.381,0.745c-0.033,0.251-0.055,0.479-0.197,0.71
		c-0.199,0.32-0.426,0.602-0.691,0.863c-0.171,0.167-0.396,0.151-0.592,0.23c-0.025,0-0.051,0-0.076,0
		c-0.035-0.125-0.096-0.215-0.246-0.198c-0.055,0.007-0.098-0.022-0.146-0.047c-0.199-0.103-0.435-0.141-0.585-0.334
		C21.417,11.061,21.368,11.069,21.337,11.065z"/>
	<path id="XMLID_1005_" fill="#529049" d="M14.271,7.546c0.052,0.003,0.113-0.012,0.154,0.011c0.473,0.262,0.987,0.439,1.452,0.711
		c0.28,0.164,0.603,0.223,0.875,0.385c0.346,0.207,0.722,0.322,1.101,0.429c0.439,0.124,0.784,0.442,1.223,0.57
		c0.126,0.037,0.241,0.139,0.332,0.226c0.172,0.164,0.402,0.208,0.586,0.352c0.149,0.118,0.362,0.169,0.542,0.267
		c0.085,0.045,0.09,0.099,0.09,0.171c-0.398-0.167-0.789-0.347-1.172-0.547c-0.308-0.161-0.605-0.354-0.923-0.479
		c-0.342-0.134-0.686-0.278-1.046-0.383c-0.44-0.129-0.864-0.329-1.276-0.542c-0.041-0.021-0.078-0.062-0.119-0.066
		c-0.327-0.034-0.567-0.255-0.849-0.388c-0.193-0.092-0.411-0.123-0.587-0.269c-0.094-0.077-0.224,0-0.326,0.061
		C14.322,8.028,14.317,8,14.312,7.974C14.341,7.827,14.28,7.689,14.271,7.546z"/>
	<path id="XMLID_1004_" fill="#1D6332" d="M27.007,7.968c-0.09,0.05-0.154-0.068-0.242-0.033c-0.029-0.069-0.064-0.12-0.158-0.12
		c-0.262,0-0.531,0.045-0.785-0.073c-0.041-0.019-0.107-0.006-0.154,0.013c-0.211,0.086-0.428,0.149-0.656,0.175
		c-0.055,0.006-0.096,0.034-0.145,0.055c-0.465,0.2-0.705,0.649-1.068,0.962c-0.074,0.063-0.131,0.123-0.23,0.117
		c0.051-0.099,0.104-0.198,0.154-0.297c0.018-0.003,0.023-0.014,0.021-0.029c0.195-0.32,0.43-0.607,0.703-0.861l0.004-0.003
		C25.249,7.204,26.31,7.443,27.007,7.968z"/>
	<path id="XMLID_995_" fill="#529049" d="M29.501,9.42c0.078,0.02,0.156,0.039,0.234,0.059c0.006,0.01,0.016,0.012,0.023,0.007
		c0.018,0.036,0.033,0.066,0.082,0.072c0.256,0.031,0.477,0.154,0.699,0.27c-0.021,0.235,0.15,0.089,0.234,0.119l0.004-0.003
		c0.004,0.14-0.135,0.129-0.205,0.191c-0.053-0.015-0.105-0.031-0.158-0.046c-0.33-0.167-0.689-0.263-1.037-0.382
		c-0.021-0.028-0.053-0.032-0.086-0.025c-0.055-0.013-0.105-0.027-0.158-0.041C29.302,9.648,29.435,9.589,29.501,9.42z"/>
	<path id="XMLID_990_" fill="#427E42" d="M30.573,10.136c0.07-0.062,0.209-0.051,0.205-0.191c0.254,0.134,0.504,0.269,0.758,0.403
		c0.031,0.021,0.063,0.043,0.094,0.066c0.191,0.167,0.424,0.289,0.604,0.547c-0.258-0.126-0.467-0.229-0.676-0.332
		c-0.037-0.02-0.074-0.039-0.113-0.059c-0.277-0.17-0.578-0.291-0.877-0.416L30.573,10.136z"/>
	<path id="XMLID_975_" fill="#EBF0E9" d="M24.446,7.878c-0.273,0.254-0.508,0.541-0.703,0.861c-0.092-0.042-0.096-0.077-0.063-0.19
		c0.051-0.179,0.256-0.22,0.287-0.405c0.016-0.094,0.209-0.034,0.229-0.195C24.218,7.789,24.353,7.869,24.446,7.878z"/>
	<path id="XMLID_934_" fill="#EBF0E9" d="M23.61,15.235c0.008-0.011,0.008-0.028,0.016-0.031s0.021,0.007,0.031,0.013
		c-0.006,0.011-0.006,0.027-0.014,0.031C23.634,15.25,23.622,15.239,23.61,15.235z"/>
	<path id="XMLID_932_" fill="#EBF0E9" d="M26.038,10.899c0.002-0.035,0.016-0.062,0.051-0.076
		C26.091,10.86,26.085,10.893,26.038,10.899z"/>
	<path id="XMLID_931_" fill="#EBF0E9" d="M26.007,10.944c0.014-0.016,0.025-0.032,0.035-0.048
		C26.032,10.912,26.021,10.928,26.007,10.944z"/>
	<path id="XMLID_927_" fill="#529049" d="M16.979,17.479c-0.35,0.333-0.641,0.713-0.909,1.112c-0.004-0.013-0.005-0.036-0.011-0.037
		c-0.057-0.011-0.217,0.144-0.132-0.086c0.002-0.006-0.023-0.03-0.039-0.036c-0.126-0.04-0.119-0.155-0.089-0.229
		c0.085-0.205,0.128-0.42,0.188-0.632c0.152-0.543,0.512-0.946,0.915-1.316c0.063-0.035,0.115-0.078,0.118-0.158
		c-0.007-0.086,0.092-0.068,0.118-0.119c0.054-0.025,0.094-0.065,0.119-0.119c0.027-0.027,0.053-0.053,0.079-0.079
		c0.076-0.003,0.116-0.043,0.12-0.119l0,0c0.051-0.001,0.077-0.028,0.078-0.079c0.014,0,0.027-0.001,0.04-0.001
		c0.152,0.017,0.214-0.12,0.304-0.195c0.404-0.339,0.93-0.374,1.398-0.534c0.213-0.073,0.457-0.139,0.693-0.165
		c0.331-0.036,0.582-0.247,0.811-0.429c0.256-0.204,0.454-0.496,0.696-0.731c0.047-0.045,0.109-0.167-0.063-0.165
		c0.004-0.012,0.006-0.033,0.012-0.036c0.157-0.047,0.316-0.088,0.473-0.156c-0.027,0.106-0.127,0.165-0.127,0.271
		c-0.014,0-0.025,0.001-0.039,0.002c-0.072,0.028-0.082,0.088-0.08,0.156l-0.002,0.001c-0.186,0.066-0.234,0.243-0.314,0.396
		c0.005,0.062-0.055,0.078-0.08,0.118c-0.05,0.003-0.076,0.028-0.08,0.079c-0.012,0-0.025,0-0.038,0.001
		c-0.133,0.05-0.206,0.161-0.279,0.273c-0.472,0.203-0.947,0.396-1.447,0.524c-0.052,0.013-0.073,0.08-0.134,0.075
		c-0.027-0.041-0.054-0.04-0.08,0.001c-0.026,0-0.052,0-0.078,0c-0.272,0.078-0.561,0.09-0.808,0.269
		c-0.265,0.191-0.557,0.35-0.777,0.591c-0.151,0.166-0.316,0.308-0.488,0.45c-0.26,0.216-0.517,0.442-0.677,0.752
		c-0.029,0.057-0.026,0.116,0.031,0.134c0.14,0.043,0.261,0.161,0.425,0.119c0.058-0.015,0.068,0.018,0.075,0.061
		c-0.014,0.014-0.026,0.027-0.04,0.04c-0.003,0.006-0.006,0.011-0.009,0.017c0.003-0.006,0.006-0.011,0.009-0.017
		c0.014-0.013,0.026-0.026,0.04-0.04C16.933,17.442,16.962,17.449,16.979,17.479z"/>
	<path id="XMLID_926_" fill="#60A150" d="M16.901,17.442c-0.007-0.042-0.018-0.076-0.075-0.061
		c-0.164,0.042-0.285-0.076-0.425-0.119c-0.058-0.018-0.061-0.077-0.031-0.134c0.16-0.31,0.417-0.536,0.677-0.752
		c0.172-0.143,0.337-0.284,0.488-0.45c0.221-0.241,0.513-0.4,0.777-0.591c0.247-0.179,0.535-0.191,0.808-0.269
		c-0.013,0.101-0.104,0.118-0.173,0.142c-0.566,0.195-0.997,0.596-1.454,0.956c-0.117,0.091-0.233,0.184-0.354,0.271
		c-0.1,0.074-0.208,0.171-0.128,0.287c0.082,0.118,0.226,0.221,0.386,0.167c0.122-0.04,0.214-0.037,0.305,0.049
		c-0.252,0.165-0.49,0.349-0.723,0.54C16.962,17.449,16.933,17.442,16.901,17.442L16.901,17.442z"/>
	<path id="XMLID_925_" fill="#63A15A" d="M29.501,9.42c-0.066,0.168-0.199,0.228-0.367,0.221c-0.195-0.027-0.389-0.058-0.582-0.079
		c-0.297-0.032-0.588,0.015-0.875,0.072c0-0.006,0.002-0.018,0.004-0.019c0.242-0.064,0.396-0.324,0.678-0.294
		c0.059,0.006,0.1-0.02,0.125-0.074c0.047-0.102-0.119-0.077-0.094-0.162C28.759,9.196,29.13,9.309,29.501,9.42z"/>
	<path id="XMLID_924_" fill="#60A150" d="M21.337,13.995c0.08-0.153,0.129-0.33,0.314-0.396
		C21.613,13.783,21.509,13.916,21.337,13.995z"/>
	<path id="XMLID_922_" fill="#60A150" d="M20.859,14.466c0.073-0.112,0.146-0.223,0.279-0.273
		C21.132,14.373,21.012,14.436,20.859,14.466z"/>
	<path id="XMLID_921_" fill="#63A15A" d="M28.071,8.923c0.098,0.052,0.195,0.105,0.293,0.158
		C28.231,9.094,28.112,9.082,28.071,8.923z"/>
	<path id="XMLID_920_" fill="#60A150" d="M18.022,16.771c-0.022,0.02-0.045,0.039-0.066,0.059c-0.045,0.01-0.089,0.021-0.133,0.031
		C17.798,16.627,17.963,16.817,18.022,16.771z"/>
	<path id="XMLID_919_" fill="#63A15A" d="M27.601,9.646c-0.047,0.038-0.102,0.059-0.162,0.061
		C27.472,9.632,27.511,9.566,27.601,9.646z"/>
	<path id="XMLID_918_" fill="#60A150" d="M21.653,13.598c-0.002-0.067,0.008-0.127,0.08-0.156
		C21.726,13.503,21.762,13.587,21.653,13.598z"/>
	<path id="XMLID_917_" fill="#60A150" d="M21.177,14.192c0.004-0.05,0.03-0.076,0.08-0.079
		C21.257,14.167,21.231,14.192,21.177,14.192z"/>
	<path id="XMLID_916_" fill="#60A150" d="M19.198,15.066c0.026-0.041,0.053-0.042,0.08-0.001
		C19.252,15.105,19.226,15.106,19.198,15.066z"/>
	<path id="XMLID_915_" fill="#60A150" d="M17.82,16.851c0.001,0.031-0.021,0.042-0.045,0.053
		C17.79,16.886,17.805,16.868,17.82,16.851z"/>
	<path id="XMLID_914_" fill="#60A150" d="M27.995,8.881c0.012,0.002,0.025,0.006,0.035,0.013
		C28.009,8.914,28.001,8.902,27.995,8.881z"/>
	<path id="XMLID_913_" fill="#529049" d="M27.423,8.289c0.131,0.057,0.184,0.197,0.297,0.272C27.69,8.607,27.638,8.626,27.601,8.6
		c-0.162-0.113-0.344-0.063-0.518-0.069c-0.459-0.016-0.918-0.067-1.379-0.041c-0.453,0.027-1.109,0.573-1.119,1.081
		c-0.004,0.145-0.037,0.283-0.121,0.41c-0.34,0.525-0.713,1.027-1.096,1.519c-0.193,0.246-0.472,0.311-0.774,0.252
		c-0.05-0.01-0.108-0.021-0.108-0.093c0.195-0.08,0.421-0.064,0.592-0.23c0.266-0.261,0.492-0.543,0.691-0.863
		c0.143-0.232,0.164-0.459,0.197-0.71c0.041-0.277,0.215-0.514,0.381-0.745c0.252-0.348,0.592-0.582,0.955-0.788
		c0.146-0.083,0.322-0.074,0.49-0.091c0.475-0.048,0.936,0.12,1.406,0.06c0.059-0.007,0.113-0.033,0.17-0.05l-0.006,0.003
		C27.382,8.258,27.403,8.274,27.423,8.289z"/>
	<path id="XMLID_912_" fill="#529049" d="M15.678,11.337c-0.104-0.156-0.209-0.312-0.314-0.467c-0.033-0.049-0.069-0.095-0.056-0.16
		c0.147,0.017,0.253,0.095,0.354,0.206c0.289,0.318,0.699,0.468,1.035,0.722c0.209,0.159,0.436,0.313,0.669,0.398
		c0.204,0.075,0.354,0.257,0.588,0.266c0.092,0.003,0.188,0.064,0.268,0.118c0.287,0.196,0.625,0.265,0.932,0.404
		c0.306,0.14,0.666,0.128,0.933,0.36c0.009,0.008,0.023,0.014,0.036,0.013c0.364-0.016,0.693,0.194,1.058,0.165
		c0,0.056-0.027,0.094-0.076,0.117c-0.107,0-0.213,0-0.319,0c-0.226-0.135-0.487-0.16-0.733-0.223
		c-0.211-0.054-0.402-0.152-0.607-0.207c-0.289-0.077-0.558-0.202-0.831-0.313c-0.099-0.04-0.189-0.105-0.3-0.132
		c-0.271-0.065-0.52-0.199-0.77-0.31c-0.526-0.233-1.026-0.523-1.527-0.809c-0.093-0.052-0.17-0.171-0.304-0.145
		C15.699,11.342,15.688,11.339,15.678,11.337z"/>
	<path id="XMLID_911_" fill="#427E42" d="M21.103,13.48c0.049-0.023,0.076-0.061,0.076-0.117c0.08,0,0.158-0.001,0.236-0.002
		c0.172-0.002,0.109,0.12,0.063,0.165c-0.242,0.236-0.44,0.527-0.696,0.731c-0.229,0.182-0.479,0.393-0.811,0.429
		c-0.236,0.026-0.48,0.092-0.693,0.165c-0.469,0.161-0.994,0.195-1.398,0.534c-0.09,0.076-0.151,0.212-0.304,0.195
		c0.016-0.119,0.106-0.182,0.194-0.234c0.278-0.165,0.538-0.365,0.86-0.443c0.324-0.079,0.622-0.229,0.936-0.339
		c0.239-0.084,0.458-0.212,0.685-0.324c0.229-0.114,0.388-0.309,0.583-0.459C20.935,13.705,21.119,13.673,21.103,13.48z"/>
	<path id="XMLID_910_" fill="#529049" d="M21.337,11.065c0.031,0.004,0.08-0.004,0.095,0.014c0.15,0.193,0.386,0.231,0.585,0.334
		c0.049,0.024,0.092,0.054,0.146,0.047c0.15-0.017,0.211,0.074,0.246,0.198c-0.377-0.052-0.685-0.25-0.992-0.45
		C21.361,11.173,21.329,11.133,21.337,11.065z"/>
	<path id="XMLID_908_" fill="#529049" d="M20.664,10.669c0.275,0.029,0.448,0.222,0.634,0.396
		C21.062,10.972,20.817,10.893,20.664,10.669z"/>
	<path id="XMLID_907_" fill="#2C733A" d="M21.103,13.48c0.017,0.193-0.168,0.225-0.27,0.301c-0.195,0.15-0.354,0.345-0.583,0.459
		c-0.227,0.112-0.445,0.24-0.685,0.324c-0.313,0.11-0.611,0.261-0.936,0.339c-0.322,0.078-0.582,0.278-0.86,0.443
		c-0.088,0.052-0.179,0.115-0.194,0.234c-0.013,0-0.026,0-0.04,0.001c-0.052,0-0.078,0.026-0.078,0.079l0,0
		c-0.077,0.002-0.116,0.042-0.12,0.119c-0.026,0.026-0.052,0.052-0.079,0.079c-0.089-0.009-0.128,0.03-0.119,0.119
		c-0.026,0.051-0.125,0.033-0.118,0.119c-0.104,0.005-0.123,0.073-0.118,0.158c-0.403,0.371-0.763,0.773-0.915,1.316
		c-0.06,0.212-0.103,0.427-0.188,0.632c-0.03,0.075-0.037,0.19,0.089,0.229c0.016,0.005,0.041,0.029,0.039,0.036
		c-0.085,0.23,0.075,0.076,0.132,0.086c0.006,0.001,0.007,0.024,0.011,0.037c-0.082,0.159-0.164,0.318-0.246,0.478
		c-0.01,0.02-0.02,0.04-0.029,0.059l0.005,0.011l-0.009,0.007c-0.023,0.011-0.053,0.018-0.066,0.036
		c-0.025,0.035-0.031,0.097-0.096,0.065c-0.044-0.021-0.04-0.068-0.031-0.105c0.073-0.325,0.062-0.662,0.127-0.985
		c0.065-0.329,0.126-0.664,0.274-0.971c0.172-0.354,0.367-0.69,0.629-0.992c0.13-0.151,0.226-0.34,0.365-0.49
		c0.271-0.295,0.607-0.499,0.951-0.702c0.29-0.17,0.605-0.276,0.889-0.453c0.159-0.099,0.342-0.158,0.514-0.234
		c0.303-0.133,0.617-0.236,0.881-0.45c0.111-0.091,0.252-0.146,0.4-0.229c-0.146-0.07-0.281-0.036-0.405-0.052
		c-0.343-0.042-0.636-0.221-0.96-0.315c-0.386-0.112-0.764-0.247-1.13-0.423c-0.159-0.076-0.341-0.125-0.512-0.175
		c-0.181-0.053-0.336-0.143-0.499-0.221c-0.136-0.065-0.269-0.105-0.416-0.051l0.001-0.001c-0.038-0.165-0.176-0.288-0.302-0.27
		l-0.014-0.013c0.011-0.033,0.022-0.066,0.034-0.1c0.061,0.002,0.121-0.064,0.183,0.003c0.089,0.099,0.228,0.1,0.332,0.159
		c0.236,0.135,0.494,0.209,0.739,0.32c0.224,0.102,0.448,0.206,0.676,0.298c0.269,0.11,0.548,0.201,0.828,0.288
		c0.465,0.144,0.898,0.39,1.4,0.404c0.067,0.002,0.135,0.065,0.199-0.01C20.89,13.479,20.995,13.479,21.103,13.48z"/>
	<path id="XMLID_906_" fill="#D3D94E" d="M24.464,12.609c0.008,0,0.014-0.001,0.02,0c0.105,0.019,0.287-0.054,0.299,0.056
		c0.012,0.1-0.016,0.25-0.094,0.362c-0.174,0.242-0.277,0.524-0.432,0.776c-0.137,0.221-0.32,0.407-0.514,0.583
		c-0.271,0.253-0.617,0.406-0.936,0.583c-0.279,0.156-0.613,0.272-0.955,0.292c-0.258,0.015-0.451-0.297-0.32-0.534
		c0.121-0.225,0.244-0.457,0.41-0.648c0.146-0.169,0.311-0.328,0.47-0.487c0.22-0.219,0.43-0.455,0.71-0.609
		c0.195-0.105,0.395-0.203,0.586-0.305c0.17-0.091,0.41-0.051,0.619-0.067C24.372,12.606,24.419,12.609,24.464,12.609z"/>
	<path id="XMLID_905_" fill="#6DB85C" d="M25.306,12.098c-0.016,0.093-0.049,0.176-0.125,0.237
		C25.2,12.244,25.173,12.13,25.306,12.098z"/>
	<path id="XMLID_904_" fill="#6DB85C" d="M25.183,12.333c-0.006,0.025-0.01,0.05-0.016,0.075
		C25.138,12.375,25.144,12.351,25.183,12.333z"/>
	<path id="XMLID_903_" fill="#F9F9F9" d="M24.907,13.046c0.027,0.023,0.012,0.031-0.014,0.036
		C24.894,13.068,24.897,13.057,24.907,13.046z"/>
	<path id="XMLID_902_" fill="#2C733A" d="M23.567,9.065c0.1,0.006,0.156-0.054,0.23-0.117c0.363-0.313,0.604-0.762,1.068-0.962
		c0.049-0.021,0.09-0.048,0.145-0.055c0.229-0.026,0.445-0.089,0.656-0.175c0.047-0.019,0.113-0.032,0.154-0.013
		c0.254,0.118,0.523,0.073,0.785,0.073c0.094,0,0.129,0.05,0.158,0.12c-0.289,0.091-0.588,0.049-0.877,0.03
		c-0.316-0.022-0.598,0.053-0.873,0.177c-0.236,0.108-0.484,0.239-0.639,0.444c-0.248,0.324-0.615,0.556-0.758,0.959
		c-0.01,0.024-0.029,0.047-0.047,0.064c-0.258,0.246-0.254,0.558-0.215,0.875c0.012,0.101-0.029,0.185-0.074,0.262
		c-0.189,0.323-0.435,0.569-0.838,0.593c-0.141-0.123,0.012-0.161,0.07-0.182c0.292-0.102,0.436-0.294,0.405-0.605
		c-0.01-0.121,0.04-0.249-0.038-0.361c-0.037-0.05,0.008-0.055,0.032-0.084c0.14-0.164,0.345-0.293,0.323-0.552l-0.004,0.001
		c0.135-0.068,0.264-0.139,0.234-0.324l-0.002,0.001C23.622,9.252,23.608,9.167,23.567,9.065L23.567,9.065z"/>
	<path id="XMLID_901_" fill="#1D6332" d="M23.237,9.556c0.021,0.259-0.184,0.388-0.323,0.552c-0.024,0.029-0.069,0.034-0.032,0.084
		c0.078,0.112,0.028,0.241,0.038,0.361c0.03,0.311-0.113,0.503-0.405,0.605c-0.059,0.021-0.211,0.059-0.07,0.182
		c0.002,0.055-0.027,0.079-0.08,0.079c-0.051-0.179-0.203-0.247-0.352-0.321c-0.189-0.195-0.188-0.195,0.029-0.386
		C22.46,10.347,22.851,9.954,23.237,9.556z"/>
	<path id="XMLID_900_" fill="#E2EBF2" d="M22.013,11.098c0.148,0.074,0.301,0.142,0.352,0.321c-0.131-0.092-0.262-0.184-0.393-0.275
		C21.985,11.129,22.001,11.113,22.013,11.098z"/>
	<path id="XMLID_899_" fill="#2C733A" d="M27.007,7.968c0.014-0.001,0.023,0.004,0.033,0.016
		C27.017,8.002,27.009,7.989,27.007,7.968z"/>
	<path id="XMLID_898_" fill="#1D6332" d="M15.795,19.127c0.01-0.02,0.02-0.039,0.029-0.059
		C15.814,19.088,15.805,19.108,15.795,19.127z"/>
	<path id="XMLID_897_" fill="#63A15A" d="M29.292,9.682c0.033-0.006,0.064-0.003,0.086,0.025C29.345,9.714,29.315,9.71,29.292,9.682
		z"/>
	<path id="XMLID_896_" fill="#1D6332" d="M23.468,9.233c0.029,0.186-0.1,0.256-0.234,0.324C23.313,9.449,23.392,9.341,23.468,9.233z
		"/>
	<path id="XMLID_894_" fill="#1D6332" d="M23.567,9.066c0.041,0.101,0.055,0.187-0.102,0.168
		C23.483,9.168,23.521,9.114,23.567,9.066z"/>
	<path id="XMLID_893_" fill="#427E42" d="M20.783,13.479c-0.064,0.075-0.132,0.012-0.199,0.01c-0.502-0.015-0.936-0.26-1.4-0.404
		c-0.28-0.087-0.56-0.177-0.828-0.288c-0.228-0.093-0.452-0.196-0.676-0.298c-0.245-0.111-0.503-0.186-0.739-0.32
		c-0.104-0.06-0.243-0.061-0.332-0.159c-0.062-0.068-0.122-0.001-0.183-0.003c-0.032-0.002-0.062-0.009-0.079-0.041
		c-0.004-0.043,0.012-0.1-0.054-0.11c-0.052-0.008-0.061,0.036-0.067,0.076c-0.194-0.181-0.377-0.371-0.515-0.599
		c0.134-0.026,0.211,0.093,0.304,0.145c0.501,0.286,1.001,0.576,1.527,0.809c0.25,0.111,0.498,0.244,0.77,0.31
		c0.11,0.026,0.201,0.092,0.3,0.132c0.273,0.111,0.542,0.235,0.831,0.313c0.205,0.055,0.396,0.152,0.607,0.207
		C20.296,13.32,20.558,13.344,20.783,13.479z"/>
	<path id="XMLID_84_" fill="#1D6332" d="M16.405,12.129c0.126-0.019,0.264,0.104,0.302,0.27
		C16.595,12.321,16.494,12.232,16.405,12.129z"/>
	<path id="XMLID_83_" fill="#2C733A" d="M16.226,11.942c0.007-0.04,0.016-0.084,0.067-0.076c0.065,0.01,0.05,0.066,0.054,0.11
		c-0.014,0.015-0.028,0.031-0.043,0.046C16.277,11.995,16.252,11.968,16.226,11.942z"/>
	<path id="XMLID_82_" fill="#1D6332" d="M16.304,12.021c0.015-0.015,0.029-0.031,0.043-0.046c0.018,0.031,0.047,0.039,0.079,0.041
		c-0.012,0.033-0.023,0.066-0.034,0.1C16.362,12.084,16.334,12.053,16.304,12.021z"/>
	<path id="XMLID_3_" fill="#427E42" d="M27.423,8.289c-0.02-0.015-0.041-0.031-0.061-0.046C27.382,8.258,27.401,8.274,27.423,8.289z
		"/>
	<path id="XMLID_80_" fill="#427E42" d="M30.54,9.828c0.082,0.033,0.174,0.044,0.234,0.119C30.69,9.917,30.519,10.063,30.54,9.828z"
		/>
	<path id="XMLID_79_" fill="#427E42" d="M16.902,16.254c-0.005-0.085,0.015-0.153,0.118-0.158
		C17.018,16.176,16.965,16.219,16.902,16.254z"/>
	<path id="XMLID_78_" fill="#427E42" d="M17.337,15.779c0.004-0.076,0.043-0.116,0.12-0.119
		C17.453,15.736,17.413,15.775,17.337,15.779z"/>
	<path id="XMLID_77_" fill="#427E42" d="M17.139,15.977c-0.009-0.088,0.03-0.128,0.119-0.119
		C17.232,15.912,17.192,15.951,17.139,15.977z"/>
	<path id="XMLID_76_" fill="#427E42" d="M17.457,15.66c0-0.052,0.026-0.079,0.078-0.079C17.534,15.632,17.508,15.659,17.457,15.66z"
		/>
	<path id="XMLID_2_" fill="#60A150" d="M16.861,17.481c-0.003,0.006-0.006,0.011-0.009,0.017
		C16.855,17.493,16.858,17.487,16.861,17.481L16.861,17.481z"/>
	<path id="XMLID_1_" fill="#60A150" d="M16.901,17.442c-0.014,0.013-0.026,0.026-0.04,0.04l0,0
		C16.875,17.469,16.888,17.456,16.901,17.442L16.901,17.442z"/>
</g>
</svg>
