<?xml version="1.0" encoding="utf-8"?>
<!-- Generator: Adobe Illustrator 16.0.0, SVG Export Plug-In . SVG Version: 6.00 Build 0)  -->
<!DOCTYPE svg PUBLIC "-//W3C//DTD SVG 1.1//EN" "http://www.w3.org/Graphics/SVG/1.1/DTD/svg11.dtd">
<svg version="1.1" id="Layer_1" xmlns="http://www.w3.org/2000/svg" xmlns:xlink="http://www.w3.org/1999/xlink" x="0px" y="0px"
	 width="43px" height="60px" viewBox="0 0 43 60" enable-background="new 0 0 43 60" xml:space="preserve">
<path id="fondo_x5F_icono" fill="#FFFFFF" d="M42.054,21.176c0-11.286-9.154-20.44-20.439-20.44c-11.286,0-20.44,9.154-20.44,20.44
	c0,0.865,0.061,1.7,0.164,2.534c0.269,3.161,2.505,15.283,20.291,36.094c20.917-24.466,20.337-36.541,20.337-36.541
	C42.024,22.578,42.054,21.892,42.054,21.176"/>
<path fill="#F59720" d="M21.491,3.369c9.793,0,17.76,7.967,17.76,17.759c0,0.635-0.025,1.242-0.08,1.856l-0.025,0.144l0.018,0.21
	c-0.01,0.56-0.42,11.344-17.656,32.283C15.102,47.832,10.306,40.563,7.23,33.981c-2.7-5.778-3.237-9.298-3.343-10.543l-0.005-0.054
	l-0.007-0.056c-0.097-0.771-0.144-1.49-0.144-2.201C3.732,11.335,11.7,3.369,21.491,3.369 M21.491,0.582
	c-11.344,0-20.545,9.202-20.545,20.546c0,0.869,0.06,1.708,0.165,2.547c0.27,3.177,2.518,15.36,20.396,36.28
	c21.025-24.591,20.441-36.73,20.441-36.73c0.059-0.689,0.09-1.379,0.09-2.098C42.038,9.783,32.837,0.582,21.491,0.582"/>
<g id="XMLID_491_">
	<path id="XMLID_367_" fill-rule="evenodd" clip-rule="evenodd" fill="#F37944" d="M21.878,4c3.64,0,9.006,5.372,9.006,9.008
		c0,3.63-5.369,9.001-9.006,9.001c-3.645,0-9.009-5.371-9.009-9.001C12.87,9.368,18.24,4,21.878,4L21.878,4z"/>
	<path id="XMLID_366_" fill-rule="evenodd" clip-rule="evenodd" fill="#FFFFFF" d="M21.044,8.543c0.46,0.459,0.46,1.205,0,1.664
		l-0.982,0.986c-1.006,1.006-1.006,2.626,0,3.632c1.004,0.993,2.625,0.993,3.632,0c0.998-1.006,0.998-2.634,0-3.632l-0.25-0.25
		c-0.086-0.085-0.221-0.085-0.309,0l-0.806,0.8c-0.08,0.087-0.08,0.222,0,0.309c0.088,0.086,0.223,0.086,0.311,0l0.224-0.227
		c0.042,0.038,0.099,0.098,0.099,0.098c0.601,0.6,0.601,1.572,0,2.171c-0.599,0.601-1.572,0.601-2.172,0
		c-0.601-0.599-0.601-1.571,0-2.171l3.563-3.562l2.685,2.691c1.081,1.081,1.081,2.831,0,3.913l-3.206,3.198
		c-1.08,1.082-2.831,1.082-3.91,0l-3.206-3.198c-1.082-1.082-1.082-2.832,0-3.913l3.415-3.42L21.044,8.543L21.044,8.543z"/>
</g>
<g id="XMLID_336_">
	<path id="XMLID_358_" fill-rule="evenodd" clip-rule="evenodd" fill="#231F20" d="M13.564,22.582h0.961v4.067h-0.961V22.582
		L13.564,22.582z M17.013,25.153c0-0.155-0.011-0.293-0.038-0.414c-0.026-0.116-0.066-0.213-0.124-0.293
		c-0.053-0.074-0.125-0.132-0.214-0.169c-0.092-0.04-0.205-0.061-0.338-0.061c-0.04,0-0.074,0-0.109,0.004
		c-0.034,0.003-0.065,0.004-0.094,0.009c-0.023,0.001-0.042,0.007-0.06,0.012c-0.008,0.002-0.015,0.002-0.018,0.004v1.834
		c0,0,0.002,0,0.003,0c0.017,0.006,0.034,0.008,0.051,0.01h-0.001c0.024,0.004,0.051,0.007,0.08,0.008
		c0.029,0,0.061,0.002,0.091,0.002c0.129,0,0.24-0.021,0.336-0.06c0.093-0.038,0.174-0.095,0.236-0.172
		c0.065-0.078,0.115-0.178,0.147-0.293C16.998,25.455,17.013,25.314,17.013,25.153L17.013,25.153z M17.967,25.134
		c0,0.231-0.037,0.445-0.108,0.632c-0.072,0.191-0.181,0.358-0.316,0.494c-0.138,0.138-0.307,0.244-0.5,0.318
		c-0.188,0.07-0.403,0.106-0.635,0.106c-0.052,0-0.1,0-0.149-0.003c-0.048-0.003-0.097-0.007-0.144-0.013
		c-0.029-0.002-0.059-0.005-0.088-0.011c-0.001,0-0.006-0.002-0.008-0.002v1.093h-0.957v-3.88l0.033-0.013l0.032-0.017
		c0.075-0.031,0.156-0.063,0.251-0.091c0.088-0.024,0.181-0.047,0.287-0.064c0.096-0.018,0.199-0.031,0.31-0.041
		c0.106-0.008,0.217-0.013,0.343-0.013c0.25,0,0.48,0.035,0.681,0.1c0.207,0.069,0.382,0.169,0.526,0.298
		c0.144,0.131,0.257,0.293,0.331,0.48C17.93,24.692,17.967,24.902,17.967,25.134L17.967,25.134z M8.968,26.05v-1.808
		c-0.007-0.002-0.012-0.004-0.019-0.007c-0.017-0.004-0.04-0.007-0.063-0.011c-0.025-0.004-0.057-0.007-0.092-0.01
		c-0.034-0.002-0.071-0.002-0.107-0.002c-0.128,0-0.237,0.02-0.327,0.062c-0.088,0.041-0.16,0.101-0.216,0.179
		c-0.06,0.082-0.102,0.185-0.13,0.307c-0.029,0.126-0.043,0.271-0.043,0.434c0,0.158,0.015,0.296,0.043,0.414
		c0.026,0.114,0.066,0.207,0.122,0.281c0.054,0.072,0.12,0.125,0.202,0.158c0.086,0.038,0.189,0.056,0.312,0.056
		c0.04,0,0.076-0.002,0.107-0.003c0.036-0.005,0.069-0.009,0.1-0.017c0.027-0.004,0.051-0.01,0.077-0.019
		C8.945,26.059,8.956,26.055,8.968,26.05L8.968,26.05z M9.904,26.585c0,0.194-0.034,0.364-0.098,0.511
		C9.74,27.252,9.64,27.381,9.51,27.487c-0.128,0.104-0.285,0.184-0.466,0.238c-0.177,0.053-0.382,0.079-0.602,0.079
		c-0.092,0-0.179-0.002-0.261-0.008c-0.084-0.003-0.168-0.011-0.249-0.021c-0.083-0.013-0.161-0.023-0.234-0.039
		c-0.073-0.015-0.142-0.032-0.21-0.051l-0.037-0.012l-0.037-0.011v-0.721l0.074,0.036l0.077,0.033
		c0.044,0.021,0.098,0.041,0.155,0.059c0.059,0.017,0.12,0.033,0.188,0.044c0.064,0.014,0.131,0.023,0.2,0.03
		c0.066,0.005,0.133,0.008,0.205,0.008c0.116,0,0.215-0.011,0.298-0.033c0.084-0.022,0.151-0.057,0.204-0.098
		c0.052-0.04,0.088-0.094,0.111-0.153c0.027-0.067,0.041-0.143,0.041-0.227v-0.022c-0.009,0.002-0.021,0.004-0.029,0.006
		c-0.034,0.009-0.071,0.016-0.111,0.022c-0.059,0.009-0.116,0.018-0.178,0.021c-0.061,0.005-0.125,0.007-0.196,0.007
		c-0.211,0-0.408-0.035-0.582-0.103c-0.179-0.067-0.334-0.167-0.463-0.298c-0.127-0.127-0.225-0.279-0.294-0.461
		c-0.064-0.175-0.098-0.37-0.098-0.587c0-0.491,0.149-0.898,0.452-1.178c0.284-0.267,0.705-0.418,1.257-0.418
		c0.116,0,0.225,0.007,0.327,0.013c0.107,0.012,0.209,0.024,0.305,0.043c0.1,0.018,0.191,0.042,0.271,0.066
		c0.087,0.026,0.16,0.057,0.221,0.091l0.026,0.015l0.029,0.016V26.585L9.904,26.585z M12.116,26.098v-0.945
		c-0.136,0.016-0.258,0.036-0.368,0.061c-0.122,0.027-0.227,0.06-0.311,0.104c-0.082,0.045-0.145,0.096-0.187,0.166
		c-0.042,0.066-0.062,0.147-0.062,0.253c0,0.069,0.011,0.129,0.033,0.178c0.02,0.049,0.053,0.089,0.095,0.12
		c0.05,0.036,0.109,0.063,0.183,0.082c0.078,0.015,0.171,0.024,0.273,0.024c0.038,0,0.075-0.002,0.116-0.004
		c0.04-0.004,0.076-0.009,0.109-0.012c0.028-0.004,0.058-0.011,0.083-0.018C12.093,26.103,12.104,26.099,12.116,26.098
		L12.116,26.098z M13.028,26.463l-0.031,0.014l-0.032,0.014c-0.075,0.033-0.161,0.064-0.253,0.091
		c-0.092,0.024-0.191,0.046-0.301,0.064c-0.104,0.018-0.216,0.031-0.33,0.04c-0.113,0.01-0.229,0.014-0.356,0.014
		c-0.229,0-0.431-0.019-0.606-0.056c-0.179-0.04-0.331-0.097-0.453-0.173c-0.131-0.082-0.232-0.184-0.296-0.303
		c-0.066-0.118-0.1-0.259-0.1-0.411c0-0.205,0.058-0.377,0.167-0.517c0.104-0.139,0.256-0.244,0.44-0.329
		c0.172-0.078,0.37-0.137,0.59-0.18c0.202-0.041,0.423-0.069,0.65-0.09V24.59c0-0.069-0.015-0.127-0.035-0.172
		c-0.023-0.042-0.055-0.072-0.096-0.098v-0.001c-0.047-0.027-0.107-0.047-0.177-0.058c-0.071-0.013-0.153-0.02-0.242-0.02
		c-0.066,0-0.133,0.004-0.195,0.011c-0.069,0.006-0.135,0.018-0.202,0.03c-0.072,0.014-0.141,0.032-0.203,0.05
		c-0.069,0.02-0.133,0.042-0.189,0.064l-0.072,0.029l-0.075,0.032v-0.65l0.037-0.014l0.038-0.011
		c0.072-0.022,0.152-0.044,0.239-0.066c0.075-0.018,0.16-0.034,0.249-0.047c0.08-0.013,0.164-0.023,0.251-0.029
		c0.081-0.006,0.167-0.011,0.256-0.011c0.201,0,0.391,0.022,0.562,0.067c0.158,0.042,0.3,0.107,0.418,0.201
		c0.111,0.086,0.203,0.196,0.262,0.334c0.057,0.13,0.087,0.281,0.087,0.457V26.463L13.028,26.463z"/>
	<path id="XMLID_337_" fill-rule="evenodd" clip-rule="evenodd" fill="#231F20" d="M21.876,25.107l-0.07,0.009l-2.048,0.251
		c0.034,0.304,0.131,0.533,0.29,0.686c0.173,0.169,0.423,0.255,0.733,0.255c0.134,0,0.25-0.011,0.353-0.028
		c0.122-0.02,0.223-0.051,0.307-0.086l0.111-0.042v0.415l-0.058,0.018c-0.101,0.03-0.215,0.057-0.344,0.075
		c-0.118,0.015-0.244,0.024-0.375,0.024c-0.441,0-0.836-0.12-1.11-0.397c-0.242-0.242-0.386-0.609-0.386-1.118
		c0-0.483,0.132-0.844,0.352-1.091c0.244-0.279,0.594-0.413,0.979-0.413c0.396,0,0.72,0.109,0.944,0.354
		c0.208,0.225,0.323,0.556,0.323,1.017V25.107L21.876,25.107z M21.387,24.827c-0.008-0.282-0.081-0.479-0.207-0.603
		c-0.134-0.133-0.329-0.191-0.577-0.191c-0.256,0-0.478,0.085-0.632,0.279c-0.128,0.16-0.211,0.397-0.224,0.725L21.387,24.827
		L21.387,24.827z M24.757,26.633h-0.494v-2.082c0-0.127-0.029-0.261-0.127-0.359c-0.101-0.104-0.28-0.176-0.583-0.176
		c-0.181,0-0.31,0.012-0.418,0.03c-0.088,0.013-0.161,0.035-0.238,0.061v2.526h-0.494v-2.746l0.049-0.02
		c0.143-0.064,0.303-0.114,0.494-0.15c0.189-0.032,0.402-0.053,0.655-0.053c0.386,0,0.65,0.092,0.831,0.22
		c0.244,0.18,0.325,0.436,0.325,0.65V26.633L24.757,26.633z M27.45,24.827c-0.007-0.282-0.083-0.479-0.206-0.603
		c-0.135-0.133-0.33-0.191-0.577-0.191c-0.253,0-0.478,0.085-0.632,0.279c-0.13,0.16-0.211,0.397-0.223,0.725L27.45,24.827
		L27.45,24.827z M27.941,25.107l-0.072,0.009l-2.047,0.251c0.033,0.304,0.133,0.533,0.29,0.686c0.175,0.169,0.424,0.255,0.734,0.255
		c0.133,0,0.248-0.011,0.351-0.028c0.123-0.02,0.225-0.051,0.307-0.086l0.11-0.042v0.415l-0.057,0.018
		c-0.1,0.03-0.216,0.057-0.346,0.075c-0.114,0.015-0.242,0.024-0.371,0.024c-0.445,0-0.835-0.12-1.112-0.397
		c-0.242-0.242-0.388-0.609-0.388-1.118c0-0.483,0.133-0.844,0.353-1.091c0.244-0.279,0.594-0.413,0.98-0.413
		c0.396,0,0.722,0.109,0.946,0.354c0.204,0.225,0.321,0.556,0.321,1.017V25.107L27.941,25.107z M29.896,24.088l-0.097-0.023
		c-0.138-0.03-0.288-0.04-0.426-0.026c-0.109,0.011-0.213,0.035-0.294,0.074v2.52h-0.491v-2.746l0.047-0.02
		c0.148-0.064,0.279-0.114,0.458-0.148H29.09c0.177-0.033,0.397-0.05,0.727-0.055h0.079V24.088L29.896,24.088z M32.099,26.23v-2.165
		c-0.054-0.017-0.116-0.033-0.183-0.043C31.829,24.008,31.728,24,31.619,24c-0.335,0-0.577,0.113-0.736,0.306
		c-0.179,0.215-0.263,0.534-0.263,0.915c0,0.362,0.077,0.651,0.242,0.841c0.151,0.176,0.382,0.271,0.703,0.271
		c0.111,0,0.218-0.011,0.313-0.03C31.961,26.281,32.035,26.26,32.099,26.23L32.099,26.23z M30.459,27.643v-0.436l0.116,0.056
		c0.086,0.04,0.202,0.083,0.337,0.108c0.11,0.025,0.232,0.041,0.359,0.041c0.284,0,0.485-0.071,0.617-0.191
		c0.146-0.132,0.21-0.327,0.21-0.55V26.58c-0.063,0.022-0.135,0.042-0.21,0.057c-0.122,0.023-0.262,0.039-0.408,0.039
		c-0.419,0-0.756-0.143-0.989-0.396c-0.233-0.251-0.363-0.615-0.363-1.059c0-0.465,0.135-0.862,0.399-1.14
		c0.25-0.261,0.615-0.417,1.087-0.417c0.197,0,0.366,0.021,0.51,0.05c0.18,0.038,0.314,0.091,0.413,0.146l0.042,0.022v2.746
		c0,0.354-0.117,0.647-0.34,0.85c-0.213,0.195-0.525,0.305-0.92,0.305c-0.159,0-0.304-0.008-0.436-0.029
		c-0.143-0.023-0.265-0.053-0.371-0.091L30.459,27.643L30.459,27.643z M33.405,23.716h0.492v2.917h-0.492V23.716L33.405,23.716z
		 M33.952,23.026c0,0.075-0.034,0.146-0.092,0.191c-0.055,0.045-0.129,0.073-0.208,0.073c-0.082,0-0.156-0.028-0.21-0.073
		c-0.058-0.046-0.094-0.116-0.094-0.191c0-0.078,0.036-0.145,0.094-0.194c0.054-0.045,0.128-0.073,0.21-0.073
		c0.079,0,0.153,0.028,0.208,0.073C33.918,22.881,33.952,22.948,33.952,23.026L33.952,23.026z M36.397,26.268v-1.243
		c-0.433,0.05-0.773,0.114-1.007,0.231c-0.229,0.116-0.352,0.289-0.352,0.563c0,0.188,0.068,0.321,0.194,0.406
		c0.14,0.088,0.343,0.128,0.602,0.128c0.116,0,0.233-0.008,0.34-0.026C36.258,26.31,36.333,26.291,36.397,26.268L36.397,26.268z
		 M36.872,26.46l-0.045,0.022c-0.13,0.064-0.289,0.115-0.472,0.15c-0.168,0.033-0.359,0.051-0.565,0.051
		c-0.404,0-0.703-0.077-0.905-0.215c-0.229-0.156-0.336-0.38-0.336-0.65c0-0.405,0.22-0.67,0.583-0.841
		c0.324-0.159,0.77-0.239,1.266-0.282V24.58c0-0.216-0.072-0.355-0.195-0.436c-0.128-0.085-0.314-0.116-0.527-0.116
		c-0.123,0-0.239,0.013-0.342,0.037c-0.135,0.029-0.253,0.071-0.343,0.112l-0.115,0.048v-0.393l0.053-0.02
		c0.108-0.041,0.242-0.079,0.393-0.108c0.123-0.022,0.254-0.039,0.391-0.039c0.32,0,0.632,0.065,0.853,0.236
		c0.188,0.147,0.309,0.367,0.309,0.685V26.46L36.872,26.46z"/>
</g>
</svg>
