<?xml version="1.0" encoding="utf-8"?>
<!-- Generator: Adobe Illustrator 16.0.0, SVG Export Plug-In . SVG Version: 6.00 Build 0)  -->
<!DOCTYPE svg PUBLIC "-//W3C//DTD SVG 1.1//EN" "http://www.w3.org/Graphics/SVG/1.1/DTD/svg11.dtd">
<svg version="1.1" id="Layer_1" xmlns="http://www.w3.org/2000/svg" xmlns:xlink="http://www.w3.org/1999/xlink" x="0px" y="0px"
	 width="43px" height="60px" viewBox="0 0 43 60" enable-background="new 0 0 43 60" xml:space="preserve">
<path id="fondo_x5F_icono" fill="#FFFFFF" d="M42.054,21.176c0-11.286-9.154-20.44-20.439-20.44c-11.286,0-20.44,9.154-20.44,20.44
	c0,0.865,0.061,1.7,0.164,2.534c0.269,3.161,2.505,15.283,20.291,36.094c20.917-24.466,20.337-36.541,20.337-36.541
	C42.024,22.578,42.054,21.892,42.054,21.176"/>
<path fill="#F59720" d="M21.491,3.369c9.793,0,17.76,7.967,17.76,17.759c0,0.635-0.025,1.242-0.08,1.856l-0.025,0.144l0.018,0.21
	c-0.01,0.56-0.42,11.344-17.656,32.283C15.102,47.832,10.306,40.563,7.23,33.981c-2.7-5.778-3.237-9.298-3.343-10.543l-0.005-0.054
	l-0.007-0.056c-0.097-0.771-0.144-1.49-0.144-2.201C3.732,11.335,11.7,3.369,21.491,3.369 M21.491,0.582
	c-11.344,0-20.545,9.202-20.545,20.546c0,0.869,0.06,1.708,0.165,2.547c0.27,3.177,2.518,15.36,20.396,36.28
	c21.025-24.591,20.441-36.73,20.441-36.73c0.059-0.689,0.09-1.379,0.09-2.098C42.038,9.783,32.837,0.582,21.491,0.582"/>
<path id="XMLID_9573_" fill-rule="evenodd" clip-rule="evenodd" fill="#F48022" d="M13.811,15.941l-1.671-1.747
	c0.986-6.168,8.257-3.301,8.207-9.008l2.657,2.479c-0.2,1.55-0.98,3.012-2.339,4.386c1.569-0.386,2.631-1.57,3.309-3.364
	l2.372,2.341c-0.461,1.799-1.161,3.302-2.338,4.221c1.521-0.386,2.589-1.57,3.309-3.363l1.672,1.55
	c-0.234,5.228-8.792,3.926-8.124,9.056l-2.573-2.329c0.04-1.603,0.9-3.242,2.34-4.715c-1.645,0.496-2.684,1.868-3.409,3.694
	l-2.34-2.276c0.159-1.491,0.889-3.038,2.272-4.65C15.687,12.542,14.604,13.864,13.811,15.941L13.811,15.941z M13.811,15.941"/>
<path id="XMLID_9562_" fill-rule="evenodd" clip-rule="evenodd" fill="#1A3963" d="M8.165,29.93v-6.946h2.107l1.245,4.737
	l1.23-4.737h2.111v6.946h-1.299l-0.004-5.468l-1.37,5.468h-1.352L9.47,24.462L9.465,29.93H8.165z M19.166,28.339l1.329,0.223
	c-0.17,0.487-0.44,0.857-0.807,1.112c-0.368,0.253-0.83,0.382-1.38,0.382c-0.875,0-1.523-0.287-1.942-0.859
	c-0.331-0.459-0.499-1.038-0.499-1.738c0-0.834,0.219-1.488,0.654-1.961c0.435-0.473,0.986-0.709,1.653-0.709
	c0.747,0,1.337,0.248,1.771,0.741c0.431,0.496,0.638,1.253,0.618,2.275h-3.326c0.009,0.395,0.116,0.702,0.321,0.921
	c0.205,0.221,0.459,0.331,0.763,0.331c0.209,0,0.383-0.058,0.524-0.17C18.986,28.774,19.093,28.591,19.166,28.339L19.166,28.339z
	 M19.243,26.992c-0.01-0.387-0.108-0.68-0.298-0.882c-0.189-0.203-0.417-0.302-0.69-0.302c-0.29,0-0.529,0.107-0.717,0.318
	c-0.189,0.212-0.282,0.502-0.279,0.866H19.243z M22.922,29.93h-1.33v-5.034h1.232v0.715c0.211-0.339,0.403-0.56,0.573-0.666
	c0.168-0.104,0.361-0.156,0.575-0.156c0.306,0,0.597,0.083,0.879,0.251l-0.411,1.161c-0.227-0.146-0.435-0.219-0.627-0.219
	c-0.187,0-0.346,0.051-0.475,0.154c-0.13,0.104-0.231,0.288-0.306,0.557c-0.074,0.268-0.111,0.831-0.111,1.686V29.93z
	 M25.114,27.352c0-0.443,0.11-0.872,0.327-1.286c0.219-0.415,0.527-0.731,0.927-0.948c0.399-0.219,0.843-0.329,1.336-0.329
	c0.762,0,1.384,0.248,1.871,0.741c0.487,0.499,0.729,1.121,0.729,1.878c0,0.763-0.245,1.395-0.734,1.896
	c-0.491,0.501-1.109,0.752-1.854,0.752c-0.46,0-0.9-0.105-1.318-0.314c-0.419-0.209-0.736-0.515-0.955-0.919
	C25.225,28.421,25.114,27.931,25.114,27.352L25.114,27.352z M26.482,27.422c0,0.5,0.118,0.884,0.354,1.148
	c0.236,0.267,0.529,0.399,0.877,0.399c0.346,0,0.637-0.132,0.87-0.399c0.234-0.265,0.354-0.651,0.354-1.158
	c0-0.492-0.12-0.873-0.354-1.137c-0.233-0.267-0.524-0.399-0.87-0.399c-0.348,0-0.641,0.132-0.877,0.399
	C26.601,26.54,26.482,26.923,26.482,27.422L26.482,27.422z M31.351,24.217v-1.232h1.329v1.232H31.351z M31.351,29.93v-5.034h1.329
	v5.034H31.351z M34.047,29.93v-6.946h1.328v6.946H34.047z M34.047,29.93"/>
</svg>
