<?xml version="1.0" encoding="utf-8"?>
<!-- Generator: Adobe Illustrator 16.0.0, SVG Export Plug-In . SVG Version: 6.00 Build 0)  -->
<!DOCTYPE svg PUBLIC "-//W3C//DTD SVG 1.1//EN" "http://www.w3.org/Graphics/SVG/1.1/DTD/svg11.dtd">
<svg version="1.1" id="Layer_1" xmlns="http://www.w3.org/2000/svg" xmlns:xlink="http://www.w3.org/1999/xlink" x="0px" y="0px"
	 width="72px" height="100px" viewBox="0 0 72 100" enable-background="new 0 0 72 100" xml:space="preserve">
<path id="fondo_x5F_icono" fill="#FFFFFF" d="M70.6,35.367c0-18.833-15.275-34.109-34.109-34.109
	c-18.833,0-34.109,15.276-34.109,34.109c0,1.444,0.1,2.836,0.274,4.229c0.447,5.275,4.18,25.503,33.86,60.233
	C71.42,59.002,70.451,38.852,70.451,38.852C70.551,37.707,70.6,36.562,70.6,35.367"/>
<path fill="#F59720" d="M36.285,5.65c16.342,0,29.637,13.295,29.637,29.636c0,1.059-0.043,2.073-0.133,3.097l-0.043,0.24
	l0.029,0.351c-0.016,0.934-0.703,18.929-29.464,53.872C25.623,79.85,17.618,67.721,12.487,56.736
	c-4.506-9.642-5.402-15.516-5.578-17.594L6.9,39.052L6.89,38.959c-0.162-1.286-0.24-2.487-0.24-3.673
	C6.65,18.945,19.945,5.65,36.285,5.65 M36.285,1C17.355,1,2,16.355,2,35.286c0,1.45,0.1,2.85,0.276,4.25
	c0.45,5.302,4.201,25.633,34.035,60.543c35.086-41.037,34.111-61.293,34.111-61.293c0.1-1.15,0.15-2.302,0.15-3.5
	C70.572,16.355,55.217,1,36.285,1"/>
<g id="triangiulo_inferior">
	<path fill="#F59720" d="M7.481,57.183C12.23,67.5,20.784,81.704,36.208,99.751c15.521-18.154,24.095-32.302,28.827-42.494
		c-8.219-5.589-18.139-8.855-28.827-8.855C25.565,48.402,15.68,51.639,7.481,57.183"/>
	<path fill="#FFFFFF" d="M41.943,73.224c-0.053,0.068-0.102,0.136-0.162,0.196c-0.496,0.496-1.303,0.496-1.801,0
		c-0.492-0.493-0.492-1.299,0-1.796c0.047-0.044,0.096-0.086,0.146-0.126c1.277-1.095,2.084-2.717,2.084-4.522
		c0-1.759-0.766-3.336-1.977-4.426c-0.092-0.055-0.176-0.117-0.254-0.198c-0.492-0.493-0.492-1.298,0-1.796
		c0.498-0.497,1.305-0.497,1.801,0c0.041,0.04,0.076,0.089,0.109,0.127c1.727,1.548,2.82,3.799,2.82,6.293
		C44.711,69.449,43.641,71.675,41.943,73.224 M32.28,62.555c0.089-0.052,0.177-0.118,0.253-0.192c0.497-0.5,0.497-1.303,0-1.8
		c-0.498-0.497-1.303-0.497-1.798,0c-0.034,0.033-0.07,0.076-0.098,0.109c-1.736,1.555-2.828,3.798-2.828,6.304
		c0,2.466,1.062,4.686,2.751,6.226c0.05,0.083,0.105,0.158,0.175,0.229c0.495,0.49,1.3,0.49,1.798,0
		c0.497-0.503,0.497-1.303,0-1.806c-0.042-0.035-0.083-0.069-0.122-0.102v-0.01c-1.289-1.094-2.11-2.718-2.11-4.537
		C30.302,65.227,31.067,63.646,32.28,62.555 M38.924,64.051c-0.023-0.019-0.041-0.04-0.057-0.057
		c-0.168-0.169-0.389-0.263-0.621-0.263c-0.238,0-0.459,0.094-0.627,0.263c-0.346,0.347-0.346,0.902,0,1.243
		c0.043,0.041,0.09,0.08,0.141,0.118c0.457,0.421,0.719,1.012,0.719,1.631c0,0.645-0.279,1.263-0.775,1.685l-0.018,0.013
		c-0.02,0.013-0.039,0.03-0.066,0.061c-0.166,0.162-0.252,0.384-0.252,0.621c0,0.235,0.086,0.458,0.252,0.622
		c0.168,0.169,0.389,0.263,0.627,0.263c0.232,0,0.453-0.094,0.621-0.263c0.027-0.027,0.057-0.061,0.086-0.098
		c0.809-0.752,1.266-1.811,1.266-2.903C40.219,65.874,39.754,64.803,38.924,64.051 M34.898,65.24
		c0.167-0.165,0.262-0.392,0.262-0.624c0-0.234-0.094-0.456-0.262-0.622c-0.17-0.169-0.389-0.258-0.622-0.258
		c-0.238,0-0.459,0.089-0.627,0.258c-0.012,0.017-0.032,0.038-0.046,0.057c-0.833,0.752-1.309,1.818-1.309,2.936
		c0,1.089,0.463,2.142,1.262,2.896c0.028,0.041,0.061,0.072,0.093,0.111c0.167,0.163,0.389,0.257,0.627,0.257
		c0.233,0,0.452-0.094,0.622-0.257c0.167-0.17,0.262-0.389,0.262-0.622c0-0.237-0.094-0.46-0.266-0.631
		c-0.02-0.02-0.034-0.03-0.052-0.044l-0.019-0.021c-0.494-0.426-0.785-1.04-0.785-1.688c0-0.619,0.262-1.206,0.715-1.631
		C34.805,65.322,34.855,65.285,34.898,65.24 M44.443,55.846c-0.041-0.045-0.098-0.082-0.154-0.124
		c-0.658-0.434-1.547-0.258-1.98,0.403c-0.406,0.613-0.277,1.436,0.289,1.894c0.018,0.014,0.039,0.021,0.055,0.037
		c0.018,0.013,0.037,0.034,0.059,0.044c2.705,1.987,4.471,5.192,4.471,8.804c0,6.033-4.893,10.919-10.924,10.919
		c-6.029,0-10.916-4.886-10.916-10.919c0-3.596,1.738-6.777,4.422-8.771h-0.004h0.004c0.653-0.444,0.82-1.326,0.379-1.978
		c-0.442-0.65-1.324-0.823-1.978-0.379c-0.042,0.025-0.08,0.057-0.122,0.091c-3.369,2.507-5.55,6.522-5.55,11.037
		c0,7.605,6.165,13.769,13.765,13.769c7.602,0,13.768-6.163,13.768-13.769C50.025,62.373,47.828,58.355,44.443,55.846"/>
</g>
<g id="XMLID_381_">
	<path id="XMLID_384_" fill="#FFFFFF" d="M41.617,30.01c3.383-2.716,6.813-6.579,8.219-9.187c0.664-1.234,1.008-2.514,0.818-3.928
		c-0.627-4.686-5.988-8.413-10.572-7.334c-6.118,1.438-8.609,7.5-5.211,12.726C36.739,25.16,39.105,27.604,41.617,30.01z
		 M37.404,27.553c-0.909-1.074-1.806-2.051-2.605-3.104c-0.8-1.053-1.552-2.149-2.234-3.281c-1.197-1.989-1.55-4.096-0.432-6.236
		c0.555-1.063,1.274-2.04,1.861-2.963c-0.721-0.807-1.479-1.655-2.213-2.478c-2.606,1.635-7.46,7.275-8.381,9.928
		c-0.362,1.043-0.547,2.266-0.395,3.348c0.5,3.563,4.542,7.003,8.156,7.157C33.587,30.025,35.611,29.129,37.404,27.553z"/>
	<path id="XMLID_383_" fill="#03709F" d="M41.617,30.01c-2.512-2.405-4.878-4.85-6.746-7.724
		c-3.398-5.226-0.907-11.287,5.211-12.726c4.584-1.079,9.945,2.648,10.572,7.334c0.189,1.414-0.154,2.694-0.818,3.928
		C48.43,23.431,45,27.294,41.617,30.01z"/>
	<path id="XMLID_382_" fill="#F89F27" d="M37.404,27.553c-1.793,1.576-3.817,2.473-6.244,2.371
		c-3.614-0.154-7.655-3.595-8.156-7.157c-0.153-1.082,0.032-2.305,0.395-3.348c0.921-2.653,5.774-8.293,8.381-9.928
		c0.735,0.823,1.492,1.67,2.213,2.478c-0.587,0.923-1.306,1.9-1.861,2.963c-1.118,2.141-0.765,4.248,0.432,6.236
		c0.682,1.132,1.434,2.229,2.234,3.281C35.598,25.502,36.496,26.479,37.404,27.553z"/>
</g>
<g id="XMLID_272_">
	<path id="XMLID_380_" fill="#03709F" d="M12.077,39.758c0.483,0,0.869,0.029,1.247-0.008c0.4-0.039,0.809-0.099,1.186-0.229
		c0.85-0.294,1.259-0.887,1.266-1.729c0.006-0.86-0.414-1.574-1.29-1.765c-0.792-0.172-1.656-0.221-2.457-0.105
		c-1.144,0.165-1.616,0.857-1.626,2.018c-0.006,0.685-0.011,1.367,0,2.051c0.014,0.971,0.629,1.486,1.675,1.362
		C12.077,40.834,12.077,40.309,12.077,39.758z"/>
	<path id="XMLID_379_" fill="#03709F" d="M30.977,35.729c-0.517,0.096-1.011,0.133-1.469,0.281
		c-0.841,0.271-1.256,0.876-1.271,1.715c-0.015,0.887,0.383,1.486,1.246,1.799c0.976,0.352,1.966,0.348,2.935-0.021
		c0.804-0.306,1.174-0.884,1.183-1.714c0.007-0.842-0.375-1.441-1.159-1.723C31.97,35.896,31.458,35.836,30.977,35.729z"/>
	<path id="XMLID_378_" fill="#03709F" d="M55.129,38.211c0.775,0,1.512,0.057,2.234-0.021c0.486-0.053,0.953-0.32,1.016-0.908
		c0.063-0.594-0.281-0.984-0.781-1.194c-1.098-0.463-2.211-0.458-3.254,0.151c-0.951,0.556-1.146,1.762-0.482,2.601
		c0.918,1.157,3.383,1.269,4.596,0.055c-0.428-0.091-0.75-0.214-1.068-0.212c-0.355,0.002-0.709,0.152-1.066,0.179
		C55.816,38.896,55.354,38.797,55.129,38.211z"/>
	<path id="XMLID_377_" fill="#03709F" d="M18.099,38.198c0.836,0,1.578,0.061,2.304-0.021c0.49-0.056,0.945-0.353,0.982-0.939
		c0.035-0.556-0.296-0.938-0.773-1.144c-1.098-0.471-2.214-0.469-3.254,0.136c-1.161,0.675-1.193,2.208-0.104,2.987
		c0.964,0.691,2.765,0.738,3.774,0.104c0.121-0.078,0.256-0.134,0.386-0.199c-0.032-0.084-0.066-0.169-0.099-0.254
		c-0.287-0.07-0.576-0.199-0.861-0.194c-0.356,0.007-0.708,0.146-1.067,0.187C18.852,38.917,18.378,38.814,18.099,38.198z"/>
	<path id="XMLID_376_" fill="#03709F" d="M47.701,39.048c-0.324-0.39-0.51-0.454-1.039-0.364c-0.377,0.064-0.754,0.168-1.131,0.178
		c-0.57,0.015-0.801-0.184-0.922-0.66c0.732,0,1.475,0.061,2.201-0.021c0.488-0.058,0.945-0.358,0.984-0.942
		c0.037-0.556-0.297-0.937-0.777-1.141c-1.121-0.481-2.254-0.472-3.311,0.17c-0.943,0.571-1.105,1.771-0.416,2.608
		C44.211,39.99,46.652,40.087,47.701,39.048z"/>
	<path id="XMLID_375_" fill="#03709F" d="M36.067,39.565c0-0.632-0.012-1.229,0.003-1.825c0.019-0.636,0.291-0.922,0.829-0.903
		c0.604,0.019,0.809,0.388,0.803,0.935c-0.004,0.149,0,0.299,0,0.449c0.008,1.235,0.369,1.536,1.641,1.339
		c0-0.757,0.045-1.524-0.021-2.28c-0.025-0.31-0.213-0.692-0.451-0.883c-1.043-0.824-2.236-0.752-3.407-0.361
		c-1.026,0.346-1.101,1.245-1.087,2.163C34.396,39.441,34.726,39.732,36.067,39.565z"/>
	<path id="XMLID_374_" fill="#03709F" d="M61.73,38.504c-0.844,0.84-1.92-0.356-2.621,0.521c0.934,0.819,2.684,0.982,3.646,0.376
		c0.697-0.438,0.729-1.234,0.016-1.646c-0.436-0.25-0.951-0.355-1.428-0.529c-0.199-0.074-0.395-0.159-0.691-0.28
		c0.852-0.654,1.857,0.403,2.598-0.457c-0.916-0.723-1.896-0.786-2.908-0.621c-0.777,0.126-1.283,0.555-1.275,1.06
		c0.008,0.734,0.611,0.906,1.146,1.109c0.258,0.099,0.537,0.137,0.803,0.215C61.209,38.306,61.396,38.384,61.73,38.504z"/>
	<path id="XMLID_373_" fill="#03709F" d="M50.793,38.619c-0.1,0.004-0.201,0.006-0.303,0.01c-0.195-0.551-0.395-1.099-0.582-1.65
		c-0.32-0.943-0.643-1.14-1.873-0.984c0.525,1.096,0.941,2.188,1.551,3.159c0.563,0.901,1.586,0.88,2.146-0.04
		c0.592-0.962,0.994-2.038,1.502-3.111c-1.189-0.171-1.551,0.044-1.865,0.971C51.182,37.523,50.986,38.07,50.793,38.619z"/>
	<path id="XMLID_372_" fill="#03709F" d="M23.907,35.414c-0.027-0.425-0.05-0.797-0.074-1.166c-0.945,0.001-1.59,0.377-1.614,1.055
		c-0.051,1.424-0.015,2.851-0.015,4.272c1.082,0.058,1.638-0.427,1.663-1.407c0.005-0.234,0.02-0.472-0.002-0.705
		c-0.062-0.643,0.158-1.109,0.755-1.414c0.191-0.097,0.314-0.328,0.593-0.635C24.645,35.414,24.294,35.414,23.907,35.414z"/>
	<path id="XMLID_353_" fill="#03709F" d="M41.975,39.565c0-1.198,0-2.399,0-3.597c-1.115-0.036-1.645,0.453-1.662,1.497
		c-0.006,0.257-0.004,0.513-0.002,0.769C40.318,39.43,40.721,39.756,41.975,39.565z"/>
	<path id="XMLID_352_" fill="#03709F" d="M28.123,35.982c-3.063-0.221-3.194,1.199-2.922,3.617c1.11,0,1.624-0.477,1.599-1.58
		c-0.015-0.665,0.153-1.158,0.788-1.461C27.768,36.473,27.882,36.249,28.123,35.982z"/>
	<path id="XMLID_351_" fill="#03709F" d="M41.174,35.346c0.332-0.432,0.65-0.664,0.688-0.936c0.057-0.409-0.283-0.634-0.697-0.633
		c-0.416,0.002-0.752,0.227-0.686,0.639C40.52,34.689,40.838,34.917,41.174,35.346z"/>
	<path id="XMLID_347_" fill="#03709F" d="M12.077,39.758c0,0.551,0,1.076,0,1.595c-1.045,0.124-1.661-0.392-1.675-1.362
		c-0.01-0.684-0.006-1.366,0-2.051c0.01-1.16,0.482-1.853,1.626-2.018c0.801-0.115,1.664-0.066,2.457,0.105
		c0.876,0.19,1.296,0.904,1.29,1.765c-0.007,0.843-0.416,1.436-1.266,1.729c-0.376,0.13-0.786,0.189-1.186,0.229
		C12.945,39.787,12.56,39.758,12.077,39.758z M13.073,38.711c0.696,0.003,1.139-0.349,1.154-0.913c0.015-0.57-0.42-0.95-1.105-0.967
		c-0.723-0.016-1.177,0.351-1.177,0.952C11.943,38.355,12.373,38.709,13.073,38.711z"/>
	<path id="XMLID_329_" fill="#03709F" d="M30.977,35.729c0.482,0.107,0.993,0.168,1.464,0.338c0.784,0.281,1.167,0.881,1.159,1.723
		c-0.009,0.83-0.379,1.408-1.183,1.714c-0.968,0.368-1.959,0.372-2.935,0.021c-0.862-0.313-1.261-0.912-1.246-1.799
		c0.014-0.839,0.429-1.444,1.271-1.715C29.965,35.861,30.459,35.824,30.977,35.729z M30.95,38.71
		c0.705-0.012,1.124-0.379,1.105-0.968c-0.017-0.57-0.466-0.92-1.168-0.909c-0.699,0.01-1.128,0.386-1.107,0.969
		C29.802,38.377,30.247,38.723,30.95,38.71z"/>
	<path id="XMLID_326_" fill="#03709F" d="M55.129,38.211c0.225,0.586,0.688,0.686,1.193,0.649c0.357-0.026,0.711-0.177,1.066-0.179
		c0.318-0.002,0.641,0.121,1.068,0.212c-1.213,1.214-3.678,1.103-4.596-0.055c-0.664-0.839-0.469-2.045,0.482-2.601
		c1.043-0.609,2.156-0.614,3.254-0.151c0.5,0.21,0.844,0.601,0.781,1.194c-0.063,0.588-0.529,0.855-1.016,0.908
		C56.641,38.268,55.904,38.211,55.129,38.211z M55.244,37.005c0.021,0.116,0.043,0.232,0.063,0.35
		c0.369,0.029,0.742,0.101,1.105,0.069c0.156-0.014,0.291-0.246,0.436-0.379c-0.158-0.12-0.33-0.355-0.473-0.34
		C55.992,36.748,55.619,36.897,55.244,37.005z"/>
	<path id="XMLID_323_" fill="#03709F" d="M18.099,38.198c0.28,0.616,0.753,0.719,1.288,0.661c0.359-0.04,0.71-0.18,1.067-0.187
		c0.286-0.005,0.574,0.124,0.861,0.194c0.033,0.085,0.066,0.17,0.099,0.254c-0.129,0.065-0.265,0.121-0.386,0.199
		c-1.01,0.635-2.81,0.588-3.774-0.104c-1.089-0.779-1.057-2.313,0.104-2.987c1.041-0.604,2.156-0.606,3.254-0.136
		c0.477,0.205,0.808,0.588,0.773,1.144c-0.037,0.587-0.492,0.884-0.982,0.939C19.677,38.259,18.935,38.198,18.099,38.198z
		 M18.196,37.398c0.521,0,0.938,0.025,1.348-0.016c0.112-0.012,0.261-0.213,0.286-0.346c0.016-0.082-0.158-0.238-0.277-0.297
		C19.116,36.527,18.597,36.737,18.196,37.398z"/>
	<path id="XMLID_320_" fill="#03709F" d="M47.701,39.048c-1.049,1.039-3.49,0.942-4.41-0.173c-0.689-0.838-0.527-2.037,0.416-2.608
		c1.057-0.642,2.189-0.651,3.311-0.17c0.48,0.204,0.814,0.585,0.777,1.141c-0.039,0.584-0.496,0.885-0.984,0.942
		c-0.727,0.082-1.469,0.021-2.201,0.021c0.121,0.477,0.352,0.675,0.922,0.66c0.377-0.01,0.754-0.113,1.131-0.178
		C47.191,38.594,47.377,38.658,47.701,39.048z M44.717,37.406c0.406,0,0.814,0.026,1.215-0.016c0.119-0.012,0.311-0.216,0.305-0.325
		c-0.006-0.12-0.18-0.301-0.313-0.335C45.422,36.602,44.973,36.688,44.717,37.406z"/>
	<path id="XMLID_319_" fill="#03709F" d="M36.067,39.565c-1.342,0.167-1.672-0.124-1.69-1.367c-0.014-0.918,0.061-1.817,1.087-2.163
		c1.171-0.391,2.364-0.463,3.407,0.361c0.238,0.19,0.426,0.573,0.451,0.883c0.066,0.756,0.021,1.523,0.021,2.28
		c-1.271,0.197-1.633-0.104-1.641-1.339c0-0.15-0.004-0.3,0-0.449c0.006-0.547-0.199-0.916-0.803-0.935
		c-0.538-0.019-0.811,0.268-0.829,0.903C36.055,38.336,36.067,38.934,36.067,39.565z"/>
	<path id="XMLID_318_" fill="#03709F" d="M61.73,38.504c-0.334-0.12-0.521-0.198-0.715-0.254c-0.266-0.078-0.545-0.116-0.803-0.215
		c-0.535-0.203-1.139-0.375-1.146-1.109c-0.008-0.505,0.498-0.934,1.275-1.06c1.012-0.165,1.992-0.102,2.908,0.621
		c-0.74,0.86-1.746-0.197-2.598,0.457c0.297,0.121,0.492,0.206,0.691,0.28c0.477,0.174,0.992,0.279,1.428,0.529
		c0.713,0.412,0.682,1.208-0.016,1.646c-0.963,0.606-2.713,0.443-3.646-0.376C59.811,38.147,60.887,39.344,61.73,38.504z"/>
	<path id="XMLID_317_" fill="#03709F" d="M50.793,38.619c0.193-0.549,0.389-1.096,0.576-1.646c0.314-0.927,0.676-1.142,1.865-0.971
		c-0.508,1.073-0.91,2.149-1.502,3.111c-0.561,0.92-1.584,0.941-2.146,0.04c-0.609-0.972-1.025-2.063-1.551-3.159
		c1.23-0.155,1.553,0.041,1.873,0.984c0.188,0.552,0.387,1.1,0.582,1.65C50.592,38.625,50.693,38.623,50.793,38.619z"/>
	<path id="XMLID_316_" fill="#03709F" d="M23.907,35.414c0.388,0,0.738,0,1.305,0c-0.278,0.307-0.402,0.538-0.593,0.635
		c-0.597,0.305-0.817,0.771-0.755,1.414c0.022,0.233,0.008,0.471,0.002,0.705c-0.024,0.98-0.581,1.465-1.663,1.407
		c0-1.422-0.036-2.849,0.015-4.272c0.024-0.678,0.669-1.054,1.614-1.055C23.856,34.617,23.88,34.989,23.907,35.414z"/>
	<path id="XMLID_315_" fill="#03709F" d="M41.975,39.565c-1.254,0.19-1.656-0.136-1.664-1.331c-0.002-0.256-0.004-0.512,0.002-0.769
		c0.018-1.044,0.547-1.533,1.662-1.497C41.975,37.166,41.975,38.367,41.975,39.565z"/>
	<path id="XMLID_314_" fill="#03709F" d="M28.123,35.982c-0.241,0.267-0.355,0.49-0.535,0.576c-0.635,0.303-0.803,0.796-0.788,1.461
		c0.024,1.104-0.489,1.58-1.599,1.58C24.929,37.182,25.06,35.762,28.123,35.982z"/>
	<path id="XMLID_278_" fill="#03709F" d="M41.174,35.346c-0.336-0.429-0.654-0.656-0.695-0.93c-0.066-0.412,0.27-0.637,0.686-0.639
		c0.414-0.001,0.754,0.224,0.697,0.633C41.824,34.682,41.506,34.914,41.174,35.346z"/>
	<path id="XMLID_277_" fill="#FFFFFF" d="M30.95,38.71c-0.704,0.013-1.148-0.333-1.17-0.908c-0.021-0.583,0.408-0.959,1.107-0.969
		c0.703-0.011,1.152,0.339,1.168,0.909C32.074,38.331,31.655,38.698,30.95,38.71z"/>
	<path id="XMLID_276_" fill="#FFFFFF" d="M55.244,37.005c0.375-0.107,0.748-0.257,1.131-0.3c0.143-0.016,0.314,0.22,0.473,0.34
		c-0.145,0.133-0.279,0.365-0.436,0.379c-0.363,0.031-0.736-0.04-1.105-0.069C55.287,37.237,55.266,37.121,55.244,37.005z"/>
	<path id="XMLID_275_" fill="#FFFFFF" d="M18.196,37.398c0.4-0.661,0.92-0.871,1.356-0.658c0.119,0.059,0.293,0.215,0.277,0.297
		c-0.024,0.133-0.173,0.334-0.286,0.346C19.134,37.424,18.717,37.398,18.196,37.398z"/>
	<path id="XMLID_274_" fill="#FFFFFF" d="M44.717,37.406c0.256-0.719,0.705-0.805,1.207-0.676c0.133,0.034,0.307,0.215,0.313,0.335
		c0.006,0.109-0.186,0.313-0.305,0.325C45.531,37.433,45.123,37.406,44.717,37.406z"/>
	<path id="XMLID_273_" fill="#FFFFFF" d="M13.073,38.711c-0.7-0.002-1.129-0.355-1.129-0.928c0-0.602,0.455-0.968,1.177-0.952
		c0.685,0.017,1.12,0.396,1.105,0.967C14.211,38.362,13.769,38.714,13.073,38.711z"/>
</g>
</svg>
