<?xml version="1.0" encoding="utf-8"?>
<!-- Generator: Adobe Illustrator 16.0.0, SVG Export Plug-In . SVG Version: 6.00 Build 0)  -->
<!DOCTYPE svg PUBLIC "-//W3C//DTD SVG 1.1//EN" "http://www.w3.org/Graphics/SVG/1.1/DTD/svg11.dtd">
<svg version="1.1" id="Layer_1" xmlns="http://www.w3.org/2000/svg" xmlns:xlink="http://www.w3.org/1999/xlink" x="0px" y="0px"
	 width="43px" height="60px" viewBox="0 0 43 60" enable-background="new 0 0 43 60" xml:space="preserve">
<path id="fondo_x5F_icono" fill="#FFFFFF" d="M42.054,21.176c0-11.286-9.154-20.44-20.439-20.44c-11.286,0-20.44,9.154-20.44,20.44
	c0,0.865,0.061,1.7,0.164,2.534c0.269,3.161,2.505,15.283,20.291,36.094c20.917-24.466,20.337-36.541,20.337-36.541
	C42.024,22.578,42.054,21.892,42.054,21.176"/>
<path fill="#F59720" d="M21.491,3.369c9.793,0,17.76,7.967,17.76,17.759c0,0.635-0.025,1.242-0.08,1.856l-0.025,0.144l0.018,0.21
	c-0.01,0.56-0.42,11.344-17.656,32.283C15.102,47.832,10.306,40.563,7.23,33.981c-2.7-5.778-3.237-9.298-3.343-10.543l-0.005-0.054
	l-0.007-0.056c-0.097-0.771-0.144-1.49-0.144-2.201C3.732,11.335,11.7,3.369,21.491,3.369 M21.491,0.582
	c-11.344,0-20.545,9.202-20.545,20.546c0,0.869,0.06,1.708,0.165,2.547c0.27,3.177,2.518,15.36,20.396,36.28
	c21.025-24.591,20.441-36.73,20.441-36.73c0.059-0.689,0.09-1.379,0.09-2.098C42.038,9.783,32.837,0.582,21.491,0.582"/>
<g id="repsol">
	<path id="repsol_-_letras" fill="#3C3D3D" d="M26.36,27.391c-0.232-1.258,0.919-2.647,2.373-3.051
		c1.69-0.339,3.113,0.31,3.373,1.608c0.18,1.267-0.799,2.595-2.435,2.977C28.121,29.213,26.628,28.658,26.36,27.391 M28.537,25.865
		c-0.565,0.646-0.712,1.488-0.325,1.881c0.387,0.392,1.159,0.187,1.726-0.459c0.565-0.646,0.712-1.487,0.325-1.881
		C29.876,25.013,29.104,25.218,28.537,25.865 M20.671,25.62c-0.011-0.171-0.094-0.298-0.246-0.38
		c-0.153-0.082-0.374-0.123-0.664-0.123h-0.296l-0.278,1.293h0.235c0.409,0,0.724-0.061,0.942-0.199
		C20.585,26.069,20.687,25.878,20.671,25.62 M17.447,28.811c0,0-0.44,0.021-0.381-0.398l0.77-3.608
		c0.044-0.206,0.247-0.381,0.455-0.381h1.856c0.341,0,0.639,0.029,0.893,0.067c0.258,0.037,0.48,0.107,0.671,0.2
		c0.188,0.093,0.335,0.217,0.44,0.366c0.104,0.148,0.165,0.373,0.18,0.595c0.032,0.505-0.198,0.906-0.694,1.216
		c-0.492,0.31-1.2,0.42-2.123,0.42h-0.511l-0.325,1.523H17.447z M10.264,25.602c-0.011-0.176-0.086-0.3-0.227-0.373
		c-0.139-0.075-0.339-0.112-0.601-0.112H9.018l-0.252,1.2H9.18c0.359,0,0.632-0.07,0.822-0.192C10.19,26,10.278,25.82,10.264,25.602
		 M8.229,28.811H6.978c-0.086,0-0.414-0.033-0.36-0.398l0.769-3.602c0.044-0.207,0.248-0.375,0.456-0.375h2.116
		c0.307,0,0.575,0.019,0.804,0.053c0.232,0.035,0.433,0.096,0.605,0.183c0.169,0.086,0.284,0.169,0.396,0.338
		c0.118,0.175,0.147,0.305,0.163,0.515c0.037,0.503-0.181,0.843-0.628,1.13c-0.413,0.218-0.981,0.253-1.118,0.256
		c0,0-0.14,0.031,0.021,0.072c0,0,0.198,0.048,0.362,0.192c0.35,0.279,0.607,0.574,1.401,1.637h-1.875c0,0-0.322-0.646-0.994-1.611
		c-0.15-0.215-0.391-0.181-0.482-0.19L8.229,28.811z M34.21,27.98h1.516l-0.104,0.479c-0.041,0.198-0.249,0.352-0.449,0.352h-2.389
		c-0.085,0-0.411-0.033-0.357-0.398l0.767-3.602c0.045-0.207,0.248-0.375,0.455-0.375l1.318,0.006L34.21,27.98z M14.565,26.224h1.99
		l-0.101,0.458c-0.038,0.203-0.247,0.373-0.454,0.373h-1.614l-0.193,0.925h1.992l-0.104,0.479c-0.041,0.198-0.249,0.352-0.45,0.352
		h-2.865c-0.085,0-0.413-0.033-0.36-0.398l0.769-3.602c0.044-0.207,0.247-0.375,0.455-0.375h3.307l-0.101,0.479
		c-0.045,0.208-0.248,0.385-0.455,0.385h-1.616L14.565,26.224z M26.769,24.438l-0.1,0.479c-0.061,0.219-0.222,0.338-0.455,0.384
		h-0.106c-0.947,0-1.006,0.252-1.187,1.131l-0.226,1.036c-0.278,1.328-1.476,1.351-1.576,1.351l-2.399-0.002l0.102-0.465
		c0.062-0.231,0.232-0.371,0.455-0.371h0.576c0.946,0,1.007-0.266,1.188-1.143l0.226-1.046c0.284-1.322,1.728-1.353,1.95-1.353
		L26.769,24.438z"/>
	<g id="repsol_-_logo">
		<g>
			<defs>
				<path id="SVGID_1_" d="M13.513,12.873c-0.454,0.046-1.171,0.1-1.702,0.168c-0.928,0.121-1.772,0.245-1.843,0.329
					c-0.191,0.227,1.08,0.395,3.019,0.419c0.132,0.001,0.27,0.002,0.409,0.003c0.029-0.299,0.076-0.603,0.141-0.912l0.002-0.01
					C13.529,12.871,13.521,12.872,13.513,12.873"/>
			</defs>
			<clipPath id="SVGID_2_">
				<use xlink:href="#SVGID_1_"  overflow="visible"/>
			</clipPath>
			
				<linearGradient id="SVGID_3_" gradientUnits="userSpaceOnUse" x1="-467.3433" y1="702.5586" x2="-466.8545" y2="702.5586" gradientTransform="matrix(0.3749 2.1262 2.1262 -0.3749 -1306.9668 1270.0879)">
				<stop  offset="0" style="stop-color:#CD4E1E"/>
				<stop  offset="0.2393" style="stop-color:#DC691E"/>
				<stop  offset="0.5262" style="stop-color:#EA821E"/>
				<stop  offset="0.7881" style="stop-color:#F2911E"/>
				<stop  offset="1" style="stop-color:#F5961E"/>
			</linearGradient>
			<polygon clip-path="url(#SVGID_2_)" fill="url(#SVGID_3_)" points="13.425,12.227 13.696,13.764 9.89,14.435 9.619,12.897 			"/>
		</g>
		<g>
			<defs>
				<path id="SVGID_4_" d="M15.215,9.205c0,0-4.337,0.31-4.564,0.696c-0.685,1.31-0.702,3.504-0.702,3.504l0.003-0.007
					c0.003-0.01,0.008-0.019,0.017-0.028c0.071-0.084,0.915-0.208,1.843-0.329c0.53-0.068,1.248-0.122,1.702-0.167
					c0.007-0.001,0.016-0.002,0.025-0.003l-0.001,0c1.506-0.149,4.38-0.355,6.023-0.4c4.025-0.111,7.496-0.08,9.903,0.03
					c0.699-4.21-2.06-7.561-6.313-7.561C20.095,4.94,17.077,6.671,15.215,9.205"/>
			</defs>
			<clipPath id="SVGID_5_">
				<use xlink:href="#SVGID_4_"  overflow="visible"/>
			</clipPath>
			
				<linearGradient id="SVGID_6_" gradientUnits="userSpaceOnUse" x1="-303.4131" y1="611.4961" x2="-302.9242" y2="611.4961" gradientTransform="matrix(21.9083 21.9083 21.9083 -21.9083 -6733.875 20048.9219)">
				<stop  offset="0" style="stop-color:#FDBF4B"/>
				<stop  offset="0.1013" style="stop-color:#F7A732"/>
				<stop  offset="0.1963" style="stop-color:#F2951F"/>
				<stop  offset="0.4965" style="stop-color:#F2931F"/>
				<stop  offset="0.657" style="stop-color:#F18B1E"/>
				<stop  offset="0.7845" style="stop-color:#EF7D1E"/>
				<stop  offset="0.8938" style="stop-color:#ED6A1D"/>
				<stop  offset="0.9918" style="stop-color:#EA511B"/>
				<stop  offset="1" style="stop-color:#EA4F1B"/>
			</linearGradient>
			<polygon clip-path="url(#SVGID_5_)" fill="url(#SVGID_6_)" points="20.056,-5.167 34.395,9.172 20.056,23.51 5.717,9.172 			"/>
		</g>
		<g>
			<path fill="#E4152E" d="M28.045,16.063c-0.678,1.038-5.819-0.048-7.855,0.017c-0.009,0-0.946,0.033-0.974,0.035
				c-2.198,0.089-4.059,0.229-5.576,0.377c0,0,0,0,0,0.001c0.772,2.561,3.064,4.313,6.14,4.313
				C23.021,20.805,26.224,18.852,28.045,16.063z"/>
		</g>
		<g>
			<defs>
				<path id="SVGID_7_" d="M19.562,12.469c-1.643,0.045-4.518,0.251-6.023,0.4c-0.036,0.167-0.089,0.442-0.132,0.806
					c0,0.007,0,0.014-0.001,0.021c-0.015,0.124-0.025,0.247-0.033,0.371c0,0.007-0.001,0.015-0.002,0.024
					c-0.007,0.119-0.011,0.238-0.012,0.356c-0.001,0.075,0.001,0.148,0.003,0.222c0,0.062,0,0.123,0.003,0.185
					c0.005,0.13,0.014,0.261,0.027,0.387c0.003,0.037,0.01,0.074,0.013,0.11c0.012,0.099,0.023,0.199,0.04,0.297
					c0.007,0.04,0.015,0.079,0.022,0.118c0.017,0.094,0.035,0.188,0.056,0.281c0.008,0.037,0.017,0.073,0.026,0.109
					c0.024,0.096,0.049,0.192,0.077,0.285c0.004,0.017,0.009,0.032,0.014,0.049c1.515-0.149,3.378-0.29,5.577-0.378
					c0.027-0.002,0.965-0.035,0.973-0.036c2.036-0.064,6.617-0.027,7.858-0.016c0.197,0.002,0.317,0.002,0.317,0.002
					c1.041,0.016,1.468,0.026,2.551,0.083c0.501,0.027,1.329,0.058,1.374,0.166c0,0.002,0,0.002,0,0.002c0,0,0,0,0,0.001
					c-0.003,0.002-0.003,0.006-0.005,0.009l0.001,0.001c0.686-1.267,0.695-3.368,0.695-3.368c0.035-0.182-1.274-0.358-3.515-0.46
					c-1.373-0.063-3.092-0.1-5.062-0.1C22.921,12.4,21.292,12.421,19.562,12.469"/>
			</defs>
			<clipPath id="SVGID_8_">
				<use xlink:href="#SVGID_7_"  overflow="visible"/>
			</clipPath>
			
				<linearGradient id="SVGID_9_" gradientUnits="userSpaceOnUse" x1="-297.7603" y1="610.0488" x2="-297.2714" y2="610.0488" gradientTransform="matrix(36.2181 13.1823 13.1823 -36.2181 2756.5938 26031.125)">
				<stop  offset="0" style="stop-color:#89898A"/>
				<stop  offset="0.0298" style="stop-color:#A2A2A2"/>
				<stop  offset="0.0783" style="stop-color:#C3C3C4"/>
				<stop  offset="0.1281" style="stop-color:#DDDDDE"/>
				<stop  offset="0.1789" style="stop-color:#F0F0F0"/>
				<stop  offset="0.2314" style="stop-color:#FBFBFB"/>
				<stop  offset="0.2883" style="stop-color:#FFFFFF"/>
				<stop  offset="0.4968" style="stop-color:#FCFCFD"/>
				<stop  offset="0.6208" style="stop-color:#F4F4F4"/>
				<stop  offset="0.7227" style="stop-color:#E6E6E6"/>
				<stop  offset="0.8127" style="stop-color:#D2D2D2"/>
				<stop  offset="0.8946" style="stop-color:#B8B8B8"/>
				<stop  offset="0.9698" style="stop-color:#989899"/>
				<stop  offset="1" style="stop-color:#89898A"/>
			</linearGradient>
			<polygon clip-path="url(#SVGID_8_)" fill="url(#SVGID_9_)" points="15.658,6.082 34.332,12.878 30.717,22.81 12.043,16.014 			
				"/>
		</g>
		<g>
			<defs>
				<path id="SVGID_10_" d="M20.189,16.078c-0.009,0.001-0.945,0.034-0.975,0.036c-2.196,0.089-4.058,0.229-5.575,0.378
					c0,0.001,0,0.001,0,0.001c0.405,1.344,1.229,2.465,2.365,3.229c1.029,0.689,2.313,1.084,3.775,1.084
					c3.241,0,6.443-1.953,8.267-4.743c-0.698-0.006-2.452-0.021-4.216-0.021C22.458,16.042,21.08,16.05,20.189,16.078"/>
			</defs>
			<clipPath id="SVGID_11_">
				<use xlink:href="#SVGID_10_"  overflow="visible"/>
			</clipPath>
			<defs>
				<filter id="Adobe_OpacityMaskFilter" filterUnits="userSpaceOnUse" x="13.64" y="16.042" width="14.407" height="4.764">
					<feColorMatrix  type="matrix" values="1 0 0 0 0  0 1 0 0 0  0 0 1 0 0  0 0 0 1 0"/>
				</filter>
			</defs>
			<mask maskUnits="userSpaceOnUse" x="13.64" y="16.042" width="14.407" height="4.764" id="SVGID_12_">
				<g filter="url(#Adobe_OpacityMaskFilter)">
					
						<linearGradient id="SVGID_13_" gradientUnits="userSpaceOnUse" x1="-256.2422" y1="583.8945" x2="-255.7534" y2="583.8945" gradientTransform="matrix(0 -9.7472 -9.7472 0 5712.1797 -2476.8438)">
						<stop  offset="0" style="stop-color:#4D4D4D"/>
						<stop  offset="0.4969" style="stop-color:#000000"/>
						<stop  offset="0.5398" style="stop-color:#080808"/>
						<stop  offset="0.6076" style="stop-color:#1F1F1F"/>
						<stop  offset="0.6917" style="stop-color:#444444"/>
						<stop  offset="0.7889" style="stop-color:#787878"/>
						<stop  offset="0.8956" style="stop-color:#B8B8B8"/>
						<stop  offset="1" style="stop-color:#FFFFFF"/>
					</linearGradient>
					<rect x="13.64" y="16.042" clip-path="url(#SVGID_11_)" fill="url(#SVGID_13_)" width="14.407" height="4.764"/>
				</g>
			</mask>
			
				<linearGradient id="SVGID_14_" gradientUnits="userSpaceOnUse" x1="-256.2422" y1="583.8945" x2="-255.7534" y2="583.8945" gradientTransform="matrix(0 -9.7472 -9.7472 0 5712.1875 -2476.8359)">
				<stop  offset="0" style="stop-color:#6E0A1B"/>
				<stop  offset="0.4969" style="stop-color:#9F0B27"/>
				<stop  offset="0.6371" style="stop-color:#970B25"/>
				<stop  offset="0.8574" style="stop-color:#800A1F"/>
				<stop  offset="1" style="stop-color:#6E0A1B"/>
			</linearGradient>
			
				<rect x="13.64" y="16.042" clip-path="url(#SVGID_11_)" mask="url(#SVGID_12_)" fill="url(#SVGID_14_)" width="14.407" height="4.764"/>
		</g>
		<g>
			<defs>
				<path id="SVGID_15_" d="M15.215,9.205c1.34-0.125,3.089-0.226,4.803-0.256c0.335-0.005,0.978-0.141,1.339-0.677
					c0.67-0.997,1.331-2.004,2.272-2.339c0.016-0.007,0.031-0.014,0.049-0.021c1.431-0.546,3.318,0.783,4.622,3.082
					c0.23,0.001,0.631,0,0.906,0C28.362,6.575,26.12,4.94,23.15,4.94C20.096,4.94,17.077,6.673,15.215,9.205"/>
			</defs>
			<clipPath id="SVGID_16_">
				<use xlink:href="#SVGID_15_"  overflow="visible"/>
			</clipPath>
			<defs>
				<filter id="Adobe_OpacityMaskFilter_1_" filterUnits="userSpaceOnUse" x="13.844" y="0.444" width="16.733" height="13.257">
					<feColorMatrix  type="matrix" values="1 0 0 0 0  0 1 0 0 0  0 0 1 0 0  0 0 0 1 0"/>
				</filter>
			</defs>
			<mask maskUnits="userSpaceOnUse" x="13.844" y="0.444" width="16.733" height="13.257" id="SVGID_17_">
				<g filter="url(#Adobe_OpacityMaskFilter_1_)">
					
						<linearGradient id="SVGID_18_" gradientUnits="userSpaceOnUse" x1="-297.6445" y1="614.7119" x2="-297.1552" y2="614.7119" gradientTransform="matrix(25.1368 9.149 9.149 -25.1368 1874.5313 18180.1094)">
						<stop  offset="0" style="stop-color:#FFFFFF"/>
						<stop  offset="0.0859" style="stop-color:#FFFFFF"/>
						<stop  offset="0.6866" style="stop-color:#5D5D5D"/>
						<stop  offset="1" style="stop-color:#0D0D0D"/>
					</linearGradient>
					<polygon clip-path="url(#SVGID_16_)" fill="url(#SVGID_18_)" points="16.852,0.444 30.577,5.438 27.57,13.701 13.844,8.706 
											"/>
				</g>
			</mask>
			
				<linearGradient id="SVGID_19_" gradientUnits="userSpaceOnUse" x1="-297.6445" y1="614.7119" x2="-297.1557" y2="614.7119" gradientTransform="matrix(25.1368 9.149 9.149 -25.1368 1874.5625 18180.0938)">
				<stop  offset="0" style="stop-color:#FDBF4B"/>
				<stop  offset="0.0859" style="stop-color:#FDBF4B"/>
				<stop  offset="1" style="stop-color:#ED821E"/>
			</linearGradient>
			<polygon clip-path="url(#SVGID_16_)" mask="url(#SVGID_17_)" fill="url(#SVGID_19_)" points="16.852,0.444 30.577,5.438 
				27.57,13.701 13.844,8.706 			"/>
		</g>
		<g>
			<defs>
				<path id="SVGID_20_" d="M21.489,16.053c-0.333,0.273-0.718,0.677-0.892,1.04c-1.181,1.996-1.592,3.953-5.243,0.965
					c0,0-0.581-0.053-0.976,0.023c0.402,0.61,0.913,1.138,1.516,1.563c0.045,0.028,0.083,0.055,0.112,0.077
					c0.068,0.043,0.136,0.088,0.207,0.132c0.991,0.607,2.202,0.952,3.566,0.952c3.241,0,6.443-1.953,8.267-4.743
					c-0.309-0.002-0.821-0.007-1.45-0.012c-0.796-0.004-1.79-0.009-2.775-0.009C22.997,16.042,22.18,16.045,21.489,16.053"/>
			</defs>
			<clipPath id="SVGID_21_">
				<use xlink:href="#SVGID_20_"  overflow="visible"/>
			</clipPath>
			<defs>
				<filter id="Adobe_OpacityMaskFilter_2_" filterUnits="userSpaceOnUse" x="11.974" y="9.473" width="18.478" height="18.142">
					<feColorMatrix  type="matrix" values="1 0 0 0 0  0 1 0 0 0  0 0 1 0 0  0 0 0 1 0"/>
				</filter>
			</defs>
			<mask maskUnits="userSpaceOnUse" x="11.974" y="9.473" width="18.478" height="18.142" id="SVGID_22_">
				<g filter="url(#Adobe_OpacityMaskFilter_2_)">
					
						<linearGradient id="SVGID_23_" gradientUnits="userSpaceOnUse" x1="-278.0122" y1="604.9766" x2="-277.5232" y2="604.9766" gradientTransform="matrix(12.5291 -16.6267 -16.6267 -12.5291 13560.75 2979.1563)">
						<stop  offset="0" style="stop-color:#000000"/>
						<stop  offset="0.0123" style="stop-color:#000000"/>
						<stop  offset="0.0503" style="stop-color:#131313"/>
						<stop  offset="0.1547" style="stop-color:#444444"/>
						<stop  offset="0.2586" style="stop-color:#6B6B6B"/>
						<stop  offset="0.3602" style="stop-color:#8A8A8A"/>
						<stop  offset="0.4588" style="stop-color:#A1A1A1"/>
						<stop  offset="0.553" style="stop-color:#AEAEAE"/>
						<stop  offset="0.638" style="stop-color:#B3B3B3"/>
						<stop  offset="1" style="stop-color:#FFFFFF"/>
					</linearGradient>
					<polygon clip-path="url(#SVGID_21_)" fill="url(#SVGID_23_)" points="11.974,19.235 19.329,9.473 30.452,17.854 23.097,27.615 
											"/>
				</g>
			</mask>
			
				<linearGradient id="SVGID_24_" gradientUnits="userSpaceOnUse" x1="-278.0122" y1="604.9766" x2="-277.5232" y2="604.9766" gradientTransform="matrix(12.5291 -16.6267 -16.6267 -12.5291 13560.75 2979.1563)">
				<stop  offset="0" style="stop-color:#DF0032"/>
				<stop  offset="0.0123" style="stop-color:#DF0032"/>
				<stop  offset="0.1169" style="stop-color:#C3032B"/>
				<stop  offset="0.2557" style="stop-color:#A40724"/>
				<stop  offset="0.3913" style="stop-color:#8E0A1F"/>
				<stop  offset="0.5209" style="stop-color:#810B1C"/>
				<stop  offset="0.638" style="stop-color:#7C0C1B"/>
				<stop  offset="1" style="stop-color:#7E0D1B"/>
			</linearGradient>
			<polygon clip-path="url(#SVGID_21_)" mask="url(#SVGID_22_)" fill="url(#SVGID_24_)" points="11.974,19.235 19.329,9.473 
				30.452,17.854 23.097,27.615 			"/>
		</g>
		<g>
			<defs>
				<path id="SVGID_25_" d="M32.29,16.314C32.29,16.315,32.29,16.316,32.29,16.314 M32.29,16.311c0,0,0,0.001,0,0.002
					c0,0,0,0,0,0.001c0-0.001,0-0.001,0-0.002c0-0.001,0-0.003,0-0.003S32.29,16.309,32.29,16.311 M28.041,16.064h0.006
					c-0.183,0.276-0.375,0.555-0.581,0.785l0,0c2.853-0.091,4.733-0.277,4.824-0.536c-0.054-0.107-0.875-0.139-1.373-0.165
					c-1.084-0.058-1.509-0.067-2.551-0.083c0,0-0.121,0-0.321-0.002L28.041,16.064z"/>
			</defs>
			<clipPath id="SVGID_26_">
				<use xlink:href="#SVGID_25_"  overflow="visible"/>
			</clipPath>
			
				<linearGradient id="SVGID_27_" gradientUnits="userSpaceOnUse" x1="-47.3716" y1="513.4063" x2="-46.8828" y2="513.4063" gradientTransform="matrix(0 -1.608 -1.608 0 855.4355 -59.3252)">
				<stop  offset="0" style="stop-color:#C2C4C4"/>
				<stop  offset="0.0061" style="stop-color:#C2C4C4"/>
				<stop  offset="0.1803" style="stop-color:#BBBDBD"/>
				<stop  offset="0.4367" style="stop-color:#A7AAAA"/>
				<stop  offset="0.7423" style="stop-color:#878B8B"/>
				<stop  offset="1" style="stop-color:#666B6C"/>
			</linearGradient>
			<rect x="27.466" y="16.063" clip-path="url(#SVGID_26_)" fill="url(#SVGID_27_)" width="4.824" height="0.786"/>
		</g>
	</g>
</g>
</svg>
