<?xml version="1.0" encoding="utf-8"?>
<!-- Generator: Adobe Illustrator 16.0.0, SVG Export Plug-In . SVG Version: 6.00 Build 0)  -->
<!DOCTYPE svg PUBLIC "-//W3C//DTD SVG 1.1//EN" "http://www.w3.org/Graphics/SVG/1.1/DTD/svg11.dtd">
<svg version="1.1" id="Layer_1" xmlns="http://www.w3.org/2000/svg" xmlns:xlink="http://www.w3.org/1999/xlink" x="0px" y="0px"
	 width="43px" height="60px" viewBox="0 0 43 60" enable-background="new 0 0 43 60" xml:space="preserve">
<path id="fondo_x5F_icono" fill="#FFFFFF" d="M42.054,21.176c0-11.286-9.154-20.44-20.439-20.44c-11.286,0-20.44,9.154-20.44,20.44
	c0,0.865,0.061,1.7,0.164,2.534c0.269,3.161,2.505,15.283,20.291,36.094c20.917-24.466,20.337-36.541,20.337-36.541
	C42.024,22.578,42.054,21.892,42.054,21.176"/>
<path fill="#F59720" d="M21.491,3.369c9.793,0,17.76,7.967,17.76,17.759c0,0.635-0.025,1.242-0.08,1.856l-0.025,0.144l0.018,0.21
	c-0.01,0.56-0.42,11.344-17.656,32.283C15.102,47.832,10.306,40.563,7.23,33.981c-2.7-5.778-3.237-9.298-3.343-10.543l-0.005-0.054
	l-0.007-0.056c-0.097-0.771-0.144-1.49-0.144-2.201C3.732,11.335,11.7,3.369,21.491,3.369 M21.491,0.582
	c-11.344,0-20.545,9.202-20.545,20.546c0,0.869,0.06,1.708,0.165,2.547c0.27,3.177,2.518,15.36,20.396,36.28
	c21.025-24.591,20.441-36.73,20.441-36.73c0.059-0.689,0.09-1.379,0.09-2.098C42.038,9.783,32.837,0.582,21.491,0.582"/>
<g id="saras">
	<g id="XMLID_762_">
		<g>
			<path id="XMLID_39_" fill="#EE424C" d="M14.979,9.211c-0.391,0.894-0.811,1.653-1.06,2.465c-0.86,2.81,0.539,5.664,3.252,6.747
				c2.607,1.042,5.63-0.066,6.927-2.542c1.356-2.59,0.085-5.151-2.79-5.547c-0.68-0.094-1.382-0.043-2.074-0.023
				C17.768,10.354,16.263,10.596,14.979,9.211z M22.124,18.932c3.687-0.871,6.529-2.627,8.079-6.028
				c1.517-3.33,0.058-6.652-3.422-7.818c-3.006-1.007-5.834-0.35-8.483,1.222c-0.363,0.216-0.83,0.767-0.771,1.071
				c0.1,0.525,0.488,1.087,0.92,1.425c0.343,0.269,0.928,0.307,1.406,0.307c1.069,0.001,2.14-0.147,3.207-0.125
				c3.157,0.066,4.863,2.581,3.67,5.496c-0.361,0.882-0.96,1.74-1.651,2.394C24.257,17.649,23.213,18.191,22.124,18.932z"/>
			<path id="XMLID_38_" fill="#EE424C" d="M14.979,9.211c1.284,1.385,2.789,1.143,4.255,1.101c0.692-0.02,1.395-0.071,2.074,0.023
				c2.875,0.396,4.146,2.957,2.79,5.547c-1.297,2.475-4.319,3.584-6.927,2.542c-2.713-1.083-4.112-3.937-3.252-6.747
				C14.167,10.864,14.588,10.105,14.979,9.211z"/>
			<path id="XMLID_37_" fill="#EE424C" d="M22.124,18.932c1.089-0.741,2.133-1.283,2.954-2.058c0.691-0.653,1.29-1.512,1.651-2.394
				c1.193-2.915-0.513-5.43-3.67-5.496c-1.067-0.022-2.138,0.125-3.207,0.125c-0.479,0-1.063-0.038-1.406-0.307
				c-0.432-0.338-0.82-0.9-0.92-1.425c-0.059-0.304,0.408-0.855,0.771-1.071c2.649-1.571,5.478-2.229,8.483-1.222
				c3.479,1.166,4.938,4.488,3.422,7.818C28.653,16.305,25.811,18.061,22.124,18.932z"/>
		</g>
	</g>
	<g id="XMLID_127_">
		<path id="XMLID_141_" fill="#111E2A" d="M13.598,24.18c-0.414-0.31-0.908-0.517-1.413-0.517c-0.494,0-0.654,0.218-0.654,0.357
			c0,0.287,0.379,0.47,1.034,0.78c0.459,0.218,1.274,0.598,1.274,1.643c0,0.598-0.367,1.643-1.964,1.643
			c-0.873,0-1.413-0.265-1.746-0.437v-1.184c0.574,0.413,1.16,0.552,1.504,0.552c0.494,0,0.712-0.195,0.712-0.402
			c0-0.311-0.299-0.447-1.183-0.884c-0.356-0.173-1.103-0.552-1.103-1.527c0-0.644,0.425-1.563,1.998-1.563
			c0.873,0,1.333,0.242,1.54,0.345V24.18z"/>
		<path id="XMLID_138_" fill="#111E2A" d="M19.007,26.374c0,0.252,0.011,0.47,0.229,0.47c0.104,0,0.229-0.057,0.563-0.264v0.93
			c-0.563,0.311-1.023,0.575-1.482,0.575c-0.299,0-0.644-0.173-0.78-0.494c-0.219,0.126-0.862,0.494-1.528,0.494
			c-0.597,0-1.504-0.334-1.504-1.286c0-0.804,0.54-1.333,1.54-1.654l1.412-0.459c0-0.46-0.012-1.023-0.885-1.023
			c-0.941,0-1.527,0.655-1.825,0.964v-1.285c0.585-0.529,1.309-0.701,2.113-0.701c0.447,0,1.264,0.07,1.803,0.679
			c0.345,0.39,0.345,0.803,0.345,1.159V26.374z M17.456,25.501c-0.551,0.126-1.332,0.39-1.332,0.999
			c0,0.344,0.218,0.574,0.505,0.574c0.46,0,0.678-0.265,0.827-0.414V25.501z"/>
		<path id="XMLID_133_" fill="#111E2A" d="M22.129,22.71v1.367c0.426-0.896,0.886-1.437,1.46-1.437c0.401,0,0.735,0.161,1.147,0.46
			l-0.505,1.526c-0.207-0.148-0.586-0.424-0.907-0.424c-0.413,0-1.195,0.333-1.195,2.837v0.977h-1.55V22.71H22.129z"/>
		<path id="XMLID_130_" fill="#111E2A" d="M29.411,26.374c0,0.252,0.01,0.47,0.229,0.47c0.104,0,0.229-0.057,0.563-0.264v0.93
			c-0.563,0.311-1.021,0.575-1.482,0.575c-0.297,0-0.642-0.173-0.78-0.494c-0.218,0.126-0.861,0.494-1.527,0.494
			c-0.597,0-1.505-0.334-1.505-1.286c0-0.804,0.539-1.333,1.54-1.654l1.412-0.459c0-0.46-0.011-1.023-0.885-1.023
			c-0.94,0-1.528,0.655-1.825,0.964v-1.285c0.585-0.529,1.309-0.701,2.113-0.701c0.446,0,1.262,0.07,1.803,0.679
			c0.345,0.39,0.345,0.803,0.345,1.159V26.374z M27.86,25.501c-0.552,0.126-1.331,0.39-1.331,0.999c0,0.344,0.217,0.574,0.504,0.574
			c0.46,0,0.677-0.265,0.827-0.414V25.501z"/>
		<path id="XMLID_128_" fill="#111E2A" d="M34.166,24.18c-0.415-0.31-0.908-0.517-1.415-0.517c-0.493,0-0.653,0.218-0.653,0.357
			c0,0.287,0.379,0.47,1.033,0.78c0.46,0.218,1.275,0.598,1.275,1.643c0,0.598-0.367,1.643-1.964,1.643
			c-0.872,0-1.413-0.265-1.746-0.437v-1.184c0.575,0.413,1.16,0.552,1.505,0.552c0.494,0,0.711-0.195,0.711-0.402
			c0-0.311-0.299-0.447-1.183-0.884c-0.355-0.173-1.103-0.552-1.103-1.527c0-0.644,0.426-1.563,1.999-1.563
			c0.873,0,1.332,0.242,1.54,0.345V24.18z"/>
	</g>
</g>
</svg>
