<?xml version="1.0" encoding="utf-8"?>
<!-- Generator: Adobe Illustrator 16.0.0, SVG Export Plug-In . SVG Version: 6.00 Build 0)  -->
<!DOCTYPE svg PUBLIC "-//W3C//DTD SVG 1.1//EN" "http://www.w3.org/Graphics/SVG/1.1/DTD/svg11.dtd">
<svg version="1.1" id="Layer_1" xmlns="http://www.w3.org/2000/svg" xmlns:xlink="http://www.w3.org/1999/xlink" x="0px" y="0px"
	 width="72px" height="100px" viewBox="0 0 72 100" enable-background="new 0 0 72 100" xml:space="preserve">
<path id="fondo_x5F_icono" fill="#FFFFFF" d="M70.6,35.367c0-18.833-15.275-34.109-34.109-34.109
	c-18.833,0-34.109,15.276-34.109,34.109c0,1.444,0.1,2.836,0.274,4.229c0.447,5.275,4.18,25.503,33.86,60.233
	C71.42,59.002,70.451,38.852,70.451,38.852C70.551,37.707,70.6,36.562,70.6,35.367"/>
<path fill="#F59720" d="M36.285,5.65c16.342,0,29.637,13.295,29.637,29.636c0,1.059-0.043,2.073-0.133,3.097l-0.043,0.24
	l0.029,0.351c-0.016,0.934-0.703,18.929-29.464,53.872C25.623,79.85,17.618,67.721,12.487,56.736
	c-4.506-9.642-5.402-15.516-5.578-17.594L6.9,39.052L6.89,38.959c-0.162-1.286-0.24-2.487-0.24-3.673
	C6.65,18.945,19.945,5.65,36.285,5.65 M36.285,1C17.355,1,2,16.355,2,35.286c0,1.45,0.1,2.85,0.276,4.25
	c0.45,5.302,4.201,25.633,34.035,60.543c35.086-41.037,34.111-61.293,34.111-61.293c0.1-1.15,0.15-2.302,0.15-3.5
	C70.572,16.355,55.217,1,36.285,1"/>
<g id="triangiulo_inferior">
	<path fill="#F59720" d="M7.481,57.183C12.23,67.5,20.784,81.704,36.208,99.751c15.521-18.154,24.095-32.302,28.827-42.494
		c-8.219-5.589-18.139-8.855-28.827-8.855C25.565,48.402,15.68,51.639,7.481,57.183"/>
	<path fill="#FFFFFF" d="M41.943,73.224c-0.053,0.068-0.102,0.136-0.162,0.196c-0.496,0.496-1.303,0.496-1.801,0
		c-0.492-0.493-0.492-1.299,0-1.796c0.047-0.044,0.096-0.086,0.146-0.126c1.277-1.095,2.084-2.717,2.084-4.522
		c0-1.759-0.766-3.336-1.977-4.426c-0.092-0.055-0.176-0.117-0.254-0.198c-0.492-0.493-0.492-1.298,0-1.796
		c0.498-0.497,1.305-0.497,1.801,0c0.041,0.04,0.076,0.089,0.109,0.127c1.727,1.548,2.82,3.799,2.82,6.293
		C44.711,69.449,43.641,71.675,41.943,73.224 M32.28,62.555c0.089-0.052,0.177-0.118,0.253-0.192c0.497-0.5,0.497-1.303,0-1.8
		c-0.498-0.497-1.303-0.497-1.798,0c-0.034,0.033-0.07,0.076-0.098,0.109c-1.736,1.555-2.828,3.798-2.828,6.304
		c0,2.466,1.062,4.686,2.751,6.226c0.05,0.083,0.105,0.158,0.175,0.229c0.495,0.49,1.3,0.49,1.798,0
		c0.497-0.503,0.497-1.303,0-1.806c-0.042-0.035-0.083-0.069-0.122-0.102v-0.01c-1.289-1.094-2.11-2.718-2.11-4.537
		C30.302,65.227,31.067,63.646,32.28,62.555 M38.924,64.051c-0.023-0.019-0.041-0.04-0.057-0.057
		c-0.168-0.169-0.389-0.263-0.621-0.263c-0.238,0-0.459,0.094-0.627,0.263c-0.346,0.347-0.346,0.902,0,1.243
		c0.043,0.041,0.09,0.08,0.141,0.118c0.457,0.421,0.719,1.012,0.719,1.631c0,0.645-0.279,1.263-0.775,1.685l-0.018,0.013
		c-0.02,0.013-0.039,0.03-0.066,0.061c-0.166,0.162-0.252,0.384-0.252,0.621c0,0.235,0.086,0.458,0.252,0.622
		c0.168,0.169,0.389,0.263,0.627,0.263c0.232,0,0.453-0.094,0.621-0.263c0.027-0.027,0.057-0.061,0.086-0.098
		c0.809-0.752,1.266-1.811,1.266-2.903C40.219,65.874,39.754,64.803,38.924,64.051 M34.898,65.24
		c0.167-0.165,0.262-0.392,0.262-0.624c0-0.234-0.094-0.456-0.262-0.622c-0.17-0.169-0.389-0.258-0.622-0.258
		c-0.238,0-0.459,0.089-0.627,0.258c-0.012,0.017-0.032,0.038-0.046,0.057c-0.833,0.752-1.309,1.818-1.309,2.936
		c0,1.089,0.463,2.142,1.262,2.896c0.028,0.041,0.061,0.072,0.093,0.111c0.167,0.163,0.389,0.257,0.627,0.257
		c0.233,0,0.452-0.094,0.622-0.257c0.167-0.17,0.262-0.389,0.262-0.622c0-0.237-0.094-0.46-0.266-0.631
		c-0.02-0.02-0.034-0.03-0.052-0.044l-0.019-0.021c-0.494-0.426-0.785-1.04-0.785-1.688c0-0.619,0.262-1.206,0.715-1.631
		C34.805,65.322,34.855,65.285,34.898,65.24 M44.443,55.846c-0.041-0.045-0.098-0.082-0.154-0.124
		c-0.658-0.434-1.547-0.258-1.98,0.403c-0.406,0.613-0.277,1.436,0.289,1.894c0.018,0.014,0.039,0.021,0.055,0.037
		c0.018,0.013,0.037,0.034,0.059,0.044c2.705,1.987,4.471,5.192,4.471,8.804c0,6.033-4.893,10.919-10.924,10.919
		c-6.029,0-10.916-4.886-10.916-10.919c0-3.596,1.738-6.777,4.422-8.771h-0.004h0.004c0.653-0.444,0.82-1.326,0.379-1.978
		c-0.442-0.65-1.324-0.823-1.978-0.379c-0.042,0.025-0.08,0.057-0.122,0.091c-3.369,2.507-5.55,6.522-5.55,11.037
		c0,7.605,6.165,13.769,13.765,13.769c7.602,0,13.768-6.163,13.768-13.769C50.025,62.373,47.828,58.355,44.443,55.846"/>
</g>
<g id="saras">
	<g id="XMLID_762_">
		<g>
			<path id="XMLID_39_" fill="#EE424C" d="M24.614,15.288c-0.625,1.431-1.298,2.646-1.696,3.946
				c-1.376,4.498,0.862,9.064,5.204,10.799c4.173,1.669,9.011-0.106,11.087-4.068c2.17-4.146,0.135-8.244-4.466-8.878
				c-1.087-0.15-2.211-0.068-3.319-0.037C29.078,17.117,26.67,17.504,24.614,15.288z M36.051,30.847
				c5.899-1.395,10.45-4.205,12.931-9.648c2.428-5.329,0.092-10.646-5.477-12.512c-4.811-1.612-9.338-0.56-13.578,1.955
				c-0.582,0.346-1.329,1.227-1.235,1.714c0.159,0.84,0.782,1.739,1.472,2.28c0.548,0.43,1.485,0.491,2.25,0.491
				c1.711,0.001,3.425-0.235,5.133-0.2c5.053,0.105,7.783,4.13,5.873,8.795c-0.578,1.412-1.535,2.786-2.643,3.832
				C39.464,28.794,37.794,29.661,36.051,30.847z"/>
			<path id="XMLID_38_" fill="#EE424C" d="M24.614,15.288c2.056,2.217,4.464,1.829,6.811,1.762c1.107-0.032,2.231-0.114,3.319,0.037
				c4.601,0.635,6.636,4.733,4.466,8.878c-2.076,3.961-6.914,5.737-11.087,4.068c-4.342-1.734-6.581-6.301-5.204-10.799
				C23.316,17.934,23.989,16.719,24.614,15.288z"/>
			<path id="XMLID_37_" fill="#EE424C" d="M36.051,30.847c1.743-1.186,3.413-2.053,4.728-3.293c1.107-1.046,2.064-2.419,2.643-3.832
				c1.91-4.666-0.82-8.69-5.873-8.795c-1.708-0.036-3.422,0.201-5.133,0.2c-0.765,0-1.702-0.061-2.25-0.491
				c-0.69-0.541-1.313-1.44-1.472-2.28c-0.094-0.487,0.653-1.368,1.235-1.714c4.24-2.515,8.768-3.567,13.578-1.955
				c5.568,1.866,7.904,7.184,5.477,12.512C46.501,26.642,41.95,29.452,36.051,30.847z"/>
		</g>
	</g>
	<g id="XMLID_127_">
		<path id="XMLID_141_" fill="#111E2A" d="M22.405,39.245c-0.662-0.496-1.453-0.827-2.261-0.827c-0.79,0-1.048,0.349-1.048,0.57
			c0,0.46,0.606,0.753,1.655,1.25c0.735,0.349,2.04,0.956,2.04,2.628c0,0.957-0.588,2.629-3.144,2.629
			c-1.397,0-2.261-0.423-2.793-0.698v-1.894c0.919,0.661,1.856,0.883,2.408,0.883c0.791,0,1.14-0.313,1.14-0.645
			c0-0.496-0.478-0.716-1.893-1.414c-0.57-0.276-1.765-0.883-1.765-2.445c0-1.029,0.68-2.5,3.198-2.5
			c1.397,0,2.133,0.387,2.464,0.553V39.245z"/>
		<path id="XMLID_138_" fill="#111E2A" d="M31.062,42.757c0,0.404,0.018,0.753,0.367,0.753c0.165,0,0.367-0.091,0.901-0.423v1.488
			c-0.901,0.497-1.637,0.92-2.372,0.92c-0.478,0-1.029-0.275-1.25-0.79c-0.349,0.202-1.379,0.79-2.445,0.79
			c-0.956,0-2.409-0.533-2.409-2.059c0-1.286,0.864-2.133,2.464-2.646l2.26-0.735c0-0.735-0.019-1.637-1.416-1.637
			c-1.507,0-2.445,1.048-2.922,1.544v-2.058c0.937-0.847,2.095-1.122,3.382-1.122c0.717,0,2.022,0.111,2.885,1.086
			c0.552,0.624,0.552,1.285,0.552,1.855V42.757z M28.58,41.36c-0.882,0.201-2.132,0.624-2.132,1.599
			c0,0.551,0.349,0.919,0.809,0.919c0.735,0,1.084-0.424,1.323-0.662V41.36z"/>
		<path id="XMLID_133_" fill="#111E2A" d="M36.059,36.894v2.188c0.681-1.435,1.417-2.299,2.337-2.299
			c0.643,0,1.176,0.257,1.836,0.736l-0.809,2.443c-0.33-0.238-0.938-0.68-1.451-0.68c-0.662,0-1.913,0.533-1.913,4.541v1.563h-2.481
			v-8.492H36.059z"/>
		<path id="XMLID_130_" fill="#111E2A" d="M47.714,42.757c0,0.404,0.016,0.753,0.367,0.753c0.166,0,0.367-0.091,0.9-0.423v1.488
			c-0.9,0.497-1.635,0.92-2.373,0.92c-0.475,0-1.027-0.275-1.248-0.79c-0.35,0.202-1.379,0.79-2.445,0.79
			c-0.955,0-2.408-0.533-2.408-2.059c0-1.286,0.863-2.133,2.465-2.646l2.26-0.735c0-0.735-0.018-1.637-1.416-1.637
			c-1.506,0-2.445,1.048-2.922,1.544v-2.058c0.938-0.847,2.096-1.122,3.383-1.122c0.715,0,2.02,0.111,2.885,1.086
			c0.553,0.624,0.553,1.285,0.553,1.855V42.757z M45.231,41.36c-0.883,0.201-2.131,0.624-2.131,1.599
			c0,0.551,0.348,0.919,0.807,0.919c0.736,0,1.084-0.424,1.324-0.662V41.36z"/>
		<path id="XMLID_128_" fill="#111E2A" d="M55.323,39.245c-0.664-0.496-1.453-0.827-2.264-0.827c-0.789,0-1.047,0.349-1.047,0.57
			c0,0.46,0.607,0.753,1.654,1.25c0.736,0.349,2.041,0.956,2.041,2.628c0,0.957-0.588,2.629-3.143,2.629
			c-1.396,0-2.262-0.423-2.795-0.698v-1.894c0.92,0.661,1.857,0.883,2.408,0.883c0.791,0,1.139-0.313,1.139-0.645
			c0-0.496-0.479-0.716-1.893-1.414c-0.57-0.276-1.766-0.883-1.766-2.445c0-1.029,0.682-2.5,3.199-2.5
			c1.398,0,2.133,0.387,2.465,0.553V39.245z"/>
	</g>
</g>
</svg>
