<?xml version="1.0" encoding="utf-8"?>
<!-- Generator: Adobe Illustrator 16.0.0, SVG Export Plug-In . SVG Version: 6.00 Build 0)  -->
<!DOCTYPE svg PUBLIC "-//W3C//DTD SVG 1.1//EN" "http://www.w3.org/Graphics/SVG/1.1/DTD/svg11.dtd">
<svg version="1.1" id="Layer_1" xmlns="http://www.w3.org/2000/svg" xmlns:xlink="http://www.w3.org/1999/xlink" x="0px" y="0px"
	 width="43px" height="60px" viewBox="0 0 43 60" enable-background="new 0 0 43 60" xml:space="preserve">
<path id="fondo_x5F_icono" fill="#FFFFFF" d="M42.054,21.176c0-11.286-9.154-20.44-20.439-20.44c-11.286,0-20.44,9.154-20.44,20.44
	c0,0.865,0.061,1.7,0.164,2.534c0.269,3.161,2.505,15.283,20.291,36.094c20.917-24.466,20.337-36.541,20.337-36.541
	C42.024,22.578,42.054,21.892,42.054,21.176"/>
<path fill="#F59720" d="M21.491,3.369c9.793,0,17.76,7.967,17.76,17.759c0,0.635-0.025,1.242-0.08,1.856l-0.025,0.144l0.018,0.21
	c-0.01,0.56-0.42,11.344-17.656,32.283C15.102,47.832,10.306,40.563,7.23,33.981c-2.7-5.778-3.237-9.298-3.343-10.543l-0.005-0.054
	l-0.007-0.056c-0.097-0.771-0.144-1.49-0.144-2.201C3.732,11.335,11.7,3.369,21.491,3.369 M21.491,0.582
	c-11.344,0-20.545,9.202-20.545,20.546c0,0.869,0.06,1.708,0.165,2.547c0.27,3.177,2.518,15.36,20.396,36.28
	c21.025-24.591,20.441-36.73,20.441-36.73c0.059-0.689,0.09-1.379,0.09-2.098C42.038,9.783,32.837,0.582,21.491,0.582"/>
<g id="shell">
	<g id="XMLID_770_">
		<path id="XMLID_950_" fill="#ED1C2E" d="M23.41,27.424h1.888c-0.016-0.349-0.324-0.751-0.954-0.751
			C23.712,26.673,23.423,27.158,23.41,27.424z M26.469,28.454c-0.15,0.463-0.768,1.101-2.125,1.101c-1.398,0-2.301-0.75-2.301-1.743
			c0-0.782,0.695-1.766,2.246-1.766c1.865,0,2.287,1.173,2.256,2.005h-3.105c-0.01,0.446,0.355,0.815,0.91,0.815
			c0.557,0,0.759-0.29,0.764-0.408h1.355V28.454z"/>
		<g id="XMLID_858_">
			<g id="XMLID_946_">
				<g id="XMLID_947_">
					<rect id="XMLID_949_" x="27.334" y="25.106" fill="#ED1C2E" width="1.37" height="4.323"/>
					<path id="XMLID_948_" fill="#ED1C2E" d="M28.02,27.268"/>
				</g>
			</g>
			<g id="XMLID_863_">
				<g id="XMLID_942_">
					<rect id="XMLID_945_" x="29.86" y="25.106" fill="#ED1C2E" width="1.399" height="4.323"/>
					<path id="XMLID_943_" fill="#ED1C2E" d="M30.559,27.268"/>
				</g>
			</g>
			<g id="XMLID_861_">
				<path id="XMLID_862_" fill="#ED1C2E" d="M19.94,26.037c0.964,0,1.36,0.52,1.461,1.2v2.192h-1.338v-1.886v-0.088
					c0-0.247-0.177-0.596-0.686-0.596c-0.511,0-0.781,0.337-0.866,0.814v1.755h-1.369v-4.323h1.369v1.41
					C18.909,26.242,19.434,26.037,19.94,26.037L19.94,26.037z"/>
			</g>
			<path id="XMLID_859_" fill="#ED1C2E" d="M13.036,28.051c-0.055,0.389,0.365,0.722,0.955,0.722c0.665,0,0.959-0.248,0.959-0.58
				c0-0.29-0.205-0.439-0.889-0.439c-1.811-0.022-2.297-0.47-2.305-1.284c-0.006-0.64,0.428-1.426,2.251-1.426
				c1.736,0,2.222,0.562,2.253,1.41h-1.399l0,0c-0.006-0.455-0.262-0.689-0.863-0.689c-0.6,0-0.813,0.306-0.813,0.494
				c0,0.188,0.114,0.478,0.822,0.478c1.486,0.034,2.374,0.248,2.374,1.237c0,0.869-0.694,1.543-2.466,1.52
				c-1.723,0.022-2.309-0.565-2.309-1.441H13.036L13.036,28.051z"/>
		</g>
	</g>
	<polygon id="XMLID_856_" fill-rule="evenodd" clip-rule="evenodd" fill="#ED1C24" points="20.51,23.845 20.229,23.645 
		14.941,23.645 14.45,19.733 12.85,18.572 12.048,17.991 11.246,17.411 11.156,16.883 11.093,16.36 11.056,15.837 11.045,15.315 
		11.062,14.798 11.104,14.286 11.167,13.779 11.257,13.283 11.309,13.035 11.367,12.792 11.436,12.544 11.504,12.307 11.583,12.063 
		11.663,11.826 11.752,11.589 11.842,11.351 11.943,11.124 12.048,10.892 12.154,10.665 12.27,10.443 12.391,10.222 12.513,10.005 
		12.645,9.794 12.777,9.583 12.914,9.376 13.062,9.171 13.209,8.976 13.363,8.775 13.521,8.585 13.685,8.396 13.854,8.21 
		14.027,8.031 14.207,7.852 14.387,7.678 14.571,7.514 14.761,7.345 14.956,7.187 15.157,7.034 15.357,6.88 15.563,6.738 
		15.668,6.669 15.774,6.601 15.88,6.532 15.991,6.463 16.097,6.395 16.208,6.332 16.318,6.268 16.429,6.205 16.545,6.142 
		16.656,6.083 16.772,6.025 16.889,5.967 17.005,5.915 17.12,5.856 17.236,5.809 17.353,5.756 17.41,5.73 17.469,5.709 
		17.532,5.683 17.591,5.656 17.653,5.635 17.712,5.609 17.774,5.587 17.833,5.561 17.896,5.54 17.959,5.519 18.022,5.497 
		18.081,5.477 18.145,5.455 18.208,5.434 18.266,5.414 18.329,5.397 18.388,5.381 18.45,5.36 18.514,5.345 18.577,5.324 
		18.641,5.308 18.71,5.287 18.772,5.271 18.836,5.255 18.899,5.239 18.963,5.223 19.031,5.207 19.095,5.191 19.158,5.175 
		19.227,5.16 19.29,5.144 19.354,5.128 19.485,5.102 19.617,5.081 19.749,5.054 19.876,5.038 20.007,5.017 20.14,5.002 
		20.267,4.986 20.398,4.97 20.53,4.959 20.657,4.949 20.789,4.943 20.916,4.933 21.048,4.928 21.175,4.928 21.307,4.922 
		21.433,4.922 21.565,4.922 21.691,4.928 21.818,4.928 21.95,4.938 22.076,4.943 22.204,4.954 22.336,4.964 22.462,4.975 
		22.589,4.991 22.715,5.007 22.842,5.023 22.969,5.038 23.09,5.06 23.216,5.081 23.344,5.102 23.466,5.128 23.586,5.154 
		23.712,5.181 23.835,5.207 23.956,5.239 24.077,5.271 24.199,5.302 24.32,5.339 24.44,5.376 24.563,5.414 24.684,5.45 
		24.801,5.493 24.922,5.535 25.038,5.577 25.16,5.624 25.274,5.667 25.391,5.714 25.509,5.767 25.625,5.814 25.734,5.867 
		25.851,5.919 25.962,5.973 26.078,6.031 26.188,6.083 26.299,6.142 26.409,6.2 26.516,6.263 26.627,6.321 26.731,6.384 
		26.838,6.448 26.944,6.517 27.049,6.58 27.153,6.648 27.36,6.785 27.561,6.933 27.762,7.081 27.957,7.234 28.151,7.393 
		28.338,7.556 28.521,7.725 28.702,7.899 28.88,8.079 29.055,8.258 29.224,8.448 29.388,8.638 29.545,8.833 29.698,9.034 
		29.853,9.235 29.993,9.44 30.137,9.652 30.274,9.868 30.406,10.089 30.527,10.311 30.649,10.539 30.766,10.766 30.875,11.003 
		30.982,11.235 31.076,11.478 31.172,11.721 31.255,11.968 31.34,12.217 31.413,12.47 31.481,12.724 31.541,12.982 31.6,13.247 
		31.693,13.764 31.768,14.28 31.805,14.803 31.82,15.326 31.805,15.848 31.768,16.371 31.693,16.893 31.6,17.411 28.399,19.733 
		27.909,23.645 22.633,23.645 22.313,23.845 22.213,23.918 22.108,23.982 21.998,24.035 21.888,24.077 21.771,24.109 21.655,24.135 
		21.539,24.151 21.417,24.151 21.295,24.151 21.179,24.135 21.063,24.109 20.947,24.077 20.832,24.035 20.721,23.982 20.614,23.918 
		20.51,23.845 	"/>
	<polygon id="XMLID_855_" fill-rule="evenodd" clip-rule="evenodd" fill="#FFD400" points="20.963,22.224 20.383,21.813 
		16.556,21.813 16.145,18.694 12.987,16.402 12.908,16.044 12.867,15.674 12.85,15.304 12.872,14.935 12.919,14.566 12.999,14.202 
		13.098,13.842 13.226,13.494 18.847,19.153 13.399,12.459 13.441,12.296 13.489,12.137 13.547,11.974 13.605,11.821 13.674,11.668 
		13.747,11.515 13.827,11.367 13.911,11.225 14.006,11.082 14.102,10.945 14.202,10.813 14.307,10.686 14.418,10.56 14.528,10.438 
		14.65,10.322 14.772,10.211 19.638,18.608 15.31,9.419 15.421,9.282 15.537,9.15 15.653,9.018 15.78,8.896 15.907,8.781 
		16.033,8.665 16.171,8.559 16.308,8.454 16.45,8.358 16.598,8.269 16.746,8.184 16.904,8.105 17.063,8.026 17.221,7.963 
		17.39,7.899 17.559,7.841 20.51,18.281 18.35,7.419 18.498,7.335 18.651,7.261 18.81,7.192 18.968,7.124 19.132,7.065 
		19.295,7.018 19.464,6.97 19.633,6.933 19.802,6.901 19.971,6.875 20.14,6.859 20.314,6.849 20.483,6.844 20.657,6.849 
		20.825,6.859 20.995,6.88 21.417,18.154 21.877,6.88 22.045,6.859 22.22,6.849 22.388,6.844 22.558,6.849 22.726,6.859 22.9,6.875 
		23.063,6.901 23.233,6.933 23.402,6.97 23.564,7.018 23.729,7.065 23.893,7.124 24.057,7.192 24.215,7.261 24.372,7.335 
		24.531,7.419 22.325,18.281 25.317,7.841 25.481,7.899 25.64,7.963 25.799,8.026 25.955,8.105 26.108,8.184 26.257,8.269 
		26.404,8.358 26.552,8.454 26.689,8.559 26.827,8.665 26.96,8.781 27.092,8.896 27.213,9.018 27.334,9.15 27.45,9.282 
		27.561,9.419 23.242,18.608 28.099,10.211 28.222,10.322 28.342,10.438 28.452,10.56 28.563,10.686 28.664,10.813 28.765,10.945 
		28.859,11.082 28.943,11.225 29.028,11.367 29.107,11.515 29.182,11.668 29.25,11.821 29.313,11.974 29.372,12.137 29.424,12.296 
		29.472,12.459 24.03,19.153 29.594,13.494 29.736,13.842 29.841,14.202 29.921,14.566 29.967,14.935 29.989,15.304 29.974,15.674 
		29.926,16.044 29.853,16.402 26.695,18.694 26.315,21.813 22.494,21.813 21.918,22.224 21.861,22.262 21.802,22.292 21.744,22.32 
		21.687,22.34 21.622,22.356 21.56,22.367 21.502,22.378 21.438,22.378 21.375,22.378 21.312,22.367 21.253,22.356 21.19,22.34 
		21.132,22.32 21.074,22.292 21.016,22.262 20.963,22.224 	"/>
</g>
</svg>
