<?xml version="1.0" encoding="utf-8"?>
<!-- Generator: Adobe Illustrator 16.0.0, SVG Export Plug-In . SVG Version: 6.00 Build 0)  -->
<!DOCTYPE svg PUBLIC "-//W3C//DTD SVG 1.1//EN" "http://www.w3.org/Graphics/SVG/1.1/DTD/svg11.dtd">
<svg version="1.1" id="icono_x5F_gsol_x5F_openy" xmlns="http://www.w3.org/2000/svg" xmlns:xlink="http://www.w3.org/1999/xlink"
	 x="0px" y="0px" width="72px" height="100px" viewBox="0 0 72 100" enable-background="new 0 0 72 100" xml:space="preserve">
<path id="fondo_x5F_icono" fill="#3C3D3D" d="M70.34,35.099c0-18.961-15.38-34.341-34.342-34.341
	c-18.961,0-34.341,15.38-34.341,34.341c0,1.454,0.101,2.855,0.276,4.258C2.384,44.668,6.141,65.033,36.024,100
	C71.167,58.895,70.19,38.607,70.19,38.607C70.291,37.454,70.34,36.302,70.34,35.099"/>
<g id="triangiulo_inferior">
	<path fill="#F2861A" d="M7.481,57.782c4.683,10.172,13.115,24.176,28.322,41.969c15.302-17.898,23.755-31.847,28.422-41.896
		c-8.104-5.51-17.885-8.73-28.422-8.73C25.311,49.125,15.564,52.316,7.481,57.782"/>
	<path fill="#FFFFFF" d="M41.458,73.598c-0.052,0.067-0.102,0.134-0.161,0.193c-0.489,0.489-1.284,0.489-1.775,0
		c-0.484-0.486-0.484-1.28,0-1.771c0.046-0.044,0.095-0.085,0.146-0.124c1.26-1.08,2.055-2.679,2.055-4.459
		c0-1.734-0.755-3.289-1.949-4.363c-0.09-0.055-0.174-0.116-0.251-0.195c-0.484-0.486-0.484-1.28,0-1.771
		c0.491-0.489,1.286-0.489,1.775,0c0.041,0.04,0.075,0.088,0.109,0.126c1.701,1.525,2.78,3.745,2.78,6.204
		C44.187,69.876,43.131,72.07,41.458,73.598 M31.93,63.079c0.088-0.052,0.174-0.117,0.25-0.19c0.49-0.492,0.49-1.284,0-1.774
		c-0.491-0.489-1.285-0.489-1.772,0c-0.033,0.033-0.069,0.075-0.097,0.108c-1.712,1.532-2.789,3.744-2.789,6.215
		c0,2.431,1.047,4.619,2.713,6.138c0.05,0.082,0.104,0.156,0.172,0.226c0.488,0.483,1.282,0.483,1.772,0
		c0.49-0.496,0.49-1.284,0-1.78c-0.041-0.035-0.082-0.068-0.12-0.101v-0.01c-1.271-1.078-2.08-2.679-2.08-4.473
		C29.98,65.713,30.734,64.154,31.93,63.079 M38.481,64.554c-0.022-0.019-0.04-0.039-0.056-0.056
		c-0.166-0.167-0.383-0.259-0.612-0.259c-0.235,0-0.453,0.092-0.618,0.259c-0.341,0.342-0.341,0.89,0,1.226
		c0.043,0.04,0.088,0.079,0.139,0.116c0.451,0.415,0.709,0.998,0.709,1.608c0,0.635-0.275,1.244-0.766,1.66l-0.018,0.013
		c-0.018,0.013-0.037,0.03-0.064,0.06c-0.164,0.16-0.248,0.379-0.248,0.612c0,0.232,0.084,0.452,0.248,0.613
		c0.165,0.167,0.383,0.26,0.618,0.26c0.229,0,0.446-0.093,0.612-0.26c0.027-0.026,0.056-0.06,0.084-0.096
		c0.797-0.741,1.249-1.785,1.249-2.862C39.758,66.352,39.299,65.295,38.481,64.554 M34.512,65.727
		c0.165-0.163,0.258-0.386,0.258-0.615c0-0.231-0.093-0.45-0.258-0.613c-0.167-0.167-0.383-0.254-0.613-0.254
		c-0.235,0-0.453,0.087-0.618,0.254c-0.012,0.017-0.032,0.037-0.046,0.056c-0.821,0.741-1.291,1.793-1.291,2.895
		c0,1.073,0.457,2.111,1.245,2.854c0.028,0.04,0.06,0.071,0.092,0.109c0.165,0.161,0.383,0.254,0.618,0.254
		c0.229,0,0.445-0.093,0.613-0.254c0.165-0.167,0.258-0.383,0.258-0.613c0-0.233-0.093-0.453-0.262-0.622
		c-0.019-0.019-0.033-0.029-0.051-0.043l-0.019-0.021c-0.487-0.42-0.774-1.025-0.774-1.664c0-0.61,0.258-1.189,0.705-1.608
		C34.42,65.808,34.47,65.771,34.512,65.727 M43.922,56.464c-0.041-0.044-0.096-0.08-0.152-0.122
		c-0.648-0.428-1.524-0.254-1.951,0.397c-0.402,0.605-0.274,1.416,0.284,1.867c0.017,0.014,0.038,0.021,0.054,0.037
		c0.017,0.012,0.037,0.033,0.059,0.043c2.667,1.959,4.406,5.119,4.406,8.68c0,5.948-4.823,10.765-10.77,10.765
		c-5.944,0-10.762-4.816-10.762-10.765c0-3.545,1.713-6.682,4.359-8.648h-0.004h0.004c0.644-0.438,0.808-1.307,0.374-1.949
		c-0.436-0.642-1.306-0.812-1.95-0.374c-0.042,0.025-0.079,0.057-0.12,0.09c-3.321,2.472-5.472,6.431-5.472,10.882
		c0,7.498,6.078,13.574,13.571,13.574c7.495,0,13.573-6.076,13.573-13.574C49.425,62.899,47.259,58.938,43.922,56.464"/>
</g>
<g>
	<path id="repsol_-_letras" fill="#FFFFFF" d="M43.586,42.378c-0.347-1.873,1.369-3.943,3.535-4.542
		c2.518-0.506,4.637,0.46,5.022,2.394c0.268,1.888-1.188,3.866-3.627,4.434C46.208,45.093,43.985,44.265,43.586,42.378
		 M46.828,40.106c-0.842,0.962-1.061,2.217-0.483,2.801c0.575,0.583,1.726,0.279,2.569-0.684c0.843-0.961,1.061-2.215,0.485-2.802
		C48.822,38.838,47.671,39.144,46.828,40.106 M35.111,39.741c-0.016-0.254-0.139-0.444-0.366-0.566
		c-0.228-0.122-0.558-0.184-0.99-0.184h-0.44L32.9,40.917h0.352c0.609,0,1.078-0.09,1.403-0.296
		C34.984,40.411,35.135,40.126,35.111,39.741 M30.311,44.494c0,0-0.656,0.031-0.568-0.593l1.146-5.375
		c0.065-0.308,0.368-0.567,0.678-0.567h2.766c0.508,0,0.951,0.043,1.33,0.1c0.382,0.057,0.716,0.161,0.999,0.298
		c0.28,0.14,0.499,0.323,0.655,0.546c0.156,0.221,0.246,0.555,0.269,0.886c0.049,0.752-0.296,1.35-1.033,1.81
		c-0.734,0.462-1.789,0.626-3.163,0.626h-0.761l-0.484,2.269H30.311z M19.612,39.714c-0.017-0.262-0.129-0.447-0.338-0.555
		c-0.207-0.113-0.505-0.168-0.896-0.168h-0.622l-0.376,1.788h0.618c0.534,0,0.941-0.105,1.224-0.286
		C19.502,40.308,19.632,40.04,19.612,39.714 M16.58,44.494h-1.864c-0.129,0-0.616-0.05-0.537-0.593l1.146-5.365
		c0.065-0.308,0.368-0.557,0.678-0.557h3.152c0.458,0,0.856,0.027,1.198,0.078c0.345,0.053,0.645,0.142,0.901,0.271
		c0.252,0.128,0.422,0.252,0.59,0.503c0.175,0.26,0.219,0.454,0.243,0.766c0.054,0.75-0.27,1.256-0.936,1.683
		c-0.615,0.324-1.462,0.376-1.666,0.381c0,0-0.208,0.047,0.031,0.108c0,0,0.295,0.072,0.539,0.287
		c0.521,0.416,0.904,0.854,2.086,2.437h-2.793c0,0-0.48-0.961-1.48-2.4c-0.223-0.321-0.582-0.269-0.718-0.283L16.58,44.494z
		 M55.278,43.256h2.258l-0.155,0.715c-0.06,0.294-0.37,0.523-0.67,0.523h-3.556c-0.128,0-0.614-0.05-0.534-0.593l1.144-5.365
		c0.066-0.308,0.369-0.557,0.678-0.557l1.962,0.007L55.278,43.256z M26.018,40.641h2.964l-0.149,0.682
		c-0.058,0.303-0.369,0.556-0.677,0.556h-2.403l-0.289,1.376h2.968l-0.154,0.715c-0.062,0.294-0.372,0.523-0.671,0.523H23.34
		c-0.128,0-0.615-0.05-0.536-0.593l1.145-5.365c0.066-0.308,0.368-0.557,0.678-0.557h4.926l-0.149,0.713
		c-0.067,0.309-0.37,0.573-0.677,0.573h-2.407L26.018,40.641z M44.194,37.98l-0.149,0.713c-0.09,0.326-0.329,0.503-0.678,0.572
		h-0.158c-1.41,0-1.497,0.374-1.768,1.684l-0.336,1.543c-0.413,1.978-2.196,2.012-2.348,2.012l-3.572-0.003l0.15-0.692
		c0.091-0.344,0.347-0.553,0.678-0.553h0.858c1.409,0,1.499-0.394,1.769-1.701l0.336-1.559c0.425-1.969,2.573-2.015,2.904-2.015
		L44.194,37.98z"/>
	<g id="repsol_-_logo">
		<g>
			<defs>
				<path id="SVGID_1_" d="M24.45,20.754c-0.675,0.068-1.745,0.149-2.534,0.25c-1.383,0.181-2.64,0.364-2.746,0.49
					c-0.285,0.337,1.608,0.587,4.496,0.625c0.197,0.001,0.402,0.002,0.609,0.004c0.043-0.445,0.113-0.898,0.21-1.358l0.003-0.015
					C24.475,20.752,24.462,20.753,24.45,20.754"/>
			</defs>
			<clipPath id="SVGID_2_">
				<use xlink:href="#SVGID_1_"  overflow="visible"/>
			</clipPath>
			
				<linearGradient id="SVGID_3_" gradientUnits="userSpaceOnUse" x1="-458.478" y1="721.4209" x2="-457.7496" y2="721.4209" gradientTransform="matrix(0.3749 2.1262 2.1262 -0.3749 -1340.3837 1266.2716)">
				<stop  offset="0" style="stop-color:#CD4E1E"/>
				<stop  offset="0.2393" style="stop-color:#DC691E"/>
				<stop  offset="0.5262" style="stop-color:#EA821E"/>
				<stop  offset="0.7881" style="stop-color:#F2911E"/>
				<stop  offset="1" style="stop-color:#F5961E"/>
			</linearGradient>
			<polygon clip-path="url(#SVGID_2_)" fill="url(#SVGID_3_)" points="24.319,19.793 24.723,22.083 19.054,23.082 18.65,20.792 			
				"/>
		</g>
		<g>
			<defs>
				<path id="SVGID_4_" d="M26.985,15.292c0,0-6.459,0.462-6.798,1.037c-1.02,1.951-1.046,5.218-1.046,5.218l0.004-0.01
					c0.004-0.015,0.013-0.027,0.025-0.042c0.105-0.126,1.363-0.309,2.745-0.49c0.79-0.102,1.859-0.181,2.535-0.25
					c0.011-0.002,0.024-0.003,0.037-0.004l-0.001,0.001c2.244-0.223,6.524-0.53,8.971-0.597c5.995-0.166,11.166-0.119,14.75,0.045
					c1.041-6.271-3.067-11.261-9.403-11.261C34.253,8.939,29.759,11.518,26.985,15.292"/>
			</defs>
			<clipPath id="SVGID_5_">
				<use xlink:href="#SVGID_4_"  overflow="visible"/>
			</clipPath>
			
				<linearGradient id="SVGID_6_" gradientUnits="userSpaceOnUse" x1="-289.1807" y1="631.7939" x2="-288.4526" y2="631.7939" gradientTransform="matrix(21.9083 21.9083 21.9083 -21.9083 -7478.373 20185.7734)">
				<stop  offset="0" style="stop-color:#FDBF4B"/>
				<stop  offset="0.1013" style="stop-color:#F7A732"/>
				<stop  offset="0.1963" style="stop-color:#F2951F"/>
				<stop  offset="0.4965" style="stop-color:#F2931F"/>
				<stop  offset="0.657" style="stop-color:#F18B1E"/>
				<stop  offset="0.7845" style="stop-color:#EF7D1E"/>
				<stop  offset="0.8938" style="stop-color:#ED6A1D"/>
				<stop  offset="0.9918" style="stop-color:#EA511B"/>
				<stop  offset="1" style="stop-color:#EA4F1B"/>
			</linearGradient>
			<polygon clip-path="url(#SVGID_5_)" fill="url(#SVGID_6_)" points="34.196,-6.114 55.553,15.243 34.196,36.6 12.839,15.243 			
				"/>
		</g>
		<g>
			<path fill="#E4152E" d="M46.096,25.506c-1.01,1.545-8.669-0.072-11.702,0.024c-0.012,0.001-1.408,0.05-1.45,0.053
				c-3.273,0.133-6.045,0.341-8.304,0.563c0,0,0,0,0,0.001c1.15,3.814,4.564,6.424,9.146,6.424
				C38.614,32.571,43.382,29.66,46.096,25.506z"/>
		</g>
		<g>
			<defs>
				<path id="SVGID_7_" d="M33.46,20.154c-2.447,0.067-6.729,0.374-8.972,0.597c-0.053,0.25-0.133,0.658-0.196,1.2
					c0,0.011,0,0.021-0.001,0.032c-0.022,0.185-0.037,0.368-0.049,0.553c0,0.01-0.002,0.022-0.003,0.035
					c-0.01,0.179-0.016,0.356-0.017,0.531c-0.002,0.111,0.001,0.221,0.005,0.331c0,0.092,0,0.184,0.005,0.275
					c0.007,0.195,0.021,0.389,0.04,0.578c0.005,0.055,0.015,0.11,0.02,0.164c0.018,0.148,0.035,0.296,0.059,0.442
					c0.01,0.06,0.022,0.117,0.032,0.176c0.025,0.141,0.052,0.281,0.083,0.419c0.012,0.056,0.025,0.108,0.039,0.163
					c0.036,0.143,0.072,0.286,0.114,0.425c0.007,0.025,0.014,0.048,0.021,0.073c2.257-0.223,5.032-0.432,8.307-0.563
					c0.041-0.002,1.437-0.052,1.449-0.054c3.033-0.095,9.855-0.041,11.704-0.023c0.294,0.003,0.473,0.003,0.473,0.003
					c1.551,0.024,2.186,0.039,3.8,0.125c0.746,0.04,1.979,0.086,2.046,0.248c0,0.003,0,0.003,0,0.003c0,0,0,0,0,0.003
					c-0.003,0.004-0.004,0.009-0.007,0.014l0.001,0.001c1.021-1.888,1.036-5.017,1.036-5.017c0.053-0.271-1.899-0.534-5.234-0.685
					c-2.045-0.095-4.605-0.149-7.539-0.149C38.462,20.051,36.038,20.083,33.46,20.154"/>
			</defs>
			<clipPath id="SVGID_8_">
				<use xlink:href="#SVGID_7_"  overflow="visible"/>
			</clipPath>
			
				<linearGradient id="SVGID_9_" gradientUnits="userSpaceOnUse" x1="-283.2905" y1="630.3398" x2="-282.5623" y2="630.3398" gradientTransform="matrix(36.2181 13.1823 13.1823 -36.2181 1976.2982 26582.3398)">
				<stop  offset="0" style="stop-color:#89898A"/>
				<stop  offset="0.0298" style="stop-color:#A2A2A2"/>
				<stop  offset="0.0783" style="stop-color:#C3C3C4"/>
				<stop  offset="0.1281" style="stop-color:#DDDDDE"/>
				<stop  offset="0.1789" style="stop-color:#F0F0F0"/>
				<stop  offset="0.2314" style="stop-color:#FBFBFB"/>
				<stop  offset="0.2883" style="stop-color:#FFFFFF"/>
				<stop  offset="0.4968" style="stop-color:#FCFCFD"/>
				<stop  offset="0.6208" style="stop-color:#F4F4F4"/>
				<stop  offset="0.7227" style="stop-color:#E6E6E6"/>
				<stop  offset="0.8127" style="stop-color:#D2D2D2"/>
				<stop  offset="0.8946" style="stop-color:#B8B8B8"/>
				<stop  offset="0.9698" style="stop-color:#989899"/>
				<stop  offset="1" style="stop-color:#89898A"/>
			</linearGradient>
			<polygon clip-path="url(#SVGID_8_)" fill="url(#SVGID_9_)" points="27.645,10.641 55.459,20.764 50.075,35.557 22.261,25.434 			
				"/>
		</g>
		<g>
			<defs>
				<path id="SVGID_10_" d="M34.394,25.529c-0.012,0.001-1.407,0.051-1.451,0.053c-3.271,0.133-6.044,0.342-8.303,0.563
					c0,0.001,0,0.001,0,0.001c0.603,2.001,1.83,3.671,3.523,4.808c1.533,1.027,3.446,1.616,5.623,1.616
					c4.828,0,9.597-2.911,12.313-7.065c-1.039-0.01-3.653-0.032-6.28-0.032C37.774,25.474,35.722,25.487,34.394,25.529"/>
			</defs>
			<clipPath id="SVGID_11_">
				<use xlink:href="#SVGID_10_"  overflow="visible"/>
			</clipPath>
			<defs>
				<filter id="Adobe_OpacityMaskFilter" filterUnits="userSpaceOnUse" x="24.64" y="25.474" width="21.458" height="7.097">
					<feColorMatrix  type="matrix" values="1 0 0 0 0  0 1 0 0 0  0 0 1 0 0  0 0 0 1 0"/>
				</filter>
			</defs>
			<mask maskUnits="userSpaceOnUse" x="24.64" y="25.474" width="21.458" height="7.097" id="SVGID_12_">
				<g filter="url(#Adobe_OpacityMaskFilter)">
					
						<linearGradient id="SVGID_13_" gradientUnits="userSpaceOnUse" x1="-240.7407" y1="603.8975" x2="-240.0127" y2="603.8975" gradientTransform="matrix(0 -9.7472 -9.7472 0 5921.6899 -2313.9851)">
						<stop  offset="0" style="stop-color:#4D4D4D"/>
						<stop  offset="0.4969" style="stop-color:#000000"/>
						<stop  offset="0.5398" style="stop-color:#080808"/>
						<stop  offset="0.6076" style="stop-color:#1F1F1F"/>
						<stop  offset="0.6917" style="stop-color:#444444"/>
						<stop  offset="0.7889" style="stop-color:#787878"/>
						<stop  offset="0.8956" style="stop-color:#B8B8B8"/>
						<stop  offset="1" style="stop-color:#FFFFFF"/>
					</linearGradient>
					<rect x="24.64" y="25.474" clip-path="url(#SVGID_11_)" fill="url(#SVGID_13_)" width="21.458" height="7.097"/>
				</g>
			</mask>
			
				<linearGradient id="SVGID_14_" gradientUnits="userSpaceOnUse" x1="-240.7417" y1="603.8975" x2="-240.0137" y2="603.8975" gradientTransform="matrix(0 -9.7472 -9.7472 0 5921.6899 -2313.9851)">
				<stop  offset="0" style="stop-color:#6E0A1B"/>
				<stop  offset="0.4969" style="stop-color:#9F0B27"/>
				<stop  offset="0.6371" style="stop-color:#970B25"/>
				<stop  offset="0.8574" style="stop-color:#800A1F"/>
				<stop  offset="1" style="stop-color:#6E0A1B"/>
			</linearGradient>
			
				<rect x="24.64" y="25.474" clip-path="url(#SVGID_11_)" mask="url(#SVGID_12_)" fill="url(#SVGID_14_)" width="21.458" height="7.097"/>
		</g>
		<g>
			<defs>
				<path id="SVGID_15_" d="M26.985,15.292c1.995-0.187,4.601-0.336,7.154-0.381c0.499-0.008,1.456-0.21,1.994-1.009
					c0.999-1.484,1.983-2.985,3.384-3.485c0.023-0.011,0.048-0.02,0.072-0.03c2.132-0.813,4.943,1.166,6.885,4.59
					c0.344,0.001,0.94,0,1.351,0c-1.257-3.603-4.597-6.037-9.02-6.037C34.255,8.939,29.759,11.521,26.985,15.292"/>
			</defs>
			<clipPath id="SVGID_16_">
				<use xlink:href="#SVGID_15_"  overflow="visible"/>
			</clipPath>
			<defs>
				<filter id="Adobe_OpacityMaskFilter_1_" filterUnits="userSpaceOnUse" x="24.944" y="2.243" width="24.924" height="19.746">
					<feColorMatrix  type="matrix" values="1 0 0 0 0  0 1 0 0 0  0 0 1 0 0  0 0 0 1 0"/>
				</filter>
			</defs>
			<mask maskUnits="userSpaceOnUse" x="24.944" y="2.243" width="24.924" height="19.746" id="SVGID_17_">
				<g filter="url(#Adobe_OpacityMaskFilter_1_)">
					
						<linearGradient id="SVGID_18_" gradientUnits="userSpaceOnUse" x1="-283.2783" y1="635.249" x2="-282.5499" y2="635.249" gradientTransform="matrix(25.1368 9.149 9.149 -25.1368 1337.9961 18569.0137)">
						<stop  offset="0" style="stop-color:#FFFFFF"/>
						<stop  offset="0.0859" style="stop-color:#FFFFFF"/>
						<stop  offset="0.6866" style="stop-color:#5D5D5D"/>
						<stop  offset="1" style="stop-color:#0D0D0D"/>
					</linearGradient>
					<polygon clip-path="url(#SVGID_16_)" fill="url(#SVGID_18_)" points="29.423,2.243 49.868,9.682 45.388,21.989 24.944,14.548 
											"/>
				</g>
			</mask>
			
				<linearGradient id="SVGID_19_" gradientUnits="userSpaceOnUse" x1="-283.2783" y1="635.25" x2="-282.5499" y2="635.25" gradientTransform="matrix(25.1368 9.149 9.149 -25.1368 1337.996 18569.0215)">
				<stop  offset="0" style="stop-color:#FDBF4B"/>
				<stop  offset="0.0859" style="stop-color:#FDBF4B"/>
				<stop  offset="1" style="stop-color:#ED821E"/>
			</linearGradient>
			<polygon clip-path="url(#SVGID_16_)" mask="url(#SVGID_17_)" fill="url(#SVGID_19_)" points="29.423,2.243 49.868,9.682 
				45.388,21.989 24.944,14.548 			"/>
		</g>
		<g>
			<defs>
				<path id="SVGID_20_" d="M36.33,25.492c-0.496,0.408-1.068,1.008-1.328,1.549c-1.759,2.973-2.37,5.888-7.809,1.438
					c0,0-0.866-0.079-1.454,0.034c0.599,0.908,1.36,1.694,2.257,2.327c0.066,0.043,0.124,0.082,0.168,0.115
					c0.101,0.065,0.202,0.131,0.307,0.197c1.477,0.905,3.28,1.419,5.313,1.419c4.828,0,9.597-2.911,12.313-7.065
					c-0.46-0.004-1.224-0.011-2.161-0.017c-1.186-0.007-2.665-0.013-4.133-0.013C38.577,25.476,37.36,25.48,36.33,25.492"/>
			</defs>
			<clipPath id="SVGID_21_">
				<use xlink:href="#SVGID_20_"  overflow="visible"/>
			</clipPath>
			<defs>
				<filter id="Adobe_OpacityMaskFilter_2_" filterUnits="userSpaceOnUse" x="22.158" y="15.691" width="27.521" height="27.021">
					<feColorMatrix  type="matrix" values="1 0 0 0 0  0 1 0 0 0  0 0 1 0 0  0 0 0 1 0"/>
				</filter>
			</defs>
			<mask maskUnits="userSpaceOnUse" x="22.158" y="15.691" width="27.521" height="27.021" id="SVGID_22_">
				<g filter="url(#Adobe_OpacityMaskFilter_2_)">
					
						<linearGradient id="SVGID_23_" gradientUnits="userSpaceOnUse" x1="-263.0977" y1="625.2402" x2="-262.3696" y2="625.2402" gradientTransform="matrix(12.5291 -16.6267 -16.6267 -12.5291 13724.3301 3493.3218)">
						<stop  offset="0" style="stop-color:#000000"/>
						<stop  offset="0.0123" style="stop-color:#000000"/>
						<stop  offset="0.0503" style="stop-color:#131313"/>
						<stop  offset="0.1547" style="stop-color:#444444"/>
						<stop  offset="0.2586" style="stop-color:#6B6B6B"/>
						<stop  offset="0.3602" style="stop-color:#8A8A8A"/>
						<stop  offset="0.4588" style="stop-color:#A1A1A1"/>
						<stop  offset="0.553" style="stop-color:#AEAEAE"/>
						<stop  offset="0.638" style="stop-color:#B3B3B3"/>
						<stop  offset="1" style="stop-color:#FFFFFF"/>
					</linearGradient>
					<polygon clip-path="url(#SVGID_21_)" fill="url(#SVGID_23_)" points="22.158,30.23 33.113,15.691 49.679,28.175 38.724,42.712 
											"/>
				</g>
			</mask>
			
				<linearGradient id="SVGID_24_" gradientUnits="userSpaceOnUse" x1="-263.0977" y1="625.2402" x2="-262.3696" y2="625.2402" gradientTransform="matrix(12.5291 -16.6267 -16.6267 -12.5291 13724.3301 3493.3218)">
				<stop  offset="0" style="stop-color:#DF0032"/>
				<stop  offset="0.0123" style="stop-color:#DF0032"/>
				<stop  offset="0.1169" style="stop-color:#C3032B"/>
				<stop  offset="0.2557" style="stop-color:#A40724"/>
				<stop  offset="0.3913" style="stop-color:#8E0A1F"/>
				<stop  offset="0.5209" style="stop-color:#810B1C"/>
				<stop  offset="0.638" style="stop-color:#7C0C1B"/>
				<stop  offset="1" style="stop-color:#7E0D1B"/>
			</linearGradient>
			<polygon clip-path="url(#SVGID_21_)" mask="url(#SVGID_22_)" fill="url(#SVGID_24_)" points="22.158,30.23 33.113,15.691 
				49.679,28.175 38.724,42.712 			"/>
		</g>
		<g>
			<defs>
				<path id="SVGID_25_" d="M52.418,25.881C52.418,25.883,52.418,25.884,52.418,25.881 M52.418,25.875c0,0.001,0,0.002-0.001,0.004
					c0.001,0,0.001,0.001,0.001,0.002c0-0.001,0-0.002,0-0.003c0-0.002,0-0.004,0-0.004S52.418,25.874,52.418,25.875 M46.09,25.508
					h0.008c-0.271,0.412-0.56,0.825-0.866,1.168h0.001c4.248-0.136,7.05-0.413,7.185-0.798c-0.079-0.161-1.303-0.207-2.045-0.246
					c-1.614-0.086-2.248-0.1-3.798-0.124c0,0-0.182,0-0.479-0.003L46.09,25.508z"/>
			</defs>
			<clipPath id="SVGID_26_">
				<use xlink:href="#SVGID_25_"  overflow="visible"/>
			</clipPath>
			
				<linearGradient id="SVGID_27_" gradientUnits="userSpaceOnUse" x1="-26.5273" y1="530.5879" x2="-25.7988" y2="530.5879" gradientTransform="matrix(0 -1.608 -1.608 0 902.0249 -15.9793)">
				<stop  offset="0" style="stop-color:#C2C4C4"/>
				<stop  offset="0.0061" style="stop-color:#C2C4C4"/>
				<stop  offset="0.1803" style="stop-color:#BBBDBD"/>
				<stop  offset="0.4367" style="stop-color:#A7AAAA"/>
				<stop  offset="0.7423" style="stop-color:#878B8B"/>
				<stop  offset="1" style="stop-color:#666B6C"/>
			</linearGradient>
			<rect x="45.232" y="25.506" clip-path="url(#SVGID_26_)" fill="url(#SVGID_27_)" width="7.187" height="1.171"/>
		</g>
	</g>
</g>
</svg>
