<?xml version="1.0" encoding="utf-8"?>
<!-- Generator: Adobe Illustrator 16.0.0, SVG Export Plug-In . SVG Version: 6.00 Build 0)  -->
<!DOCTYPE svg PUBLIC "-//W3C//DTD SVG 1.1//EN" "http://www.w3.org/Graphics/SVG/1.1/DTD/svg11.dtd">
<svg version="1.1" xmlns="http://www.w3.org/2000/svg" xmlns:xlink="http://www.w3.org/1999/xlink" x="0px" y="0px" width="200px"
	 height="200px" viewBox="0 0 200 200" enable-background="new 0 0 200 200" xml:space="preserve">
<g id="Layer_1">
	<g>
		<defs>
			<path id="SVGID_1_" d="M49.41,68.708c-2.885,0.292-7.439,0.63-10.804,1.069c-5.891,0.771-11.25,1.551-11.702,2.087
				c-1.214,1.432,6.855,2.498,19.166,2.663c0.837,0.007,1.712,0.011,2.592,0.017c0.187-1.898,0.48-3.83,0.892-5.785l0.016-0.068
				C49.512,68.696,49.457,68.703,49.41,68.708"/>
		</defs>
		<clipPath id="SVGID_2_">
			<use xlink:href="#SVGID_1_"  overflow="visible"/>
		</clipPath>
		
			<linearGradient id="SVGID_3_" gradientUnits="userSpaceOnUse" x1="-108.3867" y1="675.8398" x2="-106.4597" y2="675.8398" gradientTransform="matrix(0.6036 3.4234 3.4234 -0.6036 -2210.9434 848.7578)">
			<stop  offset="0" style="stop-color:#D96426"/>
			<stop  offset="0.2062" style="stop-color:#E37A26"/>
			<stop  offset="0.5056" style="stop-color:#EF9325"/>
			<stop  offset="0.7788" style="stop-color:#F6A225"/>
			<stop  offset="1" style="stop-color:#F9A725"/>
		</linearGradient>
		<polygon clip-path="url(#SVGID_2_)" fill="url(#SVGID_3_)" points="48.849,64.607 50.569,74.367 26.411,78.627 24.689,68.868 		
			"/>
	</g>
	<g>
		<defs>
			<path id="SVGID_4_" d="M60.216,45.425c0,0-27.533,1.972-28.974,4.417c-4.349,8.313-4.452,22.24-4.452,22.24l0.013-0.047
				c0.019-0.056,0.057-0.113,0.106-0.171c0.451-0.536,5.811-1.316,11.701-2.087c3.367-0.439,7.921-0.777,10.805-1.067
				c0.048-0.007,0.098-0.013,0.156-0.019v0.001c9.562-0.946,27.799-2.253,38.227-2.539c25.551-0.705,47.59-0.506,62.869,0.19
				c4.437-26.719-13.074-47.989-40.078-47.989C91.186,18.355,72.034,29.344,60.216,45.425"/>
		</defs>
		<clipPath id="SVGID_5_">
			<use xlink:href="#SVGID_4_"  overflow="visible"/>
		</clipPath>
		
			<linearGradient id="SVGID_6_" gradientUnits="userSpaceOnUse" x1="-212.5859" y1="665.6064" x2="-210.6585" y2="665.6064" gradientTransform="matrix(35.2748 35.2748 35.2748 -35.2748 -15916.8125 30995.7031)">
			<stop  offset="0" style="stop-color:#FFCA5C"/>
			<stop  offset="0.1154" style="stop-color:#FAB33A"/>
			<stop  offset="0.1963" style="stop-color:#F7A627"/>
			<stop  offset="0.5044" style="stop-color:#F7A427"/>
			<stop  offset="0.6691" style="stop-color:#F69C26"/>
			<stop  offset="0.7999" style="stop-color:#F58E25"/>
			<stop  offset="0.9122" style="stop-color:#F37B24"/>
			<stop  offset="1" style="stop-color:#F16622"/>
		</linearGradient>
		<polygon clip-path="url(#SVGID_5_)" fill="url(#SVGID_6_)" points="90.945,-45.801 181.964,45.219 90.945,136.238 -0.075,45.219 
					"/>
	</g>
	<g>
		<path fill="#ED2F3C" d="M141.663,88.959c-7.863-0.075-36.944-0.309-49.873,0.102c-0.052,0.006-6.003,0.22-6.185,0.224
			c-13.95,0.566-25.763,1.457-35.385,2.402c0,0.002-0.004,0.002-0.004,0.006c4.898,16.251,19.452,27.377,38.981,27.377
			C109.773,119.069,130.095,106.662,141.663,88.959"/>
	</g>
	<g>
		<defs>
			<path id="SVGID_7_" d="M87.811,66.146c-10.434,0.286-28.681,1.596-38.241,2.542c-0.224,1.065-0.566,2.809-0.832,5.118
				c0,0.043-0.007,0.089-0.011,0.133c-0.088,0.788-0.156,1.574-0.203,2.354c0,0.045-0.009,0.1-0.013,0.15
				c-0.045,0.762-0.068,1.519-0.077,2.266c-0.006,0.471,0.008,0.941,0.022,1.408c0,0.396,0,0.785,0.019,1.172
				c0.034,0.829,0.088,1.656,0.171,2.464c0.021,0.233,0.063,0.463,0.085,0.694c0.077,0.632,0.151,1.267,0.254,1.886
				c0.043,0.254,0.09,0.501,0.137,0.751c0.107,0.603,0.225,1.199,0.356,1.786c0.049,0.237,0.106,0.461,0.167,0.695
				c0.149,0.61,0.305,1.216,0.484,1.814c0.026,0.102,0.052,0.201,0.088,0.309c9.622-0.947,21.442-1.837,35.403-2.401
				c0.171-0.007,6.126-0.223,6.172-0.226c12.929-0.41,42.007-0.175,49.877-0.102c1.254,0.009,2.021,0.017,2.021,0.017
				c6.61,0.1,9.308,0.16,16.19,0.524c3.183,0.17,8.438,0.368,8.72,1.057c0,0.015,0,0.015,0.002,0.013c0,0,0,0-0.002,0.013
				c-0.006,0.019-0.016,0.04-0.024,0.057l0.002,0.001c4.351-8.041,4.413-21.374,4.413-21.374c0.227-1.156-8.093-2.279-22.308-2.923
				c-8.715-0.397-19.629-0.634-32.138-0.634C109.123,65.709,98.792,65.846,87.811,66.146"/>
		</defs>
		<clipPath id="SVGID_8_">
			<use xlink:href="#SVGID_7_"  overflow="visible"/>
		</clipPath>
		
			<linearGradient id="SVGID_9_" gradientUnits="userSpaceOnUse" x1="-215.479" y1="663.9688" x2="-213.5517" y2="663.9688" gradientTransform="matrix(58.3151 21.225 21.225 -58.3151 -1473.5625 43350.75)">
			<stop  offset="0" style="stop-color:#9C9C9D"/>
			<stop  offset="0.0078" style="stop-color:#A2A2A3"/>
			<stop  offset="0.0604" style="stop-color:#C3C3C4"/>
			<stop  offset="0.1144" style="stop-color:#DDDDDE"/>
			<stop  offset="0.1696" style="stop-color:#F0F0F0"/>
			<stop  offset="0.2266" style="stop-color:#FBFBFB"/>
			<stop  offset="0.2883" style="stop-color:#FFFFFF"/>
			<stop  offset="0.5088" style="stop-color:#FCFCFD"/>
			<stop  offset="0.6399" style="stop-color:#F4F4F4"/>
			<stop  offset="0.7477" style="stop-color:#E6E6E6"/>
			<stop  offset="0.8428" style="stop-color:#D2D2D2"/>
			<stop  offset="0.9287" style="stop-color:#B8B8B9"/>
			<stop  offset="1" style="stop-color:#9C9C9D"/>
		</linearGradient>
		<polygon clip-path="url(#SVGID_8_)" fill="url(#SVGID_9_)" points="63.025,25.603 181.568,68.75 158.621,131.794 40.079,88.648 		
			"/>
	</g>
	<g>
		<defs>
			<path id="SVGID_10_" d="M91.789,89.063c-0.051,0.001-6,0.217-6.183,0.222c-13.948,0.566-25.763,1.457-35.385,2.4
				c0,0.003-0.002,0.003-0.002,0.007c2.569,8.526,7.798,15.648,15.012,20.484c6.528,4.382,14.686,6.894,23.967,6.894
				c20.575,0,40.895-12.407,52.467-30.11c-4.405-0.043-15.469-0.133-26.618-0.133C106.287,88.826,97.476,88.882,91.789,89.063"/>
		</defs>
		<clipPath id="SVGID_11_">
			<use xlink:href="#SVGID_10_"  overflow="visible"/>
		</clipPath>
		<defs>
			<filter id="Adobe_OpacityMaskFilter" filterUnits="userSpaceOnUse" x="50.219" y="88.826" width="91.446" height="30.244">
				<feColorMatrix  type="matrix" values="1 0 0 0 0  0 1 0 0 0  0 0 1 0 0  0 0 0 1 0"/>
			</filter>
		</defs>
		<mask maskUnits="userSpaceOnUse" x="50.219" y="88.826" width="91.446" height="30.244" id="SVGID_12_">
			<g filter="url(#Adobe_OpacityMaskFilter)">
				
					<linearGradient id="SVGID_13_" gradientUnits="userSpaceOnUse" x1="-244.3726" y1="661.4316" x2="-242.4453" y2="661.4316" gradientTransform="matrix(0 -15.6941 -15.6941 0 10476.5 -3716.1406)">
					<stop  offset="0" style="stop-color:#4D4D4D"/>
					<stop  offset="0.4969" style="stop-color:#000000"/>
					<stop  offset="0.5398" style="stop-color:#080808"/>
					<stop  offset="0.6076" style="stop-color:#1F1F1F"/>
					<stop  offset="0.6917" style="stop-color:#444444"/>
					<stop  offset="0.7889" style="stop-color:#787878"/>
					<stop  offset="0.8956" style="stop-color:#B8B8B8"/>
					<stop  offset="1" style="stop-color:#FFFFFF"/>
				</linearGradient>
				<rect x="50.219" y="88.826" clip-path="url(#SVGID_11_)" fill="url(#SVGID_13_)" width="91.446" height="30.244"/>
			</g>
		</mask>
		
			<linearGradient id="SVGID_14_" gradientUnits="userSpaceOnUse" x1="-244.3735" y1="661.4297" x2="-242.4463" y2="661.4297" gradientTransform="matrix(0 -15.6941 -15.6941 0 10476.4922 -3716.1484)">
			<stop  offset="0" style="stop-color:#831523"/>
			<stop  offset="0.4969" style="stop-color:#B21E33"/>
			<stop  offset="0.6413" style="stop-color:#AA1C30"/>
			<stop  offset="0.8683" style="stop-color:#931829"/>
			<stop  offset="1" style="stop-color:#831523"/>
		</linearGradient>
		
			<rect x="50.219" y="88.826" clip-path="url(#SVGID_11_)" mask="url(#SVGID_12_)" fill="url(#SVGID_14_)" width="91.446" height="30.244"/>
	</g>
	<g>
		<defs>
			<path id="SVGID_15_" d="M60.216,45.425c8.505-0.798,19.608-1.431,30.485-1.621c2.126-0.036,6.208-0.896,8.496-4.3
				c4.254-6.323,8.451-12.724,14.425-14.854c0.104-0.043,0.205-0.085,0.311-0.126c9.079-3.465,21.066,4.964,29.346,19.562
				c1.462,0.004,4.002,0,5.751-0.002c-5.357-15.357-19.585-25.729-38.441-25.729C91.196,18.355,72.034,29.353,60.216,45.425"/>
		</defs>
		<clipPath id="SVGID_16_">
			<use xlink:href="#SVGID_15_"  overflow="visible"/>
		</clipPath>
		<defs>
			<filter id="Adobe_OpacityMaskFilter_1_" filterUnits="userSpaceOnUse" x="51.516" y="-10.188" width="106.214" height="84.157">
				<feColorMatrix  type="matrix" values="1 0 0 0 0  0 1 0 0 0  0 0 1 0 0  0 0 0 1 0"/>
			</filter>
		</defs>
		<mask maskUnits="userSpaceOnUse" x="51.516" y="-10.188" width="106.214" height="84.157" id="SVGID_17_">
			<g filter="url(#Adobe_OpacityMaskFilter_1_)">
				
					<linearGradient id="SVGID_18_" gradientUnits="userSpaceOnUse" x1="-213.9033" y1="662.2656" x2="-211.9763" y2="662.2656" gradientTransform="matrix(40.473 14.731 14.731 -40.473 -1028.7813 29974.0938)">
					<stop  offset="0" style="stop-color:#FFFFFF"/>
					<stop  offset="0.0859" style="stop-color:#FFFFFF"/>
					<stop  offset="0.6866" style="stop-color:#5D5D5D"/>
					<stop  offset="1" style="stop-color:#0D0D0D"/>
				</linearGradient>
				<polygon clip-path="url(#SVGID_16_)" fill="url(#SVGID_18_)" points="70.606,-10.188 157.729,21.523 138.641,73.97 
					51.516,42.259 				"/>
			</g>
		</mask>
		
			<linearGradient id="SVGID_19_" gradientUnits="userSpaceOnUse" x1="-213.9033" y1="662.2656" x2="-211.9763" y2="662.2656" gradientTransform="matrix(40.473 14.731 14.731 -40.473 -1028.7813 29974.0938)">
			<stop  offset="0" style="stop-color:#FFCA5C"/>
			<stop  offset="0.0859" style="stop-color:#FFCA5C"/>
			<stop  offset="1" style="stop-color:#F39626"/>
		</linearGradient>
		<polygon clip-path="url(#SVGID_16_)" mask="url(#SVGID_17_)" fill="url(#SVGID_19_)" points="70.606,-10.188 157.729,21.523 
			138.641,73.97 51.516,42.259 		"/>
	</g>
	<g>
		<defs>
			<path id="SVGID_20_" d="M100.042,88.899c-2.115,1.735-4.556,4.294-5.663,6.6c-7.494,12.675-10.1,25.098-33.274,6.135
				c0,0-3.694-0.339-6.196,0.14c2.549,3.872,5.79,7.227,9.618,9.919c0.282,0.181,0.527,0.347,0.721,0.483
				c0.423,0.286,0.858,0.567,1.298,0.845c6.297,3.856,13.985,6.049,22.652,6.049c20.575,0,40.895-12.407,52.467-30.11
				c-1.954-0.019-5.213-0.047-9.204-0.074c-5.054-0.029-11.367-0.056-17.627-0.056C109.61,88.829,104.427,88.846,100.042,88.899"/>
		</defs>
		<clipPath id="SVGID_21_">
			<use xlink:href="#SVGID_20_"  overflow="visible"/>
		</clipPath>
		<defs>
			<filter id="Adobe_OpacityMaskFilter_2_" filterUnits="userSpaceOnUse" x="39.64" y="47.132" width="117.291" height="115.16">
				<feColorMatrix  type="matrix" values="1 0 0 0 0  0 1 0 0 0  0 0 1 0 0  0 0 0 1 0"/>
			</filter>
		</defs>
		<mask maskUnits="userSpaceOnUse" x="39.64" y="47.132" width="117.291" height="115.16" id="SVGID_22_">
			<g filter="url(#Adobe_OpacityMaskFilter_2_)">
				
					<linearGradient id="SVGID_23_" gradientUnits="userSpaceOnUse" x1="-226.542" y1="659.0322" x2="-224.6152" y2="659.0322" gradientTransform="matrix(20.1733 -26.7708 -26.7708 -20.1733 22295.625 7355.5)">
					<stop  offset="0" style="stop-color:#000000"/>
					<stop  offset="0.0123" style="stop-color:#000000"/>
					<stop  offset="0.0503" style="stop-color:#131313"/>
					<stop  offset="0.1547" style="stop-color:#444444"/>
					<stop  offset="0.2586" style="stop-color:#6B6B6B"/>
					<stop  offset="0.3602" style="stop-color:#8A8A8A"/>
					<stop  offset="0.4588" style="stop-color:#A1A1A1"/>
					<stop  offset="0.553" style="stop-color:#AEAEAE"/>
					<stop  offset="0.638" style="stop-color:#B3B3B3"/>
					<stop  offset="1" style="stop-color:#FFFFFF"/>
				</linearGradient>
				<polygon clip-path="url(#SVGID_21_)" fill="url(#SVGID_23_)" points="39.64,109.091 86.329,47.132 156.931,100.335 
					110.243,162.292 				"/>
			</g>
		</mask>
		
			<linearGradient id="SVGID_24_" gradientUnits="userSpaceOnUse" x1="-226.542" y1="659.0322" x2="-224.6152" y2="659.0322" gradientTransform="matrix(20.1733 -26.7708 -26.7708 -20.1733 22295.625 7355.5)">
			<stop  offset="0" style="stop-color:#E91A41"/>
			<stop  offset="0.0123" style="stop-color:#E91A41"/>
			<stop  offset="0.0859" style="stop-color:#D71A3B"/>
			<stop  offset="0.233" style="stop-color:#B81930"/>
			<stop  offset="0.3766" style="stop-color:#A21929"/>
			<stop  offset="0.514" style="stop-color:#951925"/>
			<stop  offset="0.638" style="stop-color:#901923"/>
			<stop  offset="1" style="stop-color:#921A24"/>
		</linearGradient>
		<polygon clip-path="url(#SVGID_21_)" mask="url(#SVGID_22_)" fill="url(#SVGID_24_)" points="39.64,109.091 86.329,47.132 
			156.931,100.335 110.243,162.292 		"/>
	</g>
	<g>
		<defs>
			<path id="SVGID_25_" d="M168.607,90.555C168.607,90.561,168.607,90.564,168.607,90.555 M168.607,90.529
				c0,0.005-0.003,0.011-0.004,0.015c0.001,0.004,0.004,0.008,0.004,0.012c0-0.002,0-0.008,0-0.013c0-0.01,0.001-0.021,0.001-0.021
				S168.608,90.525,168.607,90.529 M141.635,88.967h0.03c-1.149,1.759-2.382,3.517-3.688,4.984h0.006
				c18.105-0.586,30.046-1.76,30.621-3.408c-0.338-0.677-5.553-0.877-8.714-1.046c-6.883-0.363-9.583-0.421-16.189-0.521
				c0,0-0.776-0.003-2.046-0.015C141.654,88.961,141.648,88.967,141.635,88.967"/>
		</defs>
		<clipPath id="SVGID_26_">
			<use xlink:href="#SVGID_25_"  overflow="visible"/>
		</clipPath>
		
			<linearGradient id="SVGID_27_" gradientUnits="userSpaceOnUse" x1="-368.1338" y1="612.4668" x2="-366.2061" y2="612.4668" gradientTransform="matrix(0 -2.5891 -2.5891 0 1739.0332 -859.1855)">
			<stop  offset="0" style="stop-color:#CED0D0"/>
			<stop  offset="0.0061" style="stop-color:#CED0D0"/>
			<stop  offset="0.1899" style="stop-color:#C7C9C9"/>
			<stop  offset="0.4605" style="stop-color:#B3B6B6"/>
			<stop  offset="0.7831" style="stop-color:#939798"/>
			<stop  offset="1" style="stop-color:#797E7F"/>
		</linearGradient>
		<rect x="137.977" y="88.961" clip-path="url(#SVGID_26_)" fill="url(#SVGID_27_)" width="30.632" height="4.99"/>
	</g>
</g>
<g id="Layer_2">
	<path fill="#474748" d="M133.732,163.3c-1.496-8.081,5.911-17.021,15.264-19.604c10.868-2.187,20.015,1.987,21.68,10.332
		c1.157,8.149-5.127,16.693-15.656,19.145C145.05,175.023,135.452,171.446,133.732,163.3 M147.73,153.495
		c-3.642,4.152-4.583,9.566-2.094,12.091c2.484,2.519,7.451,1.201,11.094-2.954c3.638-4.149,4.577-9.565,2.094-12.09
		C156.338,148.017,151.372,149.34,147.73,153.495 M97.146,151.916c-0.068-1.097-0.597-1.913-1.579-2.441
		c-0.982-0.527-2.409-0.794-4.275-0.794h-1.897l-1.795,8.314h1.518c2.631,0,4.656-0.389,6.062-1.281
		C96.597,154.804,97.25,153.579,97.146,151.916 M76.425,172.436c0,0-2.836,0.139-2.45-2.557l4.943-23.208
		c0.285-1.33,1.592-2.448,2.926-2.448h11.941c2.192,0,4.105,0.189,5.74,0.434c1.65,0.245,3.088,0.688,4.313,1.286
		c1.206,0.6,2.151,1.392,2.828,2.356c0.675,0.955,1.06,2.394,1.155,3.827c0.21,3.249-1.273,5.822-4.456,7.809
		c-3.172,1.998-7.728,2.703-13.659,2.703h-3.286l-2.087,9.798H76.425z M30.238,151.803c-0.075-1.137-0.561-1.933-1.464-2.401
		c-0.89-0.48-2.179-0.721-3.865-0.721h-2.684l-1.622,7.718h2.664c2.305,0,4.062-0.456,5.282-1.235
		C29.761,154.367,30.323,153.202,30.238,151.803 M17.146,172.436H9.104c-0.557,0-2.659-0.213-2.318-2.558l4.946-23.162
		c0.283-1.331,1.59-2.404,2.928-2.404l13.608-0.004c1.974,0,3.695,0.116,5.17,0.34c1.49,0.228,2.784,0.617,3.887,1.173
		c1.091,0.553,1.825,1.086,2.553,2.173c0.755,1.122,0.943,1.96,1.045,3.311c0.235,3.229-1.166,5.42-4.04,7.262
		c-2.656,1.398-6.314,1.621-7.191,1.641c0,0-0.898,0.201,0.137,0.464c0,0,1.273,0.317,2.325,1.244
		c2.25,1.795,3.903,3.693,9.008,10.521H29.102c0,0-2.073-4.144-6.389-10.36c-0.961-1.385-2.513-1.158-3.096-1.222L17.146,172.436z
		 M184.203,167.09h9.749l-0.669,3.088c-0.262,1.27-1.6,2.258-2.896,2.258H175.04c-0.552,0-2.654-0.213-2.312-2.558l4.943-23.162
		c0.283-1.331,1.591-2.404,2.924-2.404l8.471,0.028L184.203,167.09z M57.891,155.806h12.796l-0.643,2.942
		c-0.251,1.304-1.589,2.403-2.923,2.403H56.748l-1.25,5.938h12.812l-0.666,3.088c-0.265,1.27-1.603,2.258-2.898,2.258H46.331
		c-0.553,0-2.656-0.213-2.316-2.558l4.944-23.162c0.287-1.331,1.591-2.404,2.926-2.404l21.264-0.004l-0.647,3.083
		c-0.285,1.336-1.593,2.478-2.924,2.478h-10.39L57.891,155.806z M136.356,144.314l-0.645,3.085c-0.388,1.401-1.42,2.171-2.928,2.469
		h-0.679c-6.087,0-6.468,1.614-7.635,7.262l-1.452,6.668c-1.777,8.535-9.482,8.682-10.134,8.682l-15.417-0.014l0.648-2.988
		c0.396-1.483,1.501-2.388,2.928-2.388h3.706c6.083,0,6.467-1.7,7.627-7.346l1.454-6.722c1.833-8.503,11.112-8.7,12.534-8.7
		L136.356,144.314z"/>
</g>
</svg>
