<?xml version="1.0" encoding="utf-8"?>
<!-- Generator: Adobe Illustrator 16.0.0, SVG Export Plug-In . SVG Version: 6.00 Build 0)  -->
<!DOCTYPE svg PUBLIC "-//W3C//DTD SVG 1.1//EN" "http://www.w3.org/Graphics/SVG/1.1/DTD/svg11.dtd">
<svg version="1.1" id="Layer_1" xmlns="http://www.w3.org/2000/svg" xmlns:xlink="http://www.w3.org/1999/xlink" x="0px" y="0px"
	 width="43px" height="60px" viewBox="0 0 43 60" enable-background="new 0 0 43 60" xml:space="preserve">
<path id="fondo_x5F_icono" fill="#FFFFFF" d="M42.054,21.176c0-11.286-9.154-20.44-20.439-20.44c-11.286,0-20.44,9.154-20.44,20.44
	c0,0.865,0.061,1.7,0.164,2.534c0.269,3.161,2.505,15.283,20.291,36.094c20.917-24.466,20.337-36.541,20.337-36.541
	C42.024,22.578,42.054,21.892,42.054,21.176"/>
<path fill="#F59720" d="M21.491,3.369c9.793,0,17.76,7.967,17.76,17.759c0,0.635-0.025,1.242-0.08,1.856l-0.025,0.144l0.018,0.21
	c-0.01,0.56-0.42,11.344-17.656,32.283C15.102,47.832,10.306,40.563,7.23,33.981c-2.7-5.778-3.237-9.298-3.343-10.543l-0.005-0.054
	l-0.007-0.056c-0.097-0.771-0.144-1.49-0.144-2.201C3.732,11.335,11.7,3.369,21.491,3.369 M21.491,0.582
	c-11.344,0-20.545,9.202-20.545,20.546c0,0.869,0.06,1.708,0.165,2.547c0.27,3.177,2.518,15.36,20.396,36.28
	c21.025-24.591,20.441-36.73,20.441-36.73c0.059-0.689,0.09-1.379,0.09-2.098C42.038,9.783,32.837,0.582,21.491,0.582"/>
<g id="avia">
	<polygon id="XMLID_186_" fill-rule="evenodd" clip-rule="evenodd" fill="#ED252E" points="8.129,20.349 35.274,20.349 
		35.274,21.797 8.129,21.797 8.129,20.349 	"/>
	<path id="XMLID_134_" fill-rule="evenodd" clip-rule="evenodd" fill="#ED252E" d="M12.328,12.078l0.673,2.976h-1.346L12.328,12.078
		L12.328,12.078z M13.919,10.456h-3.183l-2.613,7.943h2.774l0.282-1.251h2.294l0.284,1.251h2.777L13.919,10.456L13.919,10.456z
		 M25.267,10.456l-2.61,7.944h2.69l2.612-7.944H25.267L25.267,10.456z M15.49,10.456h2.693l1.44,4.819l1.438-4.819h2.694
		L21.144,18.4l-3.051-0.003L15.49,10.456L15.49,10.456z M31.062,12.077l0.675,2.977H30.39L31.062,12.077L31.062,12.077z
		 M32.653,10.456h-3.183l-2.613,7.943l2.774,0.001l0.282-1.252h2.294l0.285,1.252h2.776L32.653,10.456L32.653,10.456z M25.978,8.258
		l-0.471,1.448h2.678l0.476-1.448H25.978L25.978,8.258z"/>
	<polygon id="XMLID_101_" fill-rule="evenodd" clip-rule="evenodd" fill="#ED252E" points="8.125,22.763 35.275,22.763 
		35.275,27.599 8.125,27.599 8.125,22.763 	"/>
</g>
</svg>
