<?xml version="1.0" encoding="utf-8"?>
<!-- Generator: Adobe Illustrator 16.0.0, SVG Export Plug-In . SVG Version: 6.00 Build 0)  -->
<!DOCTYPE svg PUBLIC "-//W3C//DTD SVG 1.1//EN" "http://www.w3.org/Graphics/SVG/1.1/DTD/svg11.dtd">
<svg version="1.1" id="Layer_1" xmlns="http://www.w3.org/2000/svg" xmlns:xlink="http://www.w3.org/1999/xlink" x="0px" y="0px"
	 width="43px" height="60px" viewBox="0 0 43 60" enable-background="new 0 0 43 60" xml:space="preserve">
<path id="fondo_x5F_icono" fill="#FFFFFF" d="M42.054,21.176c0-11.286-9.154-20.44-20.439-20.44c-11.286,0-20.44,9.154-20.44,20.44
	c0,0.865,0.061,1.7,0.164,2.534c0.269,3.161,2.505,15.283,20.291,36.094c20.917-24.466,20.337-36.541,20.337-36.541
	C42.024,22.578,42.054,21.892,42.054,21.176"/>
<path fill="#F59720" d="M21.491,3.369c9.793,0,17.76,7.967,17.76,17.759c0,0.635-0.025,1.242-0.08,1.856l-0.025,0.144l0.018,0.21
	c-0.01,0.56-0.42,11.344-17.656,32.283C15.102,47.832,10.306,40.563,7.23,33.981c-2.7-5.778-3.237-9.298-3.343-10.543l-0.005-0.054
	l-0.007-0.056c-0.097-0.771-0.144-1.49-0.144-2.201C3.732,11.335,11.7,3.369,21.491,3.369 M21.491,0.582
	c-11.344,0-20.545,9.202-20.545,20.546c0,0.869,0.06,1.708,0.165,2.547c0.27,3.177,2.518,15.36,20.396,36.28
	c21.025-24.591,20.441-36.73,20.441-36.73c0.059-0.689,0.09-1.379,0.09-2.098C42.038,9.783,32.837,0.582,21.491,0.582"/>
<g id="bp">
	<path id="XMLID_9644_" fill-rule="evenodd" clip-rule="evenodd" fill="#129648" d="M17.922,18.859
		C17.922,18.859,17.922,18.859,17.922,18.859S17.922,18.859,17.922,18.859S17.922,18.859,17.922,18.859S17.922,18.859,17.922,18.859
		L17.922,18.859z M13.399,11.025c0.063-1.22,0.298-2.325,0.54-3.109c0.689,0.446,1.581,1.142,2.413,2.035
		c0.477-1.125,1.075-2.082,1.57-2.738c0.495,0.655,1.094,1.613,1.57,2.737c0.833-0.894,1.724-1.588,2.413-2.034
		c0.242,0.785,0.476,1.89,0.54,3.109c1.088-0.556,2.162-0.904,2.964-1.087c-0.044,0.82-0.2,1.939-0.558,3.106
		c1.213-0.15,2.341-0.11,3.156-0.008c-0.32,0.756-0.85,1.754-1.586,2.729c1.19,0.273,2.238,0.697,2.969,1.071
		c-0.559,0.602-1.397,1.358-2.422,2.022c1.024,0.664,1.863,1.42,2.422,2.022c-0.73,0.373-1.778,0.797-2.969,1.071
		c0.736,0.975,1.266,1.973,1.586,2.73c-0.815,0.101-1.943,0.141-3.156-0.009c0.357,1.168,0.514,2.287,0.558,3.108
		c-0.802-0.184-1.876-0.533-2.964-1.087c-0.064,1.219-0.298,2.323-0.54,3.108c-0.689-0.447-1.58-1.142-2.412-2.034
		c-0.477,1.124-1.076,2.082-1.571,2.737c-0.495-0.655-1.094-1.613-1.57-2.737c-0.832,0.893-1.723,1.587-2.412,2.034
		c-0.242-0.785-0.477-1.89-0.54-3.108c-1.088,0.555-2.163,0.903-2.963,1.087c0.042-0.821,0.198-1.94,0.556-3.108
		c-1.211,0.15-2.34,0.11-3.155,0.009c0.319-0.757,0.849-1.754,1.585-2.73c-1.19-0.273-2.237-0.696-2.969-1.071
		c0.56-0.602,1.398-1.357,2.423-2.022c-1.024-0.665-1.863-1.42-2.423-2.022c0.731-0.374,1.778-0.798,2.969-1.071
		c-0.736-0.975-1.266-1.972-1.586-2.729c0.815-0.103,1.944-0.143,3.156,0.007c-0.358-1.167-0.514-2.286-0.556-3.106
		C11.236,10.122,12.312,10.47,13.399,11.025L13.399,11.025z M17.922,18.859 M17.922,18.859"/>
	<path id="XMLID_9640_" fill-rule="evenodd" clip-rule="evenodd" fill="#A7CA38" d="M17.922,18.859L17.922,18.859L17.922,18.859
		C17.923,18.859,17.923,18.859,17.922,18.859C17.923,18.859,17.923,18.859,17.922,18.859C17.923,18.859,17.923,18.859,17.922,18.859
		L17.922,18.859z M11.264,20.033c-0.865-0.291-1.672-0.709-2.387-1.174c0.715-0.464,1.522-0.884,2.387-1.174
		c-0.713-0.569-1.328-1.24-1.842-1.92c0.832-0.192,1.733-0.31,2.646-0.286c-0.477-0.78-0.825-1.619-1.075-2.435
		c0.847,0.104,1.734,0.302,2.585,0.636c-0.182-0.896-0.222-1.803-0.178-2.655c0.761,0.388,1.525,0.877,2.21,1.481
		c0.137-0.903,0.409-1.771,0.742-2.557c0.581,0.625,1.134,1.347,1.57,2.149c0.438-0.802,0.99-1.524,1.571-2.149
		c0.333,0.786,0.605,1.654,0.741,2.557c0.684-0.604,1.451-1.094,2.211-1.481c0.043,0.852,0.004,1.76-0.178,2.655
		c0.85-0.334,1.738-0.532,2.584-0.636c-0.249,0.816-0.598,1.656-1.075,2.435c0.913-0.023,1.815,0.094,2.646,0.286
		c-0.514,0.68-1.127,1.351-1.841,1.92c0.864,0.29,1.671,0.71,2.388,1.174c-0.717,0.464-1.523,0.883-2.388,1.174
		c0.714,0.569,1.327,1.239,1.841,1.919c-0.83,0.192-1.732,0.31-2.646,0.287c0.478,0.779,0.826,1.619,1.075,2.434
		c-0.846-0.104-1.734-0.301-2.584-0.635c0.182,0.895,0.221,1.803,0.178,2.656c-0.76-0.389-1.527-0.877-2.211-1.482
		c-0.136,0.903-0.408,1.771-0.741,2.557c-0.581-0.625-1.134-1.347-1.571-2.149c-0.436,0.802-0.989,1.524-1.57,2.149
		c-0.333-0.786-0.605-1.653-0.742-2.557c-0.685,0.605-1.449,1.094-2.21,1.482c-0.044-0.853-0.004-1.761,0.178-2.657
		c-0.851,0.334-1.738,0.532-2.585,0.636c0.25-0.815,0.599-1.655,1.075-2.434c-0.913,0.023-1.814-0.095-2.646-0.287
		C9.936,21.272,10.55,20.602,11.264,20.033L11.264,20.033z M11.264,20.033"/>
	<path id="XMLID_9632_" fill-rule="evenodd" clip-rule="evenodd" fill="#FDD728" d="M17.922,18.859 M17.922,18.859
		C17.922,18.86,17.922,18.86,17.922,18.859C17.922,18.86,17.922,18.86,17.922,18.859C17.922,18.86,17.922,18.86,17.922,18.859
		C17.922,18.86,17.922,18.86,17.922,18.859C17.922,18.86,17.922,18.86,17.922,18.859L17.922,18.859
		C17.922,18.859,17.923,18.859,17.922,18.859C17.923,18.859,17.922,18.859,17.922,18.859C17.923,18.859,17.923,18.859,17.922,18.859
		L17.922,18.859z M17.923,18.859C17.923,18.859,17.923,18.859,17.923,18.859S17.923,18.859,17.923,18.859L17.923,18.859
		C17.922,18.859,17.922,18.859,17.923,18.859C17.922,18.859,17.922,18.859,17.923,18.859L17.923,18.859z M17.922,18.859
		 M17.118,14.301c0.148-0.785,0.435-1.523,0.804-2.202c0.37,0.679,0.656,1.417,0.804,2.202c0.407-0.687,0.929-1.282,1.509-1.794
		c0.114,0.765,0.131,1.556,0.002,2.344c0.617-0.506,1.311-0.888,2.031-1.17c-0.153,0.758-0.408,1.506-0.801,2.204
		c0.755-0.265,1.535-0.385,2.31-0.405c-0.403,0.66-0.899,1.275-1.506,1.797c0.8,0.009,1.575,0.163,2.309,0.409
		c-0.604,0.482-1.281,0.892-2.029,1.174c0.748,0.283,1.425,0.692,2.031,1.174c-0.735,0.246-1.511,0.399-2.311,0.409
		c0.606,0.521,1.103,1.137,1.506,1.797c-0.774-0.02-1.555-0.141-2.31-0.405c0.393,0.696,0.647,1.445,0.801,2.203
		c-0.721-0.283-1.414-0.664-2.031-1.17c0.129,0.789,0.113,1.579-0.002,2.344c-0.579-0.512-1.1-1.108-1.508-1.795
		c-0.148,0.786-0.435,1.523-0.805,2.203c-0.369-0.68-0.654-1.417-0.804-2.203c-0.407,0.687-0.928,1.283-1.509,1.795
		c-0.114-0.766-0.131-1.555-0.001-2.344c-0.618,0.507-1.312,0.888-2.031,1.171c0.153-0.759,0.408-1.508,0.8-2.204
		c-0.754,0.264-1.536,0.385-2.31,0.405c0.405-0.66,0.9-1.276,1.506-1.797c-0.799-0.01-1.575-0.164-2.309-0.409
		c0.605-0.481,1.282-0.891,2.029-1.174c-0.748-0.282-1.424-0.692-2.029-1.174c0.733-0.246,1.509-0.399,2.309-0.409
		c-0.606-0.522-1.101-1.137-1.506-1.797c0.774,0.02,1.555,0.141,2.31,0.405c-0.392-0.696-0.646-1.445-0.8-2.204
		c0.72,0.283,1.413,0.664,2.031,1.171c-0.13-0.789-0.113-1.58,0.001-2.345C16.19,13.019,16.711,13.615,17.118,14.301L17.118,14.301z
		 M17.922,18.859 M17.922,18.859"/>
	<path id="XMLID_9629_" fill-rule="evenodd" clip-rule="evenodd" fill="#FFFFFF" d="M17.109,16.625
		c-0.146-0.811-0.13-1.588,0.009-2.323c0.383,0.643,0.664,1.368,0.804,2.18c0.14-0.812,0.423-1.537,0.804-2.18
		c0.139,0.735,0.156,1.512,0.009,2.323c0.408-0.716,0.923-1.3,1.502-1.773c-0.122,0.738-0.371,1.474-0.786,2.186
		c0.628-0.533,1.311-0.905,2.017-1.154c-0.367,0.653-0.852,1.26-1.485,1.786c0.772-0.285,1.541-0.402,2.289-0.393
		c-0.566,0.487-1.231,0.892-2.007,1.169c0.823-0.004,1.586,0.149,2.285,0.413c-0.699,0.264-1.462,0.417-2.285,0.412
		c0.775,0.279,1.44,0.683,2.007,1.169c-0.748,0.01-1.517-0.107-2.289-0.392c0.634,0.526,1.118,1.132,1.485,1.785
		c-0.706-0.248-1.389-0.621-2.017-1.154c0.415,0.711,0.664,1.448,0.786,2.187c-0.579-0.474-1.094-1.058-1.502-1.774
		c0.147,0.812,0.13,1.588-0.009,2.323c-0.381-0.643-0.664-1.367-0.804-2.18c-0.14,0.813-0.422,1.537-0.804,2.18
		c-0.139-0.735-0.155-1.512-0.009-2.323c-0.408,0.716-0.923,1.3-1.501,1.774c0.121-0.738,0.37-1.475,0.785-2.187
		c-0.628,0.533-1.31,0.906-2.017,1.154c0.367-0.653,0.853-1.26,1.486-1.785c-0.772,0.285-1.542,0.402-2.29,0.394
		c0.568-0.488,1.232-0.892,2.008-1.171c-0.823,0.005-1.586-0.148-2.287-0.412c0.7-0.264,1.463-0.417,2.287-0.413
		c-0.776-0.279-1.439-0.682-2.008-1.169c0.748-0.009,1.518,0.108,2.29,0.393c-0.634-0.527-1.119-1.133-1.486-1.786
		c0.707,0.249,1.389,0.621,2.017,1.153c-0.415-0.711-0.664-1.448-0.785-2.186C16.187,15.326,16.701,15.909,17.109,16.625
		L17.109,16.625z M17.109,16.625"/>
	<g id="XMLID_9620_">
		<path id="XMLID_9625_" fill-rule="evenodd" clip-rule="evenodd" fill="#129648" d="M28.553,22.658v5.687h0.847V27.8
			c0.348,0.466,0.735,0.681,1.298,0.681c1.044,0,1.787-0.848,1.787-2.199c0-1.393-0.759-2.238-1.78-2.238
			c-0.561,0-0.996,0.236-1.297,0.688v-2.073H28.553z M30.499,24.818c0.672,0,1.091,0.523,1.091,1.471c0,0.9-0.419,1.416-1.091,1.416
			c-0.704,0-1.107-0.499-1.107-1.439C29.392,25.307,29.771,24.818,30.499,24.818L30.499,24.818z M30.499,24.818"/>
		<path id="XMLID_9621_" fill-rule="evenodd" clip-rule="evenodd" fill="#129648" d="M35.002,24.818
			c0.665,0,1.092,0.523,1.092,1.423c0,0.948-0.419,1.464-1.092,1.464c-0.719,0-1.106-0.482-1.106-1.416
			C33.896,25.316,34.292,24.818,35.002,24.818L35.002,24.818z M33.911,27.831c0.292,0.427,0.735,0.649,1.298,0.649
			c1.019,0,1.779-0.848,1.779-2.239c0-1.353-0.744-2.198-1.788-2.198c-0.568,0-0.957,0.221-1.296,0.72v-0.586h-0.847v5.831h0.854
			V27.831z M33.911,27.831"/>
	</g>
</g>
</svg>
