<?xml version="1.0" encoding="utf-8"?>
<!-- Generator: Adobe Illustrator 16.0.0, SVG Export Plug-In . SVG Version: 6.00 Build 0)  -->
<!DOCTYPE svg PUBLIC "-//W3C//DTD SVG 1.1//EN" "http://www.w3.org/Graphics/SVG/1.1/DTD/svg11.dtd">
<svg version="1.1" id="Layer_1" xmlns="http://www.w3.org/2000/svg" xmlns:xlink="http://www.w3.org/1999/xlink" x="0px" y="0px"
	 width="43px" height="60px" viewBox="0 0 43 60" enable-background="new 0 0 43 60" xml:space="preserve">
<path id="fondo_x5F_icono" fill="#FFFFFF" d="M42.054,21.176c0-11.286-9.154-20.44-20.439-20.44c-11.286,0-20.44,9.154-20.44,20.44
	c0,0.865,0.061,1.7,0.164,2.534c0.269,3.161,2.505,15.283,20.291,36.094c20.917-24.466,20.337-36.541,20.337-36.541
	C42.024,22.578,42.054,21.892,42.054,21.176"/>
<path fill="#F59720" d="M21.491,3.369c9.793,0,17.76,7.967,17.76,17.759c0,0.635-0.025,1.242-0.08,1.856l-0.025,0.144l0.018,0.21
	c-0.01,0.56-0.42,11.344-17.656,32.283C15.102,47.832,10.306,40.563,7.23,33.981c-2.7-5.778-3.237-9.298-3.343-10.543l-0.005-0.054
	l-0.007-0.056c-0.097-0.771-0.144-1.49-0.144-2.201C3.732,11.335,11.7,3.369,21.491,3.369 M21.491,0.582
	c-11.344,0-20.545,9.202-20.545,20.546c0,0.869,0.06,1.708,0.165,2.547c0.27,3.177,2.518,15.36,20.396,36.28
	c21.025-24.591,20.441-36.73,20.441-36.73c0.059-0.689,0.09-1.379,0.09-2.098C42.038,9.783,32.837,0.582,21.491,0.582"/>
<g id="campsa">
	<path id="XMLID_236_" fill-rule="evenodd" clip-rule="evenodd" fill="#F79239" d="M23.247,9.185h-6.325
		c-1.665,0-3.015,1.35-3.015,3.015c0,1.666,1.35,3.015,3.015,3.015l5.422-0.012c0.838,0,1.346-0.076,1.912-0.606l0.68-0.681
		c0.567-0.53,1.084-0.601,1.92-0.601l3.988,0.002c0.318,0,0.604-0.126,0.796-0.351l1.572-1.566l-5.271-0.004
		c-0.317,0-0.629,0.124-0.82,0.347l-0.934,0.963c-0.567,0.529-1.076,0.601-1.912,0.601l-7.333,0.009
		c-0.601,0-1.088-0.486-1.088-1.087s0.487-1.087,1.088-1.087l3.88,0.005c0.317,0,0.604-0.126,0.795-0.351L23.247,9.185L23.247,9.185
		z"/>
	<path id="XMLID_235_" fill-rule="evenodd" clip-rule="evenodd" fill="#F15D2F" d="M30.424,15.015l-5.228-0.006
		c-0.319,0-0.554,0.119-0.747,0.343l-0.94,0.956c-0.567,0.529-1.075,0.593-1.913,0.593h-4.674c-2.597,0-4.701-2.104-4.701-4.701
		c0-2.596,2.104-4.716,4.701-4.716l6.774,0c0.317,0,0.603-0.137,0.795-0.361l1.563-1.566h-9.132c-3.669,0-6.643,2.975-6.643,6.643
		c0,3.669,2.974,6.644,6.643,6.644l2.654,0.003c0.837,0,1.411-0.123,1.979-0.652l0.678-0.683c0.568-0.529,1.109-0.604,1.946-0.604
		l3.88,0.002c0.317,0,0.604-0.126,0.796-0.351L30.424,15.015L30.424,15.015z"/>
	<path id="XMLID_225_" fill-rule="evenodd" clip-rule="evenodd" fill="#004FA3" d="M17.563,24.549c0,0.219,0.007,0.439,0.026,0.59
		h-1.022c-0.014-0.107-0.014-0.195-0.02-0.371l-0.448,0.405c-0.127,0.015-0.214,0.024-0.368,0.024c-1.17,0-1.236-0.601-1.236-0.748
		c0-0.468,0.494-0.653,0.675-0.712c0.274-0.083,0.582-0.108,0.883-0.108c0.214,0,0.401,0.02,0.495,0.029
		c-0.021-0.234-0.114-0.483-0.736-0.483c-0.428,0-0.822,0.122-1.043,0.19l0.488-0.62c0.294-0.049,0.588-0.078,0.89-0.078
		c0.241,0,0.701,0.015,1.036,0.205c0.374,0.215,0.381,0.502,0.381,0.668V24.549L17.563,24.549z M33.974,24.549
		c0,0.219,0.007,0.439,0.026,0.59h-1.022c-0.014-0.107-0.014-0.195-0.02-0.371l-0.448,0.405c-0.127,0.015-0.214,0.024-0.368,0.024
		c-1.169,0-1.236-0.601-1.236-0.748c0-0.468,0.494-0.653,0.675-0.712c0.274-0.083,0.582-0.108,0.883-0.108
		c0.213,0,0.4,0.02,0.495,0.029c-0.021-0.234-0.114-0.483-0.735-0.483c-0.428,0-0.823,0.122-1.043,0.19l0.487-0.62
		c0.294-0.049,0.588-0.078,0.889-0.078c0.242,0,0.703,0.015,1.037,0.205c0.375,0.215,0.381,0.502,0.381,0.668V24.549L33.974,24.549z
		 M25.84,22.728c0.106-0.025,0.246-0.059,0.446-0.059c0.883,0,1.426,0.498,1.426,1.23c0,0.839-0.717,1.298-1.525,1.298
		c-0.4,0-0.668-0.112-0.809-0.175v1.162h-1.09v-3.458h1.09v0.483L25.84,22.728L25.84,22.728z M13.359,25.167
		c-0.207,0.037-0.281,0.061-0.803,0.061c-1.69,0-2.687-0.777-2.687-1.772c0-0.972,0.942-1.851,2.774-1.851
		c0.534,0,0.942,0.073,1.264,0.142v0.767c-0.167-0.079-0.555-0.26-1.116-0.26c-1.043,0-1.638,0.532-1.638,1.163
		c0,0.664,0.642,1.181,1.738,1.181c0.421,0,0.842-0.068,1.23-0.185L13.359,25.167L13.359,25.167z M32.958,24.1
		c-0.081-0.004-0.241-0.015-0.314-0.015c-0.148,0-0.255,0.011-0.341,0.03c-0.321,0.063-0.369,0.229-0.369,0.308
		c0,0.17,0.175,0.293,0.529,0.293c0.213,0,0.4-0.055,0.495-0.084V24.1L32.958,24.1z M29.889,23.777
		c0.12,0.039,0.274,0.088,0.388,0.167c0.161,0.102,0.287,0.263,0.287,0.478c0,0.375-0.394,0.776-1.344,0.776
		c-0.18,0-0.661-0.015-1.13-0.175v-0.606c0.269,0.132,0.583,0.259,0.917,0.259c0.32,0,0.447-0.142,0.447-0.259
		c0-0.171-0.248-0.234-0.395-0.273l-0.3-0.079c-0.201-0.059-0.69-0.2-0.69-0.625c0-0.342,0.355-0.771,1.298-0.771
		c0.515,0,0.896,0.131,1.009,0.171v0.59c-0.106-0.078-0.367-0.259-0.795-0.259c-0.327,0-0.421,0.151-0.421,0.245
		c0,0.146,0.194,0.205,0.36,0.259L29.889,23.777L29.889,23.777z M25.378,24.496c0.06,0.034,0.24,0.136,0.494,0.136
		c0.441,0,0.722-0.292,0.722-0.722c0-0.176-0.053-0.361-0.181-0.493c-0.12-0.117-0.313-0.2-0.562-0.2
		c-0.174,0-0.32,0.034-0.474,0.098V24.496L25.378,24.496z M18.185,22.723h1.083v0.508l0.475-0.483
		c0.087-0.02,0.367-0.083,0.655-0.083c0.909,0,1.029,0.455,1.063,0.582l0.495-0.503c0.221-0.049,0.448-0.079,0.668-0.079
		c0.314,0,0.635,0.064,0.843,0.234c0.227,0.186,0.227,0.391,0.227,0.61v1.631H22.61v-1.22c0-0.269-0.006-0.396-0.08-0.498
		c-0.095-0.127-0.275-0.181-0.476-0.181c-0.267,0-0.474,0.092-0.581,0.141c0.007,0.059,0.007,0.127,0.007,0.293v1.464h-1.083v-1.328
		c0-0.375-0.107-0.566-0.555-0.566c-0.207,0-0.396,0.054-0.575,0.127v1.767h-1.083V22.723L18.185,22.723z M16.547,24.1
		c-0.081-0.004-0.241-0.015-0.314-0.015c-0.147,0-0.255,0.011-0.341,0.03c-0.321,0.063-0.368,0.229-0.368,0.308
		c0,0.17,0.174,0.293,0.528,0.293c0.214,0,0.401-0.055,0.495-0.084V24.1L16.547,24.1z"/>
</g>
</svg>
