<?xml version="1.0" encoding="utf-8"?>
<!-- Generator: Adobe Illustrator 16.0.0, SVG Export Plug-In . SVG Version: 6.00 Build 0)  -->
<!DOCTYPE svg PUBLIC "-//W3C//DTD SVG 1.1//EN" "http://www.w3.org/Graphics/SVG/1.1/DTD/svg11.dtd">
<svg version="1.1" id="Layer_1" xmlns="http://www.w3.org/2000/svg" xmlns:xlink="http://www.w3.org/1999/xlink" x="0px" y="0px"
	 width="72px" height="100px" viewBox="0 0 72 100" enable-background="new 0 0 72 100" xml:space="preserve">
<path id="fondo_x5F_icono" fill="#FFFFFF" d="M70.6,35.367c0-18.833-15.275-34.109-34.109-34.109
	c-18.833,0-34.109,15.276-34.109,34.109c0,1.444,0.1,2.836,0.274,4.229c0.447,5.275,4.18,25.503,33.86,60.233
	C71.42,59.002,70.451,38.852,70.451,38.852C70.551,37.707,70.6,36.562,70.6,35.367"/>
<path fill="#F59720" d="M36.285,5.65c16.342,0,29.637,13.295,29.637,29.636c0,1.059-0.043,2.073-0.133,3.097l-0.043,0.24
	l0.029,0.351c-0.016,0.934-0.703,18.929-29.464,53.872C25.623,79.85,17.618,67.721,12.487,56.736
	c-4.506-9.642-5.402-15.516-5.578-17.594L6.9,39.052L6.89,38.959c-0.162-1.286-0.24-2.487-0.24-3.673
	C6.65,18.945,19.945,5.65,36.285,5.65 M36.285,1C17.355,1,2,16.355,2,35.286c0,1.45,0.1,2.85,0.276,4.25
	c0.45,5.302,4.201,25.633,34.035,60.543c35.086-41.037,34.111-61.293,34.111-61.293c0.1-1.15,0.15-2.302,0.15-3.5
	C70.572,16.355,55.217,1,36.285,1"/>
<g id="triangiulo_inferior">
	<path fill="#F59720" d="M7.481,57.183C12.23,67.5,20.784,81.704,36.208,99.751c15.521-18.154,24.095-32.302,28.827-42.494
		c-8.219-5.589-18.139-8.855-28.827-8.855C25.565,48.402,15.68,51.639,7.481,57.183"/>
	<path fill="#FFFFFF" d="M41.943,73.224c-0.053,0.068-0.102,0.136-0.162,0.196c-0.496,0.496-1.303,0.496-1.801,0
		c-0.492-0.493-0.492-1.299,0-1.796c0.047-0.044,0.096-0.086,0.146-0.126c1.277-1.095,2.084-2.717,2.084-4.522
		c0-1.759-0.766-3.336-1.977-4.426c-0.092-0.055-0.176-0.117-0.254-0.198c-0.492-0.493-0.492-1.298,0-1.796
		c0.498-0.497,1.305-0.497,1.801,0c0.041,0.04,0.076,0.089,0.109,0.127c1.727,1.548,2.82,3.799,2.82,6.293
		C44.711,69.449,43.641,71.675,41.943,73.224 M32.28,62.555c0.089-0.052,0.177-0.118,0.253-0.192c0.497-0.5,0.497-1.303,0-1.8
		c-0.498-0.497-1.303-0.497-1.798,0c-0.034,0.033-0.07,0.076-0.098,0.109c-1.736,1.555-2.828,3.798-2.828,6.304
		c0,2.466,1.062,4.686,2.751,6.226c0.05,0.083,0.105,0.158,0.175,0.229c0.495,0.49,1.3,0.49,1.798,0
		c0.497-0.503,0.497-1.303,0-1.806c-0.042-0.035-0.083-0.069-0.122-0.102v-0.01c-1.289-1.094-2.11-2.718-2.11-4.537
		C30.302,65.227,31.067,63.646,32.28,62.555 M38.924,64.051c-0.023-0.019-0.041-0.04-0.057-0.057
		c-0.168-0.169-0.389-0.263-0.621-0.263c-0.238,0-0.459,0.094-0.627,0.263c-0.346,0.347-0.346,0.902,0,1.243
		c0.043,0.041,0.09,0.08,0.141,0.118c0.457,0.421,0.719,1.012,0.719,1.631c0,0.645-0.279,1.263-0.775,1.685l-0.018,0.013
		c-0.02,0.013-0.039,0.03-0.066,0.061c-0.166,0.162-0.252,0.384-0.252,0.621c0,0.235,0.086,0.458,0.252,0.622
		c0.168,0.169,0.389,0.263,0.627,0.263c0.232,0,0.453-0.094,0.621-0.263c0.027-0.027,0.057-0.061,0.086-0.098
		c0.809-0.752,1.266-1.811,1.266-2.903C40.219,65.874,39.754,64.803,38.924,64.051 M34.898,65.24
		c0.167-0.165,0.262-0.392,0.262-0.624c0-0.234-0.094-0.456-0.262-0.622c-0.17-0.169-0.389-0.258-0.622-0.258
		c-0.238,0-0.459,0.089-0.627,0.258c-0.012,0.017-0.032,0.038-0.046,0.057c-0.833,0.752-1.309,1.818-1.309,2.936
		c0,1.089,0.463,2.142,1.262,2.896c0.028,0.041,0.061,0.072,0.093,0.111c0.167,0.163,0.389,0.257,0.627,0.257
		c0.233,0,0.452-0.094,0.622-0.257c0.167-0.17,0.262-0.389,0.262-0.622c0-0.237-0.094-0.46-0.266-0.631
		c-0.02-0.02-0.034-0.03-0.052-0.044l-0.019-0.021c-0.494-0.426-0.785-1.04-0.785-1.688c0-0.619,0.262-1.206,0.715-1.631
		C34.805,65.322,34.855,65.285,34.898,65.24 M44.443,55.846c-0.041-0.045-0.098-0.082-0.154-0.124
		c-0.658-0.434-1.547-0.258-1.98,0.403c-0.406,0.613-0.277,1.436,0.289,1.894c0.018,0.014,0.039,0.021,0.055,0.037
		c0.018,0.013,0.037,0.034,0.059,0.044c2.705,1.987,4.471,5.192,4.471,8.804c0,6.033-4.893,10.919-10.924,10.919
		c-6.029,0-10.916-4.886-10.916-10.919c0-3.596,1.738-6.777,4.422-8.771h-0.004h0.004c0.653-0.444,0.82-1.326,0.379-1.978
		c-0.442-0.65-1.324-0.823-1.978-0.379c-0.042,0.025-0.08,0.057-0.122,0.091c-3.369,2.507-5.55,6.522-5.55,11.037
		c0,7.605,6.165,13.769,13.765,13.769c7.602,0,13.768-6.163,13.768-13.769C50.025,62.373,47.828,58.355,44.443,55.846"/>
</g>
<g id="carrefour">
	<path id="XMLID_197_" fill-rule="evenodd" clip-rule="evenodd" fill="#074C80" d="M15.716,36.558
		c0.703-0.17,1.592-0.17,2.079,0.449c0.093-0.186,0.163-0.449,0.41-0.479c0.224-0.039,0.564-0.008,0.61,0.271
		c0.085,0.371-0.015,0.766,0.016,1.144c-0.008,0.363,0.116,0.758-0.093,1.083c-0.208,0.224-0.571,0.231-0.85,0.146
		c-0.271-0.069-0.325-0.379-0.379-0.611c-0.069-0.301-0.124-0.672-0.44-0.804c-0.402-0.17-0.912-0.077-1.221,0.232
		c-0.371,0.433-0.464,1.027-0.464,1.576c0,0.541,0.062,1.113,0.394,1.561c0.348,0.519,1.206,0.565,1.624,0.108
		c0.262-0.316,0.1-0.772,0.254-1.128c0.317-0.472,1.159-0.316,1.314,0.225c0.124,0.456,0.062,0.966-0.178,1.375
		c-0.325,0.525-0.919,0.843-1.523,0.936c-0.695,0.123-1.453,0.132-2.102-0.201c-0.633-0.301-1.082-0.92-1.283-1.584
		c-0.247-0.789-0.231-1.654-0.016-2.442C14.101,37.532,14.812,36.76,15.716,36.558L15.716,36.558z"/>
	<path id="XMLID_196_" fill-rule="evenodd" clip-rule="evenodd" fill="#074C80" d="M34.643,8.04c1.415-0.317,2.921,0.054,4.111,0.85
		c0.705,0.456,1.299,1.074,1.793,1.754c0.201,0.34,0.457,0.727,0.316,1.136c-0.369,0.054-0.732-0.092-1.104-0.062
		c-0.719,0.016-1.385,0.487-1.709,1.121c-0.387,0.75-0.447,1.631-0.434,2.465c0.018,0.75,0.24,1.515,0.734,2.095
		c0.596,0.703,1.508,1.066,2.412,1.151c1.215,0.085,2.52-0.201,3.432-1.059c0.844-0.796,1.184-1.986,1.197-3.123
		c0.023-1.298-0.301-2.582-0.74-3.802c-0.225-0.665-0.713-1.198-0.998-1.832c0.023-0.054,0.078-0.147,0.109-0.201
		c0.123,0,0.27-0.039,0.354,0.077c3.426,3.486,6.85,6.971,10.264,10.457c0.371,0.401,0.797,0.873,0.75,1.46
		c-0.146,0.595-0.602,1.043-1.02,1.468c-3.223,3.246-6.445,6.485-9.668,9.731c-0.225,0.209-0.418,0.502-0.742,0.541
		c-0.023-0.055-0.07-0.155-0.102-0.209c0.07-0.464,0.326-0.865,0.504-1.291c0.199-0.456,0.432-0.889,0.57-1.368
		c0.195-0.696,0.434-1.392,0.465-2.125c0.031-0.851-0.031-1.7-0.146-2.543c-0.131-0.857-0.596-1.654-1.299-2.164
		c-0.951-0.711-2.203-0.981-3.369-0.773c-0.998,0.208-1.795,0.966-2.281,1.832c-0.541,0.936-0.641,2.071-0.387,3.106
		c0.141,0.534,0.334,1.076,0.674,1.516c0.387,0.502,1.111,0.78,1.723,0.549c0.193-0.063,0.387-0.139,0.588-0.085
		c0.332,0.302,0.139,0.796,0.008,1.151c-0.441,0.866-1.082,1.67-1.947,2.148c-1.098,0.619-2.397,0.904-3.648,0.703
		c-1.376-0.178-2.621-0.981-3.439-2.086c-1.19-1.569-1.716-3.524-2.063-5.441c-0.333-2.094-0.44-4.228-0.309-6.337
		c0.154-2.025,0.487-4.042,1.159-5.958c0.402-1.175,0.958-2.311,1.762-3.262C32.803,8.875,33.662,8.257,34.643,8.04L34.643,8.04z"/>
	<path id="XMLID_195_" fill-rule="evenodd" clip-rule="evenodd" fill="#ED3025" d="M26.15,9.107
		c0.208-0.186,0.378-0.417,0.625-0.557c0.093,0.015,0.186,0.039,0.278,0.069c0.039,0.317-0.193,0.557-0.348,0.812
		c-0.34,0.557-0.665,1.128-1.013,1.685c-0.958,1.561-1.422,3.354-1.754,5.139c-0.154,1.012-0.286,2.033-0.316,3.061
		c-0.14,1.971,0.038,3.957,0.471,5.881c0.41,1.67,0.989,3.315,1.878,4.799c0.333,0.635,0.727,1.237,1.09,1.855
		c0.092,0.115,0.069,0.271,0.062,0.41c-0.31,0.077-0.518-0.178-0.711-0.371c-3.455-3.401-6.933-6.771-10.379-10.171
		c-0.356-0.379-0.773-0.835-0.734-1.391c0.139-0.734,0.772-1.213,1.267-1.716C19.758,15.437,22.958,12.275,26.15,9.107L26.15,9.107z
		"/>
	<path id="XMLID_194_" fill-rule="evenodd" clip-rule="evenodd" fill="#074C80" d="M41.367,36.844
		c0.363-0.363,0.912-0.409,1.398-0.394c0.402,0.008,0.834,0.085,1.145,0.355c0.238,0.217,0.316,0.61,0.17,0.904
		c-0.217,0.348-0.75,0.378-1.066,0.146c-0.172-0.123-0.154-0.355-0.201-0.541c-0.117,0-0.271-0.031-0.355,0.07
		c-0.186,0.208-0.133,0.518-0.139,0.772c0.254-0.008,0.51-0.039,0.764-0.015c0.41,0.115,0.426,0.756,0.102,0.98
		c-0.264,0.055-0.541-0.008-0.813,0.023c-0.023,0.811-0.039,1.623,0.008,2.435c0.271,0.03,0.533-0.069,0.805-0.023
		c0.348,0.093,0.432,0.564,0.262,0.842c-0.131,0.193-0.379,0.232-0.594,0.217c-0.719-0.054-1.453-0.062-2.18-0.015
		c-0.264,0.015-0.58,0.062-0.789-0.155c-0.193-0.285-0.123-0.78,0.24-0.889c0.27-0.039,0.533,0.054,0.795,0.023
		c0.063-0.519,0.023-1.036,0.031-1.554c-0.008-0.302,0.055-0.626-0.078-0.912c-0.254,0.008-0.518,0.063-0.764,0.008
		c-0.334-0.139-0.324-0.642-0.117-0.881c0.279-0.208,0.658-0.078,0.982-0.085C40.996,37.702,41.012,37.177,41.367,36.844
		L41.367,36.844z"/>
	<path id="XMLID_193_" fill-rule="evenodd" clip-rule="evenodd" fill="#074C80" d="M20.229,38.282c0.487-0.286,1.059-0.325,1.6-0.31
		c0.487,0,1.005,0.054,1.422,0.324c0.255,0.162,0.402,0.456,0.425,0.75c0.093,0.827,0,1.654,0.062,2.48
		c0.201,0.085,0.448,0.085,0.641,0.201c0.193,0.271,0.109,0.719-0.193,0.874c-0.51,0.263-1.19,0.123-1.507-0.363
		c-0.595,0.455-1.384,0.563-2.11,0.44c-0.525-0.101-1.012-0.503-1.105-1.044c-0.054-0.371-0.039-0.772,0.178-1.098
		c0.163-0.255,0.456-0.401,0.75-0.479c0.471-0.154,0.981-0.17,1.453-0.325c0.201-0.062,0.417-0.186,0.479-0.409
		c0-0.201-0.101-0.418-0.293-0.503c-0.201-0.092-0.425-0.03-0.634,0.008c-0.054,0.24,0.046,0.572-0.208,0.712
		c-0.402,0.231-1.021,0.216-1.283-0.209C19.711,38.969,19.874,38.476,20.229,38.282L20.229,38.282z"/>
	<path id="XMLID_192_" fill-rule="evenodd" clip-rule="evenodd" fill="#074C80" d="M36.645,38.011
		c0.648-0.101,1.335-0.054,1.916,0.279c0.496,0.309,0.813,0.857,0.867,1.437c0.014,0.256,0.076,0.572-0.125,0.773
		c-0.123,0.055-0.262,0.046-0.387,0.055c-0.842,0-1.684-0.009-2.526,0c0.015,0.285,0.038,0.602,0.231,0.834
		c0.225,0.278,0.626,0.324,0.966,0.263c0.393-0.069,0.371-0.618,0.734-0.75c0.293-0.108,0.664-0.1,0.902,0.124
		c0.156,0.131,0.172,0.355,0.148,0.549c-0.047,0.348-0.309,0.618-0.596,0.796c-0.594,0.355-1.32,0.394-1.993,0.324
		c-0.635-0.069-1.245-0.424-1.577-0.981c-0.387-0.641-0.425-1.444-0.247-2.156C35.153,38.761,35.849,38.135,36.645,38.011
		L36.645,38.011z"/>
	<path id="XMLID_191_" fill-rule="evenodd" clip-rule="evenodd" fill="#074C80" d="M45.973,37.996
		c0.643-0.086,1.33-0.016,1.871,0.354c0.533,0.356,0.865,0.967,0.928,1.601c0.092,0.75-0.055,1.593-0.619,2.141
		c-0.441,0.472-1.113,0.649-1.746,0.634c-0.65,0.016-1.322-0.217-1.754-0.711c-0.557-0.618-0.658-1.53-0.504-2.318
		C44.303,38.808,45.076,38.088,45.973,37.996L45.973,37.996z"/>
	<path id="XMLID_190_" fill-rule="evenodd" clip-rule="evenodd" fill="#074C80" d="M27.572,38.196
		c0.386-0.224,0.873-0.231,1.291-0.1c0.672,0.239,0.943,1.189,0.502,1.738c-0.324,0.302-0.958,0.286-1.198-0.115
		c-0.115-0.186-0.062-0.418-0.046-0.634c-0.193,0.062-0.394,0.131-0.525,0.293c-0.247,0.31-0.271,0.727-0.271,1.105
		c0.015,0.371-0.039,0.749,0.046,1.112c0.255,0,0.51-0.069,0.765-0.053c0.503,0.1,0.479,1.012-0.046,1.059
		c-0.518,0.038-1.027-0.063-1.546-0.047c-0.463-0.016-0.927,0.101-1.383,0.038c-0.216-0.054-0.293-0.285-0.293-0.479
		c-0.016-0.217,0.046-0.503,0.286-0.564c0.24-0.023,0.472,0.039,0.711,0.046c0.054-0.394,0.023-0.788,0.031-1.182
		c-0.008-0.448,0.023-0.897-0.031-1.338c-0.24-0.015-0.472,0.031-0.704,0.039c-0.463-0.169-0.371-1.028,0.139-1.051
		c0.541,0.016,1.082,0.022,1.615,0.022c0.062,0.279,0.069,0.564,0.054,0.859C27.124,38.661,27.286,38.367,27.572,38.196
		L27.572,38.196z"/>
	<path id="XMLID_189_" fill-rule="evenodd" clip-rule="evenodd" fill="#074C80" d="M32.619,38.144
		c0.424-0.187,0.934-0.179,1.344,0.021c0.494,0.271,0.688,0.921,0.502,1.438c-0.193,0.518-0.996,0.595-1.314,0.162
		c-0.154-0.193-0.1-0.448-0.084-0.672c-0.502,0.069-0.758,0.579-0.773,1.035c-0.023,0.479-0.03,0.958,0,1.43
		c0.263,0.077,0.525-0.039,0.789-0.015c0.51,0.1,0.494,1.012-0.047,1.059c-0.464,0.038-0.927-0.047-1.391-0.047
		c-0.464-0.023-0.927,0.062-1.391,0.054c-0.502,0.008-0.549-0.719-0.27-1.004c0.254-0.132,0.556-0.009,0.827-0.009
		c0.062-0.416,0.031-0.842,0.039-1.259c-0.008-0.418,0.023-0.843-0.039-1.261c-0.232-0.015-0.471,0.031-0.704,0.031
		c-0.333-0.123-0.363-0.61-0.17-0.865c0.178-0.247,0.518-0.178,0.781-0.17c0.386,0.039,0.772-0.008,1.159,0.008
		c0.054,0.286,0.054,0.571,0.039,0.857C32.093,38.63,32.286,38.297,32.619,38.144L32.619,38.144z"/>
	<path id="XMLID_180_" fill-rule="evenodd" clip-rule="evenodd" fill="#074C80" d="M49.313,38.073
		c0.238-0.063,0.486-0.008,0.727-0.008c0.447,0.038,0.896-0.047,1.344-0.008c0.102,0.371,0.07,0.75,0.07,1.121
		c0.008,0.541-0.008,1.081,0.008,1.623c-0.008,0.255,0.107,0.532,0.355,0.634c0.277,0.108,0.648,0.062,0.826-0.193
		c0.154-0.24,0.17-0.541,0.186-0.827c0.008-0.44,0.016-0.881-0.023-1.321c-0.285-0.031-0.617,0.062-0.857-0.125
		c-0.17-0.246-0.17-0.625,0.07-0.825c0.154-0.14,0.379-0.094,0.57-0.094c0.525,0.054,1.059-0.023,1.586,0.008
		c0.031,0.116,0.068,0.232,0.076,0.348c0.031,1.051-0.031,2.103,0.031,3.153c0.309,0.047,0.666-0.108,0.936,0.093
		c0.178,0.247,0.178,0.657-0.055,0.866c-0.209,0.193-0.502,0.085-0.75,0.085c-0.432-0.055-0.873,0.046-1.313,0.015
		c-0.023-0.239-0.023-0.486-0.008-0.727c-0.465,0.796-1.594,1.082-2.389,0.642c-0.332-0.178-0.572-0.518-0.617-0.896
		c-0.102-0.843-0.01-1.692-0.078-2.542c-0.256-0.031-0.525,0.03-0.781-0.039C48.895,38.83,48.957,38.243,49.313,38.073
		L49.313,38.073z"/>
	<path id="XMLID_179_" fill-rule="evenodd" clip-rule="evenodd" fill="#074C80" d="M56.066,38.058
		c0.502,0.016,1.012,0.062,1.516,0.008c0.107,0.263,0.084,0.549,0.094,0.827c0.168-0.248,0.309-0.533,0.578-0.688
		c0.432-0.263,1.004-0.263,1.453-0.03c0.471,0.239,0.641,0.842,0.533,1.337c-0.125,0.579-1.012,0.727-1.352,0.255
		c-0.148-0.193-0.086-0.448-0.078-0.672c-0.178,0.054-0.363,0.107-0.488,0.254c-0.277,0.31-0.301,0.75-0.301,1.137
		c0,0.371-0.031,0.749,0.047,1.112c0.27,0,0.533-0.084,0.803-0.046c0.35,0.123,0.395,0.603,0.217,0.881
		c-0.139,0.193-0.408,0.186-0.625,0.186c-0.596-0.038-1.191-0.093-1.777-0.038c-0.287,0.007-0.58,0.069-0.857,0
		c-0.357-0.179-0.35-0.773-0.055-1.005c0.262-0.077,0.541,0.047,0.803-0.016c0.023-0.818,0.023-1.639-0.008-2.457
		c-0.293-0.133-0.703,0.185-0.904-0.147C55.418,38.637,55.611,38.035,56.066,38.058L56.066,38.058z"/>
	<path id="XMLID_178_" fill-rule="evenodd" clip-rule="evenodd" fill="#FFFFFF" d="M36.667,39.179
		c0.248-0.256,0.665-0.271,0.975-0.124c0.238,0.131,0.309,0.425,0.332,0.68c-0.512,0.016-1.029,0.016-1.546,0
		C36.467,39.534,36.513,39.317,36.667,39.179L36.667,39.179z"/>
	<path id="XMLID_177_" fill-rule="evenodd" clip-rule="evenodd" fill="#FFFFFF" d="M45.988,39.155
		c0.426-0.232,1.02-0.078,1.229,0.379c0.217,0.502,0.225,1.112,0,1.615c-0.217,0.563-1.072,0.664-1.438,0.2
		c-0.285-0.348-0.301-0.819-0.277-1.244C45.533,39.742,45.664,39.348,45.988,39.155L45.988,39.155z"/>
	<path id="XMLID_176_" fill-rule="evenodd" clip-rule="evenodd" fill="#FFFFFF" d="M21.149,40.894
		c0.371-0.146,0.765-0.192,1.136-0.324c0,0.324,0.031,0.688-0.201,0.95c-0.24,0.24-0.649,0.279-0.943,0.132
		C20.855,41.505,20.848,41.018,21.149,40.894L21.149,40.894z"/>
</g>
</svg>
