<?xml version="1.0" encoding="utf-8"?>
<!-- Generator: Adobe Illustrator 16.0.0, SVG Export Plug-In . SVG Version: 6.00 Build 0)  -->
<!DOCTYPE svg PUBLIC "-//W3C//DTD SVG 1.1//EN" "http://www.w3.org/Graphics/SVG/1.1/DTD/svg11.dtd">
<svg version="1.1" id="Layer_1" xmlns="http://www.w3.org/2000/svg" xmlns:xlink="http://www.w3.org/1999/xlink" x="0px" y="0px"
	 width="72px" height="100px" viewBox="0 0 72 100" enable-background="new 0 0 72 100" xml:space="preserve">
<path id="fondo_x5F_icono" fill="#FFFFFF" d="M70.6,35.367c0-18.833-15.275-34.109-34.109-34.109
	c-18.833,0-34.109,15.276-34.109,34.109c0,1.444,0.1,2.836,0.274,4.229c0.447,5.275,4.18,25.503,33.86,60.233
	C71.42,59.002,70.451,38.852,70.451,38.852C70.551,37.707,70.6,36.562,70.6,35.367"/>
<path fill="#F59720" d="M36.285,5.65c16.342,0,29.637,13.295,29.637,29.636c0,1.059-0.043,2.073-0.133,3.097l-0.043,0.24
	l0.029,0.351c-0.016,0.934-0.703,18.929-29.464,53.872C25.623,79.85,17.618,67.721,12.487,56.736
	c-4.506-9.642-5.402-15.516-5.578-17.594L6.9,39.052L6.89,38.959c-0.162-1.286-0.24-2.487-0.24-3.673
	C6.65,18.945,19.945,5.65,36.285,5.65 M36.285,1C17.355,1,2,16.355,2,35.286c0,1.45,0.1,2.85,0.276,4.25
	c0.45,5.302,4.201,25.633,34.035,60.543c35.086-41.037,34.111-61.293,34.111-61.293c0.1-1.15,0.15-2.302,0.15-3.5
	C70.572,16.355,55.217,1,36.285,1"/>
<g id="triangiulo_inferior">
	<path fill="#F59720" d="M7.481,57.183C12.23,67.5,20.784,81.704,36.208,99.751c15.521-18.154,24.095-32.302,28.827-42.494
		c-8.219-5.589-18.139-8.855-28.827-8.855C25.565,48.402,15.68,51.639,7.481,57.183"/>
	<path fill="#FFFFFF" d="M41.943,73.224c-0.053,0.068-0.102,0.136-0.162,0.196c-0.496,0.496-1.303,0.496-1.801,0
		c-0.492-0.493-0.492-1.299,0-1.796c0.047-0.044,0.096-0.086,0.146-0.126c1.277-1.095,2.084-2.717,2.084-4.522
		c0-1.759-0.766-3.336-1.977-4.426c-0.092-0.055-0.176-0.117-0.254-0.198c-0.492-0.493-0.492-1.298,0-1.796
		c0.498-0.497,1.305-0.497,1.801,0c0.041,0.04,0.076,0.089,0.109,0.127c1.727,1.548,2.82,3.799,2.82,6.293
		C44.711,69.449,43.641,71.675,41.943,73.224 M32.28,62.555c0.089-0.052,0.177-0.118,0.253-0.192c0.497-0.5,0.497-1.303,0-1.8
		c-0.498-0.497-1.303-0.497-1.798,0c-0.034,0.033-0.07,0.076-0.098,0.109c-1.736,1.555-2.828,3.798-2.828,6.304
		c0,2.466,1.062,4.686,2.751,6.226c0.05,0.083,0.105,0.158,0.175,0.229c0.495,0.49,1.3,0.49,1.798,0
		c0.497-0.503,0.497-1.303,0-1.806c-0.042-0.035-0.083-0.069-0.122-0.102v-0.01c-1.289-1.094-2.11-2.718-2.11-4.537
		C30.302,65.227,31.067,63.646,32.28,62.555 M38.924,64.051c-0.023-0.019-0.041-0.04-0.057-0.057
		c-0.168-0.169-0.389-0.263-0.621-0.263c-0.238,0-0.459,0.094-0.627,0.263c-0.346,0.347-0.346,0.902,0,1.243
		c0.043,0.041,0.09,0.08,0.141,0.118c0.457,0.421,0.719,1.012,0.719,1.631c0,0.645-0.279,1.263-0.775,1.685l-0.018,0.013
		c-0.02,0.013-0.039,0.03-0.066,0.061c-0.166,0.162-0.252,0.384-0.252,0.621c0,0.235,0.086,0.458,0.252,0.622
		c0.168,0.169,0.389,0.263,0.627,0.263c0.232,0,0.453-0.094,0.621-0.263c0.027-0.027,0.057-0.061,0.086-0.098
		c0.809-0.752,1.266-1.811,1.266-2.903C40.219,65.874,39.754,64.803,38.924,64.051 M34.898,65.24
		c0.167-0.165,0.262-0.392,0.262-0.624c0-0.234-0.094-0.456-0.262-0.622c-0.17-0.169-0.389-0.258-0.622-0.258
		c-0.238,0-0.459,0.089-0.627,0.258c-0.012,0.017-0.032,0.038-0.046,0.057c-0.833,0.752-1.309,1.818-1.309,2.936
		c0,1.089,0.463,2.142,1.262,2.896c0.028,0.041,0.061,0.072,0.093,0.111c0.167,0.163,0.389,0.257,0.627,0.257
		c0.233,0,0.452-0.094,0.622-0.257c0.167-0.17,0.262-0.389,0.262-0.622c0-0.237-0.094-0.46-0.266-0.631
		c-0.02-0.02-0.034-0.03-0.052-0.044l-0.019-0.021c-0.494-0.426-0.785-1.04-0.785-1.688c0-0.619,0.262-1.206,0.715-1.631
		C34.805,65.322,34.855,65.285,34.898,65.24 M44.443,55.846c-0.041-0.045-0.098-0.082-0.154-0.124
		c-0.658-0.434-1.547-0.258-1.98,0.403c-0.406,0.613-0.277,1.436,0.289,1.894c0.018,0.014,0.039,0.021,0.055,0.037
		c0.018,0.013,0.037,0.034,0.059,0.044c2.705,1.987,4.471,5.192,4.471,8.804c0,6.033-4.893,10.919-10.924,10.919
		c-6.029,0-10.916-4.886-10.916-10.919c0-3.596,1.738-6.777,4.422-8.771h-0.004h0.004c0.653-0.444,0.82-1.326,0.379-1.978
		c-0.442-0.65-1.324-0.823-1.978-0.379c-0.042,0.025-0.08,0.057-0.122,0.091c-3.369,2.507-5.55,6.522-5.55,11.037
		c0,7.605,6.165,13.769,13.765,13.769c7.602,0,13.768-6.163,13.768-13.769C50.025,62.373,47.828,58.355,44.443,55.846"/>
</g>
<g id="XMLID_648_">
	<path id="XMLID_689_" fill="#E2231A" d="M22.818,37.109c-0.009-0.896-0.327-1.267-0.721-1.485
		c-0.403-0.216-0.917-0.235-1.273-0.269c-0.331-0.031-0.769-0.043-1.221-0.043c-0.907,0-1.875,0.043-2.254,0.044
		c-2.095,0.013-2.757,1.138-3.132,2.19c-0.362,1.048-1.123,4.703-1.232,5.832c-0.013,0.137-0.02,0.271-0.019,0.401
		c0,0.481,0.094,0.917,0.319,1.231c0.225,0.313,0.574,0.531,1.176,0.578c0.683,0.051,1.5,0.081,2.303,0.081
		c0.908,0,1.801-0.039,2.461-0.13c1.382-0.174,2.286-1.23,2.417-1.82l0.306-1.764H19.43l-0.092,0.464
		c-0.102,0.573-0.627,1.057-1.417,1.111H16.71c-0.336,0-0.62-0.15-0.801-0.372c-0.183-0.218-0.275-0.502-0.275-0.785
		c0-0.079,0.006-0.16,0.022-0.243l0.704-3.255c0.042-0.215,0.145-0.534,0.352-0.817c0.203-0.282,0.539-0.532,1-0.534h1.498
		c0.104,0.002,0.323-0.001,0.529,0.141c0.212,0.141,0.363,0.426,0.358,0.855c0,0.086-0.005,0.178-0.017,0.278h2.486l0.211-1.134
		C22.806,37.462,22.818,37.277,22.818,37.109L22.818,37.109z"/>
	<path id="XMLID_684_" fill="#E2231A" d="M50.801,35.611c-0.303-0.168-0.693-0.217-0.953-0.257c-0.34-0.055-1.195-0.087-2.084-0.085
		c-0.986-0.002-2.035,0.037-2.52,0.111c-1.68,0.252-2.232,1.447-2.381,2.205l-0.344,1.643c-0.025,0.154-0.039,0.303-0.039,0.446
		c0.02,0.77,0.324,1.338,1.408,1.482c1.424,0.157,2.477,0.207,3.164,0.258c0.615,0.038,0.875,0.495,0.861,0.801
		c0,0.027,0,0.046-0.002,0.069c-0.021,0.197-0.004,0.28-0.152,0.813l-0.008,0.025c-0.119,0.258-0.377,0.4-0.658,0.522
		c-0.285,0.116-0.598,0.189-0.857,0.189h-1.08c-0.377,0-0.641-0.063-0.83-0.207c-0.191-0.145-0.256-0.368-0.252-0.559
		c0-0.183,0.045-0.362,0.084-0.522h-2.383l-0.285,1.56c-0.006,0.046-0.008,0.091-0.008,0.135c0.006,0.582,0.4,1.208,1.365,1.321
		c0.482,0.056,1.557,0.076,2.518,0.076c0.719,0,1.379-0.012,1.691-0.025c1.916-0.104,2.869-0.87,3.201-1.977l0.449-2.028
		c0.035-0.167,0.053-0.322,0.053-0.465c-0.004-0.443-0.15-0.759-0.434-1.004c-0.285-0.245-0.729-0.415-1.314-0.484
		c-0.004,0-2.328-0.236-2.789-0.276c-0.178-0.018-0.418-0.047-0.639-0.133c-0.209-0.079-0.449-0.251-0.451-0.555
		c0-0.021,0-0.047,0.004-0.069c0.037-0.275,0.088-0.771,0.256-1.055c0.15-0.225,0.463-0.398,0.93-0.428
		c0.168-0.01,0.398-0.014,0.621-0.014c0.26,0,0.506,0.004,0.646,0.014c0.086,0.008,0.352-0.01,0.609,0.102
		c0.266,0.104,0.51,0.4,0.502,0.861c0,0.062-0.004,0.127-0.012,0.195h2.32l0.273-1.276c0.033-0.171,0.047-0.319,0.047-0.452
		C51.324,36.025,51.102,35.784,50.801,35.611L50.801,35.611z"/>
	<path id="XMLID_665_" fill="#E2231A" d="M24.833,35.409l-1.64,7.822c-0.042,0.17-0.063,0.329-0.063,0.479
		c0.004,0.951,0.788,1.598,2.053,1.609h4.799l0.4-2.015h-4.566c-0.059,0-0.115-0.026-0.151-0.072
		c-0.038-0.045-0.053-0.105-0.042-0.164l0.324-1.618c0.017-0.092,0.099-0.158,0.192-0.158h4.376l0.341-1.731h-4.255
		c-0.058,0-0.115-0.025-0.153-0.072c-0.038-0.046-0.052-0.105-0.041-0.164l0.319-1.577c0.019-0.092,0.1-0.158,0.192-0.158h4.698
		l0.475-2.181H24.833L24.833,35.409z"/>
	<path id="XMLID_656_" fill="#E2231A" d="M35.65,37.746c0.019-0.091,0.099-0.156,0.192-0.156h2.136
		c0.086,0.002,0.279,0.014,0.482,0.12c0.203,0.101,0.408,0.341,0.402,0.692c0,0.072-0.008,0.148-0.021,0.229l-0.002,0.011
		l-0.295,1.204c-0.055,0.313-0.25,0.521-0.451,0.624c-0.197,0.104-0.396,0.124-0.523,0.125h-2.292c-0.06,0-0.116-0.026-0.153-0.073
		c-0.038-0.046-0.052-0.106-0.041-0.165L35.65,37.746L35.65,37.746z M34.029,45.32l0.523-2.546c0.02-0.092,0.1-0.157,0.193-0.157
		h3.712c0.877,0.001,2.219-0.646,2.543-2.075l0.609-2.825c0.041-0.195,0.059-0.378,0.059-0.546c0-1.152-0.855-1.751-1.666-1.762
		h-6.353l-2.088,9.911H34.029L34.029,45.32z"/>
	<path id="XMLID_653_" fill="#E2231A" d="M55.063,40.596c-0.057,0-0.113-0.027-0.15-0.071c-0.037-0.045-0.055-0.105-0.043-0.163
		l0.496-2.611c0.018-0.093,0.102-0.16,0.195-0.16l2.342,0.002c0.156,0.013,0.383,0.004,0.605,0.109
		c0.23,0.102,0.402,0.372,0.393,0.747c0,0.106-0.01,0.22-0.031,0.348l-0.002,0.011l-0.359,1.634c-0.02,0.092-0.1,0.155-0.191,0.155
		H55.063L55.063,40.596z M60.039,45.32l1.668-7.572c0.039-0.209,0.059-0.396,0.059-0.567c-0.004-0.716-0.307-1.122-0.711-1.392
		c-0.402-0.268-0.926-0.369-1.305-0.38h-6.438l-2.125,9.911h2.52l0.576-2.548c0.02-0.09,0.098-0.154,0.191-0.154h3.293
		c0.059,0,0.113,0.027,0.15,0.071c0.039,0.046,0.053,0.105,0.043,0.163L57.49,45.32H60.039L60.039,45.32z"/>
</g>
<g id="XMLID_695_">
	<path id="XMLID_652_" fill="#E2231A" d="M23.134,20.095c-0.459,0-0.57-0.365,0.134-0.887c1.325-0.976,2.575-1.995,2.801-2.166
		c0.278-0.208,0.608-0.36,1.022-0.36h3.925c0.265,0,0.569-0.109,0.802-0.288c1.072-0.826,4.087-3.152,4.155-3.21
		c0.355-0.292,0.772-0.156,0.676,0.294c-0.354,1.669-0.813,3.911-0.86,4.125c-0.257,1.215-2.094,2.491-3.719,2.491H23.134
		L23.134,20.095z"/>
	<path id="XMLID_651_" fill="#E2231A" d="M33.302,29.328c-0.147,0.696-0.6,1.146-0.928,1.387c-1.289,0.939-2.915,2.119-3.005,2.186
		c-0.252,0.189-0.662,0.135-0.568-0.322c0.061-0.275,1.023-5.217,1.504-7.481c0.061-0.294,0-0.539-0.542-0.539H21.92
		c-0.35,0-0.64-0.264-0.095-0.693c0.345-0.271,1.935-1.491,3.068-2.313c0.327-0.222,0.669-0.364,1.097-0.364h5.508
		c1.818,0,3.258,1.163,2.878,2.947C34.048,25.684,33.64,27.741,33.302,29.328L33.302,29.328z"/>
	<path id="XMLID_650_" fill="#E2231A" d="M48.475,21.157c0.457,0,0.596,0.37-0.137,0.886c-1.342,0.953-2.592,1.997-2.818,2.167
		c-0.279,0.207-0.609,0.358-1.021,0.358h-3.926c-0.266,0-0.57,0.109-0.803,0.289c-1.072,0.827-4.083,3.152-4.154,3.21
		c-0.357,0.292-0.773,0.157-0.676-0.294c0.355-1.668,0.813-3.911,0.858-4.125c0.259-1.215,2.095-2.491,3.722-2.491H48.475
		L48.475,21.157z"/>
	<path id="XMLID_649_" fill="#E2231A" d="M38.285,11.925c0.15-0.697,0.602-1.147,0.932-1.388c1.287-0.94,2.912-2.119,3.004-2.187
		c0.254-0.187,0.664-0.133,0.566,0.322c-0.059,0.277-1.021,5.218-1.504,7.48c-0.061,0.296,0.002,0.542,0.541,0.542h7.922
		c0.348,0,0.639,0.264,0.092,0.692c-0.346,0.27-2.844,2.172-3.064,2.313c-0.326,0.223-0.672,0.363-1.098,0.363h-5.584
		c-1.82,0-3.259-1.161-2.879-2.945C37.541,15.569,37.947,13.511,38.285,11.925L38.285,11.925z"/>
</g>
</svg>
