<?xml version="1.0" encoding="utf-8"?>
<!-- Generator: Adobe Illustrator 16.0.0, SVG Export Plug-In . SVG Version: 6.00 Build 0)  -->
<!DOCTYPE svg PUBLIC "-//W3C//DTD SVG 1.1//EN" "http://www.w3.org/Graphics/SVG/1.1/DTD/svg11.dtd" [
	<!ENTITY ns_flows "http://ns.adobe.com/Flows/1.0/">
	<!ENTITY ns_extend "http://ns.adobe.com/Extensibility/1.0/">
	<!ENTITY ns_ai "http://ns.adobe.com/AdobeIllustrator/10.0/">
	<!ENTITY ns_graphs "http://ns.adobe.com/Graphs/1.0/">
]>
<svg version="1.1" id="Layer_1" xmlns:x="&ns_extend;" xmlns:i="&ns_ai;" xmlns:graph="&ns_graphs;"
	 xmlns="http://www.w3.org/2000/svg" xmlns:xlink="http://www.w3.org/1999/xlink" xmlns:a="http://ns.adobe.com/AdobeSVGViewerExtensions/3.0/"
	 x="0px" y="0px" width="72px" height="100px" viewBox="0 0 72 100" enable-background="new 0 0 72 100" xml:space="preserve">
<path id="fondo_x5F_icono" fill="#FFFFFF" d="M70.6,35.367c0-18.833-15.275-34.109-34.109-34.109
	c-18.833,0-34.109,15.276-34.109,34.109c0,1.444,0.1,2.836,0.274,4.229c0.447,5.275,4.18,25.503,33.86,60.233
	C71.42,59.002,70.451,38.852,70.451,38.852C70.551,37.707,70.6,36.562,70.6,35.367"/>
<path fill="#F59720" d="M36.285,5.65c16.342,0,29.637,13.295,29.637,29.636c0,1.059-0.043,2.073-0.133,3.097l-0.043,0.24
	l0.029,0.351c-0.016,0.934-0.703,18.929-29.464,53.872C25.623,79.85,17.618,67.721,12.487,56.736
	c-4.506-9.642-5.402-15.516-5.578-17.594L6.9,39.052L6.89,38.959c-0.162-1.286-0.24-2.487-0.24-3.673
	C6.65,18.945,19.945,5.65,36.285,5.65 M36.285,1C17.355,1,2,16.355,2,35.286c0,1.45,0.1,2.85,0.276,4.25
	c0.45,5.302,4.201,25.633,34.035,60.543c35.086-41.037,34.111-61.293,34.111-61.293c0.1-1.15,0.15-2.302,0.15-3.5
	C70.572,16.355,55.217,1,36.285,1"/>
<g id="triangiulo_inferior">
	<path fill="#F59720" d="M7.481,57.183C12.23,67.5,20.784,81.704,36.208,99.751c15.521-18.154,24.095-32.302,28.827-42.494
		c-8.219-5.589-18.139-8.855-28.827-8.855C25.565,48.402,15.68,51.639,7.481,57.183"/>
	<path fill="#FFFFFF" d="M41.943,73.224c-0.053,0.068-0.102,0.136-0.162,0.196c-0.496,0.496-1.303,0.496-1.801,0
		c-0.492-0.493-0.492-1.299,0-1.796c0.047-0.044,0.096-0.086,0.146-0.126c1.277-1.095,2.084-2.717,2.084-4.522
		c0-1.759-0.766-3.336-1.977-4.426c-0.092-0.055-0.176-0.117-0.254-0.198c-0.492-0.493-0.492-1.298,0-1.796
		c0.498-0.497,1.305-0.497,1.801,0c0.041,0.04,0.076,0.089,0.109,0.127c1.727,1.548,2.82,3.799,2.82,6.293
		C44.711,69.449,43.641,71.675,41.943,73.224 M32.28,62.555c0.089-0.052,0.177-0.118,0.253-0.192c0.497-0.5,0.497-1.303,0-1.8
		c-0.498-0.497-1.303-0.497-1.798,0c-0.034,0.033-0.07,0.076-0.098,0.109c-1.736,1.555-2.828,3.798-2.828,6.304
		c0,2.466,1.062,4.686,2.751,6.226c0.05,0.083,0.105,0.158,0.175,0.229c0.495,0.49,1.3,0.49,1.798,0
		c0.497-0.503,0.497-1.303,0-1.806c-0.042-0.035-0.083-0.069-0.122-0.102v-0.01c-1.289-1.094-2.11-2.718-2.11-4.537
		C30.302,65.227,31.067,63.646,32.28,62.555 M38.924,64.051c-0.023-0.019-0.041-0.04-0.057-0.057
		c-0.168-0.169-0.389-0.263-0.621-0.263c-0.238,0-0.459,0.094-0.627,0.263c-0.346,0.347-0.346,0.902,0,1.243
		c0.043,0.041,0.09,0.08,0.141,0.118c0.457,0.421,0.719,1.012,0.719,1.631c0,0.645-0.279,1.263-0.775,1.685l-0.018,0.013
		c-0.02,0.013-0.039,0.03-0.066,0.061c-0.166,0.162-0.252,0.384-0.252,0.621c0,0.235,0.086,0.458,0.252,0.622
		c0.168,0.169,0.389,0.263,0.627,0.263c0.232,0,0.453-0.094,0.621-0.263c0.027-0.027,0.057-0.061,0.086-0.098
		c0.809-0.752,1.266-1.811,1.266-2.903C40.219,65.874,39.754,64.803,38.924,64.051 M34.898,65.24
		c0.167-0.165,0.262-0.392,0.262-0.624c0-0.234-0.094-0.456-0.262-0.622c-0.17-0.169-0.389-0.258-0.622-0.258
		c-0.238,0-0.459,0.089-0.627,0.258c-0.012,0.017-0.032,0.038-0.046,0.057c-0.833,0.752-1.309,1.818-1.309,2.936
		c0,1.089,0.463,2.142,1.262,2.896c0.028,0.041,0.061,0.072,0.093,0.111c0.167,0.163,0.389,0.257,0.627,0.257
		c0.233,0,0.452-0.094,0.622-0.257c0.167-0.17,0.262-0.389,0.262-0.622c0-0.237-0.094-0.46-0.266-0.631
		c-0.02-0.02-0.034-0.03-0.052-0.044l-0.019-0.021c-0.494-0.426-0.785-1.04-0.785-1.688c0-0.619,0.262-1.206,0.715-1.631
		C34.805,65.322,34.855,65.285,34.898,65.24 M44.443,55.846c-0.041-0.045-0.098-0.082-0.154-0.124
		c-0.658-0.434-1.547-0.258-1.98,0.403c-0.406,0.613-0.277,1.436,0.289,1.894c0.018,0.014,0.039,0.021,0.055,0.037
		c0.018,0.013,0.037,0.034,0.059,0.044c2.705,1.987,4.471,5.192,4.471,8.804c0,6.033-4.893,10.919-10.924,10.919
		c-6.029,0-10.916-4.886-10.916-10.919c0-3.596,1.738-6.777,4.422-8.771h-0.004h0.004c0.653-0.444,0.82-1.326,0.379-1.978
		c-0.442-0.65-1.324-0.823-1.978-0.379c-0.042,0.025-0.08,0.057-0.122,0.091c-3.369,2.507-5.55,6.522-5.55,11.037
		c0,7.605,6.165,13.769,13.765,13.769c7.602,0,13.768-6.163,13.768-13.769C50.025,62.373,47.828,58.355,44.443,55.846"/>
</g>
<g id="XMLID_13_">
	<path id="XMLID_1019_" fill="#1A659C" d="M13.632,36.48c0.004-0.038,0.008-0.076,0.012-0.113c0.003-0.037,0.006-0.073,0.009-0.11
		l-0.001,0.002c0.094-0.377,0.127-0.765,0.152-1.15c0.015-0.262,0.116-0.319,0.354-0.308c0.359,0.018,0.721-0.002,1.081,0.007
		c2.481,0.06,4.966-0.137,7.444,0.12h0.001c0.036,0.011,0.073,0.021,0.108,0.031c0.038,0.007,0.075,0.015,0.113,0.021
		c0.314,0.113,0.629,0.226,0.944,0.339l0.022,0.009c0.178,0.102,0.355,0.204,0.534,0.305c0.008,0.017,0.021,0.022,0.038,0.02
		c0.437,0.32,0.841,0.675,1.182,1.099c0.025,0.037,0.051,0.073,0.076,0.11c0.123,0.203,0.246,0.405,0.368,0.608l0.001,0.002
		c0.189,0.471,0.339,0.95,0.402,1.459c0.076,0.615-0.031,1.211-0.129,1.811l-0.001,0.001c-0.006,0.016-0.012,0.032-0.018,0.048
		c-0.011,0.041-0.021,0.08-0.032,0.12c-0.067,0.185-0.134,0.37-0.202,0.555c-0.01,0.031-0.02,0.063-0.03,0.093
		c-0.457,0.934-1.062,1.747-1.895,2.382c-0.587,0.446-1.241,0.759-1.925,1.015c-0.055,0.019-0.111,0.036-0.166,0.054
		c-0.277,0.059-0.554,0.119-0.831,0.177c-0.055,0.005-0.11,0.011-0.165,0.016c-0.267,0.012-0.533,0.035-0.8,0.035
		c-2.403,0.002-4.808,0.001-7.212,0.001c-0.466,0-0.466,0-0.423-0.449c0.004-0.055,0.003-0.11,0.004-0.165
		c0.001-0.019,0.002-0.038,0.003-0.056c0.103-0.532,0.147-1.071,0.203-1.609c0.005-0.057,0.011-0.113,0.017-0.17
		c0.034-0.275,0.068-0.551,0.103-0.827c0.003-0.055,0.008-0.109,0.011-0.164c0.101-0.569,0.168-1.142,0.21-1.719
		c0.004-0.037,0.007-0.075,0.011-0.112c0.139-0.92,0.254-1.843,0.333-2.771l0.001,0.001C13.603,36.964,13.627,36.723,13.632,36.48z
		 M18.024,43.519C18.024,43.519,18.024,43.519,18.024,43.519c0.185,0,0.37,0.002,0.554,0c1.024-0.013,1.869-0.417,2.509-1.208
		c0.884-1.091,1.156-2.362,0.949-3.726c-0.182-1.19-0.874-1.842-2.067-2.017c-0.641-0.095-1.292-0.02-1.938-0.042
		c-0.178-0.007-0.154,0.117-0.167,0.222c-0.084,0.696-0.168,1.393-0.252,2.089c-0.18,1.485-0.355,2.971-0.545,4.455
		c-0.026,0.2,0.029,0.237,0.209,0.229C17.524,43.51,17.774,43.519,18.024,43.519z"/>
	<path id="XMLID_1016_" fill="#1A659C" d="M61.566,37.253c-0.006,0.058-0.01,0.114-0.018,0.171
		c-0.033,0.257-0.066,0.515-0.098,0.773c-0.004,0.055-0.008,0.11-0.014,0.165c-0.098,0.549-0.156,1.104-0.205,1.661
		c-0.006,0.057-0.01,0.114-0.018,0.171c-0.139,0.883-0.234,1.771-0.324,2.658c-0.002,0.038-0.006,0.075-0.008,0.112
		c-0.064,0.254-0.084,0.515-0.098,0.775c-0.006,0.055-0.01,0.111-0.016,0.166c-0.096,0.437-0.121,0.883-0.172,1.326
		c-0.016,0.007-0.033,0.013-0.051,0.021c-0.092-0.004-0.186-0.012-0.275-0.012c-2.133,0-4.266-0.012-6.396,0.004
		c-1.014,0.008-2.012-0.033-2.973-0.389c-0.01-0.014-0.023-0.019-0.039-0.014c-0.221-0.114-0.443-0.219-0.658-0.343
		c-0.998-0.574-1.668-1.422-2.066-2.493c-0.008-0.032-0.014-0.064-0.021-0.095c-0.313-1.194-0.186-2.351,0.307-3.474
		c0.363-0.832,0.922-1.521,1.582-2.131l0.006-0.004c0.773-0.626,1.645-1.065,2.604-1.325l0.004-0.001
		c0.5-0.086,0.998-0.171,1.51-0.17c2.475,0.003,4.949,0.006,7.426-0.006c0.268-0.001,0.295,0.082,0.264,0.313
		C61.727,35.824,61.65,36.54,61.566,37.253z M55.443,43.521c0.332,0,0.6-0.013,0.867,0.003c0.193,0.013,0.246-0.056,0.268-0.242
		c0.26-2.182,0.525-4.361,0.799-6.542c0.023-0.183-0.033-0.219-0.201-0.215c-0.443,0.009-0.887-0.003-1.33,0.004
		c-0.838,0.013-1.582,0.289-2.18,0.878c-1.117,1.102-1.471,2.469-1.27,3.986c0.16,1.218,0.852,1.889,2.061,2.089
		C54.807,43.542,55.156,43.51,55.443,43.521z"/>
	<path id="XMLID_1015_" fill="#1A659C" d="M35.602,44.957l-0.01-0.012l-0.016,0.005c-0.378-0.131-0.741-0.306-1.138-0.375
		c-0.035-0.027-0.07-0.054-0.105-0.081c-0.173-0.087-0.343-0.179-0.519-0.257c-0.157-0.069-0.151-0.138-0.042-0.257
		c0.294-0.319,0.588-0.639,0.858-0.978c0.11-0.136,0.193-0.157,0.345-0.094c0.4,0.166,0.805,0.321,1.237,0.388
		c1.048,0.299,2.123,0.361,3.207,0.348c0.314-0.004,0.627-0.02,0.932-0.112c0.59-0.178,0.742-0.661,0.34-1.125
		c-0.467-0.538-1.072-0.9-1.676-1.259c-0.643-0.382-1.307-0.726-1.916-1.163c-0.324-0.232-0.632-0.481-0.898-0.778
		c-1.001-1.115-0.875-2.505,0.316-3.423c0.798-0.615,1.73-0.913,2.703-1.066c2.758-0.437,5.445-0.143,8.055,0.853
		c0.059,0.023,0.131,0.026,0.168,0.111c-0.318,0.359-0.646,0.72-0.965,1.091c-0.102,0.121-0.201,0.054-0.299,0.026
		c-1.225-0.351-2.475-0.505-3.746-0.507c-0.369-0.001-0.738,0.022-1.096,0.13c-0.145,0.043-0.279,0.101-0.396,0.191
		c-0.264,0.201-0.311,0.485-0.121,0.754c0.072,0.105,0.162,0.202,0.262,0.282c0.451,0.371,0.957,0.655,1.492,0.888
		c0.189,0.142,0.406,0.237,0.625,0.321l0.006,0.001c0.172,0.097,0.344,0.195,0.518,0.291c0.635,0.351,1.268,0.704,1.83,1.171
		c0.539,0.449,0.953,0.975,1.035,1.702c0,0.074,0,0.147-0.002,0.221c0,0.037-0.002,0.074-0.004,0.111
		c-0.01,0.016-0.014,0.032-0.004,0.05c-0.158,0.972-0.666,1.705-1.498,2.221c-0.02,0.012-0.043,0.024-0.063,0.037
		c-0.508,0.28-1.063,0.439-1.609,0.618l-0.002-0.004c-0.512,0.079-1.027,0.159-1.541,0.237c-0.035,0.002-0.074,0.004-0.109,0.007
		c-0.275,0.001-0.553,0-0.826,0.05l-0.006,0.001c-0.645-0.014-1.291-0.028-1.936-0.042c-0.096-0.005-0.188-0.01-0.281-0.015
		C37.66,45.395,36.622,45.229,35.602,44.957z"/>
	<path id="XMLID_1014_" fill="#1A659C" d="M29.227,34.763c1.313,0.024,2.624,0.024,3.937,0c0.138,0.006,0.256,0.035,0.223,0.216
		c-0.01,0.058-0.018,0.114-0.028,0.171c-0.097,0.812-0.195,1.623-0.293,2.434c-0.003,0.038-0.007,0.075-0.011,0.112
		c-0.096,0.55-0.156,1.105-0.207,1.661c-0.117,0.979-0.234,1.958-0.351,2.938c-0.065,0.293-0.103,0.59-0.107,0.89
		c-0.012,0.017-0.013,0.033-0.005,0.05c-0.105,0.534-0.149,1.074-0.204,1.614c-0.005,0.057-0.009,0.114-0.013,0.17
		c-0.04,0.104-0.034,0.222-0.216,0.221c-1.375-0.009-2.751-0.008-4.126-0.002c-0.159,0-0.188-0.056-0.167-0.197
		c0.026-0.173,0.035-0.348,0.051-0.521c0.006-0.058,0.013-0.117,0.02-0.176c0.029-0.22,0.058-0.44,0.086-0.661
		c0.003-0.037,0.006-0.075,0.009-0.113c0.073-0.55,0.191-1.096,0.181-1.654c0.008-0.115-0.016-0.235,0.059-0.337
		c0.014-0.053,0.033-0.106,0.04-0.16c0.114-0.924,0.229-1.849,0.339-2.773c0.095-0.796,0.184-1.593,0.275-2.389
		c0.003-0.037,0.007-0.074,0.01-0.111c0.048-0.346,0.117-0.691,0.137-1.039C28.88,34.85,28.978,34.743,29.227,34.763z"/>
</g>
<g id="XMLID_808_">
	<path id="XMLID_1013_" fill="#6DB85C" d="M35.165,26.953c-0.021-0.001-0.042,0.002-0.061,0.01
		c-1.271,0.184-2.531,0.416-3.763,0.789l-0.003,0.001c-0.301,0.022-0.553,0.201-0.842,0.264c-0.099,0.077-0.375-0.241-0.333,0.149
		l-0.005-0.017c-0.025,0.029-0.05,0.059-0.073,0.088c-0.041,0.02-0.082,0.039-0.123,0.058c-0.151-0.144-0.305-0.149-0.508-0.082
		c-0.269,0.089-0.507-0.083-0.644-0.28c-0.135-0.194,0.046-0.356,0.213-0.479c0.2-0.146,0.395-0.299,0.589-0.451
		c0.763-0.601,1.481-1.27,2.428-1.596c0.113-0.039,0.267-0.067,0.288-0.236c0.043,0,0.087-0.001,0.131-0.001
		c0.045,0.068,0.089,0.066,0.133-0.001c0.101,0.008,0.137-0.103,0.224-0.125c0.834-0.212,1.627-0.536,2.415-0.874
		c0.255-0.051,0.456-0.157,0.467-0.456c0.021-0.001,0.043-0.002,0.064-0.003c0.09,0.001,0.133-0.042,0.131-0.131
		c0.043-0.067,0.144-0.095,0.136-0.198c0.286-0.131,0.46-0.354,0.524-0.661l0.003-0.002c0.181-0.017,0.12-0.158,0.134-0.261
		c0.021,0,0.042-0.002,0.064-0.003c0.431-0.216,0.744-0.601,0.728-0.902c-0.15,0.026-0.193,0.232-0.35,0.221
		c-0.71-0.049-1.438,0.141-2.125-0.178c-0.384-0.178-0.824-0.127-1.21-0.267c-0.41-0.147-0.803-0.357-1.229-0.441
		c-0.384-0.077-0.706-0.288-1.043-0.441c-0.713-0.324-1.377-0.754-2.063-1.14c-0.436-0.244-0.847-0.52-1.046-1.002
		c-0.131-0.32-0.315-0.598-0.533-0.862c-0.092-0.112-0.151-0.243-0.087-0.398c0.087-0.211,0.012-0.386-0.134-0.541
		c-0.223-0.235-0.292-0.536-0.352-0.837c-0.029-0.145-0.018-0.33,0.2-0.27c0.208,0.057,0.419,0.062,0.628,0.157
		c0.483,0.219,0.951,0.484,1.473,0.612c0.959,0.236,1.864,0.623,2.768,1.011c0.279,0.12,0.544,0.275,0.83,0.379
		c0.503,0.183,0.955,0.486,1.485,0.606c0.15,0.035,0.237,0.228,0.433,0.2c0.188-0.027,0.342,0.06,0.47,0.194
		c0.328,0.344,0.749,0.579,1.163,0.765c0.503,0.227,1.019,0.439,1.531,0.659c0.467,0.201,1.174-0.067,1.428-0.526
		c0.217-0.394,0.414-0.811,0.701-1.148c0.453-0.529,0.98-0.994,1.486-1.476c0.285-0.272,0.547-0.574,0.686-0.977
		c0.283-0.813,0.402-1.076,1.404-1.065c0.688,0.008,1.375,0.071,2.064,0.007c0.359-0.034,0.717,0.113,1.082,0.054l-0.004-0.001
		c0.008,0.035,0.023,0.055,0.059,0.021c0.043-0.011,0.059,0.014,0.068,0.049c0.068,0.266,0.268,0.286,0.49,0.263l0.021-0.007
		l0.018,0.014c-0.039,0.143,0.236,0.101,0.158,0.271c-0.041,0.092-0.109,0.135-0.207,0.124c-0.471-0.049-0.73,0.384-1.133,0.492
		c-0.004,0.001-0.006,0.021-0.008,0.031c-0.041,0.006-0.082,0.013-0.125,0.019c-0.152-0.133-0.215-0.022-0.271,0.102
		c-0.482,0.203-0.975,0.388-1.324,0.811v0c-0.404,0.268-0.699,0.634-0.93,1.054v0c-0.057,0.023-0.078,0.069-0.082,0.126l0.008-0.005
		c-0.02,0.027-0.039,0.054-0.061,0.08l0.002-0.003c-0.465,0.552-0.797,1.181-1.064,1.848l0.004,0
		c-0.037,0.03-0.074,0.06-0.109,0.089c-0.033-0.137,0.006-0.259,0.068-0.38c0.061-0.12,0.002-0.175-0.113-0.15
		c-0.344,0.074-0.691,0.055-1.039,0.053c-0.479-0.003-0.926,0.124-1.361,0.322c-0.328,0.15-0.531,0.463-0.816,0.642
		c-0.613,0.382-1.176,0.826-1.744,1.265c-0.143,0.109-0.314,0.177-0.426,0.35c-0.269,0.415-0.559,0.823-0.88,1.198
		c-0.399,0.463-0.952,0.77-1.313,1.281c-0.194,0.274-0.27,0.951-0.084,1.235c0.056,0.084,0.13,0.094,0.212,0.126
		c0.419,0.164,0.885,0.198,1.271,0.452C36.025,26.802,35.566,26.77,35.165,26.953z"/>
	<path id="XMLID_1012_" fill="#60A150" d="M47.143,14.85c-0.365,0.06-0.723-0.088-1.082-0.054c-0.689,0.064-1.377,0.001-2.064-0.007
		c-1.002-0.011-1.121,0.252-1.404,1.065c-0.139,0.403-0.4,0.705-0.686,0.977c-0.506,0.482-1.033,0.947-1.486,1.476
		c-0.287,0.337-0.484,0.755-0.701,1.148c-0.254,0.459-0.961,0.728-1.428,0.526c-0.512-0.22-1.027-0.433-1.531-0.659
		c-0.414-0.186-0.835-0.421-1.163-0.765c-0.128-0.134-0.281-0.221-0.47-0.194c-0.196,0.028-0.283-0.165-0.433-0.2
		c-0.53-0.121-0.982-0.424-1.485-0.606c-0.285-0.104-0.55-0.259-0.83-0.379c-0.904-0.388-1.809-0.775-2.768-1.011
		c-0.522-0.128-0.99-0.393-1.473-0.612c-0.209-0.095-0.421-0.1-0.628-0.157c-0.218-0.06-0.229,0.125-0.2,0.27
		c0.059,0.301,0.129,0.602,0.352,0.837c0.146,0.154,0.221,0.33,0.134,0.541c-0.063,0.155-0.005,0.286,0.087,0.398
		c0.217,0.264,0.401,0.542,0.533,0.862c0.199,0.482,0.61,0.758,1.046,1.002c0.686,0.386,1.35,0.816,2.063,1.14
		c0.338,0.153,0.659,0.364,1.043,0.441c0.426,0.084,0.819,0.294,1.229,0.441c0.386,0.139,0.827,0.088,1.21,0.267
		c0.688,0.319,1.415,0.129,2.125,0.178c0.156,0.011,0.199-0.195,0.35-0.221c0.016,0.302-0.297,0.687-0.727,0.902
		c-0.001-0.178,0.166-0.275,0.21-0.452c-0.26,0.113-0.525,0.182-0.786,0.261c-0.012,0.004-0.015,0.039-0.021,0.06
		c-0.131,0.001-0.262,0.002-0.394,0.003c-0.61,0.049-1.159-0.302-1.767-0.275c-0.021,0.001-0.045-0.009-0.061-0.022
		c-0.443-0.386-1.045-0.368-1.556-0.601c-0.511-0.233-1.076-0.348-1.554-0.675c-0.134-0.091-0.295-0.193-0.447-0.198
		c-0.391-0.015-0.641-0.319-0.981-0.443c-0.39-0.143-0.768-0.399-1.118-0.665c-0.56-0.424-1.245-0.674-1.728-1.205
		c-0.167-0.185-0.342-0.314-0.589-0.343c-0.038-0.004-0.074-0.008-0.111-0.012l0.002,0.003c-0.091-0.239-0.226-0.455-0.364-0.668
		c-0.011-0.019-0.021-0.037-0.033-0.055c-0.296-0.676-0.557-1.365-0.794-2.063c0.007-0.02,0.003-0.037-0.012-0.051
		c-0.115-0.53-0.23-1.059-0.345-1.589l0.023,0.003c0.171-0.102,0.387-0.23,0.543-0.101c0.293,0.243,0.658,0.295,0.98,0.448
		c0.468,0.221,0.87,0.591,1.416,0.647c0.068,0.007,0.131,0.075,0.199,0.11c0.688,0.354,1.396,0.688,2.131,0.904
		c0.6,0.175,1.173,0.415,1.744,0.64c0.529,0.208,1.027,0.53,1.542,0.799c0.638,0.333,1.29,0.634,1.954,0.913
		c0.022,0,0.043,0.001,0.064,0.002c0.257,0.374,0.664,0.506,1.059,0.66c0.021,0.001,0.043,0.001,0.064,0.002
		c-0.014,0.112,0.041,0.18,0.133,0.239c0.515,0.334,1.029,0.663,1.656,0.75c0.043,0,0.086,0,0.129,0c0,0.12,0.098,0.14,0.18,0.156
		c0.506,0.098,0.971-0.01,1.291-0.42c0.641-0.821,1.264-1.659,1.83-2.534c0.139-0.212,0.195-0.442,0.201-0.684
		c0.016-0.848,1.111-1.759,1.869-1.803c0.768-0.044,1.535,0.041,2.301,0.067c0.289,0.01,0.592-0.073,0.863,0.115
		c0.063,0.043,0.15,0.013,0.199-0.064C46.865,14.466,47.043,14.623,47.143,14.85z"/>
	<path id="XMLID_1011_" fill="#1D6332" d="M30.936,23.121c0.02-0.014,0.039-0.029,0.059-0.043c0.172-0.153,0.353-0.165,0.568-0.077
		c0.284,0.117,0.586,0.167,0.905,0.145c-0.669-0.166-1.242-0.542-1.858-0.82l0.001,0.001c-0.063-0.042-0.123-0.089-0.187-0.126
		c-0.75-0.433-1.49-0.879-2.124-1.479c0.246-0.091,0.467-0.024,0.694,0.085c0.272,0.13,0.531,0.28,0.833,0.368
		c0.285,0.083,0.588,0.165,0.854,0.292c0.611,0.293,1.241,0.519,1.886,0.707c0.54,0.156,1.029,0.454,1.601,0.525
		c0.209,0.026,0.434-0.03,0.677,0.086c-0.247,0.138-0.481,0.23-0.668,0.382c-0.439,0.356-0.965,0.528-1.469,0.751
		c-0.288,0.128-0.593,0.227-0.858,0.392c-0.473,0.294-1,0.472-1.482,0.756c-0.576,0.339-1.135,0.679-1.588,1.171
		c-0.232,0.251-0.392,0.567-0.609,0.818c-0.437,0.504-0.763,1.064-1.049,1.655c-0.249,0.512-0.349,1.07-0.459,1.62
		c-0.109,0.54-0.089,1.102-0.211,1.644c-0.014,0.061-0.021,0.141,0.052,0.175c0.108,0.052,0.118-0.05,0.16-0.109
		c0.021-0.03,0.072-0.042,0.11-0.06c-0.071,0.23-0.135,0.464-0.213,0.692c-0.094,0.275-0.245,0.518-0.458,0.717
		c-0.078,0.072-0.167,0.183-0.281,0.14c-0.131-0.051-0.07-0.191-0.068-0.296c0.006-0.286,0.018-0.571,0.027-0.857
		c0.004-0.064,0.008-0.13,0.012-0.195c0.043-0.063,0.04-0.132,0.024-0.202c0.014-0.168,0.027-0.337,0.041-0.506
		c0.227-1.601,0.688-3.122,1.545-4.508c0.021-0.012,0.03-0.03,0.026-0.054c0.623-0.941,1.363-1.786,2.146-2.595
		c0.029-0.026,0.058-0.051,0.086-0.077C30.086,23.865,30.511,23.493,30.936,23.121z"/>
	<path id="XMLID_1008_" fill="#96C85B" d="M36.426,26.619c-0.386-0.253-0.852-0.288-1.271-0.452
		c-0.083-0.032-0.157-0.042-0.212-0.126c-0.186-0.285-0.11-0.961,0.084-1.235c0.36-0.512,0.913-0.818,1.313-1.281
		c0.321-0.375,0.611-0.783,0.88-1.198c0.111-0.172,0.283-0.24,0.426-0.35c0.568-0.439,1.131-0.883,1.744-1.265
		c0.285-0.179,0.488-0.492,0.816-0.642c0.436-0.199,0.883-0.325,1.361-0.322c0.348,0.001,0.695,0.021,1.039-0.053
		c0.115-0.025,0.174,0.03,0.113,0.15c-0.063,0.121-0.102,0.243-0.068,0.38l-0.002-0.007c-0.221,0.054-0.178,0.244-0.207,0.396
		l0.002-0.004c-0.066,0.03-0.076,0.071-0.025,0.125c-0.145,0.355-0.291,0.711-0.436,1.066c-0.016,0.017-0.023,0.037-0.021,0.061
		c-0.357,0.567-0.652,1.171-1.029,1.729c-0.162,0.242-0.398,0.429-0.51,0.707c-0.016,0.018-0.031,0.036-0.049,0.055
		c-0.146,0.079-0.244,0.204-0.32,0.349V24.7c-0.316,0.263-0.633,0.525-0.949,0.789c-0.018,0.013-0.035,0.025-0.053,0.038
		c-0.143,0.079-0.289,0.151-0.426,0.238c-0.563,0.357-1.207,0.524-1.804,0.794c-0.044,0.008-0.088,0.016-0.131,0.024
		C36.604,26.595,36.516,26.607,36.426,26.619z M41.246,21.072c-0.076,0-0.154-0.005-0.23,0.001
		c-0.348,0.027-0.748-0.039-1.031,0.112c-0.32,0.171-0.652,0.333-0.977,0.51c-0.469,0.257-0.82,0.651-1.186,1.017
		c-0.266,0.265-0.539,0.531-0.783,0.813c-0.277,0.319-0.482,0.707-0.686,1.082c-0.217,0.396,0.104,0.916,0.536,0.892
		c0.57-0.032,1.126-0.226,1.593-0.487c0.529-0.296,1.105-0.551,1.563-0.973c0.318-0.294,0.627-0.603,0.854-0.972
		c0.258-0.421,0.432-0.891,0.721-1.296c0.131-0.186,0.176-0.437,0.158-0.604c-0.02-0.184-0.322-0.061-0.498-0.093
		C41.268,21.07,41.258,21.072,41.246,21.072z"/>
	<path id="XMLID_1007_" fill="#427E42" d="M36.028,18.495c-0.021,0-0.043-0.001-0.064-0.002c-0.309-0.29-0.599-0.612-1.059-0.66
		c-0.021-0.001-0.042-0.001-0.064-0.002c0.001-0.122-0.007-0.21-0.149-0.287c-0.299-0.162-0.655-0.248-0.905-0.444
		c-0.306-0.24-0.69-0.314-0.977-0.587c-0.151-0.144-0.344-0.314-0.554-0.376c-0.731-0.213-1.306-0.745-2.04-0.952
		c-0.633-0.179-1.26-0.37-1.837-0.716c-0.455-0.271-0.992-0.369-1.461-0.643c-0.775-0.452-1.634-0.749-2.422-1.186
		c-0.068-0.038-0.171-0.014-0.258-0.018c-0.035-0.347-0.07-0.693-0.112-1.104c0.614,0.373,1.126,0.746,1.702,1.01
		c0.019,0.009,0.038,0.018,0.056,0.027c0.149,0.114,0.307,0.211,0.491,0.261l-0.002-0.002c0.684,0.396,1.393,0.743,2.114,1.065
		l-0.002-0.003c0.511,0.306,1.052,0.553,1.586,0.812c0.039,0.017,0.078,0.034,0.117,0.051c0.457,0.268,0.925,0.512,1.414,0.715h0
		c0.218,0.16,0.463,0.268,0.71,0.373c0.021,0.01,0.042,0.02,0.064,0.031c0.238,0.147,0.481,0.287,0.747,0.379
		c0.007,0.018,0.021,0.024,0.039,0.019c0.931,0.494,1.83,1.04,2.735,1.58l-0.002-0.001c0.387,0.28,0.771,0.563,1.195,0.791
		c0.217,0.153,0.436,0.307,0.654,0.46c0.088,0,0.137-0.041,0.135-0.133c0.672-0.04,1.082-0.451,1.396-0.989
		c0.074-0.129,0.143-0.268,0.123-0.437c-0.064-0.531-0.07-1.051,0.359-1.461c0.031-0.03,0.063-0.067,0.076-0.107
		c0.24-0.675,0.854-1.061,1.266-1.602c0.26-0.342,0.672-0.561,1.068-0.741c0.457-0.207,0.928-0.332,1.455-0.295
		c0.482,0.033,0.98,0.102,1.463-0.049c0.146-0.058,0.256,0.139,0.404,0.055v0c0.006,0.036,0.018,0.058,0.057,0.026
		c0.086,0.049,0.17,0.098,0.256,0.147c0.031,0.053,0.068,0.098,0.137,0.107c0.051,0.058,0.102,0.116,0.154,0.174
		c-0.094,0.029-0.186,0.071-0.283,0.083c-0.787,0.1-1.555-0.18-2.348-0.1c-0.281,0.028-0.572,0.013-0.816,0.152
		c-0.605,0.345-1.176,0.735-1.596,1.315c-0.277,0.384-0.566,0.781-0.633,1.243c-0.059,0.418-0.092,0.798-0.332,1.185
		c-0.33,0.534-0.709,1.005-1.152,1.44c-0.285,0.278-0.66,0.252-0.986,0.385c-0.043,0-0.086,0-0.129,0
		c-0.059-0.208-0.16-0.359-0.41-0.33c-0.09,0.011-0.162-0.038-0.244-0.079c-0.333-0.171-0.725-0.235-0.976-0.557
		C36.161,18.487,36.081,18.501,36.028,18.495z"/>
	<path id="XMLID_1005_" fill="#529049" d="M24.237,12.623c0.087,0.004,0.189-0.02,0.258,0.018c0.789,0.437,1.647,0.733,2.422,1.186
		c0.469,0.273,1.006,0.372,1.461,0.643c0.577,0.346,1.204,0.537,1.837,0.716c0.733,0.207,1.309,0.739,2.04,0.952
		c0.21,0.062,0.403,0.232,0.554,0.376c0.287,0.273,0.671,0.348,0.977,0.587c0.25,0.196,0.606,0.282,0.905,0.444
		c0.143,0.077,0.151,0.165,0.149,0.287c-0.664-0.278-1.315-0.579-1.954-0.913c-0.514-0.269-1.013-0.59-1.542-0.799
		c-0.571-0.225-1.145-0.464-1.744-0.64c-0.735-0.216-1.443-0.549-2.131-0.904c-0.068-0.035-0.13-0.103-0.199-0.11
		c-0.545-0.056-0.947-0.426-1.416-0.647c-0.323-0.153-0.688-0.205-0.98-0.448c-0.156-0.129-0.372-0.001-0.543,0.101
		c-0.01-0.046-0.019-0.092-0.028-0.137C24.352,13.09,24.251,12.86,24.237,12.623z"/>
	<path id="XMLID_1004_" fill="#1D6332" d="M45.488,13.326c-0.148,0.083-0.258-0.113-0.404-0.055c-0.049-0.116-0.107-0.2-0.262-0.2
		c-0.439,0.001-0.889,0.076-1.313-0.122c-0.068-0.032-0.18-0.01-0.256,0.021c-0.354,0.144-0.715,0.25-1.096,0.292
		c-0.092,0.01-0.16,0.057-0.242,0.091c-0.775,0.334-1.176,1.084-1.781,1.606c-0.123,0.105-0.219,0.205-0.387,0.195
		c0.086-0.165,0.174-0.33,0.26-0.495c0.027-0.006,0.039-0.023,0.035-0.049c0.324-0.533,0.715-1.013,1.174-1.437l0.006-0.004
		C42.557,12.05,44.326,12.451,45.488,13.326z"/>
	<path id="XMLID_995_" fill="#529049" d="M49.65,15.75c0.131,0.033,0.262,0.065,0.393,0.098c0.008,0.017,0.023,0.021,0.039,0.013
		c0.027,0.06,0.057,0.11,0.137,0.12c0.426,0.052,0.795,0.256,1.166,0.451c-0.035,0.392,0.252,0.149,0.391,0.199l0.008-0.005
		c0.006,0.234-0.225,0.216-0.342,0.32c-0.088-0.025-0.176-0.052-0.264-0.077c-0.553-0.279-1.15-0.438-1.732-0.638
		c-0.037-0.048-0.088-0.053-0.143-0.042c-0.09-0.022-0.178-0.046-0.266-0.068C49.32,16.129,49.541,16.031,49.65,15.75z"/>
	<path id="XMLID_990_" fill="#427E42" d="M51.441,16.944c0.117-0.104,0.348-0.086,0.342-0.319c0.422,0.224,0.842,0.448,1.264,0.672
		c0.051,0.036,0.104,0.073,0.156,0.109c0.32,0.278,0.707,0.483,1.008,0.914c-0.43-0.21-0.777-0.382-1.129-0.554
		c-0.061-0.032-0.123-0.065-0.188-0.097c-0.463-0.285-0.965-0.486-1.465-0.695L51.441,16.944z"/>
	<path id="XMLID_975_" fill="#EBF0E9" d="M41.217,13.176c-0.459,0.424-0.85,0.903-1.174,1.437c-0.154-0.07-0.158-0.128-0.104-0.317
		c0.084-0.298,0.424-0.367,0.479-0.676c0.027-0.157,0.348-0.057,0.381-0.325C40.834,13.028,41.059,13.161,41.217,13.176z"/>
	<path id="XMLID_934_" fill="#EBF0E9" d="M39.822,25.452c0.01-0.019,0.012-0.046,0.025-0.052c0.014-0.005,0.035,0.013,0.053,0.021
		c-0.01,0.019-0.012,0.046-0.025,0.051C39.861,25.478,39.84,25.46,39.822,25.452z"/>
	<path id="XMLID_932_" fill="#EBF0E9" d="M43.873,18.217c0.004-0.057,0.025-0.103,0.082-0.126
		C43.959,18.152,43.951,18.207,43.873,18.217z"/>
	<path id="XMLID_931_" fill="#EBF0E9" d="M43.82,18.292c0.021-0.026,0.041-0.053,0.061-0.08
		C43.861,18.239,43.842,18.266,43.82,18.292z"/>
	<path id="XMLID_927_" fill="#529049" d="M28.756,29.197c-0.583,0.555-1.069,1.19-1.517,1.856c-0.006-0.021-0.009-0.06-0.019-0.062
		c-0.094-0.018-0.362,0.24-0.22-0.145c0.004-0.01-0.039-0.05-0.065-0.059c-0.209-0.067-0.198-0.259-0.146-0.383
		c0.141-0.342,0.212-0.702,0.312-1.055c0.255-0.906,0.854-1.579,1.526-2.197c0.105-0.058,0.193-0.13,0.197-0.264
		c-0.011-0.144,0.153-0.113,0.198-0.199c0.089-0.042,0.156-0.108,0.198-0.198c0.045-0.044,0.089-0.088,0.133-0.132
		c0.126-0.006,0.193-0.072,0.199-0.198v0c0.085-0.002,0.13-0.046,0.132-0.131c0.022,0,0.044-0.001,0.065-0.001
		c0.256,0.029,0.356-0.199,0.507-0.326c0.675-0.566,1.552-0.624,2.334-0.892c0.354-0.122,0.763-0.232,1.157-0.275
		c0.553-0.06,0.973-0.413,1.353-0.716c0.428-0.34,0.757-0.827,1.163-1.22c0.077-0.075,0.182-0.278-0.104-0.275
		c0.006-0.021,0.009-0.056,0.021-0.06c0.261-0.079,0.526-0.148,0.786-0.261c-0.044,0.177-0.211,0.274-0.21,0.452
		c-0.023,0.001-0.044,0.002-0.065,0.003c-0.121,0.048-0.139,0.148-0.134,0.261l-0.003,0.002c-0.311,0.112-0.393,0.406-0.524,0.661
		c0.008,0.103-0.093,0.131-0.136,0.198c-0.082,0.004-0.127,0.047-0.131,0.131c-0.021,0-0.043,0.001-0.064,0.003
		c-0.223,0.083-0.346,0.269-0.467,0.456c-0.787,0.338-1.581,0.662-2.415,0.874c-0.087,0.022-0.123,0.132-0.224,0.125
		c-0.045-0.067-0.09-0.066-0.133,0.001c-0.044,0-0.087,0.001-0.131,0.001c-0.455,0.129-0.936,0.15-1.349,0.449
		c-0.44,0.318-0.928,0.584-1.295,0.987c-0.253,0.277-0.529,0.513-0.816,0.751c-0.433,0.36-0.863,0.738-1.13,1.255
		c-0.049,0.095-0.043,0.194,0.052,0.223c0.234,0.071,0.436,0.27,0.709,0.198c0.095-0.025,0.114,0.031,0.125,0.102
		c-0.022,0.022-0.044,0.044-0.066,0.066c-0.005,0.009-0.01,0.018-0.016,0.027c0.005-0.01,0.01-0.019,0.016-0.028
		c0.021-0.022,0.043-0.044,0.066-0.066C28.678,29.136,28.727,29.147,28.756,29.197z"/>
	<path id="XMLID_926_" fill="#60A150" d="M28.626,29.136c-0.011-0.071-0.03-0.126-0.125-0.102c-0.273,0.072-0.475-0.126-0.709-0.198
		c-0.096-0.029-0.101-0.128-0.052-0.223c0.267-0.517,0.697-0.895,1.13-1.255c0.287-0.238,0.563-0.474,0.816-0.751
		c0.367-0.403,0.855-0.668,1.295-0.987c0.413-0.299,0.894-0.319,1.349-0.449c-0.021,0.168-0.175,0.197-0.288,0.236
		c-0.947,0.326-1.665,0.995-2.428,1.596c-0.194,0.152-0.389,0.306-0.589,0.451c-0.167,0.123-0.348,0.285-0.213,0.479
		c0.136,0.197,0.375,0.369,0.644,0.28c0.204-0.067,0.357-0.062,0.508,0.082c-0.421,0.275-0.818,0.582-1.206,0.901
		C28.727,29.147,28.678,29.136,28.626,29.136L28.626,29.136z"/>
	<path id="XMLID_925_" fill="#63A15A" d="M49.65,15.75c-0.109,0.281-0.33,0.38-0.613,0.369c-0.324-0.044-0.646-0.096-0.971-0.131
		c-0.494-0.053-0.979,0.025-1.461,0.119c0.002-0.01,0.004-0.029,0.008-0.031c0.402-0.107,0.662-0.541,1.133-0.492
		c0.098,0.011,0.166-0.032,0.207-0.124c0.078-0.169-0.197-0.127-0.158-0.271C48.412,15.375,49.031,15.563,49.65,15.75z"/>
	<path id="XMLID_924_" fill="#60A150" d="M36.029,23.383c0.132-0.254,0.214-0.549,0.524-0.661
		C36.489,23.03,36.315,23.252,36.029,23.383z"/>
	<path id="XMLID_922_" fill="#60A150" d="M35.23,24.17c0.122-0.187,0.244-0.373,0.467-0.456C35.686,24.014,35.485,24.12,35.23,24.17
		z"/>
	<path id="XMLID_921_" fill="#63A15A" d="M47.266,14.919c0.164,0.087,0.326,0.175,0.49,0.263
		C47.533,15.206,47.334,15.185,47.266,14.919z"/>
	<path id="XMLID_920_" fill="#60A150" d="M30.496,28.017c-0.037,0.032-0.073,0.065-0.11,0.098c-0.075,0.017-0.149,0.034-0.223,0.051
		C30.122,27.776,30.397,28.094,30.496,28.017z"/>
	<path id="XMLID_919_" fill="#63A15A" d="M46.48,16.125c-0.078,0.064-0.17,0.098-0.271,0.102
		C46.266,16.104,46.328,15.993,46.48,16.125z"/>
	<path id="XMLID_918_" fill="#60A150" d="M36.556,22.721c-0.005-0.112,0.013-0.213,0.134-0.261
		C36.676,22.563,36.737,22.704,36.556,22.721z"/>
	<path id="XMLID_917_" fill="#60A150" d="M35.762,23.712c0.004-0.083,0.049-0.126,0.131-0.131
		C35.895,23.67,35.852,23.713,35.762,23.712z"/>
	<path id="XMLID_916_" fill="#60A150" d="M32.459,25.17c0.043-0.067,0.087-0.069,0.133-0.001
		C32.548,25.237,32.504,25.238,32.459,25.17z"/>
	<path id="XMLID_915_" fill="#60A150" d="M30.158,28.149c0.003,0.052-0.035,0.07-0.073,0.088
		C30.108,28.208,30.133,28.178,30.158,28.149z"/>
	<path id="XMLID_914_" fill="#60A150" d="M47.139,14.849c0.02,0.004,0.041,0.011,0.059,0.021
		C47.162,14.904,47.146,14.884,47.139,14.849z"/>
	<path id="XMLID_913_" fill="#529049" d="M46.184,13.862c0.219,0.094,0.307,0.328,0.496,0.454c-0.049,0.077-0.137,0.107-0.199,0.064
		c-0.271-0.188-0.574-0.105-0.863-0.115c-0.766-0.026-1.533-0.111-2.301-0.067c-0.758,0.044-1.854,0.955-1.869,1.803
		c-0.006,0.242-0.063,0.472-0.201,0.684c-0.566,0.875-1.189,1.713-1.83,2.534c-0.32,0.41-0.785,0.518-1.291,0.42
		c-0.082-0.016-0.18-0.036-0.18-0.156c0.326-0.133,0.701-0.106,0.986-0.385c0.443-0.436,0.822-0.906,1.152-1.44
		c0.24-0.387,0.273-0.767,0.332-1.185c0.066-0.462,0.355-0.859,0.633-1.243c0.42-0.581,0.99-0.971,1.596-1.315
		c0.244-0.139,0.535-0.124,0.816-0.152c0.793-0.08,1.561,0.2,2.348,0.1c0.098-0.012,0.189-0.055,0.283-0.083l-0.01,0.004
		C46.115,13.81,46.15,13.836,46.184,13.862z"/>
	<path id="XMLID_912_" fill="#529049" d="M26.583,18.949c-0.174-0.26-0.348-0.521-0.524-0.78c-0.056-0.082-0.116-0.159-0.094-0.267
		c0.247,0.029,0.422,0.158,0.589,0.343c0.483,0.531,1.168,0.781,1.728,1.205c0.35,0.266,0.728,0.522,1.118,0.665
		c0.34,0.125,0.59,0.429,0.981,0.443c0.152,0.005,0.313,0.107,0.447,0.198c0.478,0.327,1.043,0.442,1.554,0.675
		c0.51,0.233,1.112,0.214,1.556,0.601c0.016,0.013,0.041,0.023,0.061,0.022c0.607-0.027,1.156,0.324,1.767,0.275
		c-0.001,0.093-0.046,0.156-0.129,0.195c-0.178,0-0.355,0-0.533-0.001c-0.376-0.226-0.813-0.266-1.224-0.371
		c-0.352-0.09-0.671-0.253-1.014-0.345c-0.481-0.128-0.93-0.336-1.385-0.521c-0.166-0.067-0.317-0.176-0.501-0.22
		c-0.452-0.109-0.867-0.332-1.284-0.517c-0.878-0.389-1.713-0.873-2.55-1.349c-0.153-0.087-0.282-0.286-0.506-0.242
		C26.62,18.956,26.602,18.952,26.583,18.949z"/>
	<path id="XMLID_911_" fill="#427E42" d="M35.636,22.524c0.083-0.039,0.128-0.102,0.129-0.195c0.132-0.001,0.263-0.002,0.394-0.003
		c0.286-0.003,0.182,0.201,0.104,0.275c-0.405,0.393-0.735,0.88-1.163,1.22c-0.38,0.303-0.8,0.656-1.353,0.716
		c-0.394,0.043-0.802,0.153-1.157,0.275c-0.782,0.268-1.659,0.326-2.334,0.892c-0.151,0.126-0.251,0.354-0.507,0.326
		c0.027-0.198,0.178-0.303,0.325-0.39c0.464-0.274,0.898-0.608,1.436-0.739c0.542-0.131,1.039-0.383,1.562-0.566
		c0.399-0.14,0.765-0.354,1.143-0.542c0.383-0.189,0.646-0.515,0.973-0.765C35.356,22.899,35.665,22.846,35.636,22.524z"/>
	<path id="XMLID_910_" fill="#529049" d="M36.028,18.495c0.053,0.006,0.133-0.008,0.158,0.022c0.251,0.322,0.643,0.386,0.976,0.557
		c0.082,0.041,0.154,0.09,0.244,0.079c0.25-0.029,0.352,0.123,0.41,0.33c-0.627-0.087-1.141-0.416-1.656-0.75
		C36.069,18.675,36.014,18.607,36.028,18.495z"/>
	<path id="XMLID_908_" fill="#529049" d="M34.905,17.833c0.46,0.048,0.75,0.37,1.059,0.66
		C35.569,18.339,35.162,18.207,34.905,17.833z"/>
	<path id="XMLID_907_" fill="#2C733A" d="M35.636,22.524c0.028,0.322-0.28,0.375-0.449,0.503c-0.327,0.25-0.59,0.576-0.973,0.765
		c-0.378,0.187-0.744,0.401-1.143,0.542c-0.523,0.184-1.02,0.435-1.562,0.566c-0.537,0.13-0.972,0.464-1.436,0.739
		c-0.147,0.087-0.298,0.192-0.325,0.39c-0.021,0-0.043,0.001-0.065,0.001c-0.087,0-0.131,0.044-0.132,0.131v0
		c-0.127,0.004-0.193,0.07-0.199,0.198c-0.044,0.043-0.088,0.087-0.133,0.132c-0.147-0.015-0.213,0.051-0.198,0.198
		c-0.045,0.086-0.209,0.055-0.198,0.199c-0.172,0.009-0.206,0.121-0.197,0.264c-0.673,0.618-1.271,1.291-1.526,2.197
		c-0.1,0.354-0.171,0.713-0.312,1.055c-0.051,0.124-0.063,0.316,0.146,0.383c0.027,0.008,0.069,0.048,0.065,0.059
		c-0.142,0.385,0.126,0.127,0.22,0.145c0.01,0.002,0.012,0.04,0.019,0.062c-0.137,0.266-0.274,0.531-0.41,0.796
		c-0.017,0.033-0.033,0.066-0.05,0.099l0.008,0.018l-0.015,0.012c-0.038,0.019-0.088,0.03-0.11,0.06
		c-0.042,0.06-0.052,0.162-0.16,0.109c-0.073-0.034-0.066-0.114-0.052-0.175c0.122-0.542,0.103-1.104,0.211-1.644
		c0.11-0.549,0.21-1.108,0.459-1.62c0.286-0.591,0.612-1.151,1.049-1.655c0.218-0.251,0.377-0.567,0.609-0.818
		c0.454-0.493,1.013-0.833,1.588-1.171c0.482-0.284,1.009-0.461,1.482-0.756c0.265-0.165,0.57-0.264,0.858-0.392
		c0.504-0.223,1.029-0.395,1.469-0.751c0.187-0.151,0.421-0.244,0.668-0.382c-0.243-0.117-0.468-0.06-0.677-0.086
		c-0.572-0.071-1.061-0.369-1.601-0.525c-0.645-0.188-1.275-0.413-1.886-0.707c-0.266-0.127-0.569-0.209-0.854-0.292
		c-0.302-0.088-0.56-0.238-0.833-0.368c-0.227-0.109-0.448-0.176-0.694-0.085l0.001-0.001c-0.063-0.275-0.294-0.481-0.504-0.451
		l-0.022-0.021c0.018-0.055,0.037-0.111,0.056-0.166c0.102,0.003,0.203-0.108,0.306,0.006c0.148,0.165,0.379,0.166,0.554,0.266
		c0.394,0.224,0.825,0.349,1.233,0.534c0.374,0.17,0.748,0.343,1.127,0.498c0.449,0.184,0.916,0.334,1.383,0.479
		c0.774,0.241,1.498,0.65,2.337,0.675c0.113,0.003,0.226,0.108,0.332-0.017C35.281,22.523,35.458,22.523,35.636,22.524z"/>
	<path id="XMLID_906_" fill="#D3D94E" d="M41.246,21.072c0.012,0,0.021-0.002,0.033,0c0.176,0.032,0.479-0.091,0.498,0.093
		c0.018,0.167-0.027,0.418-0.158,0.604c-0.289,0.405-0.463,0.875-0.721,1.296c-0.227,0.369-0.535,0.678-0.854,0.972
		c-0.457,0.422-1.033,0.677-1.563,0.973c-0.467,0.261-1.023,0.455-1.593,0.487c-0.432,0.024-0.753-0.496-0.536-0.892
		c0.204-0.375,0.409-0.763,0.686-1.082c0.244-0.281,0.518-0.547,0.783-0.813c0.365-0.366,0.717-0.76,1.186-1.017
		c0.324-0.176,0.656-0.338,0.977-0.51c0.283-0.151,0.684-0.085,1.031-0.112C41.092,21.067,41.17,21.072,41.246,21.072z"/>
	<path id="XMLID_905_" fill="#6DB85C" d="M42.65,20.217c-0.027,0.155-0.082,0.294-0.207,0.396
		C42.473,20.461,42.43,20.271,42.65,20.217z"/>
	<path id="XMLID_904_" fill="#6DB85C" d="M42.445,20.609c-0.01,0.042-0.018,0.083-0.025,0.125
		C42.369,20.681,42.379,20.64,42.445,20.609z"/>
	<path id="XMLID_903_" fill="#F9F9F9" d="M41.984,21.801c0.047,0.04,0.02,0.052-0.021,0.061
		C41.961,21.838,41.969,21.818,41.984,21.801z"/>
	<path id="XMLID_902_" fill="#2C733A" d="M39.748,15.156c0.168,0.01,0.264-0.09,0.387-0.195c0.605-0.522,1.006-1.272,1.781-1.606
		c0.082-0.034,0.15-0.081,0.242-0.091c0.381-0.043,0.742-0.149,1.096-0.292c0.076-0.032,0.188-0.053,0.256-0.021
		c0.424,0.198,0.873,0.123,1.313,0.122c0.154,0,0.213,0.084,0.262,0.2c-0.482,0.151-0.98,0.082-1.463,0.049
		c-0.527-0.036-0.998,0.089-1.455,0.295c-0.396,0.18-0.809,0.399-1.068,0.741c-0.412,0.542-1.025,0.927-1.266,1.602
		c-0.014,0.04-0.045,0.077-0.076,0.107c-0.43,0.411-0.424,0.931-0.359,1.461c0.02,0.168-0.049,0.308-0.123,0.437
		c-0.314,0.538-0.725,0.95-1.396,0.989c-0.234-0.204,0.018-0.268,0.117-0.302c0.486-0.17,0.725-0.491,0.676-1.01
		c-0.018-0.202,0.066-0.416-0.064-0.604c-0.061-0.083,0.014-0.092,0.055-0.141c0.232-0.274,0.576-0.489,0.537-0.922l-0.004,0.003
		c0.223-0.114,0.439-0.232,0.391-0.541l-0.004,0.002c0.262,0.03,0.238-0.112,0.17-0.281L39.748,15.156z"/>
	<path id="XMLID_901_" fill="#1D6332" d="M39.197,15.975c0.039,0.433-0.305,0.648-0.537,0.922c-0.041,0.049-0.115,0.057-0.055,0.141
		c0.131,0.188,0.047,0.402,0.064,0.604c0.049,0.519-0.189,0.84-0.676,1.01c-0.1,0.035-0.352,0.099-0.117,0.302
		c0.002,0.092-0.047,0.133-0.135,0.133c-0.086-0.299-0.34-0.413-0.586-0.536c-0.316-0.326-0.315-0.326,0.049-0.645
		C37.902,17.296,38.555,16.641,39.197,15.975z"/>
	<path id="XMLID_900_" fill="#E2EBF2" d="M37.156,18.55c0.246,0.123,0.5,0.237,0.586,0.536c-0.219-0.153-0.438-0.307-0.654-0.46
		C37.109,18.601,37.135,18.575,37.156,18.55z"/>
	<path id="XMLID_899_" fill="#2C733A" d="M45.488,13.326c0.023-0.002,0.041,0.007,0.057,0.026
		C45.506,13.383,45.494,13.361,45.488,13.326z"/>
	<path id="XMLID_898_" fill="#1D6332" d="M26.779,31.948c0.017-0.032,0.033-0.065,0.05-0.099
		C26.813,31.883,26.796,31.916,26.779,31.948z"/>
	<path id="XMLID_897_" fill="#63A15A" d="M49.303,16.187c0.055-0.011,0.105-0.006,0.143,0.042
		C49.391,16.24,49.342,16.233,49.303,16.187z"/>
	<path id="XMLID_896_" fill="#1D6332" d="M39.584,15.437c0.049,0.309-0.168,0.427-0.391,0.541
		C39.324,15.798,39.455,15.618,39.584,15.437z"/>
	<path id="XMLID_894_" fill="#1D6332" d="M39.75,15.158c0.068,0.169,0.092,0.312-0.17,0.281
		C39.609,15.329,39.672,15.238,39.75,15.158z"/>
	<path id="XMLID_893_" fill="#427E42" d="M35.103,22.523c-0.106,0.125-0.219,0.02-0.332,0.017c-0.839-0.024-1.563-0.434-2.337-0.675
		c-0.468-0.145-0.934-0.296-1.383-0.479c-0.379-0.155-0.753-0.328-1.127-0.498c-0.408-0.185-0.839-0.31-1.233-0.534
		c-0.174-0.1-0.405-0.101-0.554-0.266c-0.104-0.114-0.204-0.002-0.306-0.006c-0.053-0.003-0.103-0.015-0.131-0.067
		c-0.007-0.073,0.019-0.167-0.089-0.184c-0.087-0.013-0.102,0.06-0.114,0.127c-0.325-0.301-0.629-0.619-0.859-1
		c0.224-0.043,0.353,0.155,0.506,0.242c0.836,0.477,1.672,0.96,2.55,1.349c0.417,0.185,0.832,0.408,1.284,0.517
		c0.184,0.044,0.335,0.153,0.501,0.22c0.456,0.185,0.904,0.393,1.385,0.521c0.343,0.092,0.662,0.255,1.014,0.345
		C34.29,22.257,34.727,22.297,35.103,22.523z"/>
	<path id="XMLID_84_" fill="#1D6332" d="M27.798,20.269c0.21-0.031,0.441,0.175,0.504,0.451
		C28.115,20.59,27.946,20.441,27.798,20.269z"/>
	<path id="XMLID_83_" fill="#2C733A" d="M27.498,19.958c0.012-0.067,0.027-0.14,0.114-0.127c0.107,0.016,0.082,0.111,0.089,0.184
		c-0.023,0.025-0.047,0.05-0.071,0.076C27.585,20.046,27.542,20.001,27.498,19.958z"/>
	<path id="XMLID_82_" fill="#1D6332" d="M27.629,20.09c0.024-0.026,0.048-0.051,0.071-0.076c0.029,0.052,0.078,0.064,0.131,0.067
		c-0.019,0.056-0.038,0.111-0.056,0.167C27.726,20.195,27.678,20.143,27.629,20.09z"/>
	<path id="XMLID_3_" fill="#427E42" d="M46.184,13.862c-0.033-0.026-0.068-0.052-0.102-0.078
		C46.115,13.81,46.148,13.836,46.184,13.862z"/>
	<path id="XMLID_80_" fill="#427E42" d="M51.385,16.43c0.137,0.054,0.291,0.073,0.391,0.199
		C51.637,16.579,51.35,16.822,51.385,16.43z"/>
	<path id="XMLID_79_" fill="#427E42" d="M28.627,27.153c-0.008-0.143,0.025-0.255,0.197-0.264
		C28.82,27.023,28.732,27.095,28.627,27.153z"/>
	<path id="XMLID_78_" fill="#427E42" d="M29.353,26.36c0.005-0.127,0.071-0.194,0.199-0.198
		C29.546,26.289,29.479,26.354,29.353,26.36z"/>
	<path id="XMLID_77_" fill="#427E42" d="M29.022,26.69c-0.016-0.147,0.051-0.213,0.198-0.198
		C29.178,26.582,29.112,26.648,29.022,26.69z"/>
	<path id="XMLID_76_" fill="#427E42" d="M29.552,26.162c0.001-0.087,0.045-0.131,0.132-0.131
		C29.682,26.116,29.637,26.16,29.552,26.162z"/>
	<path id="XMLID_2_" fill="#60A150" d="M28.56,29.202c-0.005,0.009-0.01,0.018-0.016,0.028C28.549,29.22,28.555,29.211,28.56,29.202
		L28.56,29.202z"/>
	<path id="XMLID_1_" fill="#60A150" d="M28.625,29.136c-0.022,0.022-0.044,0.044-0.066,0.066v0
		C28.582,29.18,28.604,29.158,28.625,29.136L28.625,29.136z"/>
</g>
</svg>
