<?xml version="1.0" encoding="utf-8"?>
<!-- Generator: Adobe Illustrator 16.0.0, SVG Export Plug-In . SVG Version: 6.00 Build 0)  -->
<!DOCTYPE svg PUBLIC "-//W3C//DTD SVG 1.1//EN" "http://www.w3.org/Graphics/SVG/1.1/DTD/svg11.dtd">
<svg version="1.1" id="Layer_1" xmlns="http://www.w3.org/2000/svg" xmlns:xlink="http://www.w3.org/1999/xlink" x="0px" y="0px"
	 width="72px" height="100px" viewBox="0 0 72 100" enable-background="new 0 0 72 100" xml:space="preserve">
<path id="fondo_x5F_icono" fill="#FFFFFF" d="M70.6,35.367c0-18.833-15.275-34.109-34.109-34.109
	c-18.833,0-34.109,15.276-34.109,34.109c0,1.444,0.1,2.836,0.274,4.229c0.447,5.275,4.18,25.503,33.86,60.233
	C71.42,59.002,70.451,38.852,70.451,38.852C70.551,37.707,70.6,36.562,70.6,35.367"/>
<path fill="#F59720" d="M36.285,5.65c16.342,0,29.637,13.295,29.637,29.636c0,1.059-0.043,2.073-0.133,3.097l-0.043,0.24
	l0.029,0.351c-0.016,0.934-0.703,18.929-29.464,53.872C25.623,79.85,17.618,67.721,12.487,56.736
	c-4.506-9.642-5.402-15.516-5.578-17.594L6.9,39.052L6.89,38.959c-0.162-1.286-0.24-2.487-0.24-3.673
	C6.65,18.945,19.945,5.65,36.285,5.65 M36.285,1C17.355,1,2,16.355,2,35.286c0,1.45,0.1,2.85,0.276,4.25
	c0.45,5.302,4.201,25.633,34.035,60.543c35.086-41.037,34.111-61.293,34.111-61.293c0.1-1.15,0.15-2.302,0.15-3.5
	C70.572,16.355,55.217,1,36.285,1"/>
<g id="triangiulo_inferior">
	<path fill="#F59720" d="M7.481,57.183C12.23,67.5,20.784,81.704,36.208,99.751c15.521-18.154,24.095-32.302,28.827-42.494
		c-8.219-5.589-18.139-8.855-28.827-8.855C25.565,48.402,15.68,51.639,7.481,57.183"/>
	<path fill="#FFFFFF" d="M41.943,73.224c-0.053,0.068-0.102,0.136-0.162,0.196c-0.496,0.496-1.303,0.496-1.801,0
		c-0.492-0.493-0.492-1.299,0-1.796c0.047-0.044,0.096-0.086,0.146-0.126c1.277-1.095,2.084-2.717,2.084-4.522
		c0-1.759-0.766-3.336-1.977-4.426c-0.092-0.055-0.176-0.117-0.254-0.198c-0.492-0.493-0.492-1.298,0-1.796
		c0.498-0.497,1.305-0.497,1.801,0c0.041,0.04,0.076,0.089,0.109,0.127c1.727,1.548,2.82,3.799,2.82,6.293
		C44.711,69.449,43.641,71.675,41.943,73.224 M32.28,62.555c0.089-0.052,0.177-0.118,0.253-0.192c0.497-0.5,0.497-1.303,0-1.8
		c-0.498-0.497-1.303-0.497-1.798,0c-0.034,0.033-0.07,0.076-0.098,0.109c-1.736,1.555-2.828,3.798-2.828,6.304
		c0,2.466,1.062,4.686,2.751,6.226c0.05,0.083,0.105,0.158,0.175,0.229c0.495,0.49,1.3,0.49,1.798,0
		c0.497-0.503,0.497-1.303,0-1.806c-0.042-0.035-0.083-0.069-0.122-0.102v-0.01c-1.289-1.094-2.11-2.718-2.11-4.537
		C30.302,65.227,31.067,63.646,32.28,62.555 M38.924,64.051c-0.023-0.019-0.041-0.04-0.057-0.057
		c-0.168-0.169-0.389-0.263-0.621-0.263c-0.238,0-0.459,0.094-0.627,0.263c-0.346,0.347-0.346,0.902,0,1.243
		c0.043,0.041,0.09,0.08,0.141,0.118c0.457,0.421,0.719,1.012,0.719,1.631c0,0.645-0.279,1.263-0.775,1.685l-0.018,0.013
		c-0.02,0.013-0.039,0.03-0.066,0.061c-0.166,0.162-0.252,0.384-0.252,0.621c0,0.235,0.086,0.458,0.252,0.622
		c0.168,0.169,0.389,0.263,0.627,0.263c0.232,0,0.453-0.094,0.621-0.263c0.027-0.027,0.057-0.061,0.086-0.098
		c0.809-0.752,1.266-1.811,1.266-2.903C40.219,65.874,39.754,64.803,38.924,64.051 M34.898,65.24
		c0.167-0.165,0.262-0.392,0.262-0.624c0-0.234-0.094-0.456-0.262-0.622c-0.17-0.169-0.389-0.258-0.622-0.258
		c-0.238,0-0.459,0.089-0.627,0.258c-0.012,0.017-0.032,0.038-0.046,0.057c-0.833,0.752-1.309,1.818-1.309,2.936
		c0,1.089,0.463,2.142,1.262,2.896c0.028,0.041,0.061,0.072,0.093,0.111c0.167,0.163,0.389,0.257,0.627,0.257
		c0.233,0,0.452-0.094,0.622-0.257c0.167-0.17,0.262-0.389,0.262-0.622c0-0.237-0.094-0.46-0.266-0.631
		c-0.02-0.02-0.034-0.03-0.052-0.044l-0.019-0.021c-0.494-0.426-0.785-1.04-0.785-1.688c0-0.619,0.262-1.206,0.715-1.631
		C34.805,65.322,34.855,65.285,34.898,65.24 M44.443,55.846c-0.041-0.045-0.098-0.082-0.154-0.124
		c-0.658-0.434-1.547-0.258-1.98,0.403c-0.406,0.613-0.277,1.436,0.289,1.894c0.018,0.014,0.039,0.021,0.055,0.037
		c0.018,0.013,0.037,0.034,0.059,0.044c2.705,1.987,4.471,5.192,4.471,8.804c0,6.033-4.893,10.919-10.924,10.919
		c-6.029,0-10.916-4.886-10.916-10.919c0-3.596,1.738-6.777,4.422-8.771h-0.004h0.004c0.653-0.444,0.82-1.326,0.379-1.978
		c-0.442-0.65-1.324-0.823-1.978-0.379c-0.042,0.025-0.08,0.057-0.122,0.091c-3.369,2.507-5.55,6.522-5.55,11.037
		c0,7.605,6.165,13.769,13.765,13.769c7.602,0,13.768-6.163,13.768-13.769C50.025,62.373,47.828,58.355,44.443,55.846"/>
</g>
<g id="XMLID_491_">
	<path id="XMLID_367_" fill-rule="evenodd" clip-rule="evenodd" fill="#F37944" d="M37.166,7.657
		c5.875,0,14.535,8.668,14.535,14.538c0,5.858-8.666,14.526-14.535,14.526c-5.88,0-14.538-8.668-14.538-14.526
		C22.628,16.319,31.296,7.657,37.166,7.657L37.166,7.657z"/>
	<path id="XMLID_366_" fill-rule="evenodd" clip-rule="evenodd" fill="#FFFFFF" d="M35.821,14.989c0.743,0.742,0.743,1.945,0,2.685
		l-1.586,1.591c-1.623,1.624-1.623,4.238,0,5.862c1.621,1.602,4.238,1.602,5.863,0c1.609-1.624,1.609-4.251,0-5.862l-0.404-0.402
		c-0.139-0.137-0.355-0.137-0.498,0l-1.299,1.291c-0.131,0.141-0.131,0.358,0,0.498c0.141,0.139,0.357,0.139,0.5,0l0.361-0.365
		c0.066,0.061,0.158,0.157,0.158,0.157c0.971,0.967,0.971,2.537,0,3.504c-0.965,0.969-2.537,0.969-3.503,0
		c-0.971-0.967-0.971-2.537,0-3.504l5.748-5.748l4.332,4.343c1.746,1.744,1.746,4.568,0,6.313l-5.172,5.162
		c-1.744,1.745-4.57,1.745-6.31,0l-5.174-5.162c-1.746-1.746-1.746-4.57,0-6.313l5.511-5.52L35.821,14.989L35.821,14.989z"/>
</g>
<g id="XMLID_336_">
	<path id="XMLID_358_" fill-rule="evenodd" clip-rule="evenodd" fill="#231F20" d="M23.749,37.644H25.3v6.563h-1.551V37.644
		L23.749,37.644z M29.315,41.793c0-0.251-0.019-0.473-0.062-0.668c-0.042-0.187-0.108-0.344-0.201-0.473
		c-0.086-0.119-0.201-0.213-0.344-0.273c-0.148-0.064-0.33-0.098-0.546-0.098c-0.063,0-0.119,0-0.176,0.008
		c-0.053,0.004-0.104,0.006-0.151,0.014c-0.036,0.004-0.067,0.012-0.096,0.02c-0.012,0.004-0.022,0.004-0.029,0.007v2.96
		c0,0,0.003,0,0.007,0c0.027,0.01,0.053,0.014,0.083,0.017h-0.004c0.04,0.007,0.083,0.011,0.129,0.013
		c0.047,0,0.097,0.004,0.147,0.004c0.209,0,0.388-0.033,0.542-0.096c0.15-0.062,0.28-0.154,0.38-0.277
		c0.105-0.125,0.187-0.287,0.237-0.473C29.291,42.279,29.315,42.053,29.315,41.793L29.315,41.793z M30.855,41.762
		c0,0.373-0.06,0.719-0.175,1.02c-0.116,0.309-0.292,0.578-0.511,0.797c-0.223,0.223-0.496,0.395-0.808,0.514
		c-0.304,0.114-0.65,0.172-1.024,0.172c-0.084,0-0.162,0-0.241-0.006c-0.078-0.004-0.157-0.012-0.232-0.02
		c-0.048-0.004-0.095-0.01-0.141-0.018c-0.003,0-0.011-0.004-0.014-0.004v1.764h-1.543v-6.263l0.052-0.021l0.051-0.026
		c0.121-0.05,0.251-0.101,0.404-0.147c0.143-0.039,0.292-0.075,0.462-0.104c0.156-0.029,0.322-0.051,0.5-0.065
		c0.172-0.013,0.352-0.021,0.554-0.021c0.404,0,0.775,0.057,1.1,0.162c0.334,0.111,0.617,0.273,0.848,0.48
		c0.233,0.212,0.415,0.474,0.534,0.775C30.795,41.05,30.855,41.389,30.855,41.762L30.855,41.762z M16.331,43.24v-2.918
		c-0.011-0.004-0.019-0.008-0.029-0.012c-0.027-0.008-0.065-0.012-0.102-0.018c-0.042-0.008-0.091-0.012-0.149-0.016
		c-0.055-0.003-0.115-0.003-0.173-0.003c-0.208,0-0.383,0.032-0.528,0.101c-0.143,0.064-0.259,0.162-0.349,0.287
		c-0.096,0.133-0.165,0.299-0.211,0.496c-0.046,0.204-0.069,0.438-0.069,0.699c0,0.256,0.023,0.479,0.069,0.668
		c0.043,0.184,0.108,0.334,0.197,0.453c0.086,0.115,0.194,0.201,0.326,0.254c0.14,0.062,0.305,0.09,0.503,0.09
		c0.064,0,0.122-0.004,0.172-0.006c0.058-0.008,0.111-0.014,0.161-0.027c0.044-0.006,0.083-0.016,0.124-0.03
		C16.295,43.255,16.313,43.248,16.331,43.24L16.331,43.24z M17.843,44.104c0,0.313-0.054,0.588-0.158,0.825
		c-0.107,0.251-0.269,0.459-0.478,0.632c-0.208,0.168-0.459,0.297-0.751,0.383c-0.287,0.087-0.618,0.129-0.972,0.129
		c-0.148,0-0.289-0.003-0.422-0.013c-0.136-0.007-0.271-0.019-0.401-0.036c-0.133-0.02-0.259-0.037-0.377-0.063
		c-0.118-0.023-0.23-0.05-0.339-0.081l-0.061-0.019l-0.06-0.018V44.68l0.121,0.059l0.124,0.053c0.071,0.033,0.158,0.064,0.251,0.094
		c0.093,0.027,0.193,0.055,0.301,0.072c0.104,0.021,0.212,0.037,0.324,0.047c0.107,0.01,0.215,0.014,0.33,0.014
		c0.187,0,0.347-0.018,0.482-0.053c0.136-0.036,0.244-0.091,0.33-0.158c0.083-0.064,0.141-0.151,0.179-0.248
		c0.044-0.108,0.065-0.23,0.065-0.366v-0.036c-0.014,0.003-0.033,0.008-0.047,0.011c-0.054,0.015-0.115,0.025-0.18,0.036
		c-0.094,0.014-0.187,0.028-0.288,0.035c-0.098,0.008-0.201,0.012-0.316,0.012c-0.341,0-0.658-0.058-0.939-0.166
		c-0.289-0.107-0.539-0.27-0.748-0.48c-0.205-0.205-0.362-0.451-0.474-0.744c-0.104-0.283-0.158-0.598-0.158-0.949
		c0-0.791,0.24-1.449,0.729-1.9c0.459-0.432,1.138-0.676,2.028-0.676c0.187,0,0.363,0.012,0.527,0.021
		c0.173,0.019,0.338,0.04,0.493,0.069c0.161,0.029,0.309,0.068,0.438,0.108c0.141,0.042,0.259,0.092,0.356,0.146l0.043,0.024
		l0.046,0.025V44.104L17.843,44.104z M21.412,43.316v-1.523c-0.22,0.025-0.417,0.058-0.593,0.098
		c-0.196,0.043-0.367,0.097-0.503,0.168c-0.132,0.072-0.233,0.155-0.301,0.268c-0.068,0.107-0.1,0.239-0.1,0.409
		c0,0.111,0.018,0.208,0.053,0.286c0.032,0.079,0.086,0.144,0.154,0.193c0.08,0.059,0.176,0.102,0.295,0.131
		c0.126,0.025,0.276,0.039,0.442,0.039c0.06,0,0.122-0.004,0.187-0.007c0.064-0.007,0.122-0.015,0.176-0.019
		c0.046-0.008,0.093-0.018,0.134-0.029C21.376,43.326,21.393,43.318,21.412,43.316L21.412,43.316z M22.884,43.908l-0.05,0.021
		l-0.052,0.022c-0.121,0.053-0.259,0.104-0.409,0.147c-0.147,0.039-0.309,0.074-0.485,0.104c-0.167,0.028-0.349,0.051-0.533,0.063
		c-0.182,0.016-0.37,0.022-0.576,0.022c-0.37,0-0.694-0.031-0.978-0.09c-0.29-0.064-0.535-0.158-0.732-0.279
		c-0.212-0.133-0.374-0.298-0.478-0.489c-0.108-0.19-0.162-0.417-0.162-0.664c0-0.33,0.094-0.607,0.27-0.833
		c0.168-0.225,0.413-0.395,0.711-0.531c0.277-0.126,0.596-0.221,0.951-0.29c0.326-0.065,0.683-0.112,1.049-0.146v-0.082
		c0-0.111-0.023-0.205-0.056-0.277c-0.038-0.067-0.088-0.117-0.155-0.157v-0.003c-0.076-0.044-0.172-0.075-0.285-0.094
		c-0.114-0.021-0.247-0.031-0.392-0.031c-0.106,0-0.214,0.007-0.314,0.018c-0.111,0.01-0.218,0.028-0.327,0.047
		c-0.116,0.024-0.227,0.053-0.327,0.082c-0.112,0.032-0.214,0.068-0.306,0.104l-0.116,0.047l-0.122,0.051v-1.049l0.061-0.021
		l0.061-0.018c0.116-0.037,0.246-0.072,0.386-0.107c0.122-0.029,0.257-0.055,0.402-0.076c0.128-0.021,0.264-0.036,0.405-0.047
		c0.13-0.01,0.269-0.018,0.412-0.018c0.324,0,0.63,0.035,0.906,0.107c0.254,0.068,0.484,0.174,0.675,0.324
		c0.18,0.14,0.327,0.317,0.423,0.541c0.091,0.209,0.141,0.452,0.141,0.736V43.908L22.884,43.908z"/>
	<path id="XMLID_337_" fill-rule="evenodd" clip-rule="evenodd" fill="#231F20" d="M37.163,41.718l-0.113,0.015l-3.304,0.405
		c0.054,0.489,0.211,0.86,0.468,1.106c0.279,0.273,0.682,0.412,1.183,0.412c0.217,0,0.404-0.018,0.568-0.046
		c0.196-0.032,0.36-0.081,0.496-0.138l0.18-0.067v0.669l-0.093,0.029c-0.163,0.049-0.349,0.092-0.556,0.121
		c-0.191,0.025-0.395,0.039-0.605,0.039c-0.713,0-1.349-0.193-1.792-0.642c-0.39-0.392-0.624-0.983-0.624-1.804
		c0-0.779,0.214-1.361,0.567-1.762c0.395-0.449,0.958-0.666,1.582-0.666c0.638,0,1.161,0.176,1.523,0.572
		c0.334,0.363,0.52,0.897,0.52,1.641V41.718L37.163,41.718z M36.373,41.267c-0.012-0.456-0.131-0.772-0.333-0.974
		c-0.217-0.215-0.531-0.309-0.93-0.309c-0.414,0-0.771,0.137-1.02,0.449c-0.207,0.258-0.341,0.643-0.362,1.17L36.373,41.267
		L36.373,41.267z M41.811,44.182h-0.797V40.82c0-0.205-0.047-0.42-0.205-0.578c-0.162-0.168-0.451-0.283-0.939-0.283
		c-0.293,0-0.5,0.018-0.676,0.047c-0.141,0.021-0.26,0.057-0.383,0.098v4.078h-0.799V39.75l0.078-0.032
		c0.23-0.103,0.488-0.183,0.797-0.24c0.307-0.054,0.65-0.087,1.059-0.087c0.623,0,1.049,0.148,1.342,0.355
		c0.395,0.291,0.523,0.704,0.523,1.049V44.182L41.811,44.182z M46.158,41.267c-0.012-0.456-0.133-0.772-0.332-0.974
		c-0.217-0.215-0.533-0.309-0.932-0.309c-0.408,0-0.771,0.137-1.02,0.449c-0.209,0.258-0.34,0.643-0.359,1.17L46.158,41.267
		L46.158,41.267z M46.951,41.718l-0.117,0.015l-3.303,0.405c0.053,0.489,0.215,0.86,0.467,1.106
		c0.283,0.273,0.684,0.412,1.186,0.412c0.215,0,0.4-0.018,0.566-0.046c0.197-0.032,0.361-0.081,0.494-0.138l0.18-0.067v0.669
		l-0.092,0.029c-0.162,0.049-0.35,0.092-0.559,0.121c-0.186,0.025-0.391,0.039-0.598,0.039c-0.719,0-1.35-0.193-1.795-0.642
		c-0.393-0.392-0.627-0.983-0.627-1.804c0-0.779,0.215-1.361,0.568-1.762c0.395-0.449,0.959-0.666,1.582-0.666
		c0.639,0,1.166,0.176,1.527,0.572c0.33,0.363,0.52,0.897,0.52,1.641V41.718L46.951,41.718z M50.104,40.074l-0.156-0.037
		c-0.223-0.049-0.463-0.064-0.686-0.043c-0.178,0.019-0.344,0.057-0.475,0.119v4.068h-0.793V39.75l0.076-0.032
		c0.238-0.103,0.451-0.183,0.738-0.237h-0.004c0.285-0.054,0.641-0.082,1.172-0.09h0.127V40.074L50.104,40.074z M53.66,43.531
		v-3.494c-0.088-0.027-0.188-0.053-0.295-0.07c-0.141-0.021-0.305-0.034-0.479-0.034c-0.541,0-0.934,0.181-1.189,0.493
		c-0.287,0.348-0.424,0.861-0.424,1.476c0,0.585,0.125,1.052,0.391,1.357c0.244,0.283,0.617,0.438,1.135,0.438
		c0.18,0,0.352-0.017,0.506-0.05C53.438,43.613,53.557,43.578,53.66,43.531L53.66,43.531z M51.014,45.811v-0.703l0.188,0.09
		c0.139,0.064,0.326,0.134,0.543,0.176c0.18,0.04,0.375,0.064,0.58,0.064c0.459,0,0.783-0.114,0.996-0.309
		c0.236-0.212,0.34-0.527,0.34-0.887v-0.146c-0.104,0.035-0.219,0.068-0.34,0.092c-0.197,0.037-0.422,0.063-0.658,0.063
		c-0.676,0-1.221-0.23-1.598-0.64c-0.377-0.405-0.586-0.991-0.586-1.709c0-0.75,0.219-1.39,0.646-1.839
		c0.402-0.422,0.992-0.672,1.752-0.672c0.318,0,0.592,0.033,0.824,0.08c0.289,0.062,0.508,0.147,0.666,0.236l0.068,0.036v4.431
		c0,0.571-0.189,1.045-0.549,1.371c-0.344,0.316-0.848,0.492-1.484,0.492c-0.258,0-0.49-0.014-0.703-0.047
		c-0.23-0.036-0.428-0.085-0.6-0.146L51.014,45.811L51.014,45.811z M55.768,39.475h0.795v4.707h-0.795V39.475L55.768,39.475z
		 M56.65,38.361c0,0.121-0.055,0.233-0.148,0.309c-0.088,0.072-0.207,0.117-0.336,0.117c-0.133,0-0.252-0.045-0.338-0.117
		c-0.092-0.075-0.15-0.188-0.15-0.309c0-0.126,0.059-0.234,0.15-0.313c0.086-0.072,0.205-0.118,0.338-0.118
		c0.129,0,0.248,0.046,0.336,0.118C56.596,38.127,56.65,38.235,56.65,38.361L56.65,38.361z M60.598,43.592v-2.006
		c-0.699,0.082-1.248,0.186-1.625,0.373c-0.371,0.187-0.568,0.467-0.568,0.908c0,0.305,0.111,0.518,0.314,0.654
		c0.225,0.143,0.553,0.207,0.971,0.207c0.188,0,0.377-0.014,0.549-0.042C60.371,43.66,60.492,43.628,60.598,43.592L60.598,43.592z
		 M61.363,43.902l-0.072,0.035c-0.209,0.104-0.467,0.187-0.762,0.244c-0.271,0.053-0.58,0.082-0.912,0.082
		c-0.654,0-1.135-0.125-1.461-0.348c-0.369-0.252-0.543-0.613-0.543-1.049c0-0.653,0.355-1.082,0.941-1.357
		c0.523-0.256,1.242-0.385,2.043-0.455v-0.188c0-0.349-0.117-0.572-0.316-0.703c-0.207-0.137-0.508-0.188-0.852-0.188
		c-0.197,0-0.385,0.021-0.551,0.061c-0.217,0.046-0.408,0.115-0.553,0.181l-0.186,0.077V39.66l0.084-0.032
		c0.176-0.065,0.391-0.128,0.635-0.175c0.197-0.036,0.41-0.063,0.629-0.063c0.518,0,1.02,0.105,1.377,0.382
		c0.303,0.237,0.498,0.592,0.498,1.104V43.902L61.363,43.902z"/>
</g>
</svg>
