<?xml version="1.0" encoding="utf-8"?>
<!-- Generator: Adobe Illustrator 16.0.0, SVG Export Plug-In . SVG Version: 6.00 Build 0)  -->
<!DOCTYPE svg PUBLIC "-//W3C//DTD SVG 1.1//EN" "http://www.w3.org/Graphics/SVG/1.1/DTD/svg11.dtd">
<svg version="1.1" id="Layer_1" xmlns="http://www.w3.org/2000/svg" xmlns:xlink="http://www.w3.org/1999/xlink" x="0px" y="0px"
	 width="72px" height="100px" viewBox="0 0 72 100" enable-background="new 0 0 72 100" xml:space="preserve">
<path id="fondo_x5F_icono" fill="#FFFFFF" d="M70.6,35.367c0-18.833-15.275-34.109-34.109-34.109
	c-18.833,0-34.109,15.276-34.109,34.109c0,1.444,0.1,2.836,0.274,4.229c0.447,5.275,4.18,25.503,33.86,60.233
	C71.42,59.002,70.451,38.852,70.451,38.852C70.551,37.707,70.6,36.562,70.6,35.367"/>
<path fill="#F59720" d="M36.285,5.65c16.342,0,29.637,13.295,29.637,29.636c0,1.059-0.043,2.073-0.133,3.097l-0.043,0.24
	l0.029,0.351c-0.016,0.934-0.703,18.929-29.464,53.872C25.623,79.85,17.618,67.721,12.487,56.736
	c-4.506-9.642-5.402-15.516-5.578-17.594L6.9,39.052L6.89,38.959c-0.162-1.286-0.24-2.487-0.24-3.673
	C6.65,18.945,19.945,5.65,36.285,5.65 M36.285,1C17.355,1,2,16.355,2,35.286c0,1.45,0.1,2.85,0.276,4.25
	c0.45,5.302,4.201,25.633,34.035,60.543c35.086-41.037,34.111-61.293,34.111-61.293c0.1-1.15,0.15-2.302,0.15-3.5
	C70.572,16.355,55.217,1,36.285,1"/>
<g id="triangiulo_inferior">
	<path fill="#F59720" d="M7.481,57.183C12.23,67.5,20.784,81.704,36.208,99.751c15.521-18.154,24.095-32.302,28.827-42.494
		c-8.219-5.589-18.139-8.855-28.827-8.855C25.565,48.402,15.68,51.639,7.481,57.183"/>
	<path fill="#FFFFFF" d="M41.943,73.224c-0.053,0.068-0.102,0.136-0.162,0.196c-0.496,0.496-1.303,0.496-1.801,0
		c-0.492-0.493-0.492-1.299,0-1.796c0.047-0.044,0.096-0.086,0.146-0.126c1.277-1.095,2.084-2.717,2.084-4.522
		c0-1.759-0.766-3.336-1.977-4.426c-0.092-0.055-0.176-0.117-0.254-0.198c-0.492-0.493-0.492-1.298,0-1.796
		c0.498-0.497,1.305-0.497,1.801,0c0.041,0.04,0.076,0.089,0.109,0.127c1.727,1.548,2.82,3.799,2.82,6.293
		C44.711,69.449,43.641,71.675,41.943,73.224 M32.28,62.555c0.089-0.052,0.177-0.118,0.253-0.192c0.497-0.5,0.497-1.303,0-1.8
		c-0.498-0.497-1.303-0.497-1.798,0c-0.034,0.033-0.07,0.076-0.098,0.109c-1.736,1.555-2.828,3.798-2.828,6.304
		c0,2.466,1.062,4.686,2.751,6.226c0.05,0.083,0.105,0.158,0.175,0.229c0.495,0.49,1.3,0.49,1.798,0
		c0.497-0.503,0.497-1.303,0-1.806c-0.042-0.035-0.083-0.069-0.122-0.102v-0.01c-1.289-1.094-2.11-2.718-2.11-4.537
		C30.302,65.227,31.067,63.646,32.28,62.555 M38.924,64.051c-0.023-0.019-0.041-0.04-0.057-0.057
		c-0.168-0.169-0.389-0.263-0.621-0.263c-0.238,0-0.459,0.094-0.627,0.263c-0.346,0.347-0.346,0.902,0,1.243
		c0.043,0.041,0.09,0.08,0.141,0.118c0.457,0.421,0.719,1.012,0.719,1.631c0,0.645-0.279,1.263-0.775,1.685l-0.018,0.013
		c-0.02,0.013-0.039,0.03-0.066,0.061c-0.166,0.162-0.252,0.384-0.252,0.621c0,0.235,0.086,0.458,0.252,0.622
		c0.168,0.169,0.389,0.263,0.627,0.263c0.232,0,0.453-0.094,0.621-0.263c0.027-0.027,0.057-0.061,0.086-0.098
		c0.809-0.752,1.266-1.811,1.266-2.903C40.219,65.874,39.754,64.803,38.924,64.051 M34.898,65.24
		c0.167-0.165,0.262-0.392,0.262-0.624c0-0.234-0.094-0.456-0.262-0.622c-0.17-0.169-0.389-0.258-0.622-0.258
		c-0.238,0-0.459,0.089-0.627,0.258c-0.012,0.017-0.032,0.038-0.046,0.057c-0.833,0.752-1.309,1.818-1.309,2.936
		c0,1.089,0.463,2.142,1.262,2.896c0.028,0.041,0.061,0.072,0.093,0.111c0.167,0.163,0.389,0.257,0.627,0.257
		c0.233,0,0.452-0.094,0.622-0.257c0.167-0.17,0.262-0.389,0.262-0.622c0-0.237-0.094-0.46-0.266-0.631
		c-0.02-0.02-0.034-0.03-0.052-0.044l-0.019-0.021c-0.494-0.426-0.785-1.04-0.785-1.688c0-0.619,0.262-1.206,0.715-1.631
		C34.805,65.322,34.855,65.285,34.898,65.24 M44.443,55.846c-0.041-0.045-0.098-0.082-0.154-0.124
		c-0.658-0.434-1.547-0.258-1.98,0.403c-0.406,0.613-0.277,1.436,0.289,1.894c0.018,0.014,0.039,0.021,0.055,0.037
		c0.018,0.013,0.037,0.034,0.059,0.044c2.705,1.987,4.471,5.192,4.471,8.804c0,6.033-4.893,10.919-10.924,10.919
		c-6.029,0-10.916-4.886-10.916-10.919c0-3.596,1.738-6.777,4.422-8.771h-0.004h0.004c0.653-0.444,0.82-1.326,0.379-1.978
		c-0.442-0.65-1.324-0.823-1.978-0.379c-0.042,0.025-0.08,0.057-0.122,0.091c-3.369,2.507-5.55,6.522-5.55,11.037
		c0,7.605,6.165,13.769,13.765,13.769c7.602,0,13.768-6.163,13.768-13.769C50.025,62.373,47.828,58.355,44.443,55.846"/>
</g>
<path id="XMLID_9573_" fill-rule="evenodd" clip-rule="evenodd" fill="#F48022" d="M25.225,23.382l-2.517-2.631
	c1.484-9.289,12.433-4.971,12.357-13.565l4.001,3.732c-0.301,2.334-1.477,4.536-3.523,6.605c2.363-0.582,3.962-2.365,4.984-5.066
	l3.572,3.526c-0.695,2.708-1.75,4.973-3.521,6.356c2.291-0.581,3.898-2.365,4.982-5.065l2.518,2.334
	c-0.354,7.873-13.239,5.912-12.233,13.637l-3.875-3.507c0.06-2.413,1.355-4.882,3.523-7.101c-2.476,0.747-4.042,2.813-5.133,5.562
	l-3.524-3.427c0.239-2.245,1.338-4.575,3.422-7.002C28.049,18.263,26.419,20.254,25.225,23.382L25.225,23.382z M25.225,23.382"/>
<path id="XMLID_9562_" fill-rule="evenodd" clip-rule="evenodd" fill="#1A3963" d="M16.722,44.447V33.988h3.172l1.875,7.134
	l1.852-7.134h3.18v10.459h-1.957l-0.006-8.233l-2.063,8.233h-2.036l-2.052-8.233l-0.008,8.233H16.722z M33.288,42.053l2.001,0.336
	c-0.256,0.732-0.663,1.291-1.215,1.675c-0.555,0.382-1.249,0.575-2.078,0.575c-1.317,0-2.294-0.432-2.925-1.294
	c-0.499-0.691-0.75-1.563-0.75-2.617c0-1.257,0.33-2.242,0.984-2.954c0.655-0.713,1.485-1.068,2.488-1.068
	c1.125,0,2.014,0.374,2.667,1.117c0.65,0.746,0.961,1.887,0.932,3.427h-5.01c0.014,0.595,0.175,1.057,0.484,1.388
	c0.307,0.331,0.691,0.497,1.149,0.497c0.314,0,0.576-0.087,0.788-0.257C33.018,42.707,33.178,42.432,33.288,42.053L33.288,42.053z
	 M33.405,40.022c-0.015-0.583-0.163-1.024-0.449-1.327c-0.284-0.306-0.629-0.456-1.039-0.456c-0.436,0-0.796,0.161-1.081,0.48
	s-0.424,0.755-0.419,1.303H33.405z M38.943,44.447h-2v-7.581h1.854v1.077c0.318-0.51,0.607-0.843,0.863-1.002
	c0.254-0.157,0.545-0.236,0.867-0.236c0.459,0,0.898,0.127,1.322,0.379l-0.619,1.748c-0.34-0.22-0.654-0.33-0.943-0.33
	c-0.281,0-0.521,0.078-0.715,0.232c-0.195,0.156-0.348,0.434-0.461,0.838c-0.111,0.404-0.168,1.251-0.168,2.539V44.447z
	 M42.246,40.564c0-0.667,0.166-1.313,0.492-1.936c0.33-0.625,0.795-1.101,1.396-1.428c0.602-0.33,1.27-0.496,2.012-0.496
	c1.146,0,2.084,0.374,2.816,1.117c0.734,0.75,1.098,1.688,1.098,2.828c0,1.148-0.369,2.1-1.105,2.855
	c-0.74,0.755-1.67,1.133-2.793,1.133c-0.693,0-1.355-0.158-1.986-0.473c-0.629-0.314-1.107-0.775-1.438-1.383
	C42.412,42.176,42.246,41.437,42.246,40.564L42.246,40.564z M44.307,40.672c0,0.752,0.178,1.33,0.533,1.729
	c0.357,0.402,0.797,0.602,1.32,0.602c0.521,0,0.959-0.199,1.311-0.602c0.354-0.398,0.533-0.98,0.533-1.743
	c0-0.742-0.18-1.315-0.533-1.714c-0.352-0.402-0.789-0.602-1.311-0.602c-0.523,0-0.963,0.199-1.32,0.602
	C44.484,39.342,44.307,39.92,44.307,40.672L44.307,40.672z M51.637,35.844v-1.855h2.002v1.855H51.637z M51.637,44.447v-7.581h2.002
	v7.581H51.637z M55.697,44.447V33.988h2v10.459H55.697z M55.697,44.447"/>
</svg>
