<?xml version="1.0" encoding="utf-8"?>
<!-- Generator: Adobe Illustrator 16.0.0, SVG Export Plug-In . SVG Version: 6.00 Build 0)  -->
<!DOCTYPE svg PUBLIC "-//W3C//DTD SVG 1.1//EN" "http://www.w3.org/Graphics/SVG/1.1/DTD/svg11.dtd">
<svg version="1.1" id="Layer_1" xmlns="http://www.w3.org/2000/svg" xmlns:xlink="http://www.w3.org/1999/xlink" x="0px" y="0px"
	 width="43px" height="60px" viewBox="0 0 43 60" enable-background="new 0 0 43 60" xml:space="preserve">
<path id="fondo_x5F_icono" fill="#FFFFFF" d="M42.054,21.176c0-11.286-9.154-20.44-20.439-20.44c-11.286,0-20.44,9.154-20.44,20.44
	c0,0.865,0.061,1.7,0.164,2.534c0.269,3.161,2.505,15.283,20.291,36.094c20.917-24.466,20.337-36.541,20.337-36.541
	C42.024,22.578,42.054,21.892,42.054,21.176"/>
<path fill="#F59720" d="M21.491,3.369c9.793,0,17.76,7.967,17.76,17.759c0,0.635-0.025,1.242-0.08,1.856l-0.025,0.144l0.018,0.21
	c-0.01,0.56-0.42,11.344-17.656,32.283C15.102,47.832,10.306,40.563,7.23,33.981c-2.7-5.778-3.237-9.298-3.343-10.543l-0.005-0.054
	l-0.007-0.056c-0.097-0.771-0.144-1.49-0.144-2.201C3.732,11.335,11.7,3.369,21.491,3.369 M21.491,0.582
	c-11.344,0-20.545,9.202-20.545,20.546c0,0.869,0.06,1.708,0.165,2.547c0.27,3.177,2.518,15.36,20.396,36.28
	c21.025-24.591,20.441-36.73,20.441-36.73c0.059-0.689,0.09-1.379,0.09-2.098C42.038,9.783,32.837,0.582,21.491,0.582"/>
<path id="no-logo" fill="#5A5A5A" d="M26.369,28.21V17.299h0.745c0.411,0,0.743,0.333,0.743,0.744v6.942
	c0,1.781,1.443,3.224,3.224,3.224s3.224-1.443,3.224-3.224v-13.35c0-0.698-0.287-1.329-0.748-1.78l-2.63-2.613
	c-0.476-0.477-1.244-0.477-1.72,0c-0.477,0.476-0.477,1.244,0,1.72l1.705,1.711l-1.26,1.314c-0.411,0.421-0.411,1.101,0,1.523
	c0.203,0.217,0.477,0.322,0.749,0.316l1.424-0.005v11.163c0,0.412-0.333,0.745-0.744,0.745s-0.743-0.333-0.743-0.745v-6.942
	c0-1.78-1.444-3.223-3.224-3.223H26.37V8.869c0-1.096-0.888-1.983-1.984-1.983H13.972c-1.097,0-1.984,0.887-1.984,1.983V28.21H11.74
	c-0.684,0-1.24,0.556-1.24,1.239c0,0.685,0.556,1.24,1.24,1.24h14.876c0.687,0,1.241-0.556,1.241-1.24
	c0-0.684-0.555-1.239-1.241-1.239H26.369z M15.559,9.365h7.24c0.604,0,1.092,0.486,1.092,1.092v5.255
	c0,0.606-0.487,1.091-1.092,1.091h-7.24c-0.605,0-1.092-0.485-1.092-1.091v-5.255C14.467,9.851,14.954,9.365,15.559,9.365"/>
</svg>
