<?xml version="1.0" encoding="utf-8"?>
<!-- Generator: Adobe Illustrator 16.0.0, SVG Export Plug-In . SVG Version: 6.00 Build 0)  -->
<!DOCTYPE svg PUBLIC "-//W3C//DTD SVG 1.1//EN" "http://www.w3.org/Graphics/SVG/1.1/DTD/svg11.dtd">
<svg version="1.1" id="Layer_1" xmlns="http://www.w3.org/2000/svg" xmlns:xlink="http://www.w3.org/1999/xlink" x="0px" y="0px"
	 width="43px" height="60px" viewBox="0 0 43 60" enable-background="new 0 0 43 60" xml:space="preserve">
<path id="fondo_x5F_icono" fill="#FFFFFF" d="M42.054,21.176c0-11.286-9.154-20.44-20.439-20.44c-11.286,0-20.44,9.154-20.44,20.44
	c0,0.865,0.061,1.7,0.164,2.534c0.269,3.161,2.505,15.283,20.291,36.094c20.917-24.466,20.337-36.541,20.337-36.541
	C42.024,22.578,42.054,21.892,42.054,21.176"/>
<path fill="#F59720" d="M21.491,3.369c9.793,0,17.76,7.967,17.76,17.759c0,0.635-0.025,1.242-0.08,1.856l-0.025,0.144l0.018,0.21
	c-0.01,0.56-0.42,11.344-17.656,32.283C15.102,47.832,10.306,40.563,7.23,33.981c-2.7-5.778-3.237-9.298-3.343-10.543l-0.005-0.054
	l-0.007-0.056c-0.097-0.771-0.144-1.49-0.144-2.201C3.732,11.335,11.7,3.369,21.491,3.369 M21.491,0.582
	c-11.344,0-20.545,9.202-20.545,20.546c0,0.869,0.06,1.708,0.165,2.547c0.27,3.177,2.518,15.36,20.396,36.28
	c21.025-24.591,20.441-36.73,20.441-36.73c0.059-0.689,0.09-1.379,0.09-2.098C42.038,9.783,32.837,0.582,21.491,0.582"/>
<g id="XMLID_381_">
	<path id="XMLID_384_" fill="#FFFFFF" d="M24.961,17.162c1.994-1.601,4.016-3.877,4.845-5.415c0.391-0.728,0.594-1.482,0.482-2.315
		c-0.37-2.762-3.53-4.959-6.232-4.323c-3.605,0.848-5.074,4.421-3.071,7.501C22.085,14.303,23.48,15.744,24.961,17.162z
		 M22.478,15.714c-0.535-0.633-1.064-1.209-1.536-1.829c-0.472-0.621-0.914-1.267-1.316-1.935c-0.706-1.172-0.914-2.414-0.255-3.676
		c0.327-0.627,0.751-1.202,1.097-1.747c-0.425-0.476-0.871-0.976-1.304-1.46c-1.537,0.964-4.397,4.288-4.94,5.852
		c-0.214,0.615-0.322,1.335-0.232,1.973c0.295,2.1,2.677,4.128,4.808,4.219C20.228,17.171,21.421,16.643,22.478,15.714z"/>
	<path id="XMLID_383_" fill="#03709F" d="M24.961,17.162c-1.48-1.418-2.876-2.859-3.977-4.553c-2.003-3.08-0.534-6.653,3.071-7.501
		c2.702-0.636,5.862,1.561,6.232,4.323c0.111,0.833-0.092,1.588-0.482,2.315C28.977,13.285,26.955,15.562,24.961,17.162z"/>
	<path id="XMLID_382_" fill="#F89F27" d="M22.478,15.714c-1.057,0.929-2.25,1.458-3.68,1.397c-2.131-0.091-4.513-2.119-4.808-4.219
		c-0.09-0.638,0.019-1.358,0.232-1.973c0.543-1.564,3.403-4.888,4.94-5.852c0.433,0.485,0.879,0.985,1.304,1.46
		c-0.346,0.544-0.77,1.12-1.097,1.747c-0.659,1.262-0.451,2.504,0.255,3.676c0.402,0.667,0.845,1.314,1.316,1.935
		C21.413,14.505,21.942,15.081,22.478,15.714z"/>
</g>
<g id="XMLID_272_">
	<path id="XMLID_380_" fill="#03709F" d="M7.548,22.908c0.285,0,0.512,0.017,0.735-0.005c0.236-0.023,0.477-0.058,0.699-0.135
		c0.501-0.173,0.742-0.522,0.746-1.02c0.003-0.507-0.244-0.928-0.76-1.04c-0.467-0.101-0.976-0.13-1.448-0.062
		c-0.674,0.097-0.953,0.505-0.958,1.189c-0.003,0.403-0.006,0.806,0,1.209c0.008,0.572,0.371,0.876,0.987,0.803
		C7.548,23.542,7.548,23.232,7.548,22.908z"/>
	<path id="XMLID_379_" fill="#03709F" d="M18.688,20.533c-0.305,0.057-0.596,0.079-0.865,0.166c-0.496,0.16-0.741,0.516-0.749,1.011
		c-0.009,0.522,0.226,0.876,0.734,1.06c0.574,0.207,1.158,0.205,1.729-0.012c0.474-0.181,0.692-0.521,0.697-1.011
		c0.004-0.496-0.222-0.849-0.684-1.015C19.274,20.632,18.973,20.596,18.688,20.533z"/>
	<path id="XMLID_378_" fill="#03709F" d="M32.925,21.996c0.457,0,0.892,0.033,1.317-0.013c0.287-0.031,0.562-0.188,0.599-0.535
		c0.037-0.35-0.166-0.58-0.461-0.704c-0.646-0.273-1.303-0.27-1.918,0.089c-0.561,0.328-0.676,1.039-0.284,1.533
		c0.541,0.683,1.994,0.748,2.709,0.032c-0.252-0.054-0.442-0.126-0.63-0.125c-0.209,0.001-0.418,0.09-0.628,0.105
		C33.33,22.4,33.058,22.342,32.925,21.996z"/>
	<path id="XMLID_377_" fill="#03709F" d="M11.098,21.988c0.493,0,0.93,0.036,1.358-0.013c0.289-0.032,0.558-0.207,0.579-0.553
		c0.021-0.328-0.175-0.553-0.456-0.674c-0.646-0.277-1.305-0.276-1.918,0.08c-0.684,0.398-0.703,1.302-0.062,1.761
		c0.568,0.408,1.63,0.436,2.225,0.062c0.071-0.046,0.151-0.079,0.228-0.118c-0.019-0.049-0.039-0.1-0.058-0.149
		c-0.17-0.041-0.34-0.117-0.508-0.114c-0.211,0.004-0.418,0.086-0.629,0.109C11.542,22.412,11.263,22.352,11.098,21.988z"/>
	<path id="XMLID_376_" fill="#03709F" d="M28.547,22.489c-0.191-0.229-0.301-0.268-0.612-0.215c-0.223,0.038-0.444,0.1-0.667,0.105
		c-0.336,0.009-0.472-0.108-0.543-0.39c0.432,0,0.869,0.036,1.298-0.013c0.287-0.034,0.557-0.211,0.58-0.555
		c0.021-0.328-0.175-0.552-0.458-0.672c-0.661-0.284-1.329-0.278-1.952,0.1c-0.556,0.337-0.651,1.043-0.245,1.538
		C26.489,23.045,27.929,23.102,28.547,22.489z"/>
	<path id="XMLID_375_" fill="#03709F" d="M21.689,22.795c0-0.373-0.007-0.725,0.002-1.076c0.011-0.375,0.172-0.543,0.489-0.532
		c0.355,0.011,0.477,0.229,0.473,0.551c-0.002,0.088,0,0.176,0,0.265c0.005,0.729,0.218,0.905,0.968,0.789
		c0-0.446,0.026-0.898-0.013-1.344c-0.016-0.183-0.126-0.408-0.267-0.521c-0.614-0.486-1.317-0.443-2.008-0.213
		c-0.604,0.204-0.648,0.734-0.641,1.274C20.704,22.722,20.898,22.893,21.689,22.795z"/>
	<path id="XMLID_374_" fill="#03709F" d="M36.816,22.169c-0.497,0.495-1.132-0.21-1.545,0.307c0.55,0.483,1.582,0.579,2.149,0.222
		c0.411-0.259,0.43-0.728,0.009-0.971c-0.257-0.147-0.561-0.209-0.841-0.312c-0.118-0.044-0.233-0.094-0.408-0.166
		c0.502-0.386,1.095,0.238,1.531-0.27c-0.54-0.426-1.118-0.463-1.714-0.366c-0.458,0.074-0.757,0.327-0.752,0.625
		c0.005,0.433,0.36,0.534,0.676,0.654c0.152,0.059,0.316,0.081,0.473,0.127C36.509,22.052,36.619,22.098,36.816,22.169z"/>
	<path id="XMLID_373_" fill="#03709F" d="M30.369,22.236c-0.059,0.003-0.118,0.004-0.178,0.006
		c-0.115-0.324-0.233-0.647-0.344-0.973c-0.188-0.556-0.379-0.671-1.104-0.58c0.31,0.646,0.555,1.289,0.914,1.862
		c0.331,0.531,0.935,0.519,1.265-0.023c0.35-0.567,0.586-1.202,0.886-1.834c-0.701-0.101-0.914,0.026-1.1,0.572
		C30.599,21.591,30.483,21.913,30.369,22.236z"/>
	<path id="XMLID_372_" fill="#03709F" d="M14.521,20.348c-0.016-0.25-0.029-0.47-0.043-0.688c-0.558,0.001-0.938,0.222-0.952,0.622
		c-0.029,0.839-0.009,1.68-0.009,2.519c0.638,0.033,0.966-0.252,0.98-0.83c0.003-0.138,0.012-0.278-0.002-0.416
		c-0.036-0.379,0.094-0.654,0.445-0.833c0.112-0.057,0.186-0.193,0.35-0.374C14.957,20.348,14.75,20.348,14.521,20.348z"/>
	<path id="XMLID_353_" fill="#03709F" d="M25.172,22.795c0-0.707,0-1.415,0-2.121c-0.657-0.021-0.97,0.267-0.98,0.883
		c-0.003,0.151-0.002,0.302-0.001,0.453C24.195,22.715,24.433,22.907,25.172,22.795z"/>
	<path id="XMLID_352_" fill="#03709F" d="M17.007,20.683c-1.806-0.13-1.883,0.707-1.723,2.132c0.654,0,0.957-0.28,0.942-0.931
		c-0.009-0.393,0.091-0.683,0.465-0.861C16.798,20.972,16.864,20.84,17.007,20.683z"/>
	<path id="XMLID_351_" fill="#03709F" d="M24.699,20.307c0.196-0.254,0.384-0.391,0.405-0.551c0.033-0.241-0.167-0.374-0.411-0.373
		c-0.245,0.001-0.442,0.134-0.403,0.376C24.313,19.92,24.502,20.055,24.699,20.307z"/>
	<path id="XMLID_347_" fill="#03709F" d="M7.548,22.908c0,0.324,0,0.634,0,0.939c-0.616,0.073-0.979-0.23-0.987-0.803
		c-0.006-0.403-0.003-0.806,0-1.209c0.006-0.684,0.284-1.092,0.958-1.189c0.472-0.068,0.981-0.039,1.448,0.062
		c0.517,0.112,0.764,0.533,0.76,1.04c-0.004,0.497-0.245,0.847-0.746,1.02c-0.222,0.077-0.463,0.111-0.699,0.135
		C8.061,22.925,7.833,22.908,7.548,22.908z M8.136,22.291c0.41,0.002,0.671-0.206,0.68-0.538c0.008-0.336-0.248-0.561-0.652-0.57
		C7.738,21.174,7.47,21.39,7.47,21.744C7.47,22.081,7.723,22.29,8.136,22.291z"/>
	<path id="XMLID_329_" fill="#03709F" d="M18.688,20.533c0.284,0.063,0.586,0.099,0.863,0.199c0.462,0.166,0.688,0.52,0.684,1.015
		c-0.005,0.489-0.224,0.83-0.697,1.011c-0.571,0.217-1.155,0.219-1.729,0.012c-0.509-0.184-0.743-0.537-0.734-1.06
		c0.008-0.495,0.253-0.852,0.749-1.011C18.093,20.611,18.384,20.589,18.688,20.533z M18.673,22.29
		c0.416-0.007,0.663-0.223,0.652-0.57c-0.01-0.336-0.274-0.542-0.689-0.536c-0.412,0.006-0.665,0.227-0.652,0.571
		C17.996,22.094,18.259,22.298,18.673,22.29z"/>
	<path id="XMLID_326_" fill="#03709F" d="M32.925,21.996c0.133,0.346,0.405,0.404,0.704,0.383c0.21-0.016,0.419-0.104,0.628-0.105
		c0.188-0.001,0.378,0.071,0.63,0.125c-0.715,0.716-2.168,0.65-2.709-0.032c-0.392-0.494-0.276-1.205,0.284-1.533
		c0.615-0.359,1.271-0.362,1.918-0.089c0.295,0.124,0.498,0.354,0.461,0.704c-0.037,0.347-0.312,0.504-0.599,0.535
		C33.816,22.029,33.382,21.996,32.925,21.996z M32.993,21.285c0.013,0.069,0.025,0.137,0.037,0.206
		c0.217,0.018,0.438,0.06,0.651,0.041c0.092-0.008,0.172-0.145,0.257-0.223c-0.094-0.071-0.194-0.209-0.279-0.201
		C33.434,21.134,33.214,21.222,32.993,21.285z"/>
	<path id="XMLID_323_" fill="#03709F" d="M11.098,21.988c0.165,0.363,0.444,0.424,0.759,0.39c0.211-0.023,0.418-0.105,0.629-0.109
		c0.168-0.003,0.338,0.073,0.508,0.114c0.019,0.05,0.039,0.101,0.058,0.149c-0.076,0.039-0.156,0.072-0.228,0.118
		c-0.595,0.374-1.656,0.347-2.225-0.062c-0.642-0.459-0.623-1.363,0.062-1.761c0.613-0.356,1.271-0.357,1.918-0.08
		c0.281,0.121,0.477,0.347,0.456,0.674c-0.021,0.346-0.29,0.521-0.579,0.553C12.028,22.024,11.591,21.988,11.098,21.988z
		 M11.156,21.517c0.307,0,0.553,0.015,0.794-0.009c0.066-0.007,0.154-0.125,0.168-0.204c0.01-0.048-0.093-0.14-0.163-0.175
		C11.698,21.004,11.392,21.127,11.156,21.517z"/>
	<path id="XMLID_320_" fill="#03709F" d="M28.547,22.489c-0.618,0.612-2.058,0.556-2.6-0.102c-0.406-0.494-0.311-1.201,0.245-1.538
		c0.623-0.378,1.291-0.384,1.952-0.1c0.283,0.12,0.479,0.345,0.458,0.672c-0.023,0.344-0.293,0.521-0.58,0.555
		c-0.429,0.049-0.866,0.013-1.298,0.013c0.071,0.281,0.207,0.398,0.543,0.39c0.223-0.006,0.444-0.067,0.667-0.105
		C28.246,22.222,28.355,22.26,28.547,22.489z M26.788,21.522c0.239,0,0.479,0.016,0.716-0.009c0.07-0.007,0.183-0.127,0.18-0.192
		c-0.004-0.071-0.106-0.177-0.185-0.197C27.203,21.047,26.938,21.098,26.788,21.522z"/>
	<path id="XMLID_319_" fill="#03709F" d="M21.689,22.795c-0.791,0.098-0.985-0.073-0.996-0.807
		c-0.008-0.541,0.036-1.071,0.641-1.274c0.69-0.23,1.394-0.273,2.008,0.213c0.141,0.112,0.251,0.338,0.267,0.521
		c0.039,0.445,0.013,0.897,0.013,1.344c-0.75,0.116-0.963-0.061-0.968-0.789c0-0.089-0.002-0.177,0-0.265
		c0.004-0.322-0.117-0.54-0.473-0.551c-0.317-0.011-0.479,0.158-0.489,0.532C21.683,22.07,21.689,22.422,21.689,22.795z"/>
	<path id="XMLID_318_" fill="#03709F" d="M36.816,22.169c-0.197-0.071-0.308-0.117-0.422-0.149c-0.156-0.046-0.32-0.068-0.473-0.127
		c-0.315-0.12-0.671-0.221-0.676-0.654c-0.005-0.298,0.294-0.55,0.752-0.625c0.596-0.098,1.174-0.06,1.714,0.366
		c-0.437,0.507-1.029-0.116-1.531,0.27c0.175,0.071,0.29,0.122,0.408,0.166c0.28,0.102,0.584,0.165,0.841,0.312
		c0.421,0.243,0.402,0.712-0.009,0.971c-0.567,0.357-1.6,0.262-2.149-0.222C35.685,21.959,36.319,22.664,36.816,22.169z"/>
	<path id="XMLID_317_" fill="#03709F" d="M30.369,22.236c0.114-0.323,0.229-0.646,0.34-0.97c0.186-0.546,0.398-0.673,1.1-0.572
		c-0.3,0.632-0.536,1.267-0.886,1.834c-0.33,0.542-0.934,0.555-1.265,0.023c-0.359-0.573-0.604-1.216-0.914-1.862
		c0.725-0.091,0.915,0.024,1.104,0.58c0.11,0.326,0.229,0.648,0.344,0.973C30.251,22.24,30.311,22.239,30.369,22.236z"/>
	<path id="XMLID_316_" fill="#03709F" d="M14.521,20.348c0.229,0,0.436,0,0.77,0c-0.164,0.181-0.237,0.317-0.35,0.374
		c-0.352,0.18-0.481,0.455-0.445,0.833c0.014,0.137,0.005,0.278,0.002,0.416c-0.015,0.578-0.343,0.863-0.98,0.83
		c0-0.839-0.021-1.68,0.009-2.519c0.015-0.4,0.395-0.621,0.952-0.622C14.492,19.878,14.506,20.097,14.521,20.348z"/>
	<path id="XMLID_315_" fill="#03709F" d="M25.172,22.795c-0.739,0.112-0.977-0.08-0.981-0.785c-0.001-0.15-0.002-0.302,0.001-0.453
		c0.011-0.616,0.323-0.904,0.98-0.883C25.172,21.38,25.172,22.088,25.172,22.795z"/>
	<path id="XMLID_314_" fill="#03709F" d="M17.007,20.683c-0.143,0.157-0.209,0.289-0.315,0.34c-0.374,0.178-0.474,0.469-0.465,0.861
		c0.015,0.65-0.288,0.931-0.942,0.931C15.124,21.39,15.201,20.553,17.007,20.683z"/>
	<path id="XMLID_278_" fill="#03709F" d="M24.699,20.307c-0.197-0.252-0.386-0.387-0.409-0.548
		c-0.039-0.243,0.158-0.375,0.403-0.376c0.244,0,0.444,0.132,0.411,0.373C25.083,19.916,24.896,20.053,24.699,20.307z"/>
	<path id="XMLID_277_" fill="#FFFFFF" d="M18.673,22.29c-0.414,0.008-0.677-0.196-0.689-0.535c-0.013-0.344,0.24-0.565,0.652-0.571
		c0.415-0.006,0.68,0.2,0.689,0.536C19.336,22.067,19.089,22.283,18.673,22.29z"/>
	<path id="XMLID_276_" fill="#FFFFFF" d="M32.993,21.285c0.221-0.063,0.44-0.151,0.666-0.177c0.085-0.009,0.186,0.13,0.279,0.201
		c-0.085,0.078-0.165,0.215-0.257,0.223c-0.214,0.019-0.435-0.023-0.651-0.041C33.019,21.422,33.006,21.354,32.993,21.285z"/>
	<path id="XMLID_275_" fill="#FFFFFF" d="M11.156,21.517c0.236-0.39,0.542-0.513,0.799-0.388c0.07,0.035,0.173,0.126,0.163,0.175
		c-0.014,0.079-0.102,0.197-0.168,0.204C11.709,21.532,11.463,21.517,11.156,21.517z"/>
	<path id="XMLID_274_" fill="#FFFFFF" d="M26.788,21.522c0.15-0.424,0.415-0.475,0.711-0.398c0.078,0.02,0.181,0.126,0.185,0.197
		c0.003,0.064-0.109,0.185-0.18,0.192C27.268,21.538,27.027,21.522,26.788,21.522z"/>
	<path id="XMLID_273_" fill="#FFFFFF" d="M8.136,22.291c-0.413-0.001-0.666-0.21-0.666-0.547c0-0.354,0.268-0.57,0.694-0.562
		c0.404,0.01,0.66,0.234,0.652,0.57C8.807,22.085,8.546,22.293,8.136,22.291z"/>
</g>
</svg>
