<?xml version="1.0" encoding="utf-8"?>
<!-- Generator: Adobe Illustrator 16.0.0, SVG Export Plug-In . SVG Version: 6.00 Build 0)  -->
<!DOCTYPE svg PUBLIC "-//W3C//DTD SVG 1.1//EN" "http://www.w3.org/Graphics/SVG/1.1/DTD/svg11.dtd">
<svg version="1.1" id="Layer_1" xmlns="http://www.w3.org/2000/svg" xmlns:xlink="http://www.w3.org/1999/xlink" x="0px" y="0px"
	 width="43px" height="60px" viewBox="0 0 43 60" enable-background="new 0 0 43 60" xml:space="preserve">
<path id="fondo_x5F_icono" fill="#FFFFFF" d="M42.054,21.176c0-11.286-9.154-20.44-20.439-20.44c-11.286,0-20.44,9.154-20.44,20.44
	c0,0.865,0.061,1.7,0.164,2.534c0.269,3.161,2.505,15.283,20.291,36.094c20.917-24.466,20.337-36.541,20.337-36.541
	C42.024,22.578,42.054,21.892,42.054,21.176"/>
<path fill="#F59720" d="M21.491,3.369c9.793,0,17.76,7.967,17.76,17.759c0,0.635-0.025,1.242-0.08,1.856l-0.025,0.144l0.018,0.21
	c-0.01,0.56-0.42,11.344-17.656,32.283C15.102,47.832,10.306,40.563,7.23,33.981c-2.7-5.778-3.237-9.298-3.343-10.543l-0.005-0.054
	l-0.007-0.056c-0.097-0.771-0.144-1.49-0.144-2.201C3.732,11.335,11.7,3.369,21.491,3.369 M21.491,0.582
	c-11.344,0-20.545,9.202-20.545,20.546c0,0.869,0.06,1.708,0.165,2.547c0.27,3.177,2.518,15.36,20.396,36.28
	c21.025-24.591,20.441-36.73,20.441-36.73c0.059-0.689,0.09-1.379,0.09-2.098C42.038,9.783,32.837,0.582,21.491,0.582"/>
<g id="petromiralles">
	<g id="XMLID_15_">
		<path id="XMLID_42_" fill="#4265AE" d="M21.599,26.22c-0.242,0-0.456,0-0.681,0c0.153-0.799,0.305-1.587,0.456-2.375
			c-0.011-0.004-0.022-0.011-0.034-0.016c-0.046,0.089-0.094,0.176-0.139,0.265c-0.336,0.677-0.672,1.353-1.004,2.032
			c-0.039,0.078-0.08,0.11-0.168,0.104c-0.115-0.008-0.232-0.001-0.363-0.001c-0.084-0.805-0.167-1.598-0.251-2.392
			c-0.01-0.001-0.021-0.001-0.032-0.003c-0.156,0.796-0.31,1.592-0.465,2.389c-0.192,0-0.365,0-0.572,0
			c0.191-0.993,0.38-1.977,0.571-2.976c0.339,0,0.678-0.004,1.016,0.005c0.032,0.001,0.084,0.079,0.089,0.125
			c0.052,0.53,0.097,1.061,0.144,1.591c0,0.01,0.009,0.018,0.028,0.054c0.033-0.054,0.059-0.093,0.079-0.135
			c0.253-0.5,0.507-1.002,0.751-1.507c0.049-0.099,0.104-0.14,0.216-0.136c0.301,0.008,0.602,0.003,0.936,0.003
			C21.981,24.247,21.792,25.23,21.599,26.22z"/>
		<path id="XMLID_39_" fill="#4265AE" d="M13.418,23.257c0.539,0,1.077-0.037,1.608,0.009c0.715,0.061,0.748,0.776,0.506,1.168
			c-0.096,0.154-0.249,0.285-0.4,0.391c-0.117,0.081-0.147,0.153-0.116,0.283c0.085,0.363,0.161,0.729,0.243,1.107
			c-0.25,0-0.49,0-0.752,0c-0.075-0.378-0.15-0.763-0.231-1.168c-0.15,0-0.297-0.01-0.442,0.007
			c-0.041,0.005-0.091,0.088-0.104,0.142c-0.076,0.339-0.142,0.68-0.212,1.025c-0.224,0-0.438,0-0.679,0
			C13.034,25.226,13.226,24.242,13.418,23.257z M13.861,24.521c0.03,0.012,0.045,0.023,0.06,0.023
			c0.174,0.001,0.348,0.004,0.522,0.003c0.188-0.001,0.412-0.147,0.465-0.323c0.057-0.188,0.042-0.418-0.241-0.448
			c-0.188-0.021-0.378-0.026-0.567-0.023c-0.037,0-0.099,0.055-0.107,0.094C13.942,24.069,13.904,24.291,13.861,24.521z"/>
		<path id="XMLID_36_" fill="#4265AE" d="M25.661,26.222c-0.255,0-0.492,0-0.75,0c-0.077-0.383-0.151-0.769-0.231-1.176
			c-0.146,0-0.292-0.006-0.438,0.006c-0.036,0.003-0.089,0.064-0.099,0.106c-0.079,0.353-0.152,0.708-0.224,1.063
			c-0.234,0-0.448,0-0.678,0c0.194-0.988,0.385-1.969,0.579-2.959c0.021-0.003,0.052-0.015,0.082-0.015
			c0.481,0,0.965-0.001,1.446,0.009c0.382,0.01,0.645,0.215,0.696,0.523c0.075,0.432-0.1,0.827-0.483,1.035
			c-0.157,0.084-0.171,0.171-0.135,0.327C25.514,25.492,25.582,25.849,25.661,26.222z M24.26,24.549c0.21,0,0.397,0.002,0.589,0
			c0.222-0.003,0.395-0.125,0.471-0.331c0.072-0.194-0.009-0.399-0.193-0.429c-0.235-0.038-0.477-0.038-0.714-0.054
			C24.36,24.018,24.313,24.265,24.26,24.549z"/>
		<path id="XMLID_33_" fill="#4265AE" d="M18.338,24.356c-0.005,0.532-0.18,1.001-0.511,1.394c-0.393,0.468-0.89,0.652-1.502,0.475
			c-0.372-0.106-0.541-0.411-0.594-0.752c-0.113-0.719,0.093-1.36,0.613-1.873c0.38-0.376,0.849-0.487,1.371-0.333
			c0.29,0.086,0.441,0.302,0.527,0.566C18.297,23.999,18.309,24.181,18.338,24.356z M17.633,24.41
			c-0.014-0.109-0.027-0.197-0.036-0.287c-0.038-0.357-0.378-0.444-0.639-0.305c-0.195,0.104-0.298,0.28-0.356,0.466
			c-0.089,0.293-0.146,0.601-0.19,0.905c-0.033,0.216,0.106,0.461,0.25,0.509c0.24,0.081,0.489-0.014,0.636-0.231
			C17.518,25.142,17.563,24.765,17.633,24.41z"/>
		<path id="XMLID_32_" fill="#4265AE" d="M35.049,25.459c0.224-0.048,0.439-0.096,0.654-0.142c0.126,0.42,0.599,0.572,0.951,0.315
			c0.205-0.15,0.188-0.384-0.048-0.481c-0.145-0.06-0.302-0.089-0.454-0.13c-0.062-0.018-0.123-0.031-0.183-0.052
			c-0.536-0.172-0.624-0.518-0.456-1.003c0.191-0.551,0.883-0.863,1.455-0.74c0.214,0.047,0.426,0.097,0.565,0.285
			c0.067,0.096,0.114,0.208,0.16,0.319c0.009,0.018-0.03,0.079-0.058,0.087c-0.174,0.056-0.353,0.104-0.524,0.154
			c-0.197-0.345-0.499-0.443-0.801-0.245c-0.079,0.05-0.153,0.173-0.151,0.262c0.002,0.07,0.111,0.167,0.193,0.199
			c0.144,0.058,0.304,0.083,0.46,0.108c0.355,0.057,0.644,0.284,0.708,0.594c0.064,0.306-0.045,0.574-0.242,0.799
			c-0.405,0.461-0.938,0.58-1.515,0.465C35.357,26.175,35.107,25.997,35.049,25.459z"/>
		<path id="XMLID_31_" fill="#4265AE" d="M34.916,24.428c-0.03,0.202-0.055,0.372-0.083,0.557c-0.39,0-0.768,0-1.154,0
			c-0.044,0.229-0.088,0.442-0.132,0.683c0.499,0,0.969,0,1.452,0c-0.04,0.197-0.075,0.372-0.111,0.553c-0.709,0-1.411,0-2.133,0
			c0.058-0.299,0.115-0.591,0.17-0.882c0.125-0.647,0.251-1.293,0.371-1.94c0.02-0.107,0.053-0.159,0.18-0.157
			c0.615,0.008,1.23,0.003,1.847,0.003c0.04,0,0.082,0.005,0.141,0.007c-0.035,0.188-0.066,0.366-0.102,0.555
			c-0.438,0-0.866,0.005-1.295-0.001c-0.119-0.001-0.184,0.019-0.191,0.156c-0.012,0.15-0.052,0.297-0.081,0.466
			C34.174,24.428,34.529,24.428,34.916,24.428z"/>
		<path id="XMLID_30_" fill="#4265AE" d="M10.326,26.222c-0.719,0-1.413,0-2.13,0c0.038-0.208,0.071-0.409,0.109-0.607
			c0.146-0.744,0.293-1.487,0.438-2.232c0.015-0.077,0.019-0.14,0.127-0.14c0.658,0.004,1.316,0.003,1.974,0.004
			c0.009,0,0.02,0.007,0.056,0.019c-0.033,0.173-0.067,0.351-0.103,0.539c-0.483,0-0.959,0-1.454,0
			c-0.036,0.203-0.07,0.398-0.11,0.62c0.377,0,0.743,0,1.123,0c-0.029,0.197-0.055,0.368-0.084,0.555c-0.382,0-0.762,0-1.148,0
			c-0.045,0.227-0.087,0.437-0.135,0.674c0.477,0,0.943,0,1.446,0C10.394,25.861,10.361,26.039,10.326,26.222z"/>
		<path id="XMLID_27_" fill="#4265AE" d="M28.08,23.246c0.124,1.004,0.241,1.981,0.361,2.972c-0.256,0-0.495,0-0.75,0
			c-0.017-0.162-0.04-0.323-0.046-0.484c-0.006-0.099-0.048-0.13-0.139-0.129c-0.255,0.003-0.511-0.003-0.766,0.005
			c-0.046,0.002-0.112,0.047-0.137,0.091c-0.084,0.142-0.147,0.293-0.227,0.437c-0.02,0.039-0.069,0.084-0.109,0.087
			c-0.167,0.009-0.334,0.003-0.53,0.003c0.148-0.282,0.287-0.542,0.422-0.804c0.358-0.695,0.715-1.393,1.074-2.088
			c0.019-0.036,0.061-0.084,0.094-0.086C27.576,23.243,27.823,23.246,28.08,23.246z M27.467,24.054
			c-0.012-0.002-0.024-0.006-0.036-0.008c-0.162,0.334-0.324,0.668-0.489,1.014c0.217,0,0.41,0,0.634,0
			C27.538,24.715,27.503,24.385,27.467,24.054z"/>
		<path id="XMLID_24_" fill="#4265AE" d="M5.625,26.22c0.193-0.996,0.384-1.98,0.571-2.945c0.531,0,1.047-0.039,1.554,0.011
			c0.443,0.043,0.678,0.419,0.589,0.853c-0.06,0.285-0.183,0.542-0.426,0.736c-0.21,0.169-0.437,0.245-0.701,0.24
			c-0.232-0.005-0.464-0.001-0.695-0.001c-0.072,0.378-0.14,0.739-0.21,1.106C6.077,26.22,5.857,26.22,5.625,26.22z M6.624,24.582
			c0.209,0,0.401,0.019,0.588-0.005c0.178-0.022,0.323-0.12,0.395-0.301c0.079-0.198,0.006-0.427-0.171-0.457
			c-0.216-0.038-0.438-0.04-0.657-0.057C6.725,24.046,6.677,24.298,6.624,24.582z"/>
		<path id="XMLID_23_" fill="#4265AE" d="M13.081,23.836c-0.217,0-0.419,0.006-0.619-0.003c-0.108-0.004-0.149,0.041-0.168,0.139
			c-0.114,0.595-0.23,1.19-0.346,1.784c-0.029,0.155-0.064,0.309-0.097,0.466c-0.226,0-0.442,0-0.677,0
			c0.154-0.793,0.307-1.577,0.463-2.381c-0.204,0-0.397,0-0.616,0c0.036-0.195,0.065-0.365,0.102-0.534
			c0.005-0.024,0.048-0.058,0.075-0.06c0.656-0.002,1.313-0.001,1.987-0.001C13.15,23.449,13.118,23.632,13.081,23.836z"/>
		<path id="XMLID_22_" fill="#4265AE" d="M31.262,23.252c0.232,0,0.446,0,0.691,0c-0.154,0.805-0.308,1.594-0.466,2.409
			c0.405,0,0.789,0,1.202,0c-0.038,0.202-0.071,0.379-0.104,0.56c-0.638,0-1.261,0-1.896,0
			C30.879,25.23,31.069,24.246,31.262,23.252z"/>
		<path id="XMLID_21_" fill="#4265AE" d="M30.637,25.665c-0.041,0.205-0.076,0.374-0.11,0.554c-0.624,0-1.246,0-1.884,0
			c0.058-0.307,0.11-0.606,0.169-0.904c0.124-0.636,0.253-1.269,0.37-1.906c0.023-0.119,0.057-0.175,0.188-0.167
			c0.168,0.012,0.337,0.003,0.528,0.003c-0.058,0.293-0.11,0.57-0.165,0.846c-0.094,0.481-0.184,0.962-0.281,1.441
			c-0.022,0.105,0.008,0.134,0.106,0.133c0.297-0.001,0.594,0,0.891,0C30.506,25.665,30.562,25.665,30.637,25.665z"/>
		<path id="XMLID_16_" fill="#4265AE" d="M22.75,26.221c-0.233,0-0.445,0-0.68,0c0.19-0.995,0.382-1.979,0.573-2.967
			c0.224,0,0.438,0,0.681,0C23.134,24.25,22.942,25.234,22.75,26.221z"/>
	</g>
	<g id="XMLID_4_">
		<path id="XMLID_14_" fill="#EE4737" d="M17.562,14.919c-0.196-0.037-0.262-0.057-0.329-0.063
			c-0.401-0.033-0.639-0.197-0.555-0.649c0.072-0.385-0.059-0.664-0.375-0.741c0.318-0.142,0.719-0.255,1.041-0.482
			c0.455-0.321,0.35-0.807-0.18-1c-0.271-0.1-0.55-0.176-0.879-0.28c0.827-0.211,0.849-0.257,0.539-1.148
			c0.494,0.141,0.92,0.263,1.454,0.415c-0.381-1.075-1.235-1.691-1.805-2.505c0.023-0.031,0.045-0.062,0.067-0.092
			c0.325,0.25,0.653,0.501,0.977,0.751c0.235,0.181,0.449,0.399,0.706,0.537c0.375,0.2,0.592,0.054,0.582-0.366
			c-0.007-0.309-0.056-0.617-0.074-0.926c-0.021-0.396,0.119-0.494,0.512-0.431c0.437,0.069,0.892,0.2,1.313,0.134
			c0.683-0.104,0.771-0.29,0.773-0.978c0-0.411,0.003-0.824,0.011-1.235c0-0.038,0.03-0.076,0.075-0.18
			c0.068,0.422,0.132,0.781,0.186,1.142c0.122,0.809,0.976,1.144,1.652,1.119c0.709-0.026,1.282-0.293,1.776-0.79
			c0.03,0.018,0.063,0.036,0.093,0.054c-0.071,0.226-0.11,0.468-0.217,0.676c-0.462,0.888,0.176,1.431,0.891,1.558
			c0.289,0.051,0.593,0.008,0.96,0.008c-0.802,1.188,0.162,1.707,0.835,2.372c-0.509,0.128-0.511,0.443-0.352,0.82
			c0.065,0.156,0.132,0.313,0.188,0.474c0.107,0.314,0.1,0.612-0.145,0.87c-0.038,0.041-0.066,0.091-0.102,0.135
			c-0.587,0.717-0.587,0.806,0.071,1.597c-0.841-0.428-1.2,0.103-1.551,0.615c-0.255,0.371-0.554,0.595-1.03,0.477
			c-0.359-0.089-0.479,0.216-0.491,0.435c-0.022,0.38,0.009,0.786,0.124,1.145c0.196,0.613,0.479,1.199,0.679,1.823
			c-0.568-0.763-1.137-1.524-1.726-2.316c-0.206,0.183-0.314,0.283-0.428,0.382c-0.031-0.013-0.064-0.017-0.077-0.034
			c-0.086-0.149-0.171-0.301-0.256-0.452c-0.123,0.124-0.269,0.234-0.363,0.379c-0.141,0.221-0.244,0.466-0.371,0.714
			c-0.091-0.451-0.149-0.878-0.271-1.288c-0.132-0.446-0.463-0.639-0.885-0.467c-0.325,0.13-0.696,0.338-0.863,0.619
			c-0.537,0.902-0.988,1.857-1.478,2.788c-0.054,0.105-0.135,0.201-0.221,0.283c-0.017,0.017-0.165-0.057-0.161-0.075
			c0.019-0.12,0.037-0.25,0.101-0.35c0.204-0.323,0.457-0.618,0.631-0.956c0.14-0.271,0.192-0.586,0.282-0.883
			c-0.055,0.013-0.112,0.026-0.169,0.038c-0.173-0.147-0.396-0.268-0.501-0.455c-0.062-0.11,0.03-0.45,0.106-0.469
			c0.248-0.063,0.521-0.024,0.897-0.024c0.006-0.085,0.099-0.349,0.012-0.44c-0.109-0.115-0.37-0.131-0.559-0.116
			c-0.201,0.016-0.395,0.119-0.599,0.186c0.049-0.229,0.124-0.439,0.131-0.653c0.004-0.096-0.101-0.243-0.193-0.285
			c-0.085-0.037-0.243,0.007-0.328,0.069c-0.189,0.141-0.354,0.316-0.545,0.491c-0.13-0.536-0.13-0.536-1.528-0.498
			C16.239,15.886,17.081,15.706,17.562,14.919z"/>
		<path id="XMLID_12_" fill="#EE4737" d="M15.858,12.377c-0.379,0.716-1.187,1.054-1.788,0.742c-0.353-0.184-0.462-0.467-0.31-0.802
			c0.15-0.328,0.455-0.446,0.803-0.332C14.983,12.121,15.407,12.241,15.858,12.377z"/>
		<path id="XMLID_11_" fill="#EE4737" d="M19.843,19.29c-0.115-0.081-0.308-0.148-0.329-0.247c-0.036-0.19-0.034-0.439,0.064-0.591
			c0.157-0.244,0.397-0.439,0.617-0.638c0.228-0.205,0.642-0.053,0.919,0.323c0.2,0.272,0.153,0.684-0.134,0.804
			C20.632,19.083,20.258,19.167,19.843,19.29z"/>
		<path id="XMLID_10_" fill="#EE4737" d="M25.681,18.027c-0.006,0.514-0.259,0.872-0.604,0.86c-0.436-0.017-0.634-0.301-0.632-0.917
			c0-0.305,0.345-0.631,0.676-0.637C25.545,17.325,25.689,17.503,25.681,18.027z"/>
		<path id="XMLID_9_" fill="#EE4737" d="M20.161,7.296C19.842,7.31,19.515,7.3,19.5,6.859c-0.016-0.474,0.398-0.816,0.927-0.822
			c0.383-0.004,0.441,0.228,0.425,0.528C20.818,7.279,20.676,7.351,20.161,7.296z"/>
		<path id="XMLID_8_" fill="#EE4737" d="M25.353,6.549c-0.09-0.517,0.163-1.058,0.508-1.209c0.077-0.032,0.271,0.014,0.273,0.04
			c0.023,0.169,0.074,0.4-0.012,0.503C25.926,6.12,25.655,6.296,25.353,6.549z"/>
		<path id="XMLID_7_" fill="#EE4737" d="M25.174,8.835c0.063-0.119,0.101-0.265,0.193-0.349c0.249-0.225,0.511-0.438,0.788-0.625
			c0.09-0.059,0.244-0.02,0.367-0.026c-0.045,0.112-0.064,0.249-0.142,0.329c-0.205,0.21-0.425,0.411-0.658,0.587
			c-0.128,0.096-0.297,0.135-0.448,0.199C25.24,8.913,25.208,8.874,25.174,8.835z"/>
		<path id="XMLID_6_" fill="#EE4737" d="M21.739,19.565c0.323,0.288,0.313,0.565,0.103,0.762c-0.158,0.154-0.423,0.199-0.642,0.294
			c-0.045-0.063-0.091-0.123-0.136-0.186C21.288,20.147,21.513,19.856,21.739,19.565z"/>
		<path id="XMLID_5_" fill="#EE4737" d="M17.559,7.116c-0.028-0.468,0.184-0.677,0.5-0.505c0.126,0.069,0.196,0.241,0.291,0.367
			c-0.126,0.053-0.249,0.132-0.38,0.154C17.836,7.155,17.694,7.124,17.559,7.116z"/>
	</g>
</g>
</svg>
