<?xml version="1.0" encoding="utf-8"?>
<!-- Generator: Adobe Illustrator 16.0.0, SVG Export Plug-In . SVG Version: 6.00 Build 0)  -->
<!DOCTYPE svg PUBLIC "-//W3C//DTD SVG 1.1//EN" "http://www.w3.org/Graphics/SVG/1.1/DTD/svg11.dtd">
<svg version="1.1" id="Layer_1" xmlns="http://www.w3.org/2000/svg" xmlns:xlink="http://www.w3.org/1999/xlink" x="0px" y="0px"
	 width="72px" height="100px" viewBox="0 0 72 100" enable-background="new 0 0 72 100" xml:space="preserve">
<path id="fondo_x5F_icono" fill="#FFFFFF" d="M70.6,35.367c0-18.833-15.275-34.109-34.109-34.109
	c-18.833,0-34.109,15.276-34.109,34.109c0,1.444,0.1,2.836,0.274,4.229c0.447,5.275,4.18,25.503,33.86,60.233
	C71.42,59.002,70.451,38.852,70.451,38.852C70.551,37.707,70.6,36.562,70.6,35.367"/>
<path fill="#F59720" d="M36.285,5.65c16.342,0,29.637,13.295,29.637,29.636c0,1.059-0.043,2.073-0.133,3.097l-0.043,0.24
	l0.029,0.351c-0.016,0.934-0.703,18.929-29.464,53.872C25.623,79.85,17.618,67.721,12.487,56.736
	c-4.506-9.642-5.402-15.516-5.578-17.594L6.9,39.052L6.89,38.959c-0.162-1.286-0.24-2.487-0.24-3.673
	C6.65,18.945,19.945,5.65,36.285,5.65 M36.285,1C17.355,1,2,16.355,2,35.286c0,1.45,0.1,2.85,0.276,4.25
	c0.45,5.302,4.201,25.633,34.035,60.543c35.086-41.037,34.111-61.293,34.111-61.293c0.1-1.15,0.15-2.302,0.15-3.5
	C70.572,16.355,55.217,1,36.285,1"/>
<g id="triangiulo_inferior">
	<path fill="#F59720" d="M7.481,57.183C12.23,67.5,20.784,81.704,36.208,99.751c15.521-18.154,24.095-32.302,28.827-42.494
		c-8.219-5.589-18.139-8.855-28.827-8.855C25.565,48.402,15.68,51.639,7.481,57.183"/>
	<path fill="#FFFFFF" d="M41.943,73.224c-0.053,0.068-0.102,0.136-0.162,0.196c-0.496,0.496-1.303,0.496-1.801,0
		c-0.492-0.493-0.492-1.299,0-1.796c0.047-0.044,0.096-0.086,0.146-0.126c1.277-1.095,2.084-2.717,2.084-4.522
		c0-1.759-0.766-3.336-1.977-4.426c-0.092-0.055-0.176-0.117-0.254-0.198c-0.492-0.493-0.492-1.298,0-1.796
		c0.498-0.497,1.305-0.497,1.801,0c0.041,0.04,0.076,0.089,0.109,0.127c1.727,1.548,2.82,3.799,2.82,6.293
		C44.711,69.449,43.641,71.675,41.943,73.224 M32.28,62.555c0.089-0.052,0.177-0.118,0.253-0.192c0.497-0.5,0.497-1.303,0-1.8
		c-0.498-0.497-1.303-0.497-1.798,0c-0.034,0.033-0.07,0.076-0.098,0.109c-1.736,1.555-2.828,3.798-2.828,6.304
		c0,2.466,1.062,4.686,2.751,6.226c0.05,0.083,0.105,0.158,0.175,0.229c0.495,0.49,1.3,0.49,1.798,0
		c0.497-0.503,0.497-1.303,0-1.806c-0.042-0.035-0.083-0.069-0.122-0.102v-0.01c-1.289-1.094-2.11-2.718-2.11-4.537
		C30.302,65.227,31.067,63.646,32.28,62.555 M38.924,64.051c-0.023-0.019-0.041-0.04-0.057-0.057
		c-0.168-0.169-0.389-0.263-0.621-0.263c-0.238,0-0.459,0.094-0.627,0.263c-0.346,0.347-0.346,0.902,0,1.243
		c0.043,0.041,0.09,0.08,0.141,0.118c0.457,0.421,0.719,1.012,0.719,1.631c0,0.645-0.279,1.263-0.775,1.685l-0.018,0.013
		c-0.02,0.013-0.039,0.03-0.066,0.061c-0.166,0.162-0.252,0.384-0.252,0.621c0,0.235,0.086,0.458,0.252,0.622
		c0.168,0.169,0.389,0.263,0.627,0.263c0.232,0,0.453-0.094,0.621-0.263c0.027-0.027,0.057-0.061,0.086-0.098
		c0.809-0.752,1.266-1.811,1.266-2.903C40.219,65.874,39.754,64.803,38.924,64.051 M34.898,65.24
		c0.167-0.165,0.262-0.392,0.262-0.624c0-0.234-0.094-0.456-0.262-0.622c-0.17-0.169-0.389-0.258-0.622-0.258
		c-0.238,0-0.459,0.089-0.627,0.258c-0.012,0.017-0.032,0.038-0.046,0.057c-0.833,0.752-1.309,1.818-1.309,2.936
		c0,1.089,0.463,2.142,1.262,2.896c0.028,0.041,0.061,0.072,0.093,0.111c0.167,0.163,0.389,0.257,0.627,0.257
		c0.233,0,0.452-0.094,0.622-0.257c0.167-0.17,0.262-0.389,0.262-0.622c0-0.237-0.094-0.46-0.266-0.631
		c-0.02-0.02-0.034-0.03-0.052-0.044l-0.019-0.021c-0.494-0.426-0.785-1.04-0.785-1.688c0-0.619,0.262-1.206,0.715-1.631
		C34.805,65.322,34.855,65.285,34.898,65.24 M44.443,55.846c-0.041-0.045-0.098-0.082-0.154-0.124
		c-0.658-0.434-1.547-0.258-1.98,0.403c-0.406,0.613-0.277,1.436,0.289,1.894c0.018,0.014,0.039,0.021,0.055,0.037
		c0.018,0.013,0.037,0.034,0.059,0.044c2.705,1.987,4.471,5.192,4.471,8.804c0,6.033-4.893,10.919-10.924,10.919
		c-6.029,0-10.916-4.886-10.916-10.919c0-3.596,1.738-6.777,4.422-8.771h-0.004h0.004c0.653-0.444,0.82-1.326,0.379-1.978
		c-0.442-0.65-1.324-0.823-1.978-0.379c-0.042,0.025-0.08,0.057-0.122,0.091c-3.369,2.507-5.55,6.522-5.55,11.037
		c0,7.605,6.165,13.769,13.765,13.769c7.602,0,13.768-6.163,13.768-13.769C50.025,62.373,47.828,58.355,44.443,55.846"/>
</g>
<g id="petromiralles">
	<g id="XMLID_15_">
		<path id="XMLID_42_" fill="#4265AE" d="M36.583,43.113c-0.401,0-0.759,0-1.133,0c0.255-1.33,0.508-2.643,0.758-3.955
			c-0.019-0.008-0.039-0.018-0.058-0.025c-0.076,0.148-0.157,0.293-0.231,0.441c-0.56,1.127-1.12,2.253-1.671,3.383
			c-0.064,0.129-0.134,0.184-0.281,0.174c-0.191-0.014-0.386-0.003-0.603-0.003c-0.141-1.339-0.28-2.661-0.419-3.981
			c-0.018-0.003-0.036-0.004-0.054-0.007c-0.258,1.325-0.515,2.65-0.773,3.978c-0.319,0-0.609,0-0.952,0
			c0.317-1.654,0.631-3.291,0.95-4.955c0.566,0,1.129-0.006,1.692,0.01c0.053,0.001,0.141,0.131,0.148,0.207
			c0.087,0.883,0.162,1.766,0.24,2.648c0.001,0.017,0.016,0.03,0.048,0.09c0.054-0.09,0.096-0.154,0.13-0.225
			c0.421-0.834,0.843-1.668,1.25-2.509c0.083-0.166,0.174-0.233,0.36-0.228c0.501,0.012,1.004,0.004,1.557,0.004
			C37.221,39.829,36.904,41.467,36.583,43.113z"/>
		<path id="XMLID_39_" fill="#4265AE" d="M22.961,38.18c0.898,0,1.794-0.061,2.679,0.016c1.19,0.102,1.245,1.293,0.842,1.945
			c-0.16,0.257-0.415,0.475-0.667,0.649c-0.194,0.136-0.244,0.255-0.193,0.472c0.143,0.605,0.268,1.215,0.406,1.845
			c-0.417,0-0.817,0-1.252,0c-0.125-0.63-0.251-1.271-0.384-1.945c-0.249,0-0.496-0.018-0.736,0.011
			c-0.068,0.009-0.151,0.146-0.172,0.237c-0.126,0.564-0.238,1.132-0.354,1.706c-0.373,0-0.73,0-1.129,0
			C22.322,41.459,22.641,39.82,22.961,38.18z M23.698,40.286c0.051,0.021,0.076,0.038,0.1,0.038c0.291,0.004,0.58,0.009,0.871,0.007
			c0.312-0.002,0.685-0.245,0.773-0.538c0.095-0.313,0.071-0.695-0.401-0.745c-0.313-0.034-0.629-0.043-0.944-0.039
			c-0.062,0-0.164,0.093-0.179,0.158C23.833,39.531,23.77,39.902,23.698,40.286z"/>
		<path id="XMLID_36_" fill="#4265AE" d="M43.346,43.117c-0.424,0-0.818,0-1.248,0c-0.127-0.639-0.252-1.28-0.385-1.957
			c-0.242,0-0.488-0.011-0.73,0.009c-0.061,0.006-0.148,0.106-0.164,0.177c-0.133,0.588-0.252,1.18-0.373,1.77
			c-0.389,0-0.746,0-1.127,0c0.322-1.646,0.641-3.278,0.963-4.927c0.035-0.007,0.086-0.026,0.137-0.026
			c0.803,0.002,1.607-0.002,2.41,0.016c0.633,0.016,1.07,0.357,1.158,0.871c0.123,0.717-0.166,1.375-0.805,1.722
			c-0.262,0.142-0.287,0.285-0.225,0.544C43.102,41.901,43.215,42.496,43.346,43.117z M41.014,40.332c0.35,0,0.662,0.004,0.979,0
			c0.371-0.004,0.658-0.209,0.785-0.551c0.119-0.322-0.014-0.666-0.322-0.714c-0.391-0.063-0.793-0.063-1.188-0.089
			C41.18,39.447,41.102,39.858,41.014,40.332z"/>
		<path id="XMLID_33_" fill="#4265AE" d="M31.153,40.012c-0.007,0.885-0.298,1.666-0.849,2.32c-0.655,0.779-1.482,1.086-2.501,0.791
			c-0.62-0.178-0.9-0.685-0.989-1.253c-0.188-1.196,0.156-2.265,1.02-3.119c0.635-0.626,1.413-0.812,2.283-0.556
			c0.482,0.144,0.735,0.504,0.878,0.943C31.085,39.416,31.104,39.72,31.153,40.012z M29.979,40.102
			c-0.022-0.182-0.044-0.329-0.06-0.478c-0.063-0.595-0.629-0.739-1.063-0.509c-0.326,0.174-0.498,0.467-0.593,0.777
			c-0.149,0.488-0.242,1-0.317,1.508c-0.054,0.36,0.177,0.767,0.417,0.848c0.399,0.135,0.813-0.023,1.058-0.385
			C29.788,41.318,29.863,40.691,29.979,40.102z"/>
		<path id="XMLID_32_" fill="#4265AE" d="M58.977,41.848c0.373-0.081,0.732-0.16,1.09-0.237c0.211,0.699,0.998,0.952,1.584,0.524
			c0.344-0.25,0.314-0.641-0.078-0.801c-0.24-0.1-0.504-0.148-0.758-0.218c-0.102-0.028-0.203-0.052-0.303-0.085
			c-0.893-0.287-1.039-0.863-0.76-1.67c0.318-0.918,1.471-1.438,2.422-1.232c0.357,0.078,0.711,0.162,0.941,0.475
			c0.113,0.159,0.191,0.348,0.268,0.531c0.016,0.03-0.051,0.133-0.096,0.146c-0.289,0.094-0.586,0.173-0.875,0.257
			c-0.326-0.573-0.83-0.737-1.332-0.409c-0.131,0.085-0.254,0.289-0.252,0.438c0.004,0.115,0.186,0.277,0.322,0.332
			c0.24,0.096,0.506,0.139,0.766,0.181c0.592,0.095,1.072,0.472,1.18,0.987c0.107,0.509-0.076,0.957-0.404,1.332
			c-0.676,0.768-1.563,0.965-2.521,0.775C59.49,43.039,59.074,42.742,58.977,41.848z"/>
		<path id="XMLID_31_" fill="#4265AE" d="M58.758,40.131c-0.051,0.336-0.092,0.619-0.139,0.927c-0.65,0-1.279,0-1.922,0
			c-0.074,0.381-0.146,0.736-0.221,1.137c0.832,0,1.613,0,2.418,0c-0.066,0.329-0.125,0.618-0.186,0.92c-1.18,0-2.35,0-3.551,0
			c0.096-0.496,0.191-0.983,0.283-1.468c0.207-1.077,0.418-2.151,0.617-3.23c0.033-0.179,0.09-0.265,0.299-0.262
			c1.025,0.014,2.051,0.006,3.074,0.006c0.068,0,0.139,0.008,0.236,0.013c-0.059,0.313-0.111,0.609-0.17,0.925
			c-0.729,0-1.441,0.008-2.154-0.003c-0.201-0.002-0.307,0.032-0.32,0.261c-0.018,0.249-0.086,0.495-0.135,0.775
			C57.52,40.131,58.113,40.131,58.758,40.131z"/>
		<path id="XMLID_30_" fill="#4265AE" d="M17.814,43.117c-1.198,0-2.353,0-3.547,0c0.063-0.348,0.119-0.682,0.183-1.012
			c0.243-1.238,0.488-2.477,0.728-3.715c0.025-0.128,0.032-0.233,0.212-0.232c1.096,0.008,2.191,0.005,3.286,0.008
			c0.016,0,0.032,0.011,0.093,0.029c-0.055,0.289-0.111,0.585-0.171,0.898c-0.805,0-1.598,0-2.422,0
			c-0.06,0.338-0.117,0.662-0.183,1.031c0.627,0,1.237,0,1.87,0c-0.049,0.328-0.093,0.612-0.141,0.924c-0.637,0-1.269,0-1.912,0
			c-0.075,0.377-0.145,0.727-0.225,1.123c0.793,0,1.572,0,2.407,0C17.927,42.518,17.871,42.813,17.814,43.117z"/>
		<path id="XMLID_27_" fill="#4265AE" d="M47.375,38.162c0.205,1.672,0.402,3.3,0.602,4.948c-0.426,0-0.826,0-1.25,0
			c-0.027-0.27-0.064-0.538-0.076-0.806c-0.01-0.164-0.08-0.217-0.23-0.215c-0.424,0.005-0.85-0.007-1.273,0.008
			c-0.078,0.004-0.189,0.079-0.23,0.152c-0.139,0.236-0.244,0.488-0.375,0.727c-0.035,0.064-0.117,0.14-0.184,0.145
			c-0.277,0.016-0.557,0.006-0.883,0.006c0.248-0.471,0.479-0.902,0.703-1.338c0.596-1.158,1.189-2.318,1.789-3.477
			c0.031-0.061,0.1-0.142,0.156-0.145C46.535,38.157,46.947,38.162,47.375,38.162z M46.354,39.508
			c-0.02-0.004-0.041-0.01-0.061-0.014c-0.27,0.557-0.539,1.113-0.814,1.688c0.361,0,0.684,0,1.055,0
			C46.471,40.609,46.414,40.06,46.354,39.508z"/>
		<path id="XMLID_24_" fill="#4265AE" d="M9.985,43.113c0.322-1.658,0.64-3.297,0.952-4.903c0.884,0,1.742-0.063,2.587,0.019
			c0.737,0.071,1.128,0.697,0.981,1.42c-0.098,0.475-0.304,0.902-0.709,1.227c-0.351,0.281-0.727,0.408-1.168,0.398
			c-0.386-0.009-0.773-0.002-1.157-0.002c-0.12,0.63-0.234,1.23-0.35,1.842C10.738,43.113,10.372,43.113,9.985,43.113z
			 M11.648,40.387c0.349,0,0.668,0.031,0.979-0.008c0.296-0.037,0.538-0.2,0.658-0.502c0.131-0.328,0.011-0.712-0.286-0.762
			c-0.359-0.063-0.729-0.065-1.093-0.094C11.817,39.495,11.737,39.914,11.648,40.387z"/>
		<path id="XMLID_23_" fill="#4265AE" d="M22.401,39.145c-0.363,0-0.698,0.011-1.032-0.004c-0.18-0.008-0.248,0.066-0.279,0.23
			c-0.19,0.99-0.383,1.98-0.576,2.971c-0.049,0.258-0.105,0.514-0.16,0.775c-0.376,0-0.736,0-1.128,0
			c0.257-1.32,0.51-2.625,0.771-3.965c-0.34,0-0.662,0-1.025,0c0.06-0.324,0.109-0.607,0.17-0.888
			c0.009-0.041,0.081-0.098,0.125-0.099c1.093-0.006,2.186-0.004,3.31-0.004C22.515,38.5,22.461,38.806,22.401,39.145z"/>
		<path id="XMLID_22_" fill="#4265AE" d="M52.672,38.173c0.387,0,0.744,0,1.152,0c-0.258,1.339-0.514,2.655-0.775,4.011
			c0.674,0,1.313,0,2,0c-0.063,0.337-0.117,0.633-0.174,0.934c-1.061,0-2.1,0-3.158,0C52.035,41.467,52.352,39.828,52.672,38.173z"
			/>
		<path id="XMLID_21_" fill="#4265AE" d="M51.631,42.19c-0.068,0.341-0.125,0.623-0.184,0.921c-1.039,0-2.074,0-3.137,0
			c0.096-0.51,0.184-1.008,0.281-1.504c0.207-1.059,0.422-2.113,0.617-3.174c0.039-0.197,0.094-0.293,0.313-0.277
			c0.279,0.02,0.563,0.004,0.879,0.004c-0.094,0.488-0.184,0.949-0.273,1.409c-0.156,0.801-0.307,1.602-0.469,2.4
			c-0.037,0.175,0.014,0.224,0.178,0.222c0.494-0.003,0.988-0.001,1.482-0.001C51.412,42.19,51.508,42.19,51.631,42.19z"/>
		<path id="XMLID_16_" fill="#4265AE" d="M38.502,43.115c-0.393,0-0.744,0-1.135,0c0.318-1.657,0.637-3.295,0.955-4.941
			c0.373,0,0.73,0,1.135,0C39.139,39.834,38.82,41.473,38.502,43.115z"/>
	</g>
	<g id="XMLID_4_">
		<path id="XMLID_14_" fill="#EE4737" d="M29.861,24.298c-0.326-0.063-0.437-0.096-0.549-0.105
			c-0.668-0.056-1.063-0.329-0.923-1.081c0.121-0.642-0.098-1.107-0.625-1.234c0.53-0.236,1.198-0.425,1.733-0.803
			c0.757-0.534,0.583-1.343-0.298-1.666c-0.452-0.166-0.916-0.292-1.465-0.465c1.377-0.352,1.416-0.428,0.897-1.912
			c0.823,0.234,1.533,0.437,2.421,0.689c-0.634-1.79-2.056-2.815-3.006-4.17c0.038-0.051,0.075-0.102,0.112-0.153
			c0.542,0.418,1.086,0.834,1.627,1.252c0.39,0.301,0.746,0.664,1.174,0.893c0.625,0.334,0.986,0.09,0.969-0.608
			c-0.013-0.515-0.096-1.028-0.123-1.543c-0.035-0.66,0.198-0.822,0.853-0.717c0.726,0.115,1.484,0.332,2.186,0.224
			c1.137-0.174,1.284-0.482,1.288-1.629c0-0.685,0.005-1.371,0.017-2.056c0-0.063,0.05-0.126,0.125-0.298
			c0.114,0.703,0.219,1.3,0.309,1.9c0.203,1.347,1.624,1.905,2.751,1.864c1.182-0.043,2.135-0.488,2.957-1.314
			c0.051,0.029,0.104,0.059,0.154,0.088c-0.117,0.377-0.184,0.781-0.361,1.126c-0.768,1.479,0.295,2.382,1.484,2.593
			c0.48,0.085,0.986,0.014,1.598,0.014c-1.334,1.979,0.27,2.841,1.391,3.949c-0.846,0.214-0.85,0.738-0.586,1.365
			c0.109,0.261,0.219,0.522,0.313,0.789c0.18,0.523,0.166,1.018-0.24,1.449c-0.064,0.068-0.111,0.151-0.17,0.224
			c-0.977,1.194-0.977,1.342,0.119,2.66c-1.4-0.713-1.998,0.171-2.582,1.023c-0.424,0.619-0.922,0.992-1.717,0.795
			c-0.598-0.148-0.795,0.359-0.816,0.724c-0.037,0.632,0.014,1.308,0.205,1.905c0.328,1.021,0.799,1.996,1.131,3.035
			c-0.945-1.27-1.893-2.537-2.873-3.857c-0.342,0.305-0.525,0.472-0.711,0.637c-0.053-0.021-0.109-0.027-0.127-0.057
			c-0.146-0.248-0.287-0.501-0.428-0.752c-0.205,0.207-0.449,0.391-0.605,0.631c-0.234,0.367-0.408,0.775-0.618,1.189
			c-0.152-0.751-0.25-1.463-0.452-2.144c-0.218-0.743-0.77-1.064-1.473-0.778c-0.54,0.217-1.159,0.562-1.437,1.031
			c-0.895,1.502-1.646,3.091-2.46,4.643c-0.091,0.174-0.226,0.334-0.369,0.471c-0.029,0.027-0.274-0.094-0.269-0.124
			c0.031-0.2,0.062-0.417,0.167-0.583c0.34-0.538,0.763-1.029,1.052-1.592c0.233-0.451,0.319-0.977,0.47-1.471
			c-0.094,0.021-0.188,0.043-0.282,0.063c-0.289-0.246-0.659-0.446-0.835-0.757c-0.102-0.184,0.049-0.749,0.178-0.781
			c0.412-0.104,0.866-0.039,1.494-0.039c0.009-0.142,0.164-0.58,0.02-0.732c-0.182-0.192-0.616-0.219-0.932-0.193
			c-0.334,0.027-0.658,0.198-0.997,0.311c0.083-0.381,0.206-0.732,0.219-1.088c0.006-0.16-0.168-0.405-0.322-0.473
			c-0.141-0.063-0.405,0.01-0.546,0.113c-0.315,0.235-0.59,0.527-0.907,0.819c-0.215-0.894-0.215-0.894-2.543-0.828
			C27.659,25.907,29.06,25.607,29.861,24.298z"/>
		<path id="XMLID_12_" fill="#EE4737" d="M27.023,20.064c-0.632,1.192-1.977,1.756-2.976,1.236c-0.588-0.306-0.77-0.777-0.515-1.337
			c0.249-0.545,0.756-0.742,1.336-0.553C25.567,19.638,26.272,19.838,27.023,20.064z"/>
		<path id="XMLID_11_" fill="#EE4737" d="M33.66,31.574c-0.19-0.135-0.514-0.245-0.546-0.41c-0.061-0.316-0.057-0.731,0.105-0.984
			c0.262-0.407,0.661-0.732,1.028-1.063c0.378-0.342,1.067-0.088,1.53,0.537c0.333,0.453,0.255,1.139-0.223,1.338
			C34.974,31.231,34.35,31.369,33.66,31.574z"/>
		<path id="XMLID_10_" fill="#EE4737" d="M43.381,29.473c-0.012,0.855-0.434,1.452-1.006,1.432
			c-0.727-0.027-1.055-0.501-1.053-1.526c0-0.509,0.574-1.05,1.125-1.062C43.152,28.303,43.393,28.601,43.381,29.473z"/>
		<path id="XMLID_9_" fill="#EE4737" d="M34.188,11.605c-0.531,0.022-1.075,0.006-1.099-0.728c-0.025-0.789,0.663-1.358,1.542-1.369
			c0.639-0.007,0.734,0.379,0.709,0.878C35.283,11.577,35.046,11.697,34.188,11.605z"/>
		<path id="XMLID_8_" fill="#EE4737" d="M42.834,10.36c-0.15-0.859,0.27-1.762,0.846-2.013c0.127-0.055,0.451,0.022,0.455,0.067
			c0.039,0.281,0.123,0.665-0.02,0.837C43.787,9.646,43.338,9.939,42.834,10.36z"/>
		<path id="XMLID_7_" fill="#EE4737" d="M42.535,14.167c0.104-0.197,0.168-0.44,0.322-0.582c0.414-0.374,0.85-0.729,1.313-1.039
			c0.148-0.099,0.406-0.034,0.611-0.044c-0.076,0.186-0.107,0.414-0.236,0.548c-0.342,0.35-0.707,0.684-1.098,0.978
			c-0.211,0.159-0.494,0.224-0.744,0.331C42.646,14.296,42.592,14.231,42.535,14.167z"/>
		<path id="XMLID_6_" fill="#EE4737" d="M36.816,32.034c0.538,0.479,0.522,0.94,0.174,1.269c-0.266,0.256-0.707,0.332-1.072,0.49
			c-0.075-0.104-0.151-0.205-0.227-0.309C36.066,33.002,36.44,32.519,36.816,32.034z"/>
		<path id="XMLID_5_" fill="#EE4737" d="M29.856,11.305c-0.046-0.779,0.306-1.127,0.833-0.842c0.21,0.116,0.325,0.402,0.484,0.61
			c-0.21,0.089-0.415,0.219-0.634,0.257C30.318,11.37,30.081,11.317,29.856,11.305z"/>
	</g>
</g>
</svg>
