<?xml version="1.0" encoding="utf-8"?>
<!-- Generator: Adobe Illustrator 16.0.0, SVG Export Plug-In . SVG Version: 6.00 Build 0)  -->
<!DOCTYPE svg PUBLIC "-//W3C//DTD SVG 1.1//EN" "http://www.w3.org/Graphics/SVG/1.1/DTD/svg11.dtd">
<svg version="1.1" id="Layer_1" xmlns="http://www.w3.org/2000/svg" xmlns:xlink="http://www.w3.org/1999/xlink" x="0px" y="0px"
	 width="72px" height="100px" viewBox="0 0 72 100" enable-background="new 0 0 72 100" xml:space="preserve">
<path id="fondo_x5F_icono" fill="#FFFFFF" d="M70.6,35.367c0-18.833-15.275-34.109-34.109-34.109
	c-18.833,0-34.109,15.276-34.109,34.109c0,1.444,0.1,2.836,0.274,4.229c0.447,5.275,4.18,25.503,33.86,60.233
	C71.42,59.002,70.451,38.852,70.451,38.852C70.551,37.707,70.6,36.562,70.6,35.367"/>
<path fill="#F59720" d="M36.285,5.65c16.342,0,29.637,13.295,29.637,29.636c0,1.059-0.043,2.073-0.133,3.097l-0.043,0.24
	l0.029,0.351c-0.016,0.934-0.703,18.929-29.464,53.872C25.623,79.85,17.618,67.721,12.487,56.736
	c-4.506-9.642-5.402-15.516-5.578-17.594L6.9,39.052L6.89,38.959c-0.162-1.286-0.24-2.487-0.24-3.673
	C6.65,18.945,19.945,5.65,36.285,5.65 M36.285,1C17.355,1,2,16.355,2,35.286c0,1.45,0.1,2.85,0.276,4.25
	c0.45,5.302,4.201,25.633,34.035,60.543c35.086-41.037,34.111-61.293,34.111-61.293c0.1-1.15,0.15-2.302,0.15-3.5
	C70.572,16.355,55.217,1,36.285,1"/>
<g id="triangiulo_inferior">
	<path fill="#F59720" d="M7.481,57.183C12.23,67.5,20.784,81.704,36.208,99.751c15.521-18.154,24.095-32.302,28.827-42.494
		c-8.219-5.589-18.139-8.855-28.827-8.855C25.565,48.402,15.68,51.639,7.481,57.183"/>
	<path fill="#FFFFFF" d="M41.943,73.224c-0.053,0.068-0.102,0.136-0.162,0.196c-0.496,0.496-1.303,0.496-1.801,0
		c-0.492-0.493-0.492-1.299,0-1.796c0.047-0.044,0.096-0.086,0.146-0.126c1.277-1.095,2.084-2.717,2.084-4.522
		c0-1.759-0.766-3.336-1.977-4.426c-0.092-0.055-0.176-0.117-0.254-0.198c-0.492-0.493-0.492-1.298,0-1.796
		c0.498-0.497,1.305-0.497,1.801,0c0.041,0.04,0.076,0.089,0.109,0.127c1.727,1.548,2.82,3.799,2.82,6.293
		C44.711,69.449,43.641,71.675,41.943,73.224 M32.28,62.555c0.089-0.052,0.177-0.118,0.253-0.192c0.497-0.5,0.497-1.303,0-1.8
		c-0.498-0.497-1.303-0.497-1.798,0c-0.034,0.033-0.07,0.076-0.098,0.109c-1.736,1.555-2.828,3.798-2.828,6.304
		c0,2.466,1.062,4.686,2.751,6.226c0.05,0.083,0.105,0.158,0.175,0.229c0.495,0.49,1.3,0.49,1.798,0
		c0.497-0.503,0.497-1.303,0-1.806c-0.042-0.035-0.083-0.069-0.122-0.102v-0.01c-1.289-1.094-2.11-2.718-2.11-4.537
		C30.302,65.227,31.067,63.646,32.28,62.555 M38.924,64.051c-0.023-0.019-0.041-0.04-0.057-0.057
		c-0.168-0.169-0.389-0.263-0.621-0.263c-0.238,0-0.459,0.094-0.627,0.263c-0.346,0.347-0.346,0.902,0,1.243
		c0.043,0.041,0.09,0.08,0.141,0.118c0.457,0.421,0.719,1.012,0.719,1.631c0,0.645-0.279,1.263-0.775,1.685l-0.018,0.013
		c-0.02,0.013-0.039,0.03-0.066,0.061c-0.166,0.162-0.252,0.384-0.252,0.621c0,0.235,0.086,0.458,0.252,0.622
		c0.168,0.169,0.389,0.263,0.627,0.263c0.232,0,0.453-0.094,0.621-0.263c0.027-0.027,0.057-0.061,0.086-0.098
		c0.809-0.752,1.266-1.811,1.266-2.903C40.219,65.874,39.754,64.803,38.924,64.051 M34.898,65.24
		c0.167-0.165,0.262-0.392,0.262-0.624c0-0.234-0.094-0.456-0.262-0.622c-0.17-0.169-0.389-0.258-0.622-0.258
		c-0.238,0-0.459,0.089-0.627,0.258c-0.012,0.017-0.032,0.038-0.046,0.057c-0.833,0.752-1.309,1.818-1.309,2.936
		c0,1.089,0.463,2.142,1.262,2.896c0.028,0.041,0.061,0.072,0.093,0.111c0.167,0.163,0.389,0.257,0.627,0.257
		c0.233,0,0.452-0.094,0.622-0.257c0.167-0.17,0.262-0.389,0.262-0.622c0-0.237-0.094-0.46-0.266-0.631
		c-0.02-0.02-0.034-0.03-0.052-0.044l-0.019-0.021c-0.494-0.426-0.785-1.04-0.785-1.688c0-0.619,0.262-1.206,0.715-1.631
		C34.805,65.322,34.855,65.285,34.898,65.24 M44.443,55.846c-0.041-0.045-0.098-0.082-0.154-0.124
		c-0.658-0.434-1.547-0.258-1.98,0.403c-0.406,0.613-0.277,1.436,0.289,1.894c0.018,0.014,0.039,0.021,0.055,0.037
		c0.018,0.013,0.037,0.034,0.059,0.044c2.705,1.987,4.471,5.192,4.471,8.804c0,6.033-4.893,10.919-10.924,10.919
		c-6.029,0-10.916-4.886-10.916-10.919c0-3.596,1.738-6.777,4.422-8.771h-0.004h0.004c0.653-0.444,0.82-1.326,0.379-1.978
		c-0.442-0.65-1.324-0.823-1.978-0.379c-0.042,0.025-0.08,0.057-0.122,0.091c-3.369,2.507-5.55,6.522-5.55,11.037
		c0,7.605,6.165,13.769,13.765,13.769c7.602,0,13.768-6.163,13.768-13.769C50.025,62.373,47.828,58.355,44.443,55.846"/>
</g>
<g id="repsol">
	<path id="repsol_-_letras" fill="#3C3D3D" d="M45.586,41.379c-0.346-1.873,1.369-3.943,3.535-4.543
		c2.518-0.506,4.637,0.461,5.023,2.395c0.268,1.888-1.189,3.865-3.627,4.434C48.209,44.093,45.984,43.266,45.586,41.379
		 M48.828,39.106c-0.842,0.962-1.061,2.217-0.484,2.801c0.576,0.583,1.727,0.278,2.57-0.684c0.842-0.962,1.061-2.216,0.484-2.802
		C50.822,37.838,49.672,38.144,48.828,39.106 M37.111,38.74c-0.016-0.254-0.139-0.443-0.366-0.565
		c-0.228-0.122-0.558-0.184-0.99-0.184h-0.44L34.9,39.917h0.352c0.609,0,1.078-0.09,1.403-0.296
		C36.984,39.41,37.135,39.126,37.111,38.74 M32.311,43.494c0,0-0.656,0.031-0.568-0.593l1.146-5.375
		c0.065-0.308,0.368-0.567,0.678-0.567h2.766c0.508,0,0.951,0.043,1.33,0.1c0.383,0.057,0.716,0.16,0.998,0.299
		c0.281,0.139,0.5,0.322,0.656,0.546c0.156,0.221,0.246,0.555,0.268,0.886c0.049,0.752-0.295,1.35-1.033,1.811
		c-0.733,0.461-1.788,0.625-3.163,0.625h-0.761l-0.484,2.27H32.311z M21.612,38.714c-0.017-0.262-0.129-0.446-0.338-0.555
		c-0.207-0.112-0.505-0.168-0.896-0.168h-0.622l-0.376,1.788h0.618c0.534,0,0.941-0.105,1.224-0.286
		C21.502,39.309,21.632,39.039,21.612,38.714 M18.58,43.494h-1.864c-0.129,0-0.616-0.05-0.537-0.593l1.146-5.365
		c0.065-0.308,0.368-0.558,0.678-0.558h3.152c0.458,0,0.856,0.027,1.198,0.078c0.345,0.053,0.645,0.143,0.901,0.271
		c0.252,0.129,0.422,0.252,0.59,0.504c0.175,0.26,0.219,0.453,0.243,0.766c0.054,0.75-0.27,1.256-0.936,1.684
		c-0.615,0.324-1.462,0.376-1.666,0.381c0,0-0.208,0.047,0.031,0.107c0,0,0.295,0.072,0.539,0.287
		c0.521,0.416,0.904,0.855,2.086,2.438h-2.793c0,0-0.48-0.961-1.48-2.4c-0.223-0.32-0.582-0.269-0.718-0.283L18.58,43.494z
		 M57.277,42.256h2.258l-0.154,0.715c-0.061,0.295-0.371,0.523-0.67,0.523h-3.557c-0.127,0-0.613-0.05-0.533-0.593l1.143-5.365
		c0.066-0.308,0.369-0.558,0.678-0.558l1.963,0.008L57.277,42.256z M28.018,39.641h2.964l-0.149,0.683
		c-0.058,0.303-0.369,0.556-0.677,0.556h-2.403l-0.289,1.377h2.968l-0.154,0.715c-0.062,0.295-0.372,0.523-0.671,0.523H25.34
		c-0.128,0-0.615-0.05-0.536-0.593l1.145-5.365c0.066-0.308,0.368-0.558,0.678-0.558h4.926l-0.149,0.714
		c-0.067,0.31-0.37,0.573-0.677,0.573h-2.407L28.018,39.641z M46.193,36.98l-0.148,0.713c-0.09,0.326-0.33,0.504-0.678,0.572h-0.158
		c-1.41,0-1.498,0.374-1.768,1.684l-0.336,1.543c-0.414,1.979-2.197,2.012-2.348,2.012l-3.572-0.003l0.15-0.692
		c0.091-0.344,0.347-0.553,0.678-0.553h0.857c1.41,0,1.5-0.395,1.77-1.701l0.336-1.559c0.424-1.969,2.572-2.014,2.904-2.014
		L46.193,36.98z"/>
	<g id="repsol_-_logo">
		<g>
			<defs>
				<path id="SVGID_1_" d="M26.45,19.754c-0.675,0.068-1.745,0.149-2.534,0.251c-1.383,0.181-2.64,0.364-2.746,0.489
					c-0.285,0.338,1.608,0.588,4.496,0.625c0.197,0.002,0.402,0.003,0.609,0.004c0.043-0.445,0.113-0.897,0.21-1.357l0.003-0.015
					C26.475,19.752,26.462,19.754,26.45,19.754"/>
			</defs>
			<clipPath id="SVGID_2_">
				<use xlink:href="#SVGID_1_"  overflow="visible"/>
			</clipPath>
			
				<linearGradient id="SVGID_3_" gradientUnits="userSpaceOnUse" x1="-458.5313" y1="722.2402" x2="-457.8032" y2="722.2402" gradientTransform="matrix(0.3749 2.1262 2.1262 -0.3749 -1340.1152 1265.6934)">
				<stop  offset="0" style="stop-color:#CD4E1E"/>
				<stop  offset="0.2393" style="stop-color:#DC691E"/>
				<stop  offset="0.5262" style="stop-color:#EA821E"/>
				<stop  offset="0.7881" style="stop-color:#F2911E"/>
				<stop  offset="1" style="stop-color:#F5961E"/>
			</linearGradient>
			<polygon clip-path="url(#SVGID_2_)" fill="url(#SVGID_3_)" points="26.319,18.793 26.723,21.083 21.054,22.082 20.65,19.792 			
				"/>
		</g>
		<g>
			<defs>
				<path id="SVGID_4_" d="M28.985,14.292c0,0-6.459,0.462-6.798,1.037c-1.02,1.951-1.046,5.219-1.046,5.219l0.004-0.011
					c0.004-0.015,0.013-0.027,0.025-0.042c0.105-0.125,1.363-0.309,2.745-0.489c0.79-0.102,1.859-0.181,2.535-0.249
					c0.011-0.002,0.024-0.004,0.037-0.005l-0.001,0.001c2.244-0.223,6.524-0.529,8.971-0.597c5.995-0.166,11.165-0.119,14.751,0.046
					c1.041-6.271-3.068-11.262-9.404-11.262C36.253,7.939,31.759,10.518,28.985,14.292"/>
			</defs>
			<clipPath id="SVGID_5_">
				<use xlink:href="#SVGID_4_"  overflow="visible"/>
			</clipPath>
			
				<linearGradient id="SVGID_6_" gradientUnits="userSpaceOnUse" x1="-288.8252" y1="631.8623" x2="-288.0975" y2="631.8623" gradientTransform="matrix(21.9083 21.9083 21.9083 -21.9083 -7485.6563 20178.4688)">
				<stop  offset="0" style="stop-color:#FDBF4B"/>
				<stop  offset="0.1013" style="stop-color:#F7A732"/>
				<stop  offset="0.1963" style="stop-color:#F2951F"/>
				<stop  offset="0.4965" style="stop-color:#F2931F"/>
				<stop  offset="0.657" style="stop-color:#F18B1E"/>
				<stop  offset="0.7845" style="stop-color:#EF7D1E"/>
				<stop  offset="0.8938" style="stop-color:#ED6A1D"/>
				<stop  offset="0.9918" style="stop-color:#EA511B"/>
				<stop  offset="1" style="stop-color:#EA4F1B"/>
			</linearGradient>
			<polygon clip-path="url(#SVGID_5_)" fill="url(#SVGID_6_)" points="36.196,-7.114 57.553,14.243 36.196,35.6 14.839,14.243 			
				"/>
		</g>
		<g>
			<path fill="#E4152E" d="M48.096,24.506c-1.01,1.545-8.668-0.072-11.702,0.024c-0.012,0.001-1.408,0.05-1.45,0.053
				c-3.273,0.133-6.045,0.341-8.304,0.563c0,0,0,0,0,0.001c1.15,3.814,4.564,6.424,9.146,6.424
				C40.613,31.57,45.383,28.66,48.096,24.506z"/>
		</g>
		<g>
			<defs>
				<path id="SVGID_7_" d="M35.46,19.154c-2.447,0.066-6.729,0.373-8.972,0.596c-0.053,0.25-0.133,0.658-0.196,1.2
					c0,0.011,0,0.021-0.001,0.032c-0.022,0.185-0.037,0.368-0.049,0.553c0,0.01-0.002,0.022-0.003,0.035
					c-0.01,0.178-0.016,0.355-0.017,0.53c-0.002,0.111,0.001,0.222,0.005,0.331c0,0.092,0,0.184,0.005,0.275
					c0.007,0.194,0.021,0.389,0.04,0.577c0.005,0.055,0.015,0.11,0.02,0.164c0.018,0.147,0.035,0.296,0.059,0.442
					c0.01,0.06,0.022,0.117,0.032,0.176c0.025,0.141,0.052,0.281,0.083,0.419c0.012,0.056,0.025,0.108,0.039,0.163
					c0.036,0.143,0.072,0.286,0.114,0.425c0.007,0.024,0.014,0.048,0.021,0.073c2.257-0.223,5.032-0.432,8.307-0.563
					c0.041-0.003,1.437-0.052,1.449-0.054c3.033-0.096,9.855-0.041,11.705-0.023c0.293,0.003,0.473,0.004,0.473,0.004
					c1.551,0.023,2.186,0.039,3.799,0.124c0.746,0.04,1.98,0.086,2.047,0.247c0,0.004,0,0.004,0,0.004c0-0.001,0-0.001,0,0.002
					c-0.004,0.004-0.004,0.01-0.008,0.014l0.002,0.002c1.021-1.888,1.035-5.018,1.035-5.018c0.053-0.271-1.898-0.533-5.234-0.684
					c-2.045-0.096-4.605-0.15-7.539-0.15C40.463,19.051,38.037,19.082,35.46,19.154"/>
			</defs>
			<clipPath id="SVGID_8_">
				<use xlink:href="#SVGID_7_"  overflow="visible"/>
			</clipPath>
			
				<linearGradient id="SVGID_9_" gradientUnits="userSpaceOnUse" x1="-282.9268" y1="630.373" x2="-282.199" y2="630.373" gradientTransform="matrix(36.2181 13.1823 13.1823 -36.2181 1964.6875 26577.7656)">
				<stop  offset="0" style="stop-color:#89898A"/>
				<stop  offset="0.0298" style="stop-color:#A2A2A2"/>
				<stop  offset="0.0783" style="stop-color:#C3C3C4"/>
				<stop  offset="0.1281" style="stop-color:#DDDDDE"/>
				<stop  offset="0.1789" style="stop-color:#F0F0F0"/>
				<stop  offset="0.2314" style="stop-color:#FBFBFB"/>
				<stop  offset="0.2883" style="stop-color:#FFFFFF"/>
				<stop  offset="0.4968" style="stop-color:#FCFCFD"/>
				<stop  offset="0.6208" style="stop-color:#F4F4F4"/>
				<stop  offset="0.7227" style="stop-color:#E6E6E6"/>
				<stop  offset="0.8127" style="stop-color:#D2D2D2"/>
				<stop  offset="0.8946" style="stop-color:#B8B8B8"/>
				<stop  offset="0.9698" style="stop-color:#989899"/>
				<stop  offset="1" style="stop-color:#89898A"/>
			</linearGradient>
			<polygon clip-path="url(#SVGID_8_)" fill="url(#SVGID_9_)" points="29.645,9.641 57.459,19.764 52.074,34.557 24.261,24.434 			
				"/>
		</g>
		<g>
			<defs>
				<path id="SVGID_10_" d="M36.394,24.529c-0.012,0.002-1.407,0.051-1.451,0.053c-3.271,0.133-6.044,0.342-8.303,0.563
					c0,0.001,0,0.001,0,0.001c0.603,2.002,1.83,3.672,3.523,4.809c1.533,1.027,3.446,1.615,5.623,1.615
					c4.828,0,9.597-2.91,12.312-7.064c-1.039-0.01-3.652-0.031-6.279-0.031C39.773,24.475,37.722,24.487,36.394,24.529"/>
			</defs>
			<clipPath id="SVGID_11_">
				<use xlink:href="#SVGID_10_"  overflow="visible"/>
			</clipPath>
			<defs>
				<filter id="Adobe_OpacityMaskFilter" filterUnits="userSpaceOnUse" x="26.64" y="24.474" width="21.458" height="7.097">
					<feColorMatrix  type="matrix" values="1 0 0 0 0  0 1 0 0 0  0 0 1 0 0  0 0 0 1 0"/>
				</filter>
			</defs>
			<mask maskUnits="userSpaceOnUse" x="26.64" y="24.474" width="21.458" height="7.097" id="SVGID_12_">
				<g filter="url(#Adobe_OpacityMaskFilter)">
					
						<linearGradient id="SVGID_13_" gradientUnits="userSpaceOnUse" x1="-240.2949" y1="603.7373" x2="-239.5669" y2="603.7373" gradientTransform="matrix(0 -9.7472 -9.7472 0 5922.125 -2310.6328)">
						<stop  offset="0" style="stop-color:#4D4D4D"/>
						<stop  offset="0.4969" style="stop-color:#000000"/>
						<stop  offset="0.5398" style="stop-color:#080808"/>
						<stop  offset="0.6076" style="stop-color:#1F1F1F"/>
						<stop  offset="0.6917" style="stop-color:#444444"/>
						<stop  offset="0.7889" style="stop-color:#787878"/>
						<stop  offset="0.8956" style="stop-color:#B8B8B8"/>
						<stop  offset="1" style="stop-color:#FFFFFF"/>
					</linearGradient>
					<rect x="26.64" y="24.475" clip-path="url(#SVGID_11_)" fill="url(#SVGID_13_)" width="21.458" height="7.096"/>
				</g>
			</mask>
			
				<linearGradient id="SVGID_14_" gradientUnits="userSpaceOnUse" x1="-240.2949" y1="603.7383" x2="-239.5669" y2="603.7383" gradientTransform="matrix(0 -9.7472 -9.7472 0 5922.1328 -2310.625)">
				<stop  offset="0" style="stop-color:#6E0A1B"/>
				<stop  offset="0.4969" style="stop-color:#9F0B27"/>
				<stop  offset="0.6371" style="stop-color:#970B25"/>
				<stop  offset="0.8574" style="stop-color:#800A1F"/>
				<stop  offset="1" style="stop-color:#6E0A1B"/>
			</linearGradient>
			
				<rect x="26.64" y="24.475" clip-path="url(#SVGID_11_)" mask="url(#SVGID_12_)" fill="url(#SVGID_14_)" width="21.458" height="7.096"/>
		</g>
		<g>
			<defs>
				<path id="SVGID_15_" d="M28.985,14.292c1.995-0.187,4.601-0.336,7.154-0.381c0.499-0.008,1.457-0.21,1.994-1.009
					c0.998-1.484,1.982-2.985,3.385-3.485c0.023-0.011,0.047-0.02,0.072-0.03c2.131-0.813,4.943,1.166,6.885,4.59
					c0.344,0.001,0.939,0,1.35,0c-1.256-3.603-4.596-6.037-9.02-6.037C36.255,7.939,31.759,10.521,28.985,14.292"/>
			</defs>
			<clipPath id="SVGID_16_">
				<use xlink:href="#SVGID_15_"  overflow="visible"/>
			</clipPath>
			<defs>
				<filter id="Adobe_OpacityMaskFilter_1_" filterUnits="userSpaceOnUse" x="26.944" y="1.243" width="24.923" height="19.746">
					<feColorMatrix  type="matrix" values="1 0 0 0 0  0 1 0 0 0  0 0 1 0 0  0 0 0 1 0"/>
				</filter>
			</defs>
			<mask maskUnits="userSpaceOnUse" x="26.944" y="1.243" width="24.923" height="19.746" id="SVGID_17_">
				<g filter="url(#Adobe_OpacityMaskFilter_1_)">
					
						<linearGradient id="SVGID_18_" gradientUnits="userSpaceOnUse" x1="-282.8784" y1="635.3008" x2="-282.15" y2="635.3008" gradientTransform="matrix(25.1368 9.149 9.149 -25.1368 1329.5 18565.625)">
						<stop  offset="0" style="stop-color:#FFFFFF"/>
						<stop  offset="0.0859" style="stop-color:#FFFFFF"/>
						<stop  offset="0.6866" style="stop-color:#5D5D5D"/>
						<stop  offset="1" style="stop-color:#0D0D0D"/>
					</linearGradient>
					<polygon clip-path="url(#SVGID_16_)" fill="url(#SVGID_18_)" points="31.423,1.243 51.867,8.682 47.389,20.988 26.944,13.548 
											"/>
				</g>
			</mask>
			
				<linearGradient id="SVGID_19_" gradientUnits="userSpaceOnUse" x1="-282.8784" y1="635.3008" x2="-282.15" y2="635.3008" gradientTransform="matrix(25.1368 9.149 9.149 -25.1368 1329.5313 18565.6094)">
				<stop  offset="0" style="stop-color:#FDBF4B"/>
				<stop  offset="0.0859" style="stop-color:#FDBF4B"/>
				<stop  offset="1" style="stop-color:#ED821E"/>
			</linearGradient>
			<polygon clip-path="url(#SVGID_16_)" mask="url(#SVGID_17_)" fill="url(#SVGID_19_)" points="31.423,1.243 51.867,8.682 
				47.389,20.988 26.944,13.548 			"/>
		</g>
		<g>
			<defs>
				<path id="SVGID_20_" d="M38.33,24.492c-0.496,0.407-1.068,1.008-1.328,1.549c-1.758,2.973-2.37,5.888-7.808,1.438
					c0,0-0.866-0.078-1.454,0.035c0.599,0.908,1.36,1.693,2.257,2.326c0.066,0.043,0.124,0.082,0.168,0.115
					c0.101,0.064,0.202,0.131,0.307,0.196c1.477,0.905,3.28,1.419,5.313,1.419c4.828,0,9.597-2.91,12.312-7.064
					c-0.459-0.004-1.223-0.011-2.16-0.018c-1.186-0.006-2.666-0.013-4.133-0.013C40.576,24.476,39.359,24.48,38.33,24.492"/>
			</defs>
			<clipPath id="SVGID_21_">
				<use xlink:href="#SVGID_20_"  overflow="visible"/>
			</clipPath>
			<defs>
				<filter id="Adobe_OpacityMaskFilter_2_" filterUnits="userSpaceOnUse" x="24.158" y="14.691" width="27.521" height="27.021">
					<feColorMatrix  type="matrix" values="1 0 0 0 0  0 1 0 0 0  0 0 1 0 0  0 0 0 1 0"/>
				</filter>
			</defs>
			<mask maskUnits="userSpaceOnUse" x="24.158" y="14.691" width="27.521" height="27.021" id="SVGID_22_">
				<g filter="url(#Adobe_OpacityMaskFilter_2_)">
					
						<linearGradient id="SVGID_23_" gradientUnits="userSpaceOnUse" x1="-262.6626" y1="625.209" x2="-261.9345" y2="625.209" gradientTransform="matrix(12.5291 -16.6267 -16.6267 -12.5291 13720.3594 3499.1563)">
						<stop  offset="0" style="stop-color:#000000"/>
						<stop  offset="0.0123" style="stop-color:#000000"/>
						<stop  offset="0.0503" style="stop-color:#131313"/>
						<stop  offset="0.1547" style="stop-color:#444444"/>
						<stop  offset="0.2586" style="stop-color:#6B6B6B"/>
						<stop  offset="0.3602" style="stop-color:#8A8A8A"/>
						<stop  offset="0.4588" style="stop-color:#A1A1A1"/>
						<stop  offset="0.553" style="stop-color:#AEAEAE"/>
						<stop  offset="0.638" style="stop-color:#B3B3B3"/>
						<stop  offset="1" style="stop-color:#FFFFFF"/>
					</linearGradient>
					<polygon clip-path="url(#SVGID_21_)" fill="url(#SVGID_23_)" points="24.158,29.23 35.113,14.691 51.68,27.175 40.725,41.713 
											"/>
				</g>
			</mask>
			
				<linearGradient id="SVGID_24_" gradientUnits="userSpaceOnUse" x1="-262.6626" y1="625.209" x2="-261.9345" y2="625.209" gradientTransform="matrix(12.5291 -16.6267 -16.6267 -12.5291 13720.3594 3499.1563)">
				<stop  offset="0" style="stop-color:#DF0032"/>
				<stop  offset="0.0123" style="stop-color:#DF0032"/>
				<stop  offset="0.1169" style="stop-color:#C3032B"/>
				<stop  offset="0.2557" style="stop-color:#A40724"/>
				<stop  offset="0.3913" style="stop-color:#8E0A1F"/>
				<stop  offset="0.5209" style="stop-color:#810B1C"/>
				<stop  offset="0.638" style="stop-color:#7C0C1B"/>
				<stop  offset="1" style="stop-color:#7E0D1B"/>
			</linearGradient>
			<polygon clip-path="url(#SVGID_21_)" mask="url(#SVGID_22_)" fill="url(#SVGID_24_)" points="24.158,29.23 35.113,14.691 
				51.68,27.175 40.725,41.713 			"/>
		</g>
		<g>
			<defs>
				<path id="SVGID_25_" d="M54.418,24.881C54.418,24.883,54.418,24.884,54.418,24.881 M54.418,24.875c0,0.001,0,0.002,0,0.004
					c0,0,0,0.001,0,0.002c0-0.001,0-0.002,0-0.003c0-0.002,0-0.005,0-0.005S54.418,24.873,54.418,24.875 M48.09,24.508h0.008
					c-0.271,0.412-0.559,0.826-0.865,1.169l0,0c4.248-0.136,7.051-0.413,7.186-0.798c-0.08-0.16-1.303-0.207-2.045-0.246
					c-1.615-0.086-2.248-0.1-3.799-0.123c0,0-0.182-0.001-0.479-0.004L48.09,24.508z"/>
			</defs>
			<clipPath id="SVGID_26_">
				<use xlink:href="#SVGID_25_"  overflow="visible"/>
			</clipPath>
			
				<linearGradient id="SVGID_27_" gradientUnits="userSpaceOnUse" x1="-25.4248" y1="529.708" x2="-24.6963" y2="529.708" gradientTransform="matrix(0 -1.608 -1.608 0 902.5957 -15.2051)">
				<stop  offset="0" style="stop-color:#C2C4C4"/>
				<stop  offset="0.0061" style="stop-color:#C2C4C4"/>
				<stop  offset="0.1803" style="stop-color:#BBBDBD"/>
				<stop  offset="0.4367" style="stop-color:#A7AAAA"/>
				<stop  offset="0.7423" style="stop-color:#878B8B"/>
				<stop  offset="1" style="stop-color:#666B6C"/>
			</linearGradient>
			<rect x="47.232" y="24.506" clip-path="url(#SVGID_26_)" fill="url(#SVGID_27_)" width="7.186" height="1.171"/>
		</g>
	</g>
</g>
</svg>
