<?xml version="1.0" encoding="utf-8"?>
<!-- Generator: Adobe Illustrator 16.0.0, SVG Export Plug-In . SVG Version: 6.00 Build 0)  -->
<!DOCTYPE svg PUBLIC "-//W3C//DTD SVG 1.1//EN" "http://www.w3.org/Graphics/SVG/1.1/DTD/svg11.dtd">
<svg version="1.1" id="Layer_1" xmlns="http://www.w3.org/2000/svg" xmlns:xlink="http://www.w3.org/1999/xlink" x="0px" y="0px"
	 width="72px" height="100px" viewBox="0 0 72 100" enable-background="new 0 0 72 100" xml:space="preserve">
<path id="fondo_x5F_icono" fill="#FFFFFF" d="M70.6,35.367c0-18.833-15.275-34.109-34.109-34.109
	c-18.833,0-34.109,15.276-34.109,34.109c0,1.444,0.1,2.836,0.274,4.229c0.447,5.275,4.18,25.503,33.86,60.233
	C71.42,59.002,70.451,38.852,70.451,38.852C70.551,37.707,70.6,36.562,70.6,35.367"/>
<path fill="#F59720" d="M36.285,5.65c16.342,0,29.637,13.295,29.637,29.636c0,1.059-0.043,2.073-0.133,3.097l-0.043,0.24
	l0.029,0.351c-0.016,0.934-0.703,18.929-29.464,53.872C25.623,79.85,17.618,67.721,12.487,56.736
	c-4.506-9.642-5.402-15.516-5.578-17.594L6.9,39.052L6.89,38.959c-0.162-1.286-0.24-2.487-0.24-3.673
	C6.65,18.945,19.945,5.65,36.285,5.65 M36.285,1C17.355,1,2,16.355,2,35.286c0,1.45,0.1,2.85,0.276,4.25
	c0.45,5.302,4.201,25.633,34.035,60.543c35.086-41.037,34.111-61.293,34.111-61.293c0.1-1.15,0.15-2.302,0.15-3.5
	C70.572,16.355,55.217,1,36.285,1"/>
<g id="triangiulo_inferior">
	<path fill="#F59720" d="M7.481,57.183C12.23,67.5,20.784,81.704,36.208,99.751c15.521-18.154,24.095-32.302,28.827-42.494
		c-8.219-5.589-18.139-8.855-28.827-8.855C25.565,48.402,15.68,51.639,7.481,57.183"/>
	<path fill="#FFFFFF" d="M41.943,73.224c-0.053,0.068-0.102,0.136-0.162,0.196c-0.496,0.496-1.303,0.496-1.801,0
		c-0.492-0.493-0.492-1.299,0-1.796c0.047-0.044,0.096-0.086,0.146-0.126c1.277-1.095,2.084-2.717,2.084-4.522
		c0-1.759-0.766-3.336-1.977-4.426c-0.092-0.055-0.176-0.117-0.254-0.198c-0.492-0.493-0.492-1.298,0-1.796
		c0.498-0.497,1.305-0.497,1.801,0c0.041,0.04,0.076,0.089,0.109,0.127c1.727,1.548,2.82,3.799,2.82,6.293
		C44.711,69.449,43.641,71.675,41.943,73.224 M32.28,62.555c0.089-0.052,0.177-0.118,0.253-0.192c0.497-0.5,0.497-1.303,0-1.8
		c-0.498-0.497-1.303-0.497-1.798,0c-0.034,0.033-0.07,0.076-0.098,0.109c-1.736,1.555-2.828,3.798-2.828,6.304
		c0,2.466,1.062,4.686,2.751,6.226c0.05,0.083,0.105,0.158,0.175,0.229c0.495,0.49,1.3,0.49,1.798,0
		c0.497-0.503,0.497-1.303,0-1.806c-0.042-0.035-0.083-0.069-0.122-0.102v-0.01c-1.289-1.094-2.11-2.718-2.11-4.537
		C30.302,65.227,31.067,63.646,32.28,62.555 M38.924,64.051c-0.023-0.019-0.041-0.04-0.057-0.057
		c-0.168-0.169-0.389-0.263-0.621-0.263c-0.238,0-0.459,0.094-0.627,0.263c-0.346,0.347-0.346,0.902,0,1.243
		c0.043,0.041,0.09,0.08,0.141,0.118c0.457,0.421,0.719,1.012,0.719,1.631c0,0.645-0.279,1.263-0.775,1.685l-0.018,0.013
		c-0.02,0.013-0.039,0.03-0.066,0.061c-0.166,0.162-0.252,0.384-0.252,0.621c0,0.235,0.086,0.458,0.252,0.622
		c0.168,0.169,0.389,0.263,0.627,0.263c0.232,0,0.453-0.094,0.621-0.263c0.027-0.027,0.057-0.061,0.086-0.098
		c0.809-0.752,1.266-1.811,1.266-2.903C40.219,65.874,39.754,64.803,38.924,64.051 M34.898,65.24
		c0.167-0.165,0.262-0.392,0.262-0.624c0-0.234-0.094-0.456-0.262-0.622c-0.17-0.169-0.389-0.258-0.622-0.258
		c-0.238,0-0.459,0.089-0.627,0.258c-0.012,0.017-0.032,0.038-0.046,0.057c-0.833,0.752-1.309,1.818-1.309,2.936
		c0,1.089,0.463,2.142,1.262,2.896c0.028,0.041,0.061,0.072,0.093,0.111c0.167,0.163,0.389,0.257,0.627,0.257
		c0.233,0,0.452-0.094,0.622-0.257c0.167-0.17,0.262-0.389,0.262-0.622c0-0.237-0.094-0.46-0.266-0.631
		c-0.02-0.02-0.034-0.03-0.052-0.044l-0.019-0.021c-0.494-0.426-0.785-1.04-0.785-1.688c0-0.619,0.262-1.206,0.715-1.631
		C34.805,65.322,34.855,65.285,34.898,65.24 M44.443,55.846c-0.041-0.045-0.098-0.082-0.154-0.124
		c-0.658-0.434-1.547-0.258-1.98,0.403c-0.406,0.613-0.277,1.436,0.289,1.894c0.018,0.014,0.039,0.021,0.055,0.037
		c0.018,0.013,0.037,0.034,0.059,0.044c2.705,1.987,4.471,5.192,4.471,8.804c0,6.033-4.893,10.919-10.924,10.919
		c-6.029,0-10.916-4.886-10.916-10.919c0-3.596,1.738-6.777,4.422-8.771h-0.004h0.004c0.653-0.444,0.82-1.326,0.379-1.978
		c-0.442-0.65-1.324-0.823-1.978-0.379c-0.042,0.025-0.08,0.057-0.122,0.091c-3.369,2.507-5.55,6.522-5.55,11.037
		c0,7.605,6.165,13.769,13.765,13.769c7.602,0,13.768-6.163,13.768-13.769C50.025,62.373,47.828,58.355,44.443,55.846"/>
</g>
<g id="shell">
	<g id="XMLID_770_">
		<path id="XMLID_950_" fill="#ED1C2E" d="M38.99,41.155h2.855c-0.023-0.527-0.49-1.137-1.443-1.137
			C39.447,40.019,39.01,40.753,38.99,41.155z M43.617,42.714c-0.229,0.699-1.162,1.664-3.215,1.664c-2.115,0-3.48-1.135-3.48-2.637
			c0-1.184,1.053-2.67,3.398-2.67c2.82,0,3.459,1.773,3.412,3.031h-4.697c-0.016,0.676,0.537,1.233,1.377,1.233
			c0.842,0,1.146-0.438,1.154-0.616h2.051V42.714z"/>
		<g id="XMLID_858_">
			<g id="XMLID_946_">
				<g id="XMLID_947_">
					<rect id="XMLID_949_" x="44.926" y="37.649" fill="#ED1C2E" width="2.072" height="6.539"/>
					<path id="XMLID_948_" fill="#ED1C2E" d="M45.963,40.919"/>
				</g>
			</g>
			<g id="XMLID_863_">
				<g id="XMLID_942_">
					<rect id="XMLID_945_" x="48.746" y="37.649" fill="#ED1C2E" width="2.117" height="6.539"/>
					<path id="XMLID_943_" fill="#ED1C2E" d="M49.803,40.919"/>
				</g>
			</g>
			<g id="XMLID_861_">
				<path id="XMLID_862_" fill="#ED1C2E" d="M33.743,39.058c1.457,0,2.058,0.785,2.21,1.814v3.316h-2.024v-2.852v-0.134
					c0-0.373-0.268-0.9-1.038-0.9c-0.772,0-1.182,0.509-1.309,1.231v2.654h-2.071v-6.539h2.071v2.133
					C32.183,39.367,32.976,39.058,33.743,39.058L33.743,39.058z"/>
			</g>
			<path id="XMLID_859_" fill="#ED1C2E" d="M23.299,42.103c-0.083,0.589,0.552,1.092,1.444,1.092c1.006,0,1.451-0.375,1.451-0.877
				c0-0.438-0.31-0.664-1.345-0.664c-2.739-0.035-3.475-0.711-3.486-1.943c-0.009-0.967,0.648-2.156,3.405-2.156
				c2.626,0,3.361,0.85,3.408,2.133h-2.116l0,0c-0.009-0.688-0.396-1.042-1.305-1.042c-0.908,0-1.23,0.462-1.23,0.746
				s0.172,0.723,1.243,0.723c2.247,0.052,3.59,0.376,3.59,1.872c0,1.314-1.049,2.333-3.73,2.298
				c-2.606,0.034-3.492-0.855-3.492-2.181H23.299L23.299,42.103z"/>
		</g>
	</g>
	<polygon id="XMLID_856_" fill-rule="evenodd" clip-rule="evenodd" fill="#ED1C24" points="34.603,35.741 34.18,35.438 
		26.18,35.438 25.438,29.522 23.018,27.766 21.805,26.888 20.591,26.009 20.456,25.211 20.36,24.421 20.304,23.63 20.288,22.84 
		20.313,22.058 20.376,21.283 20.472,20.517 20.608,19.766 20.688,19.391 20.774,19.024 20.879,18.649 20.982,18.29 21.102,17.922 
		21.222,17.563 21.357,17.204 21.494,16.844 21.646,16.501 21.805,16.15 21.965,15.807 22.14,15.471 22.323,15.136 22.507,14.809 
		22.708,14.489 22.908,14.17 23.114,13.858 23.338,13.547 23.561,13.252 23.794,12.948 24.032,12.661 24.281,12.374 24.536,12.094 
		24.799,11.823 25.07,11.552 25.342,11.288 25.621,11.041 25.909,10.785 26.204,10.545 26.507,10.314 26.811,10.082 27.122,9.867 
		27.281,9.763 27.441,9.659 27.601,9.555 27.769,9.452 27.929,9.348 28.096,9.252 28.264,9.156 28.432,9.06 28.607,8.965 
		28.774,8.876 28.95,8.789 29.126,8.701 29.302,8.621 29.477,8.533 29.653,8.462 29.829,8.382 29.916,8.342 30.004,8.31 30.1,8.271 
		30.188,8.23 30.284,8.198 30.371,8.159 30.467,8.126 30.555,8.086 30.651,8.055 30.746,8.023 30.842,7.99 30.931,7.959 
		31.026,7.926 31.122,7.895 31.209,7.863 31.306,7.839 31.394,7.815 31.489,7.783 31.584,7.759 31.68,7.728 31.777,7.703 
		31.881,7.671 31.976,7.647 32.071,7.624 32.167,7.6 32.263,7.576 32.367,7.551 32.463,7.528 32.559,7.503 32.663,7.48 
		32.758,7.456 32.854,7.432 33.054,7.392 33.253,7.36 33.453,7.32 33.645,7.296 33.843,7.264 34.044,7.241 34.235,7.216 
		34.435,7.192 34.635,7.176 34.827,7.161 35.026,7.152 35.217,7.137 35.417,7.128 35.61,7.128 35.809,7.121 36,7.121 36.199,7.121 
		36.391,7.128 36.582,7.128 36.783,7.144 36.973,7.152 37.166,7.168 37.365,7.184 37.557,7.2 37.748,7.224 37.939,7.248 
		38.131,7.272 38.322,7.296 38.506,7.328 38.697,7.36 38.891,7.392 39.074,7.432 39.256,7.472 39.447,7.512 39.633,7.551 
		39.816,7.6 40,7.647 40.184,7.695 40.367,7.751 40.549,7.807 40.734,7.863 40.916,7.919 41.094,7.983 41.277,8.047 41.453,8.11 
		41.637,8.182 41.811,8.246 41.986,8.318 42.164,8.398 42.34,8.47 42.506,8.55 42.682,8.629 42.85,8.709 43.025,8.797 43.193,8.876 
		43.359,8.965 43.527,9.053 43.688,9.149 43.855,9.236 44.014,9.332 44.176,9.428 44.336,9.532 44.494,9.627 44.652,9.731 
		44.965,9.938 45.268,10.162 45.572,10.386 45.867,10.617 46.162,10.857 46.443,11.104 46.721,11.359 46.994,11.624 47.264,11.895 
		47.527,12.166 47.783,12.454 48.031,12.741 48.27,13.036 48.502,13.34 48.734,13.643 48.947,13.955 49.164,14.274 49.373,14.601 
		49.572,14.936 49.756,15.271 49.939,15.615 50.115,15.958 50.281,16.318 50.443,16.669 50.586,17.036 50.73,17.403 50.855,17.778 
		50.984,18.154 51.096,18.537 51.199,18.92 51.289,19.311 51.377,19.711 51.52,20.493 51.631,21.275 51.688,22.066 51.711,22.856 
		51.688,23.646 51.631,24.437 51.52,25.227 51.377,26.009 46.537,29.522 45.795,35.438 37.814,35.438 37.332,35.741 37.18,35.853 
		37.021,35.949 36.854,36.029 36.688,36.093 36.51,36.141 36.336,36.181 36.16,36.205 35.977,36.205 35.792,36.205 35.616,36.181 
		35.441,36.141 35.266,36.093 35.09,36.029 34.922,35.949 34.762,35.853 34.603,35.741 	"/>
	<polygon id="XMLID_855_" fill-rule="evenodd" clip-rule="evenodd" fill="#FFD400" points="35.289,33.29 34.411,32.668 
		28.624,32.668 28.001,27.95 23.226,24.484 23.106,23.942 23.043,23.383 23.018,22.824 23.05,22.265 23.122,21.707 23.243,21.156 
		23.394,20.612 23.586,20.086 32.088,28.646 23.849,18.521 23.913,18.273 23.984,18.034 24.072,17.786 24.161,17.555 24.264,17.323 
		24.375,17.092 24.496,16.869 24.623,16.653 24.767,16.437 24.911,16.23 25.063,16.03 25.222,15.838 25.39,15.647 25.557,15.463 
		25.741,15.288 25.925,15.121 33.285,27.821 26.738,13.922 26.907,13.715 27.082,13.515 27.258,13.315 27.449,13.132 27.641,12.957 
		27.833,12.781 28.041,12.621 28.249,12.462 28.463,12.318 28.687,12.183 28.91,12.054 29.149,11.935 29.389,11.815 29.628,11.719 
		29.884,11.624 30.14,11.536 34.603,27.326 31.337,10.896 31.561,10.77 31.792,10.658 32.032,10.554 32.271,10.45 32.519,10.362 
		32.767,10.29 33.022,10.218 33.277,10.162 33.533,10.114 33.788,10.074 34.044,10.05 34.308,10.034 34.563,10.027 34.827,10.034 
		35.081,10.05 35.337,10.082 35.977,27.135 36.672,10.082 36.926,10.05 37.189,10.034 37.443,10.027 37.701,10.034 37.955,10.05 
		38.219,10.074 38.467,10.114 38.723,10.162 38.979,10.218 39.225,10.29 39.473,10.362 39.721,10.45 39.969,10.554 40.207,10.658 
		40.445,10.77 40.686,10.896 37.35,27.326 41.875,11.536 42.123,11.624 42.363,11.719 42.604,11.815 42.84,11.935 43.072,12.054 
		43.297,12.183 43.52,12.318 43.742,12.462 43.951,12.621 44.158,12.781 44.359,12.957 44.559,13.132 44.742,13.315 44.926,13.515 
		45.102,13.715 45.268,13.922 38.736,27.821 46.082,15.121 46.268,15.288 46.449,15.463 46.617,15.647 46.785,15.838 46.938,16.03 
		47.09,16.23 47.232,16.437 47.359,16.653 47.488,16.869 47.607,17.092 47.721,17.323 47.824,17.555 47.918,17.786 48.008,18.034 
		48.086,18.273 48.158,18.521 39.928,28.646 48.344,20.086 48.559,20.612 48.717,21.156 48.838,21.707 48.908,22.265 48.941,22.824 
		48.918,23.383 48.846,23.942 48.734,24.484 43.959,27.95 43.385,32.668 37.605,32.668 36.734,33.29 36.648,33.347 36.559,33.394 
		36.471,33.435 36.383,33.466 36.287,33.49 36.191,33.506 36.104,33.522 36.008,33.522 35.912,33.522 35.816,33.506 35.728,33.49 
		35.633,33.466 35.544,33.435 35.458,33.394 35.369,33.347 35.289,33.29 	"/>
</g>
</svg>
