<?xml version="1.0" encoding="utf-8"?>
<!-- Generator: Adobe Illustrator 16.0.0, SVG Export Plug-In . SVG Version: 6.00 Build 0)  -->
<!DOCTYPE svg PUBLIC "-//W3C//DTD SVG 1.1//EN" "http://www.w3.org/Graphics/SVG/1.1/DTD/svg11.dtd">
<svg version="1.1" id="Layer_1" xmlns="http://www.w3.org/2000/svg" xmlns:xlink="http://www.w3.org/1999/xlink" x="0px" y="0px"
	 width="212px" height="92px" viewBox="0 0 212 92" enable-background="new 0 0 212 92" xml:space="preserve">
<g id="XMLID_13_">
	<polygon id="XMLID_65_" fill-rule="evenodd" clip-rule="evenodd" fill="#ED252E" points="43.686,56.946 168.012,56.946 
		168.012,63.578 43.686,63.578 43.686,56.946 	"/>
	<path id="XMLID_18_" fill-rule="evenodd" clip-rule="evenodd" fill="#ED252E" d="M62.917,19.063L66,32.69h-6.166L62.917,19.063
		L62.917,19.063z M70.207,11.636H55.627L43.663,48.015h12.703l1.294-5.733h10.507l1.297,5.733h12.72L70.207,11.636L70.207,11.636z
		 M122.176,11.633l-11.958,36.385h12.327l11.957-36.385H122.176L122.176,11.633z M77.398,11.633h12.337l6.589,22.068l6.593-22.068
		h12.334l-11.964,36.385l-13.968-0.016L77.398,11.633L77.398,11.633z M148.718,19.06l3.086,13.63h-6.169L148.718,19.06
		L148.718,19.06z M156.007,11.633h-14.578l-11.968,36.382l12.707,0.003l1.291-5.736h10.51l1.3,5.736h12.72L156.007,11.633
		L156.007,11.633z M125.428,1.571L123.276,8.2h12.262l2.178-6.629H125.428L125.428,1.571z"/>
	<polygon id="XMLID_17_" fill-rule="evenodd" clip-rule="evenodd" fill="#ED252E" points="43.667,68.004 168.015,68.004 
		168.015,90.151 43.667,90.151 43.667,68.004 	"/>
</g>
</svg>
