<?xml version="1.0" encoding="utf-8"?>
<!-- Generator: Adobe Illustrator 16.0.0, SVG Export Plug-In . SVG Version: 6.00 Build 0)  -->
<!DOCTYPE svg PUBLIC "-//W3C//DTD SVG 1.1//EN" "http://www.w3.org/Graphics/SVG/1.1/DTD/svg11.dtd">
<svg version="1.1" id="Layer_1" xmlns="http://www.w3.org/2000/svg" xmlns:xlink="http://www.w3.org/1999/xlink" x="0px" y="0px"
	 width="212px" height="92px" viewBox="0 0 212 92" enable-background="new 0 0 212 92" xml:space="preserve">
<path id="XMLID_633_" fill="#E2231A" d="M99.391,36.89c-0.026-2.526-0.92-3.571-2.035-4.187c-1.134-0.609-2.581-0.666-3.586-0.757
	c-0.933-0.09-2.166-0.123-3.44-0.123c-2.559,0-5.284,0.123-6.354,0.125c-5.906,0.035-7.772,3.209-8.831,6.175
	c-1.02,2.952-3.164,13.255-3.471,16.438c-0.036,0.383-0.056,0.763-0.054,1.132c-0.002,1.354,0.266,2.585,0.899,3.472
	c0.633,0.881,1.616,1.494,3.313,1.628c1.924,0.145,4.229,0.229,6.491,0.229c2.56,0,5.078-0.111,6.936-0.365
	c3.897-0.491,6.443-3.468,6.813-5.134l0.861-4.971h-7.094L89.58,51.86c-0.29,1.617-1.767,2.978-3.995,3.131h-3.413
	c-0.948,0.003-1.746-0.422-2.255-1.045c-0.516-0.617-0.776-1.415-0.776-2.216c0-0.223,0.016-0.45,0.061-0.683l1.986-9.175
	c0.119-0.606,0.406-1.505,0.991-2.306c0.573-0.794,1.52-1.501,2.82-1.505h4.222c0.292,0.004,0.91-0.002,1.492,0.396
	c0.598,0.399,1.022,1.202,1.011,2.41c0,0.243-0.015,0.505-0.048,0.787h7.006l0.599-3.193C99.356,37.884,99.391,37.364,99.391,36.89
	L99.391,36.89z"/>
<path id="XMLID_632_" fill="#E2231A" d="M178.263,32.668c-0.856-0.474-1.95-0.615-2.688-0.726c-0.959-0.153-3.367-0.242-5.876-0.239
	c-2.779-0.003-5.735,0.105-7.1,0.315c-4.731,0.71-6.29,4.077-6.711,6.214l-0.967,4.629c-0.073,0.435-0.113,0.853-0.11,1.26
	c0.054,2.167,0.911,3.767,3.968,4.177c4.015,0.445,6.984,0.584,8.922,0.728c1.732,0.106,2.461,1.395,2.427,2.258
	c0,0.074-0.001,0.131-0.006,0.195c-0.063,0.555-0.012,0.789-0.431,2.292l-0.02,0.069c-0.338,0.729-1.064,1.131-1.855,1.475
	c-0.804,0.328-1.686,0.531-2.416,0.535h-3.046c-1.063-0.004-1.81-0.181-2.34-0.585c-0.54-0.408-0.722-1.038-0.711-1.575
	c0.003-0.515,0.128-1.02,0.238-1.473h-6.718l-0.802,4.398c-0.019,0.127-0.023,0.252-0.023,0.379c0.019,1.64,1.129,3.404,3.847,3.724
	c1.362,0.155,4.39,0.215,7.096,0.215c2.026,0,3.889-0.034,4.769-0.073c5.398-0.294,8.086-2.45,9.022-5.569l1.265-5.717
	c0.1-0.474,0.147-0.908,0.147-1.311c-0.008-1.249-0.421-2.139-1.221-2.831c-0.804-0.691-2.053-1.168-3.705-1.365
	c-0.012,0-6.563-0.665-7.856-0.778c-0.505-0.048-1.183-0.133-1.801-0.375c-0.588-0.221-1.266-0.708-1.272-1.562
	c0-0.06,0-0.131,0.01-0.195c0.106-0.774,0.25-2.174,0.723-2.972c0.425-0.634,1.306-1.126,2.618-1.206
	c0.474-0.028,1.121-0.041,1.755-0.041c0.728,0,1.426,0.015,1.819,0.041c0.243,0.021,0.992-0.026,1.715,0.284
	c0.75,0.296,1.442,1.127,1.415,2.431c0,0.171-0.01,0.354-0.032,0.547h6.538l0.772-3.598c0.092-0.479,0.135-0.899,0.135-1.272
	C179.738,33.834,179.108,33.155,178.263,32.668L178.263,32.668z"/>
<path id="XMLID_631_" fill="#E2231A" d="M105.069,32.097l-4.623,22.049c-0.117,0.479-0.177,0.928-0.177,1.352
	c0.01,2.681,2.221,4.504,5.786,4.536h13.528l1.127-5.679H107.84c-0.166,0-0.324-0.075-0.427-0.205
	c-0.109-0.127-0.148-0.297-0.119-0.461l0.914-4.562c0.049-0.259,0.278-0.445,0.54-0.445h12.337l0.962-4.881h-11.994
	c-0.166,0-0.324-0.072-0.431-0.202c-0.106-0.131-0.148-0.298-0.115-0.462l0.899-4.446c0.052-0.26,0.28-0.445,0.542-0.445h13.24
	l1.342-6.149H105.069L105.069,32.097z"/>
<path id="XMLID_628_" fill="#E2231A" d="M135.558,38.684c0.054-0.257,0.281-0.438,0.544-0.438h6.022
	c0.242,0.004,0.786,0.033,1.359,0.337c0.571,0.28,1.152,0.959,1.133,1.95c0,0.207-0.021,0.417-0.061,0.643l-0.008,0.031
	l-0.828,3.396c-0.156,0.884-0.707,1.47-1.269,1.757c-0.563,0.297-1.123,0.351-1.483,0.354h-6.46c-0.168,0-0.325-0.075-0.43-0.207
	c-0.107-0.13-0.147-0.301-0.112-0.465L135.558,38.684L135.558,38.684z M130.987,60.034l1.476-7.178
	c0.055-0.258,0.282-0.442,0.544-0.442h10.463c2.475,0.004,6.256-1.823,7.171-5.849l1.716-7.963c0.116-0.551,0.17-1.065,0.17-1.54
	c-0.007-3.247-2.414-4.932-4.704-4.965h-17.903l-5.887,27.937H130.987L130.987,60.034z"/>
<path id="XMLID_625_" fill="#E2231A" d="M190.279,46.715c-0.164,0-0.321-0.076-0.429-0.201c-0.105-0.127-0.149-0.295-0.117-0.458
	l1.397-7.36c0.048-0.263,0.28-0.45,0.546-0.45l6.605,0.001c0.436,0.037,1.077,0.013,1.703,0.31c0.653,0.288,1.137,1.048,1.108,2.106
	c0,0.296-0.028,0.619-0.089,0.979l-0.003,0.032l-1.015,4.602c-0.056,0.259-0.28,0.437-0.541,0.437H190.279L190.279,46.715z
	 M204.303,60.034l4.701-21.346c0.111-0.586,0.166-1.117,0.166-1.599c-0.013-2.019-0.862-3.163-2.002-3.923
	c-1.138-0.753-2.608-1.037-3.677-1.07h-18.146l-5.994,27.937h7.106l1.62-7.182c0.056-0.254,0.279-0.435,0.54-0.435h9.281
	c0.161,0,0.32,0.075,0.425,0.2c0.106,0.129,0.149,0.296,0.121,0.461l-1.324,6.955H204.303L204.303,60.034z"/>
<path id="XMLID_624_" fill="#E2231A" d="M7.486,44.699c-0.967,0-1.2-0.769,0.282-1.866c2.789-2.055,5.419-4.2,5.897-4.558
	c0.586-0.438,1.28-0.757,2.15-0.757h8.261c0.558,0,1.199-0.229,1.688-0.607c2.257-1.738,8.602-6.633,8.746-6.756
	c0.747-0.615,1.624-0.329,1.425,0.619c-0.747,3.513-1.714,8.232-1.81,8.683c-0.542,2.559-4.409,5.243-7.829,5.243H7.486
	L7.486,44.699z"/>
<path id="XMLID_623_" fill="#E2231A" d="M28.887,64.132c-0.309,1.466-1.263,2.412-1.954,2.921c-2.714,1.976-6.135,4.459-6.326,4.597
	c-0.532,0.399-1.395,0.283-1.194-0.677c0.126-0.58,2.153-10.98,3.164-15.746c0.129-0.62,0-1.133-1.139-1.133H4.931
	c-0.737,0-1.346-0.556-0.199-1.459c0.726-0.57,4.072-3.139,6.457-4.868c0.689-0.467,1.409-0.766,2.31-0.766H25.09
	c3.827,0,6.858,2.447,6.058,6.203C30.456,56.461,29.599,60.793,28.887,64.132L28.887,64.132z"/>
<path id="XMLID_622_" fill="#E2231A" d="M60.821,46.934c0.964,0,1.252,0.778-0.285,1.864c-2.827,2.006-5.457,4.203-5.934,4.562
	c-0.587,0.435-1.282,0.754-2.152,0.754h-8.261c-0.559,0-1.199,0.229-1.689,0.606c-2.256,1.741-8.597,6.637-8.744,6.757
	c-0.75,0.614-1.628,0.331-1.423-0.618c0.746-3.512,1.71-8.231,1.807-8.683c0.545-2.558,4.41-5.242,7.832-5.242H60.821L60.821,46.934
	z"/>
<path id="XMLID_621_" fill="#E2231A" d="M39.374,27.502c0.316-1.466,1.267-2.416,1.96-2.921c2.712-1.979,6.132-4.459,6.324-4.602
	c0.534-0.393,1.396-0.28,1.192,0.677c-0.124,0.584-2.151,10.984-3.164,15.746c-0.129,0.624,0.002,1.14,1.139,1.14h16.67
	c0.732,0,1.346,0.556,0.195,1.457c-0.727,0.567-5.984,4.572-6.453,4.867c-0.685,0.469-1.409,0.764-2.306,0.764H43.177
	c-3.828,0-6.86-2.445-6.06-6.199C37.808,35.171,38.667,30.84,39.374,27.502L39.374,27.502z"/>
</svg>
