<?xml version="1.0" encoding="utf-8"?>
<!-- Generator: Adobe Illustrator 16.0.0, SVG Export Plug-In . SVG Version: 6.00 Build 0)  -->
<!DOCTYPE svg PUBLIC "-//W3C//DTD SVG 1.1//EN" "http://www.w3.org/Graphics/SVG/1.1/DTD/svg11.dtd">
<svg version="1.1" id="Layer_1" xmlns="http://www.w3.org/2000/svg" xmlns:xlink="http://www.w3.org/1999/xlink" x="0px" y="0px"
	 width="212px" height="92px" viewBox="0 0 212 92" enable-background="new 0 0 212 92" xml:space="preserve">
<path id="XMLID_307_" fill-rule="evenodd" clip-rule="evenodd" fill="#F37944" d="M100.538,1c12.559,0,31.073,18.53,31.073,31.076
	c0,12.524-18.527,31.052-31.073,31.052c-12.568,0-31.077-18.528-31.077-31.052C69.461,19.516,87.988,1,100.538,1L100.538,1z"/>
<path id="XMLID_306_" fill-rule="evenodd" clip-rule="evenodd" fill="#FFFFFF" d="M97.662,16.674c1.589,1.586,1.589,4.157,0,5.738
	l-3.387,3.402c-3.47,3.47-3.47,9.058,0,12.529c3.464,3.425,9.058,3.425,12.53,0c3.438-3.471,3.438-9.086,0-12.529l-0.864-0.861
	c-0.297-0.293-0.762-0.293-1.063,0l-2.778,2.759c-0.277,0.302-0.277,0.766,0,1.064c0.3,0.298,0.764,0.298,1.066,0l0.779-0.779
	c0.134,0.128,0.337,0.335,0.337,0.335c2.069,2.067,2.069,5.422,0,7.49c-2.065,2.072-5.425,2.072-7.493,0
	c-2.074-2.068-2.074-5.422,0-7.49l12.285-12.285l9.262,9.282c3.733,3.727,3.733,9.764,0,13.496l-11.054,11.033
	c-3.727,3.731-9.768,3.731-13.491,0L82.733,38.824c-3.73-3.732-3.73-9.769,0-13.496l11.781-11.799L97.662,16.674L97.662,16.674z"/>
<path id="XMLID_298_" fill-rule="evenodd" clip-rule="evenodd" fill="#231F20" d="M69.612,68.174h4.173v17.653h-4.173V68.174
	L69.612,68.174z M84.582,79.337c0-0.677-0.048-1.275-0.161-1.798c-0.117-0.501-0.293-0.927-0.542-1.273
	c-0.233-0.319-0.542-0.57-0.93-0.734c-0.396-0.175-0.886-0.261-1.465-0.261c-0.169,0-0.32,0-0.475,0.019
	c-0.146,0.011-0.281,0.019-0.407,0.039c-0.095,0.01-0.183,0.028-0.258,0.049c-0.031,0.012-0.059,0.012-0.078,0.021v7.964
	c0,0,0.009,0,0.019,0c0.068,0.023,0.144,0.033,0.223,0.043h-0.012c0.107,0.02,0.224,0.027,0.35,0.036c0.126,0,0.261,0.01,0.396,0.01
	c0.562,0,1.043-0.089,1.458-0.261c0.406-0.163,0.753-0.412,1.024-0.742c0.281-0.338,0.5-0.772,0.636-1.273
	C84.518,80.644,84.582,80.034,84.582,79.337L84.582,79.337z M88.727,79.249c0,1.006-0.161,1.935-0.47,2.743
	c-0.312,0.833-0.784,1.557-1.375,2.146c-0.597,0.598-1.333,1.062-2.172,1.383c-0.819,0.306-1.748,0.461-2.753,0.461
	c-0.226,0-0.435,0-0.649-0.018c-0.21-0.01-0.425-0.031-0.626-0.05c-0.127-0.012-0.253-0.029-0.379-0.05
	c-0.008,0-0.027-0.01-0.037-0.01v4.743H76.11V73.752l0.145-0.056l0.136-0.069c0.32-0.133,0.674-0.271,1.09-0.396
	c0.379-0.104,0.786-0.202,1.24-0.278c0.422-0.078,0.867-0.136,1.351-0.177c0.456-0.034,0.946-0.056,1.488-0.056
	c1.09,0,2.085,0.154,2.958,0.437c0.897,0.3,1.66,0.734,2.285,1.293c0.622,0.57,1.111,1.273,1.432,2.088
	C88.566,77.338,88.727,78.247,88.727,79.249L88.727,79.249z M49.656,83.229v-7.852c-0.03-0.009-0.05-0.021-0.079-0.03
	c-0.075-0.019-0.175-0.028-0.272-0.047c-0.113-0.02-0.248-0.029-0.403-0.041c-0.146-0.009-0.309-0.009-0.465-0.009
	c-0.559,0-1.032,0.088-1.421,0.272c-0.385,0.173-0.695,0.436-0.936,0.771c-0.261,0.357-0.447,0.804-0.57,1.333
	c-0.123,0.549-0.186,1.179-0.186,1.881c0,0.69,0.063,1.288,0.186,1.799c0.117,0.491,0.29,0.896,0.53,1.218
	c0.234,0.31,0.524,0.54,0.878,0.685c0.377,0.164,0.822,0.241,1.354,0.241c0.173,0,0.329-0.01,0.463-0.019
	c0.155-0.018,0.3-0.037,0.434-0.07c0.117-0.018,0.223-0.045,0.332-0.083C49.559,83.269,49.606,83.247,49.656,83.229L49.656,83.229z
	 M53.722,85.55c0,0.842-0.146,1.581-0.425,2.221c-0.29,0.675-0.726,1.235-1.286,1.7c-0.559,0.45-1.235,0.801-2.019,1.032
	c-0.772,0.231-1.662,0.346-2.616,0.346c-0.397,0-0.776-0.01-1.131-0.036c-0.368-0.019-0.734-0.05-1.083-0.097
	c-0.357-0.053-0.696-0.098-1.014-0.167c-0.317-0.063-0.62-0.135-0.909-0.219l-0.163-0.049l-0.163-0.049v-3.13l0.326,0.154
	l0.331,0.146c0.192,0.087,0.425,0.174,0.675,0.252c0.252,0.073,0.521,0.145,0.811,0.193c0.28,0.056,0.571,0.099,0.87,0.125
	c0.29,0.028,0.579,0.038,0.889,0.038c0.5,0,0.937-0.048,1.296-0.144c0.365-0.097,0.656-0.243,0.888-0.424
	c0.222-0.176,0.376-0.406,0.484-0.669c0.116-0.291,0.174-0.619,0.174-0.985v-0.098c-0.04,0.01-0.088,0.021-0.127,0.031
	c-0.146,0.035-0.309,0.066-0.48,0.095c-0.253,0.038-0.503,0.079-0.775,0.098c-0.262,0.019-0.542,0.03-0.851,0.03
	c-0.917,0-1.769-0.156-2.53-0.448c-0.774-0.288-1.451-0.725-2.009-1.293c-0.553-0.55-0.975-1.213-1.275-2.001
	c-0.278-0.762-0.425-1.609-0.425-2.555c0-2.127,0.646-3.897,1.959-5.111c1.236-1.159,3.063-1.817,5.458-1.817
	c0.502,0,0.976,0.03,1.418,0.056c0.468,0.051,0.91,0.108,1.326,0.187c0.434,0.078,0.831,0.185,1.178,0.292
	c0.377,0.114,0.695,0.248,0.958,0.395l0.115,0.066l0.125,0.066V85.55L53.722,85.55z M63.324,83.432v-4.095
	c-0.588,0.067-1.123,0.155-1.597,0.259c-0.526,0.117-0.984,0.263-1.351,0.457c-0.359,0.192-0.629,0.415-0.812,0.715
	c-0.181,0.289-0.269,0.646-0.269,1.103c0,0.299,0.047,0.558,0.143,0.769c0.088,0.216,0.234,0.388,0.416,0.522
	c0.213,0.155,0.474,0.271,0.794,0.351c0.337,0.067,0.741,0.104,1.186,0.104c0.165,0,0.329-0.01,0.504-0.017
	c0.173-0.021,0.328-0.041,0.472-0.051c0.126-0.021,0.252-0.047,0.358-0.078C63.226,83.461,63.274,83.44,63.324,83.432L63.324,83.432
	z M67.284,85.026l-0.133,0.058l-0.138,0.06c-0.328,0.143-0.696,0.28-1.103,0.396c-0.397,0.104-0.832,0.2-1.304,0.278
	c-0.451,0.079-0.938,0.138-1.438,0.174c-0.487,0.04-0.994,0.059-1.545,0.059c-0.995,0-1.866-0.085-2.627-0.239
	c-0.783-0.176-1.439-0.428-1.974-0.755c-0.568-0.356-1.002-0.801-1.281-1.315c-0.29-0.512-0.436-1.12-0.436-1.785
	c0-0.888,0.251-1.634,0.725-2.242c0.452-0.601,1.11-1.063,1.911-1.43c0.746-0.337,1.604-0.59,2.563-0.779
	c0.875-0.176,1.834-0.302,2.819-0.39v-0.221c0-0.299-0.061-0.552-0.155-0.747c-0.097-0.182-0.232-0.314-0.415-0.424v-0.007
	c-0.205-0.116-0.463-0.202-0.766-0.252c-0.308-0.057-0.665-0.087-1.051-0.087c-0.289,0-0.579,0.021-0.849,0.049
	c-0.299,0.028-0.589,0.077-0.879,0.126c-0.311,0.065-0.609,0.144-0.88,0.224c-0.301,0.085-0.578,0.183-0.821,0.277l-0.309,0.125
	l-0.329,0.136v-2.819l0.163-0.06l0.166-0.048c0.309-0.097,0.658-0.194,1.035-0.289c0.329-0.079,0.695-0.146,1.082-0.202
	c0.348-0.057,0.712-0.1,1.092-0.128c0.349-0.026,0.723-0.048,1.109-0.048c0.87,0,1.692,0.097,2.436,0.29
	c0.687,0.183,1.303,0.466,1.814,0.871c0.485,0.375,0.881,0.856,1.14,1.457c0.245,0.561,0.378,1.215,0.378,1.98V85.026L67.284,85.026
	z"/>
<path id="XMLID_285_" fill-rule="evenodd" clip-rule="evenodd" fill="#231F20" d="M105.699,79.133l-0.31,0.041l-8.887,1.091
	c0.146,1.315,0.571,2.311,1.257,2.973c0.75,0.737,1.836,1.109,3.187,1.109c0.582,0,1.083-0.045,1.527-0.123
	c0.53-0.085,0.965-0.219,1.333-0.368l0.482-0.183v1.798l-0.252,0.079c-0.436,0.132-0.936,0.248-1.495,0.325
	c-0.513,0.07-1.057,0.107-1.624,0.107c-1.923,0-3.63-0.521-4.821-1.728c-1.051-1.054-1.679-2.646-1.679-4.851
	c0-2.095,0.578-3.664,1.525-4.742c1.063-1.206,2.578-1.788,4.26-1.788c1.711,0,3.119,0.473,4.098,1.537
	c0.897,0.978,1.399,2.416,1.399,4.415V79.133L105.699,79.133z M103.572,77.92c-0.034-1.228-0.355-2.079-0.897-2.62
	c-0.579-0.58-1.427-0.829-2.5-0.829c-1.114,0-2.078,0.366-2.744,1.206c-0.558,0.696-0.919,1.729-0.974,3.149L103.572,77.92
	L103.572,77.92z M118.197,85.758h-2.144V76.72c0-0.554-0.123-1.131-0.55-1.555c-0.437-0.455-1.219-0.761-2.528-0.761
	c-0.786,0-1.348,0.045-1.819,0.123c-0.379,0.058-0.695,0.154-1.029,0.262v10.969h-2.149v-11.92l0.212-0.086
	c0.621-0.276,1.313-0.489,2.146-0.646c0.82-0.145,1.748-0.232,2.848-0.232c1.672,0,2.821,0.396,3.604,0.954
	c1.063,0.785,1.409,1.895,1.409,2.823V85.758L118.197,85.758z M129.896,77.92c-0.039-1.228-0.361-2.079-0.898-2.62
	c-0.58-0.58-1.432-0.829-2.502-0.829c-1.101,0-2.077,0.366-2.744,1.206c-0.563,0.696-0.917,1.729-0.967,3.149L129.896,77.92
	L129.896,77.92z M132.023,79.133l-0.31,0.041l-8.887,1.091c0.143,1.315,0.58,2.311,1.255,2.973c0.763,0.737,1.843,1.109,3.188,1.109
	c0.577,0,1.081-0.045,1.524-0.123c0.533-0.085,0.976-0.219,1.333-0.368l0.485-0.183v1.798l-0.255,0.079
	c-0.434,0.132-0.936,0.248-1.496,0.325c-0.503,0.07-1.053,0.107-1.611,0.107c-1.934,0-3.634-0.521-4.83-1.728
	c-1.056-1.054-1.683-2.646-1.683-4.851c0-2.095,0.579-3.664,1.527-4.742c1.063-1.206,2.58-1.788,4.26-1.788
	c1.71,0,3.131,0.473,4.107,1.537c0.889,0.978,1.392,2.416,1.392,4.415V79.133L132.023,79.133z M140.51,74.71l-0.422-0.097
	c-0.602-0.134-1.247-0.174-1.847-0.116c-0.481,0.05-0.925,0.153-1.275,0.317v10.943h-2.133v-11.92l0.209-0.086
	c0.639-0.276,1.209-0.489,1.981-0.636h-0.011c0.767-0.145,1.723-0.221,3.153-0.242h0.344V74.71L140.51,74.71z M150.074,84.012
	v-9.398c-0.233-0.076-0.502-0.143-0.791-0.193c-0.379-0.058-0.823-0.089-1.288-0.089c-1.457,0-2.511,0.483-3.205,1.325
	c-0.771,0.938-1.132,2.317-1.132,3.971c0,1.575,0.332,2.827,1.044,3.651c0.659,0.762,1.663,1.178,3.056,1.178
	c0.482,0,0.945-0.046,1.358-0.134C149.477,84.234,149.794,84.139,150.074,84.012L150.074,84.012z M142.956,90.144v-1.892
	l0.502,0.243c0.379,0.173,0.879,0.358,1.459,0.473c0.483,0.105,1.014,0.171,1.563,0.171c1.237,0,2.107-0.307,2.679-0.829
	c0.636-0.569,0.916-1.42,0.916-2.384V85.53c-0.28,0.095-0.59,0.183-0.916,0.247c-0.53,0.098-1.13,0.168-1.769,0.168
	c-1.817,0-3.284-0.622-4.3-1.722c-1.014-1.091-1.574-2.666-1.574-4.597c0-2.019,0.588-3.737,1.739-4.945
	c1.082-1.138,2.667-1.808,4.714-1.808c0.857,0,1.594,0.088,2.214,0.214c0.777,0.166,1.368,0.396,1.794,0.638l0.185,0.097v11.917
	c0,1.537-0.512,2.813-1.477,3.688c-0.928,0.854-2.284,1.327-3.993,1.327c-0.692,0-1.321-0.038-1.892-0.127
	c-0.616-0.097-1.15-0.229-1.612-0.395L142.956,90.144L142.956,90.144z M155.743,73.098h2.137v12.663h-2.137V73.098L155.743,73.098z
	 M158.119,70.104c0,0.327-0.151,0.627-0.403,0.828c-0.233,0.196-0.553,0.319-0.898,0.319c-0.359,0-0.677-0.123-0.908-0.319
	c-0.251-0.201-0.407-0.501-0.407-0.828c0-0.34,0.156-0.63,0.407-0.843c0.231-0.195,0.549-0.318,0.908-0.318
	c0.346,0,0.665,0.123,0.898,0.318C157.968,69.475,158.119,69.765,158.119,70.104L158.119,70.104z M168.736,84.175v-5.398
	c-1.883,0.222-3.36,0.501-4.374,1.006c-0.995,0.501-1.529,1.255-1.529,2.441c0,0.821,0.304,1.393,0.852,1.762
	c0.602,0.384,1.487,0.559,2.609,0.559c0.503,0,1.013-0.04,1.475-0.116C168.129,84.356,168.454,84.271,168.736,84.175L168.736,84.175
	z M170.794,85.008l-0.194,0.099c-0.558,0.276-1.254,0.5-2.048,0.651c-0.731,0.146-1.563,0.225-2.452,0.225
	c-1.759,0-3.051-0.339-3.93-0.937c-0.996-0.677-1.461-1.651-1.461-2.822c0-1.756,0.957-2.907,2.532-3.651
	c1.404-0.687,3.341-1.033,5.495-1.227v-0.5c0-0.938-0.318-1.538-0.852-1.893c-0.558-0.368-1.369-0.504-2.287-0.504
	c-0.533,0-1.034,0.057-1.487,0.164c-0.582,0.124-1.093,0.308-1.487,0.483l-0.494,0.211v-1.71l0.221-0.088
	c0.472-0.176,1.056-0.344,1.713-0.47c0.529-0.097,1.1-0.166,1.687-0.166c1.395,0,2.746,0.282,3.71,1.026
	c0.813,0.637,1.335,1.591,1.335,2.971V85.008L170.794,85.008z"/>
</svg>
