<?xml version="1.0" encoding="utf-8"?>
<!-- Generator: Adobe Illustrator 16.0.0, SVG Export Plug-In . SVG Version: 6.00 Build 0)  -->
<!DOCTYPE svg PUBLIC "-//W3C//DTD SVG 1.1//EN" "http://www.w3.org/Graphics/SVG/1.1/DTD/svg11.dtd">
<svg version="1.1" id="Layer_1" xmlns="http://www.w3.org/2000/svg" xmlns:xlink="http://www.w3.org/1999/xlink" x="0px" y="0px"
	 width="212px" height="92px" viewBox="0 0 212 92" enable-background="new 0 0 212 92" xml:space="preserve">
<path fill="#5A5A5A" d="M120.756,80.497v-39.94h2.724c1.507,0,2.723,1.215,2.723,2.723v25.417c0,6.518,5.283,11.801,11.8,11.801
	c6.519,0,11.802-5.283,11.802-11.801V19.824c0-2.561-1.054-4.866-2.741-6.518l-9.623-9.567c-1.741-1.744-4.557-1.744-6.299,0
	c-1.743,1.743-1.743,4.557,0,6.298l6.246,6.264l-4.611,4.813c-1.507,1.542-1.507,4.029,0,5.573c0.743,0.799,1.743,1.179,2.74,1.162
	l5.211-0.018v40.865c0,1.508-1.216,2.724-2.724,2.724c-1.507,0-2.724-1.216-2.724-2.724V43.28c0-6.517-5.282-11.8-11.8-11.8h-2.723
	V9.693c0-4.011-3.251-7.261-7.263-7.261H75.37c-4.013,0-7.263,3.25-7.263,7.261v70.804h-0.908c-2.504,0-4.538,2.033-4.538,4.539
	c0,2.505,2.034,4.538,4.538,4.538h54.465c2.505,0,4.538-2.033,4.538-4.538c0-2.506-2.033-4.539-4.538-4.539H120.756z M81.179,11.509
	h26.505c2.215,0,3.995,1.78,3.995,3.995v19.242c0,2.215-1.78,3.994-3.995,3.994H81.179c-2.214,0-3.994-1.779-3.994-3.994V15.504
	C77.185,13.289,78.964,11.509,81.179,11.509"/>
</svg>
