<?xml version="1.0" encoding="utf-8"?>
<!-- Generator: Adobe Illustrator 16.0.0, SVG Export Plug-In . SVG Version: 6.00 Build 0)  -->
<!DOCTYPE svg PUBLIC "-//W3C//DTD SVG 1.1//EN" "http://www.w3.org/Graphics/SVG/1.1/DTD/svg11.dtd">
<svg version="1.1" id="Layer_1" xmlns="http://www.w3.org/2000/svg" xmlns:xlink="http://www.w3.org/1999/xlink" x="0px" y="0px"
	 width="212px" height="92px" viewBox="0 0 212 92" enable-background="new 0 0 212 92" xml:space="preserve">
<g id="XMLID_425_">
	<g id="XMLID_426_">
		<g id="XMLID_427_">
			<g id="XMLID_451_">
				<linearGradient id="XMLID_2_" gradientUnits="userSpaceOnUse" x1="71.0449" y1="30.6724" x2="71.7317" y2="34.5674">
					<stop  offset="0" style="stop-color:#D76A33"/>
					<stop  offset="0.1351" style="stop-color:#DE7734"/>
					<stop  offset="0.4614" style="stop-color:#ED9035"/>
					<stop  offset="0.7591" style="stop-color:#F69F36"/>
					<stop  offset="1" style="stop-color:#F9A436"/>
				</linearGradient>
				<path id="XMLID_463_" fill="url(#XMLID_2_)" d="M77.32,33.582c0.108-1.121,0.283-2.26,0.527-3.416l0.008-0.04
					c-0.034,0.003-0.065,0.007-0.094,0.01c-1.703,0.171-4.392,0.372-6.378,0.629c-3.479,0.457-6.643,0.917-6.908,1.233
					c-0.717,0.848,4.047,1.475,11.314,1.572C76.284,33.576,76.8,33.579,77.32,33.582z"/>
				<g id="XMLID_461_">
					<linearGradient id="XMLID_3_" gradientUnits="userSpaceOnUse" x1="82.1143" y1="3.9053" x2="122.2453" y2="44.0363">
						<stop  offset="0" style="stop-color:#FDC664"/>
						<stop  offset="0.1049" style="stop-color:#FBB249"/>
						<stop  offset="0.1963" style="stop-color:#F9A436"/>
						<stop  offset="0.5217" style="stop-color:#F9A236"/>
						<stop  offset="0.6956" style="stop-color:#F89A35"/>
						<stop  offset="0.8337" style="stop-color:#F68C34"/>
						<stop  offset="0.9523" style="stop-color:#F37932"/>
						<stop  offset="1" style="stop-color:#F26F31"/>
					</linearGradient>
					<path id="XMLID_462_" fill="url(#XMLID_3_)" d="M113.878,0.41c-11.452,0-22.759,6.487-29.736,15.98
						c0,0-16.255,1.164-17.106,2.609c-2.566,4.908-2.628,13.13-2.628,13.13l0.008-0.028c0.011-0.035,0.033-0.067,0.063-0.102
						c0.266-0.316,3.429-0.776,6.908-1.233c1.987-0.257,4.676-0.457,6.377-0.628c0.03-0.004,0.059-0.007,0.092-0.011l0,0.001
						c5.646-0.559,16.413-1.33,22.568-1.5c15.086-0.417,28.097-0.299,37.117,0.112C140.159,12.966,129.821,0.41,113.878,0.41z"/>
				</g>
				<path id="XMLID_460_" fill="#EE3F48" d="M132.225,42.091c-4.643-0.044-21.809-0.182-29.443,0.061
					c-0.03,0.002-3.543,0.128-3.65,0.131c-8.235,0.336-15.21,0.861-20.891,1.419c0,0-0.002,0-0.002,0.003
					c2.892,9.596,11.484,16.163,23.013,16.163C113.398,59.867,125.396,52.543,132.225,42.091L132.225,42.091z"/>
				<linearGradient id="XMLID_4_" gradientUnits="userSpaceOnUse" x1="79.9385" y1="24.4028" x2="146.2822" y2="48.55">
					<stop  offset="0" style="stop-color:#8F9294"/>
					<stop  offset="0.0234" style="stop-color:#A2A4A6"/>
					<stop  offset="0.0732" style="stop-color:#C3C5C6"/>
					<stop  offset="0.1241" style="stop-color:#DDDEDF"/>
					<stop  offset="0.1762" style="stop-color:#F0F1F1"/>
					<stop  offset="0.23" style="stop-color:#FBFBFC"/>
					<stop  offset="0.2883" style="stop-color:#FFFFFF"/>
					<stop  offset="0.5003" style="stop-color:#FCFDFD"/>
					<stop  offset="0.6264" style="stop-color:#F4F4F5"/>
					<stop  offset="0.73" style="stop-color:#E6E7E7"/>
					<stop  offset="0.8214" style="stop-color:#D2D3D4"/>
					<stop  offset="0.9048" style="stop-color:#B8BABB"/>
					<stop  offset="0.9813" style="stop-color:#989B9D"/>
					<stop  offset="1" style="stop-color:#8F9294"/>
				</linearGradient>
				<path id="XMLID_459_" fill="url(#XMLID_4_)" d="M137.552,28.74c-9.021-0.411-22.032-0.532-37.12-0.116
					c-6.159,0.168-16.933,0.942-22.577,1.501l0,0c-0.132,0.628-0.333,1.658-0.491,3.02c0,0.026-0.004,0.053-0.006,0.081
					c-0.053,0.464-0.092,0.927-0.121,1.389c0,0.027-0.004,0.06-0.006,0.089c-0.027,0.45-0.042,0.896-0.045,1.337
					c-0.004,0.278,0.004,0.557,0.012,0.832c0,0.233,0,0.464,0.012,0.692c0.02,0.489,0.052,0.978,0.101,1.455
					c0.012,0.139,0.037,0.274,0.05,0.411c0.045,0.373,0.088,0.747,0.15,1.113c0.025,0.149,0.054,0.296,0.081,0.443
					c0.063,0.355,0.132,0.708,0.211,1.054c0.029,0.14,0.063,0.272,0.097,0.409c0.089,0.36,0.181,0.72,0.286,1.071
					c0.016,0.061,0.033,0.121,0.053,0.183c5.68-0.558,12.659-1.083,20.901-1.418c0.101-0.004,3.617-0.13,3.645-0.133
					c7.634-0.242,24.799-0.104,29.445-0.06l0,0c0.742,0.005,1.194,0.01,1.194,0.01c3.902,0.059,5.495,0.096,9.56,0.31
					c1.878,0.101,4.979,0.218,5.146,0.625c0,0.014,0.003-0.003,0,0.014c-0.003,0.012-0.009,0.024-0.014,0.035l0.001,0.001
					c2.568-4.747,2.606-12.62,2.606-12.62C150.854,29.784,145.943,29.121,137.552,28.74"/>
				<g id="XMLID_456_">
					<linearGradient id="XMLID_5_" gradientUnits="userSpaceOnUse" x1="105.2319" y1="59.8672" x2="105.2319" y2="42.0127">
						<stop  offset="0" style="stop-color:#7E1229;stop-opacity:0.3"/>
						<stop  offset="0.4969" style="stop-color:#AE233E;stop-opacity:0"/>
						<stop  offset="0.6391" style="stop-color:#A6203A;stop-opacity:0.2827"/>
						<stop  offset="0.8627" style="stop-color:#8F1831;stop-opacity:0.7271"/>
						<stop  offset="1" style="stop-color:#7E1229"/>
					</linearGradient>
					<path id="XMLID_457_" fill="url(#XMLID_5_)" d="M132.225,42.091c-6.829,10.452-18.826,17.776-30.974,17.776
						c-5.479,0-10.293-1.482-14.149-4.068c-4.258-2.856-7.346-7.06-8.863-12.094c0-0.002,0.002-0.002,0.002-0.002
						c5.681-0.558,12.656-1.083,20.891-1.419c0.107-0.002,3.62-0.128,3.65-0.131C110.416,41.91,127.582,42.047,132.225,42.091
						L132.225,42.091z"/>
				</g>
				<g id="XMLID_454_">
					<linearGradient id="XMLID_6_" gradientUnits="userSpaceOnUse" x1="88.7358" y1="3.7676" x2="134.7817" y2="20.5269">
						<stop  offset="0.0859" style="stop-color:#FDC664"/>
						<stop  offset="1" style="stop-color:#F49535;stop-opacity:0.05"/>
					</linearGradient>
					<path id="XMLID_455_" fill="url(#XMLID_6_)" d="M133.178,15.6c0.864,0.003,2.363,0,3.397-0.001
						C133.411,6.534,125.011,0.41,113.878,0.41c-11.447,0-22.758,6.494-29.736,15.98c5.02-0.471,11.577-0.844,17.998-0.956
						c1.254-0.021,3.665-0.529,5.015-2.539c2.512-3.734,4.991-7.513,8.517-8.77c0.061-0.026,0.121-0.05,0.184-0.074
						C121.215,2.005,128.291,6.982,133.178,15.6z"/>
				</g>
				<linearGradient id="XMLID_7_" gradientUnits="userSpaceOnUse" x1="94.7939" y1="61.6367" x2="117.7448" y2="31.18">
					<stop  offset="0.0123" style="stop-color:#ED334D;stop-opacity:0"/>
					<stop  offset="0.111" style="stop-color:#D32C44;stop-opacity:0.1105"/>
					<stop  offset="0.2514" style="stop-color:#B42339;stop-opacity:0.2675"/>
					<stop  offset="0.3885" style="stop-color:#9E1D31;stop-opacity:0.4209"/>
					<stop  offset="0.5196" style="stop-color:#91192D;stop-opacity:0.5675"/>
					<stop  offset="0.638" style="stop-color:#8C182B;stop-opacity:0.7"/>
					<stop  offset="1" style="stop-color:#8E1B2B"/>
				</linearGradient>
				<path id="XMLID_453_" fill="url(#XMLID_7_)" d="M132.225,42.091c-1.152-0.011-3.075-0.027-5.434-0.043
					c-5.471-0.032-13.449-0.058-19.137,0.007c-1.25,1.025-2.689,2.537-3.343,3.898c-4.423,7.481-5.964,14.814-19.645,3.62
					c0,0-2.181-0.199-3.658,0.084c1.504,2.286,3.418,4.266,5.678,5.854c0.167,0.108,0.312,0.205,0.425,0.287
					c0.251,0.168,0.507,0.334,0.767,0.497c3.719,2.278,8.256,3.571,13.372,3.571C113.398,59.867,125.396,52.543,132.225,42.091z"/>
				<linearGradient id="XMLID_8_" gradientUnits="userSpaceOnUse" x1="139.0908" y1="45.0386" x2="139.0908" y2="42.0928">
					<stop  offset="0.0061" style="stop-color:#C1C5C5"/>
					<stop  offset="0.1945" style="stop-color:#BABEBE"/>
					<stop  offset="0.4718" style="stop-color:#A6ACAC"/>
					<stop  offset="0.8024" style="stop-color:#868D8F"/>
					<stop  offset="1" style="stop-color:#6F787A"/>
				</linearGradient>
				<path id="XMLID_452_" fill="url(#XMLID_8_)" d="M148.132,43.034c-0.166-0.406-3.268-0.523-5.146-0.624
					c-4.064-0.215-5.658-0.25-9.559-0.309c0,0-0.458-0.002-1.207-0.008l-0.011,0.003c0,0,0.01,0,0.015,0
					c-0.676,1.039-1.403,2.078-2.176,2.942h0.002c10.726-0.346,17.787-1.044,18.081-2.021C148.135,43,148.132,43.049,148.132,43.034
					z"/>
			</g>
			<g id="XMLID_428_">
				<path id="XMLID_429_" fill="#45494B" d="M125.909,84.543c-0.872-4.71,3.446-9.921,8.896-11.427
					c6.336-1.274,11.667,1.157,12.637,6.022c0.674,4.749-2.987,9.729-9.125,11.157C132.507,91.375,126.912,89.29,125.909,84.543
					L125.909,84.543z M134.067,78.827c-2.121,2.421-2.669,5.577-1.22,7.047c1.446,1.47,4.343,0.701,6.466-1.722
					c2.121-2.417,2.667-5.574,1.221-7.045C139.083,75.634,136.189,76.406,134.067,78.827L134.067,78.827z M104.585,77.906
					c-0.04-0.639-0.348-1.115-0.92-1.422c-0.573-0.309-1.404-0.463-2.492-0.463h-1.105l-1.046,4.846h0.884
					c1.534,0,2.713-0.227,3.532-0.746C104.265,79.591,104.646,78.877,104.585,77.906L104.585,77.906z M92.507,89.867
					c0,0-1.653,0.081-1.428-1.491l2.882-13.524c0.165-0.776,0.928-1.428,1.705-1.428h6.961c1.277,0,2.391,0.109,3.344,0.252
					c0.962,0.144,1.801,0.402,2.513,0.749c0.704,0.351,1.255,0.813,1.649,1.375c0.394,0.557,0.618,1.395,0.674,2.231
					c0.122,1.891-0.743,3.393-2.599,4.551c-1.848,1.165-4.502,1.574-7.96,1.574h-1.914l-1.217,5.711H92.507L92.507,89.867z
					 M65.587,77.84c-0.043-0.66-0.325-1.125-0.852-1.397c-0.52-0.281-1.271-0.421-2.252-0.421h-1.565l-0.946,4.499h1.553
					c1.344,0,2.369-0.267,3.079-0.721C65.311,79.336,65.638,78.656,65.587,77.84L65.587,77.84z M57.958,89.867H53.27
					c-0.323,0-1.55-0.125-1.35-1.492L54.8,74.877c0.166-0.774,0.928-1.402,1.708-1.402l7.932-0.002c1.15,0,2.153,0.067,3.014,0.199
					c0.868,0.132,1.622,0.359,2.265,0.683c0.635,0.321,1.063,0.634,1.487,1.267c0.441,0.653,0.551,1.143,0.609,1.928
					c0.137,1.885-0.679,3.161-2.354,4.234c-1.548,0.814-3.681,0.946-4.191,0.958c0,0-0.523,0.115,0.079,0.27
					c0,0,0.742,0.183,1.356,0.726c1.312,1.044,2.275,2.151,5.249,6.131h-7.029c0,0-1.208-2.417-3.723-6.038
					c-0.56-0.808-1.464-0.675-1.805-0.713L57.958,89.867L57.958,89.867z M155.328,86.753h5.68l-0.389,1.799
					c-0.154,0.739-0.935,1.315-1.688,1.315h-8.944c-0.323,0-1.548-0.125-1.349-1.492l2.88-13.498
					c0.167-0.774,0.93-1.402,1.706-1.402l4.937,0.017L155.328,86.753L155.328,86.753z M81.705,80.175h7.459l-0.375,1.715
					c-0.146,0.761-0.927,1.401-1.704,1.401h-6.046l-0.728,3.462h7.466l-0.388,1.799c-0.153,0.739-0.934,1.315-1.688,1.315H74.967
					c-0.322,0-1.548-0.125-1.35-1.492l2.881-13.498c0.167-0.774,0.928-1.402,1.706-1.402l12.394-0.002l-0.378,1.797
					c-0.167,0.778-0.929,1.444-1.704,1.444h-6.056L81.705,80.175L81.705,80.175z M127.438,73.477l-0.376,1.797
					c-0.226,0.819-0.826,1.266-1.706,1.44h-0.396c-3.547,0-3.771,0.942-4.449,4.233l-0.847,3.885
					c-1.036,4.975-5.527,5.061-5.906,5.061l-8.987-0.006l0.378-1.744c0.23-0.863,0.874-1.39,1.707-1.39h2.16
					c3.546,0,3.769-0.992,4.446-4.282l0.847-3.916c1.067-4.959,6.477-5.074,7.306-5.074L127.438,73.477L127.438,73.477z"/>
			</g>
		</g>
	</g>
</g>
</svg>
