<?xml version="1.0" encoding="utf-8"?>
<!-- Generator: Adobe Illustrator 16.0.0, SVG Export Plug-In . SVG Version: 6.00 Build 0)  -->
<!DOCTYPE svg PUBLIC "-//W3C//DTD SVG 1.1//EN" "http://www.w3.org/Graphics/SVG/1.1/DTD/svg11.dtd">
<svg version="1.1" id="Layer_1" xmlns="http://www.w3.org/2000/svg" xmlns:xlink="http://www.w3.org/1999/xlink" x="0px" y="0px"
	 width="212px" height="92px" viewBox="0 0 212 92" enable-background="new 0 0 212 92" xml:space="preserve">
<g id="XMLID_9617_">
	<path id="XMLID_9600_" fill-rule="evenodd" clip-rule="evenodd" fill="#129648" d="M105.948,56.673c0,0,0,0,0,0.004
		C105.948,56.673,105.948,56.673,105.948,56.673s0,0,0,0.004C105.948,56.673,105.948,56.673,105.948,56.673L105.948,56.673z
		 M92.569,33.503c0.187-3.608,0.882-6.877,1.595-9.198c2.041,1.319,4.676,3.377,7.139,6.019c1.409-3.326,3.181-6.157,4.645-8.097
		c1.465,1.938,3.236,4.771,4.646,8.095c2.463-2.643,5.097-4.697,7.137-6.017c0.714,2.321,1.41,5.59,1.596,9.198
		c3.22-1.644,6.396-2.674,8.766-3.217c-0.125,2.427-0.587,5.736-1.646,9.188c3.586-0.442,6.925-0.324,9.337-0.025
		c-0.948,2.238-2.516,5.19-4.691,8.074c3.52,0.81,6.617,2.063,8.78,3.169c-1.652,1.781-4.135,4.016-7.163,5.98
		c3.028,1.965,5.511,4.203,7.163,5.982c-2.163,1.107-5.261,2.359-8.78,3.172c2.176,2.881,3.743,5.834,4.691,8.072
		c-2.412,0.299-5.751,0.416-9.337-0.025c1.059,3.455,1.521,6.764,1.646,9.189c-2.369-0.543-5.546-1.574-8.766-3.217
		c-0.186,3.609-0.882,6.875-1.596,9.199c-2.04-1.32-4.674-3.377-7.135-6.02c-1.409,3.328-3.183,6.156-4.648,8.098
		c-1.464-1.941-3.236-4.77-4.645-8.098c-2.462,2.643-5.095,4.699-7.135,6.02c-0.716-2.324-1.412-5.59-1.599-9.199
		c-3.217,1.645-6.396,2.674-8.763,3.217c0.124-2.426,0.586-5.734,1.644-9.189c-3.583,0.441-6.922,0.324-9.334,0.025
		c0.945-2.238,2.513-5.189,4.689-8.072c-3.52-0.813-6.618-2.063-8.781-3.172c1.656-1.779,4.136-4.014,7.166-5.982
		c-3.03-1.965-5.51-4.199-7.166-5.98c2.163-1.105,5.261-2.359,8.781-3.169c-2.176-2.884-3.744-5.833-4.691-8.071
		c2.412-0.302,5.751-0.42,9.336,0.022c-1.058-3.452-1.52-6.762-1.645-9.188C86.173,30.829,89.352,31.859,92.569,33.503
		L92.569,33.503z M105.948,56.673 M105.948,56.673"/>
	<path id="XMLID_9596_" fill-rule="evenodd" clip-rule="evenodd" fill="#A7CA38" d="M105.948,56.673v0.004l0.003-0.004
		C105.951,56.673,105.951,56.673,105.948,56.673c0.003,0,0.003,0,0.003,0S105.951,56.673,105.948,56.673L105.948,56.673z
		 M86.253,60.147c-2.559-0.861-4.946-2.1-7.063-3.475c2.116-1.369,4.503-2.611,7.063-3.471c-2.11-1.684-3.929-3.666-5.449-5.679
		c2.459-0.566,5.125-0.916,7.825-0.846c-1.409-2.308-2.439-4.789-3.18-7.203c2.505,0.309,5.131,0.894,7.646,1.882
		c-0.538-2.648-0.657-5.334-0.526-7.854c2.249,1.146,4.516,2.592,6.541,4.381c0.401-2.671,1.208-5.237,2.193-7.563
		c1.718,1.85,3.354,3.982,4.645,6.357c1.292-2.375,2.927-4.508,4.648-6.357c0.984,2.325,1.792,4.892,2.191,7.563
		c2.023-1.789,4.293-3.235,6.539-4.381c0.131,2.52,0.013,5.205-0.524,7.854c2.515-0.988,5.141-1.573,7.645-1.882
		c-0.737,2.414-1.771,4.899-3.18,7.203c2.7-0.07,5.366,0.279,7.825,0.846c-1.519,2.013-3.336,3.995-5.449,5.679
		c2.561,0.859,4.948,2.102,7.066,3.471c-2.118,1.375-4.506,2.613-7.066,3.475c2.113,1.682,3.931,3.666,5.449,5.68
		c-2.459,0.564-5.125,0.914-7.825,0.848c1.408,2.303,2.442,4.787,3.18,7.199c-2.504-0.309-5.13-0.893-7.645-1.879
		c0.537,2.645,0.655,5.334,0.524,7.852c-2.246-1.146-4.516-2.592-6.539-4.379c-0.399,2.67-1.207,5.234-2.191,7.559
		c-1.721-1.846-3.356-3.982-4.648-6.354c-1.289,2.371-2.927,4.508-4.645,6.354c-0.985-2.324-1.792-4.889-2.193-7.559
		c-2.025,1.787-4.292,3.232-6.541,4.379c-0.13-2.518-0.012-5.207,0.526-7.855c-2.515,0.99-5.141,1.574-7.646,1.883
		c0.741-2.412,1.771-4.896,3.18-7.199c-2.701,0.066-5.366-0.283-7.825-0.848C82.324,63.813,84.143,61.829,86.253,60.147
		L86.253,60.147z M86.253,60.147"/>
	<path id="XMLID_9588_" fill-rule="evenodd" clip-rule="evenodd" fill="#FDD728" d="M105.948,56.673 M105.948,56.673
		c0,0.004,0,0.004,0,0.004S105.948,56.677,105.948,56.673c0,0.004,0,0.004,0,0.004S105.948,56.677,105.948,56.673
		c0,0.004,0,0.004,0,0.004V56.673c0,0,0.003,0,0.003,0.004C105.951,56.673,105.948,56.673,105.948,56.673c0.003,0,0.003,0,0.003,0
		H105.948z M105.951,56.673c0,0,0,0-0.003,0C105.951,56.673,105.951,56.673,105.951,56.673h-0.003
		C105.948,56.673,105.948,56.673,105.951,56.673c-0.003,0-0.003,0-0.003,0H105.951z M105.948,56.673 M103.571,43.192
		c0.438-2.321,1.284-4.505,2.376-6.514c1.092,2.009,1.94,4.192,2.377,6.514c1.205-2.032,2.745-3.793,4.462-5.309
		c0.338,2.264,0.39,4.603,0.005,6.934c1.829-1.497,3.879-2.625,6.01-3.461c-0.455,2.243-1.209,4.456-2.367,6.52
		c2.23-0.783,4.543-1.141,6.832-1.198c-1.193,1.952-2.661,3.772-4.455,5.315c2.364,0.027,4.661,0.484,6.828,1.209
		c-1.789,1.428-3.791,2.639-6.002,3.471c2.211,0.838,4.213,2.049,6.005,3.475c-2.17,0.729-4.467,1.182-6.831,1.209
		c1.794,1.541,3.262,3.365,4.455,5.318c-2.289-0.061-4.602-0.418-6.832-1.201c1.158,2.063,1.912,4.275,2.367,6.518
		c-2.131-0.834-4.181-1.963-6.008-3.461c0.383,2.332,0.334,4.67-0.007,6.934c-1.714-1.516-3.255-3.275-4.46-5.309
		c-0.439,2.324-1.284,4.504-2.379,6.518c-1.093-2.014-1.937-4.193-2.376-6.518c-1.206,2.033-2.747,3.793-4.462,5.309
		c-0.34-2.264-0.39-4.6-0.005-6.934c-1.829,1.498-3.879,2.627-6.009,3.465c0.454-2.244,1.208-4.459,2.367-6.521
		c-2.231,0.783-4.543,1.141-6.833,1.201c1.197-1.953,2.662-3.777,4.455-5.318c-2.364-0.027-4.658-0.48-6.829-1.209
		c1.792-1.426,3.792-2.637,6.002-3.475c-2.21-0.832-4.213-2.043-6.002-3.471c2.168-0.725,4.465-1.182,6.829-1.209
		c-1.793-1.543-3.258-3.363-4.455-5.315c2.289,0.058,4.601,0.417,6.833,1.198c-1.158-2.061-1.913-4.276-2.367-6.52
		c2.13,0.839,4.18,1.964,6.009,3.464c-0.385-2.334-0.334-4.673,0.005-6.937C100.825,39.399,102.365,41.16,103.571,43.192
		L103.571,43.192z M105.948,56.673 M105.948,56.673"/>
	<path id="XMLID_9585_" fill-rule="evenodd" clip-rule="evenodd" fill="#FFFFFF" d="M103.544,50.067
		c-0.435-2.399-0.382-4.698,0.027-6.872c1.131,1.902,1.965,4.045,2.376,6.446c0.413-2.401,1.249-4.544,2.377-6.446
		c0.409,2.174,0.461,4.473,0.028,6.872c1.207-2.119,2.728-3.844,4.438-5.247c-0.359,2.184-1.096,4.362-2.324,6.468
		c1.858-1.576,3.875-2.68,5.967-3.412c-1.085,1.928-2.522,3.725-4.396,5.281c2.286-0.846,4.56-1.191,6.773-1.164
		c-1.679,1.443-3.643,2.639-5.938,3.461c2.436-0.014,4.692,0.439,6.762,1.219c-2.069,0.781-4.326,1.234-6.762,1.223
		c2.295,0.822,4.259,2.018,5.938,3.459c-2.214,0.027-4.487-0.32-6.773-1.164c1.874,1.559,3.312,3.354,4.396,5.281
		c-2.092-0.73-4.108-1.836-5.967-3.412c1.229,2.105,1.965,4.285,2.324,6.469c-1.711-1.402-3.231-3.129-4.438-5.248
		c0.433,2.4,0.381,4.699-0.028,6.873c-1.129-1.902-1.965-4.045-2.377-6.447c-0.412,2.402-1.249,4.545-2.376,6.447
		c-0.41-2.174-0.462-4.473-0.027-6.873c-1.208,2.119-2.729,3.846-4.44,5.248c0.359-2.184,1.096-4.363,2.325-6.469
		c-1.86,1.576-3.877,2.682-5.965,3.412c1.083-1.928,2.52-3.725,4.395-5.281c-2.286,0.844-4.56,1.191-6.773,1.166
		c1.681-1.443,3.645-2.639,5.938-3.461c-2.435,0.012-4.691-0.441-6.761-1.223c2.07-0.779,4.327-1.232,6.761-1.219
		c-2.295-0.824-4.256-2.018-5.938-3.461c2.213-0.027,4.487,0.318,6.773,1.164c-1.875-1.559-3.311-3.354-4.395-5.281
		c2.088,0.732,4.105,1.836,5.965,3.41c-1.229-2.104-1.965-4.282-2.325-6.466C100.815,46.224,102.335,47.948,103.544,50.067
		L103.544,50.067z M103.544,50.067"/>
	<g id="XMLID_9576_">
		<path id="XMLID_9581_" fill-rule="evenodd" clip-rule="evenodd" fill="#129648" d="M115.09,0.876v16.821h2.503v-1.616
			c1.029,1.382,2.176,2.018,3.837,2.018c3.088,0,5.287-2.507,5.287-6.508c0-4.117-2.245-6.619-5.262-6.619
			c-1.662,0-2.95,0.7-3.837,2.035V0.876H115.09z M120.847,7.263c1.987,0,3.229,1.545,3.229,4.352c0,2.666-1.241,4.188-3.229,4.188
			c-2.083,0-3.275-1.474-3.275-4.258C117.571,8.713,118.693,7.263,120.847,7.263L120.847,7.263z M120.847,7.263"/>
		<path id="XMLID_9577_" fill-rule="evenodd" clip-rule="evenodd" fill="#129648" d="M134.167,7.263
			c1.965,0,3.229,1.545,3.229,4.211c0,2.807-1.241,4.328-3.229,4.328c-2.131,0-3.276-1.427-3.276-4.188
			C130.891,8.737,132.062,7.263,134.167,7.263L134.167,7.263z M130.939,16.177c0.863,1.261,2.176,1.922,3.836,1.922
			c3.017,0,5.264-2.507,5.264-6.625c0-4-2.199-6.502-5.286-6.502c-1.687,0-2.832,0.653-3.836,2.128V5.368h-2.505v17.245h2.527
			V16.177z M130.939,16.177"/>
	</g>
</g>
</svg>
