<?xml version="1.0" encoding="utf-8"?>
<!-- Generator: Adobe Illustrator 16.0.0, SVG Export Plug-In . SVG Version: 6.00 Build 0)  -->
<!DOCTYPE svg PUBLIC "-//W3C//DTD SVG 1.1//EN" "http://www.w3.org/Graphics/SVG/1.1/DTD/svg11.dtd">
<svg version="1.1" id="Layer_1" xmlns="http://www.w3.org/2000/svg" xmlns:xlink="http://www.w3.org/1999/xlink" x="0px" y="0px"
	 width="212px" height="92px" viewBox="0 0 212 92" enable-background="new 0 0 212 92" xml:space="preserve">
<g id="XMLID_198_">
	<path id="XMLID_210_" fill-rule="evenodd" clip-rule="evenodd" fill="#F79239" d="M111.436,17.21H84.03
		c-7.217,0-13.066,5.849-13.066,13.063c0,7.216,5.849,13.065,13.066,13.065l23.494-0.053c3.627,0,5.831-0.332,8.286-2.626
		l2.944-2.953c2.457-2.296,4.694-2.602,8.321-2.602l17.282,0.008c1.38,0,2.614-0.549,3.447-1.52l6.812-6.788l-22.839-0.015
		c-1.379,0-2.727,0.533-3.558,1.504l-4.047,4.17c-2.458,2.296-4.66,2.605-8.286,2.605l-31.774,0.039
		c-2.602,0-4.711-2.108-4.711-4.711c0-2.602,2.109-4.71,4.711-4.71l16.812,0.022c1.378,0,2.613-0.548,3.445-1.519L111.436,17.21
		L111.436,17.21z"/>
	<path id="XMLID_209_" fill-rule="evenodd" clip-rule="evenodd" fill="#F15D2F" d="M142.535,42.474l-22.653-0.026
		c-1.38,0-2.399,0.516-3.233,1.487l-4.081,4.139c-2.455,2.297-4.658,2.573-8.286,2.573H84.03c-11.252,0-20.372-9.121-20.372-20.373
		c0-11.25,9.12-20.438,20.372-20.438l29.349,0.002c1.378,0,2.615-0.592,3.447-1.562l6.774-6.789H84.03
		c-15.899,0-28.787,12.889-28.787,28.786c0,15.898,12.888,28.787,28.787,28.787l11.499,0.019c3.627,0,6.117-0.53,8.573-2.826
		l2.945-2.954c2.454-2.296,4.801-2.617,8.428-2.617l16.812,0.007c1.38,0,2.615-0.548,3.449-1.519L142.535,42.474L142.535,42.474z"/>
	<path id="XMLID_199_" fill-rule="evenodd" clip-rule="evenodd" fill="#004FA3" d="M86.803,83.786c0,0.952,0.029,1.904,0.116,2.561
		h-4.432c-0.059-0.466-0.059-0.847-0.088-1.608l-1.94,1.757c-0.55,0.063-0.927,0.105-1.593,0.105c-5.07,0-5.36-2.603-5.36-3.237
		c0-2.03,2.144-2.834,2.926-3.089c1.188-0.359,2.52-0.465,3.824-0.465c0.926,0,1.738,0.084,2.143,0.126
		c-0.086-1.015-0.491-2.094-3.186-2.094c-1.854,0-3.563,0.529-4.519,0.825l2.115-2.688c1.275-0.211,2.55-0.338,3.852-0.338
		c1.044,0,3.042,0.063,4.491,0.889c1.623,0.931,1.651,2.18,1.651,2.899V83.786L86.803,83.786z M157.918,83.786
		c0,0.952,0.028,1.904,0.116,2.561h-4.433c-0.058-0.466-0.058-0.847-0.088-1.608l-1.939,1.757c-0.551,0.063-0.928,0.105-1.594,0.105
		c-5.068,0-5.359-2.603-5.359-3.237c0-2.03,2.144-2.834,2.925-3.089c1.188-0.359,2.521-0.465,3.826-0.465
		c0.926,0,1.737,0.084,2.142,0.126c-0.087-1.015-0.492-2.094-3.187-2.094c-1.854,0-3.563,0.529-4.519,0.825l2.115-2.688
		c1.274-0.211,2.549-0.338,3.853-0.338c1.043,0,3.042,0.063,4.491,0.889c1.621,0.931,1.65,2.18,1.65,2.899V83.786L157.918,83.786z
		 M122.67,75.896c0.462-0.106,1.069-0.254,1.938-0.254c3.824,0,6.171,2.157,6.171,5.331c0,3.639-3.101,5.628-6.605,5.628
		c-1.738,0-2.896-0.486-3.506-0.762v5.04h-4.721V75.896h4.721v2.094L122.67,75.896L122.67,75.896z M68.588,86.466
		c-0.893,0.16-1.216,0.262-3.476,0.262c-7.329,0-11.645-3.364-11.645-7.68c0-4.211,4.083-8.019,12.022-8.019
		c2.316,0,4.084,0.317,5.475,0.613v3.322c-0.724-0.34-2.404-1.121-4.838-1.121c-4.519,0-7.097,2.306-7.097,5.035
		c0,2.878,2.781,5.119,7.532,5.119c1.825,0,3.65-0.296,5.331-0.804L68.588,86.466L68.588,86.466z M153.514,81.841
		c-0.347-0.021-1.043-0.063-1.361-0.063c-0.637,0-1.101,0.042-1.478,0.126c-1.39,0.275-1.593,0.994-1.593,1.333
		c0,0.741,0.753,1.27,2.29,1.27c0.926,0,1.737-0.232,2.142-0.359V81.841L153.514,81.841z M140.217,80.443
		c0.522,0.17,1.187,0.381,1.679,0.72c0.698,0.444,1.248,1.143,1.248,2.073c0,1.629-1.71,3.364-5.823,3.364
		c-0.782,0-2.868-0.063-4.896-0.762v-2.624c1.158,0.571,2.521,1.122,3.968,1.122c1.392,0,1.942-0.613,1.942-1.122
		c0-0.739-1.073-1.016-1.709-1.184l-1.304-0.339c-0.87-0.254-2.985-0.868-2.985-2.708c0-1.481,1.536-3.343,5.62-3.343
		c2.23,0,3.882,0.571,4.375,0.741v2.56c-0.464-0.339-1.593-1.122-3.447-1.122c-1.42,0-1.826,0.656-1.826,1.059
		c0,0.634,0.842,0.888,1.565,1.121L140.217,80.443L140.217,80.443z M120.668,83.554c0.262,0.148,1.043,0.593,2.145,0.593
		c1.911,0,3.129-1.271,3.129-3.131c0-0.763-0.232-1.565-0.782-2.137c-0.521-0.508-1.362-0.868-2.435-0.868
		c-0.753,0-1.39,0.148-2.057,0.423V83.554L120.668,83.554z M89.499,75.874h4.692v2.2l2.057-2.095
		c0.377-0.084,1.593-0.359,2.839-0.359c3.939,0,4.46,1.968,4.605,2.518l2.144-2.179c0.955-0.211,1.941-0.339,2.896-0.339
		c1.361,0,2.753,0.275,3.65,1.016c0.985,0.804,0.985,1.692,0.985,2.646v7.065h-4.693v-5.289c0-1.164-0.029-1.714-0.348-2.157
		c-0.405-0.551-1.188-0.784-2.056-0.784c-1.16,0-2.058,0.402-2.521,0.614c0.029,0.254,0.029,0.551,0.029,1.27v6.347h-4.692v-5.755
		c0-1.629-0.464-2.454-2.405-2.454c-0.897,0-1.709,0.233-2.491,0.551v7.658h-4.692V75.874L89.499,75.874z M82.399,81.841
		c-0.347-0.021-1.042-0.063-1.361-0.063c-0.636,0-1.101,0.042-1.477,0.126c-1.391,0.275-1.594,0.994-1.594,1.333
		c0,0.741,0.753,1.27,2.289,1.27c0.926,0,1.738-0.232,2.143-0.359V81.841L82.399,81.841z"/>
</g>
</svg>
