<?xml version="1.0" encoding="utf-8"?>
<!-- Generator: Adobe Illustrator 16.0.0, SVG Export Plug-In . SVG Version: 6.00 Build 0)  -->
<!DOCTYPE svg PUBLIC "-//W3C//DTD SVG 1.1//EN" "http://www.w3.org/Graphics/SVG/1.1/DTD/svg11.dtd">
<svg version="1.1" id="Layer_1" xmlns="http://www.w3.org/2000/svg" xmlns:xlink="http://www.w3.org/1999/xlink" x="0px" y="0px"
	 width="212px" height="92px" viewBox="0 0 212 92" enable-background="new 0 0 212 92" xml:space="preserve">
<g id="XMLID_57_">
	<path id="XMLID_188_" fill-rule="evenodd" clip-rule="evenodd" fill="#074C80" d="M52.107,73.595
		c1.779-0.431,4.026-0.431,5.258,1.134c0.235-0.47,0.411-1.134,1.036-1.211c0.566-0.098,1.427-0.021,1.544,0.683
		c0.215,0.938-0.039,1.936,0.039,2.894c-0.02,0.918,0.293,1.915-0.235,2.735c-0.528,0.567-1.446,0.588-2.149,0.372
		c-0.684-0.176-0.821-0.958-0.958-1.545c-0.176-0.762-0.312-1.7-1.114-2.032c-1.017-0.429-2.306-0.195-3.088,0.587
		c-0.938,1.095-1.173,2.6-1.173,3.986c0,1.369,0.156,2.814,0.997,3.948c0.879,1.31,3.049,1.428,4.104,0.273
		c0.665-0.801,0.254-1.954,0.645-2.853c0.801-1.193,2.932-0.802,3.322,0.566c0.313,1.153,0.156,2.443-0.449,3.479
		c-0.821,1.33-2.327,2.131-3.851,2.365c-1.76,0.313-3.675,0.332-5.316-0.508c-1.603-0.762-2.736-2.326-3.244-4.007
		c-0.625-1.994-0.587-4.183-0.04-6.177C48.023,76.058,49.821,74.103,52.107,73.595L52.107,73.595z"/>
	<path id="XMLID_187_" fill-rule="evenodd" clip-rule="evenodd" fill="#074C80" d="M99.974,1.475
		c3.576-0.801,7.387,0.136,10.396,2.149c1.779,1.153,3.283,2.717,4.535,4.437c0.508,0.86,1.153,1.837,0.801,2.873
		c-0.938,0.137-1.856-0.234-2.795-0.157c-1.817,0.04-3.498,1.231-4.319,2.834c-0.977,1.896-1.134,4.124-1.095,6.234
		c0.04,1.896,0.605,3.831,1.857,5.297c1.505,1.779,3.812,2.697,6.099,2.912c3.067,0.215,6.37-0.508,8.677-2.677
		c2.131-2.014,2.99-5.023,3.029-7.896c0.059-3.283-0.762-6.528-1.876-9.616c-0.566-1.681-1.798-3.03-2.521-4.632
		c0.059-0.137,0.195-0.371,0.273-0.508c0.313,0,0.685-0.098,0.898,0.195c8.659,8.815,17.317,17.63,25.956,26.444
		c0.938,1.016,2.014,2.209,1.896,3.694c-0.37,1.505-1.523,2.639-2.579,3.714c-8.149,8.208-16.301,16.398-24.45,24.606
		c-0.566,0.528-1.056,1.271-1.877,1.368c-0.059-0.136-0.176-0.391-0.254-0.527c0.176-1.172,0.821-2.188,1.271-3.264
		c0.509-1.153,1.095-2.247,1.447-3.459c0.488-1.76,1.094-3.519,1.171-5.375c0.079-2.149-0.077-4.3-0.371-6.431
		c-0.332-2.169-1.505-4.182-3.283-5.472c-2.404-1.798-5.569-2.482-8.521-1.955c-2.521,0.527-4.534,2.443-5.766,4.632
		c-1.368,2.365-1.622,5.238-0.978,7.857c0.353,1.349,0.841,2.716,1.7,3.83c0.978,1.271,2.814,1.975,4.358,1.388
		c0.489-0.156,0.978-0.352,1.486-0.215c0.841,0.763,0.352,2.014,0.02,2.912c-1.114,2.189-2.736,4.223-4.926,5.434
		c-2.775,1.563-6.059,2.286-9.225,1.778c-3.479-0.449-6.626-2.481-8.697-5.277c-3.01-3.967-4.339-8.912-5.218-13.759
		c-0.84-5.296-1.114-10.691-0.782-16.027c0.391-5.121,1.231-10.222,2.931-15.069c1.016-2.971,2.424-5.844,4.457-8.248
		C95.321,3.586,97.491,2.022,99.974,1.475L99.974,1.475z"/>
	<path id="XMLID_125_" fill-rule="evenodd" clip-rule="evenodd" fill="#ED3025" d="M78.493,4.172
		c0.528-0.469,0.958-1.056,1.583-1.407c0.234,0.039,0.469,0.098,0.703,0.176c0.098,0.801-0.488,1.407-0.879,2.052
		C79.041,6.4,78.22,7.846,77.34,9.254c-2.423,3.948-3.596,8.482-4.436,12.997c-0.391,2.561-0.724,5.14-0.801,7.74
		c-0.353,4.984,0.098,10.007,1.192,14.874c1.036,4.222,2.501,8.385,4.75,12.138c0.84,1.602,1.837,3.127,2.756,4.69
		c0.234,0.293,0.175,0.684,0.156,1.035c-0.782,0.196-1.309-0.449-1.797-0.938c-8.737-8.6-17.532-17.122-26.249-25.721
		c-0.898-0.957-1.954-2.111-1.856-3.518c0.352-1.857,1.954-3.069,3.205-4.339C62.33,20.179,70.421,12.185,78.493,4.172L78.493,4.172
		z"/>
	<path id="XMLID_124_" fill-rule="evenodd" clip-rule="evenodd" fill="#074C80" d="M116.977,74.318
		c0.919-0.919,2.307-1.036,3.538-0.997c1.017,0.02,2.11,0.215,2.892,0.899c0.606,0.547,0.803,1.544,0.43,2.286
		c-0.546,0.88-1.895,0.958-2.696,0.371c-0.43-0.313-0.392-0.898-0.508-1.367c-0.293,0-0.685-0.079-0.899,0.176
		c-0.469,0.527-0.332,1.31-0.352,1.954c0.645-0.02,1.29-0.098,1.935-0.039c1.036,0.293,1.074,1.915,0.255,2.482
		c-0.664,0.137-1.368-0.021-2.054,0.059c-0.058,2.052-0.097,4.104,0.021,6.156c0.684,0.079,1.349-0.176,2.033-0.059
		c0.879,0.235,1.095,1.427,0.664,2.13c-0.332,0.489-0.958,0.587-1.506,0.548c-1.817-0.137-3.674-0.156-5.511-0.039
		c-0.665,0.039-1.466,0.156-1.994-0.392c-0.487-0.723-0.313-1.974,0.606-2.247c0.685-0.098,1.349,0.138,2.013,0.059
		c0.156-1.31,0.059-2.618,0.078-3.929c-0.02-0.762,0.138-1.583-0.195-2.307c-0.645,0.021-1.309,0.157-1.935,0.021
		c-0.841-0.353-0.82-1.622-0.293-2.229c0.703-0.527,1.661-0.195,2.482-0.215C116.039,76.487,116.078,75.159,116.977,74.318
		L116.977,74.318z"/>
	<path id="XMLID_123_" fill-rule="evenodd" clip-rule="evenodd" fill="#074C80" d="M63.522,77.953
		c1.231-0.723,2.678-0.82,4.046-0.781c1.231,0,2.541,0.137,3.596,0.82c0.645,0.411,1.016,1.153,1.075,1.896
		c0.234,2.091,0,4.182,0.156,6.273c0.509,0.216,1.134,0.216,1.623,0.509c0.488,0.683,0.273,1.816-0.489,2.208
		c-1.29,0.664-3.01,0.313-3.812-0.919c-1.504,1.153-3.498,1.428-5.335,1.115c-1.329-0.255-2.56-1.271-2.795-2.639
		c-0.137-0.938-0.097-1.956,0.45-2.775c0.41-0.646,1.153-1.017,1.896-1.213c1.192-0.39,2.482-0.43,3.674-0.82
		c0.508-0.156,1.055-0.47,1.212-1.036c0-0.508-0.254-1.055-0.743-1.271c-0.508-0.234-1.075-0.078-1.603,0.021
		c-0.137,0.605,0.117,1.445-0.528,1.798c-1.016,0.586-2.58,0.547-3.244-0.527C62.212,79.692,62.623,78.442,63.522,77.953
		L63.522,77.953z"/>
	<path id="XMLID_93_" fill-rule="evenodd" clip-rule="evenodd" fill="#074C80" d="M105.035,77.27
		c1.642-0.255,3.382-0.137,4.847,0.703c1.251,0.782,2.053,2.17,2.189,3.636c0.038,0.646,0.195,1.446-0.313,1.954
		c-0.313,0.138-0.664,0.118-0.978,0.138c-2.129,0-4.261-0.02-6.39,0c0.039,0.723,0.097,1.523,0.585,2.11
		c0.567,0.703,1.583,0.82,2.444,0.665c0.997-0.177,0.938-1.564,1.856-1.897c0.742-0.272,1.681-0.253,2.286,0.313
		c0.392,0.332,0.43,0.899,0.372,1.388c-0.118,0.879-0.782,1.564-1.506,2.013c-1.504,0.899-3.342,0.997-5.042,0.821
		c-1.603-0.176-3.146-1.074-3.986-2.482c-0.978-1.622-1.076-3.654-0.626-5.452C101.263,79.165,103.022,77.581,105.035,77.27
		L105.035,77.27z"/>
	<path id="XMLID_74_" fill-rule="evenodd" clip-rule="evenodd" fill="#074C80" d="M128.626,77.23
		c1.622-0.216,3.361-0.039,4.729,0.898c1.349,0.899,2.189,2.443,2.346,4.047c0.234,1.895-0.138,4.025-1.564,5.413
		c-1.113,1.192-2.813,1.642-4.417,1.603c-1.642,0.039-3.342-0.546-4.437-1.798c-1.407-1.563-1.661-3.87-1.271-5.863
		C124.404,79.283,126.359,77.465,128.626,77.23L128.626,77.23z"/>
	<path id="XMLID_73_" fill-rule="evenodd" clip-rule="evenodd" fill="#074C80" d="M82.089,77.739
		c0.978-0.567,2.208-0.587,3.264-0.256c1.701,0.606,2.384,3.011,1.271,4.398c-0.821,0.763-2.424,0.723-3.029-0.293
		c-0.293-0.469-0.157-1.056-0.118-1.603c-0.488,0.156-0.997,0.332-1.329,0.742c-0.626,0.782-0.685,1.838-0.685,2.795
		c0.039,0.938-0.097,1.896,0.118,2.814c0.645,0,1.29-0.176,1.935-0.137c1.271,0.254,1.212,2.561-0.117,2.678
		c-1.31,0.098-2.599-0.156-3.909-0.117c-1.173-0.039-2.346,0.254-3.499,0.098c-0.547-0.137-0.743-0.723-0.743-1.212
		c-0.039-0.547,0.118-1.27,0.724-1.428c0.605-0.058,1.192,0.099,1.798,0.118c0.137-0.996,0.059-1.993,0.078-2.99
		c-0.02-1.134,0.059-2.267-0.078-3.381c-0.606-0.04-1.192,0.078-1.778,0.097c-1.173-0.43-0.938-2.599,0.352-2.657
		c1.368,0.039,2.736,0.059,4.084,0.059c0.156,0.703,0.176,1.427,0.137,2.169C80.956,78.911,81.367,78.168,82.089,77.739
		L82.089,77.739z"/>
	<path id="XMLID_72_" fill-rule="evenodd" clip-rule="evenodd" fill="#074C80" d="M94.852,77.602c1.075-0.469,2.365-0.449,3.4,0.059
		c1.251,0.685,1.74,2.326,1.271,3.635c-0.488,1.31-2.521,1.506-3.323,0.411c-0.391-0.488-0.253-1.134-0.215-1.7
		c-1.271,0.176-1.916,1.466-1.955,2.619c-0.059,1.211-0.078,2.423,0,3.615c0.664,0.196,1.33-0.098,1.994-0.039
		c1.29,0.254,1.251,2.561-0.117,2.678c-1.173,0.098-2.345-0.117-3.518-0.117c-1.172-0.059-2.345,0.156-3.519,0.136
		c-1.27,0.021-1.388-1.816-0.684-2.54c0.646-0.332,1.407-0.02,2.091-0.02c0.156-1.056,0.078-2.13,0.098-3.186
		c-0.02-1.056,0.059-2.13-0.098-3.186c-0.586-0.04-1.193,0.078-1.779,0.078c-0.84-0.313-0.918-1.544-0.43-2.189
		c0.449-0.625,1.31-0.449,1.974-0.43c0.977,0.098,1.955-0.02,2.932,0.02c0.137,0.723,0.137,1.446,0.098,2.169
		C93.523,78.833,94.012,77.992,94.852,77.602L94.852,77.602z"/>
	<path id="XMLID_70_" fill-rule="evenodd" clip-rule="evenodd" fill="#074C80" d="M137.069,77.426
		c0.605-0.156,1.231-0.02,1.838-0.02c1.133,0.098,2.266-0.117,3.399-0.02c0.254,0.938,0.176,1.896,0.176,2.834
		c0.02,1.368-0.02,2.736,0.02,4.104c-0.02,0.645,0.273,1.349,0.899,1.603c0.703,0.273,1.642,0.156,2.091-0.488
		c0.391-0.605,0.431-1.369,0.469-2.092c0.021-1.114,0.039-2.228-0.058-3.342c-0.724-0.079-1.563,0.155-2.17-0.313
		c-0.43-0.625-0.43-1.583,0.176-2.091c0.392-0.353,0.958-0.234,1.446-0.234c1.329,0.137,2.678-0.059,4.007,0.02
		c0.078,0.293,0.176,0.586,0.195,0.88c0.078,2.658-0.079,5.315,0.078,7.974c0.781,0.117,1.681-0.272,2.366,0.235
		c0.448,0.625,0.448,1.661-0.138,2.188c-0.528,0.489-1.271,0.215-1.896,0.215c-1.096-0.137-2.209,0.116-3.323,0.039
		c-0.059-0.605-0.059-1.231-0.02-1.837c-1.173,2.013-4.026,2.736-6.039,1.622c-0.841-0.449-1.446-1.31-1.563-2.267
		c-0.255-2.131-0.02-4.28-0.195-6.431c-0.646-0.079-1.329,0.078-1.975-0.098C136.013,79.342,136.17,77.855,137.069,77.426
		L137.069,77.426z"/>
	<path id="XMLID_69_" fill-rule="evenodd" clip-rule="evenodd" fill="#074C80" d="M154.151,77.387c1.271,0.039,2.56,0.156,3.83,0.02
		c0.273,0.664,0.216,1.388,0.234,2.092c0.43-0.625,0.782-1.349,1.466-1.74c1.096-0.664,2.542-0.664,3.675-0.078
		c1.192,0.605,1.622,2.131,1.349,3.381c-0.313,1.466-2.561,1.838-3.42,0.646c-0.372-0.488-0.215-1.134-0.195-1.7
		c-0.449,0.137-0.919,0.273-1.232,0.645c-0.704,0.782-0.762,1.896-0.762,2.873c0,0.938-0.078,1.896,0.117,2.814
		c0.684,0,1.349-0.215,2.033-0.118c0.879,0.313,0.996,1.525,0.547,2.229c-0.353,0.488-1.036,0.469-1.583,0.469
		c-1.505-0.098-3.011-0.234-4.495-0.098c-0.724,0.02-1.466,0.175-2.169,0c-0.899-0.45-0.881-1.955-0.138-2.541
		c0.665-0.195,1.368,0.118,2.032-0.039c0.059-2.072,0.059-4.144-0.019-6.215c-0.742-0.333-1.778,0.469-2.287-0.372
		C152.51,78.853,152.998,77.328,154.151,77.387L154.151,77.387z"/>
	<path id="XMLID_66_" fill-rule="evenodd" clip-rule="evenodd" fill="#FFFFFF" d="M105.094,80.221
		c0.625-0.645,1.682-0.684,2.462-0.313c0.606,0.332,0.782,1.075,0.841,1.72c-1.29,0.039-2.6,0.039-3.909,0
		C104.585,81.12,104.702,80.572,105.094,80.221L105.094,80.221z"/>
	<path id="XMLID_63_" fill-rule="evenodd" clip-rule="evenodd" fill="#FFFFFF" d="M128.664,80.161
		c1.076-0.585,2.58-0.194,3.108,0.959c0.548,1.27,0.567,2.814,0,4.084c-0.548,1.427-2.717,1.682-3.636,0.508
		c-0.723-0.878-0.762-2.071-0.703-3.146C127.512,81.648,127.843,80.65,128.664,80.161L128.664,80.161z"/>
	<path id="XMLID_61_" fill-rule="evenodd" clip-rule="evenodd" fill="#FFFFFF" d="M65.848,84.56
		c0.938-0.371,1.935-0.489,2.874-0.821c0,0.821,0.078,1.74-0.508,2.404c-0.606,0.605-1.642,0.703-2.384,0.333
		C65.105,86.104,65.086,84.872,65.848,84.56L65.848,84.56z"/>
</g>
</svg>
