<?xml version="1.0" encoding="utf-8"?>
<!-- Generator: Adobe Illustrator 16.0.0, SVG Export Plug-In . SVG Version: 6.00 Build 0)  -->
<!DOCTYPE svg PUBLIC "-//W3C//DTD SVG 1.1//EN" "http://www.w3.org/Graphics/SVG/1.1/DTD/svg11.dtd">
<svg version="1.1" id="Layer_1" xmlns="http://www.w3.org/2000/svg" xmlns:xlink="http://www.w3.org/1999/xlink" x="0px" y="0px"
	 width="212px" height="92px" viewBox="0 0 212 92" enable-background="new 0 0 212 92" xml:space="preserve">
<path id="XMLID_805_" fill="#1A659C" d="M51.936,54.925c0.012-0.124,0.025-0.249,0.039-0.374c0.009-0.12,0.018-0.239,0.027-0.359
	L52,54.196c0.302-1.244,0.414-2.521,0.493-3.787c0.053-0.863,0.382-1.051,1.154-1.013c1.17,0.059,2.347-0.009,3.52,0.021
	c8.083,0.199,16.178-0.452,24.251,0.395l0.004,0.001c0.118,0.036,0.237,0.069,0.354,0.104c0.123,0.023,0.244,0.048,0.366,0.071
	c1.025,0.371,2.05,0.744,3.076,1.116l0.072,0.032c0.58,0.335,1.159,0.67,1.738,1.004c0.026,0.055,0.066,0.074,0.124,0.064
	c1.422,1.054,2.74,2.224,3.848,3.62c0.083,0.121,0.168,0.242,0.252,0.364c0.399,0.667,0.799,1.335,1.197,2.003l0.002,0.005
	c0.617,1.554,1.105,3.131,1.311,4.809c0.247,2.028-0.099,3.992-0.42,5.968H93.34c-0.019,0.053-0.039,0.108-0.058,0.16
	c-0.035,0.132-0.07,0.264-0.104,0.396c-0.218,0.61-0.437,1.219-0.655,1.828c-0.034,0.102-0.067,0.205-0.1,0.308
	c-1.484,3.077-3.458,5.753-6.173,7.846c-1.909,1.471-4.04,2.501-6.271,3.345c-0.179,0.059-0.359,0.118-0.539,0.178
	c-0.903,0.192-1.805,0.387-2.708,0.581c-0.179,0.017-0.358,0.034-0.537,0.053c-0.868,0.039-1.736,0.112-2.604,0.113
	c-7.832,0.009-15.663,0.005-23.496,0.005c-1.519,0-1.518,0-1.38-1.481c0.017-0.18,0.011-0.361,0.015-0.542
	c0.004-0.061,0.008-0.122,0.011-0.184c0.335-1.751,0.48-3.527,0.662-5.299c0.018-0.188,0.036-0.374,0.055-0.561
	c0.11-0.908,0.222-1.817,0.333-2.727c0.013-0.179,0.025-0.358,0.038-0.537c0.327-1.876,0.548-3.765,0.684-5.663
	c0.012-0.123,0.023-0.247,0.036-0.371c0.452-3.031,0.828-6.073,1.085-9.13l0.002,0.004C51.837,56.52,51.917,55.726,51.936,54.925z
	 M66.241,78.114c0,0,0,0.002,0,0.003c0.601,0,1.204,0.007,1.805-0.002c3.334-0.045,6.09-1.378,8.174-3.98
	c2.876-3.594,3.766-7.781,3.088-12.273c-0.591-3.923-2.848-6.069-6.733-6.647c-2.091-0.311-4.208-0.063-6.312-0.136
	c-0.58-0.02-0.501,0.387-0.543,0.731c-0.275,2.296-0.547,4.592-0.821,6.886c-0.585,4.894-1.157,9.786-1.775,14.674
	c-0.084,0.66,0.097,0.783,0.681,0.755C64.614,78.083,65.428,78.114,66.241,78.114z"/>
<path id="XMLID_802_" fill="#1A659C" d="M208.088,57.476c-0.021,0.188-0.039,0.374-0.059,0.562c-0.107,0.848-0.213,1.696-0.32,2.544
	c-0.014,0.18-0.027,0.363-0.042,0.544c-0.316,1.813-0.511,3.64-0.673,5.472c-0.017,0.188-0.033,0.378-0.051,0.566
	c-0.458,2.906-0.766,5.831-1.061,8.757c-0.009,0.122-0.016,0.245-0.025,0.368c-0.209,0.838-0.276,1.695-0.32,2.555
	c-0.014,0.181-0.029,0.363-0.044,0.544c-0.313,1.439-0.398,2.91-0.561,4.37c-0.056,0.021-0.112,0.044-0.17,0.066
	c-0.299-0.014-0.6-0.037-0.897-0.037c-6.947-0.002-13.895-0.038-20.839,0.015c-3.297,0.024-6.549-0.111-9.679-1.284
	c-0.034-0.045-0.077-0.06-0.132-0.045c-0.717-0.376-1.445-0.725-2.144-1.13c-3.249-1.892-5.433-4.686-6.731-8.215
	c-0.022-0.104-0.044-0.208-0.066-0.312c-1.023-3.935-0.605-7.746,0.995-11.442c1.184-2.738,2.997-5.012,5.158-7.021l0.019-0.014
	c2.52-2.065,5.351-3.509,8.479-4.367l0.016-0.003c1.628-0.285,3.253-0.564,4.918-0.563c8.063,0.012,16.125,0.021,24.186-0.019
	c0.874-0.004,0.964,0.27,0.863,1.028C208.601,52.764,208.356,55.122,208.088,57.476z M188.14,78.117
	c1.082,0,1.958-0.042,2.826,0.014c0.625,0.04,0.8-0.186,0.871-0.797c0.846-7.185,1.715-14.368,2.602-21.55
	c0.075-0.603-0.112-0.722-0.656-0.711c-1.443,0.032-2.889-0.008-4.332,0.015c-2.731,0.044-5.155,0.952-7.103,2.894
	c-3.639,3.632-4.785,8.136-4.136,13.136c0.521,4.011,2.777,6.222,6.715,6.881C186.064,78.189,187.208,78.083,188.14,78.117z"/>
<path id="XMLID_801_" fill="#1A659C" d="M123.507,82.85l-0.037-0.039l-0.052,0.021c-1.229-0.432-2.411-1.009-3.705-1.239
	c-0.114-0.089-0.228-0.177-0.342-0.266c-0.563-0.285-1.115-0.592-1.69-0.85c-0.51-0.229-0.493-0.453-0.137-0.846
	c0.958-1.051,1.918-2.104,2.8-3.219c0.355-0.452,0.629-0.517,1.121-0.311c1.303,0.546,2.621,1.056,4.027,1.276
	c3.418,0.985,6.919,1.19,10.447,1.145c1.022-0.014,2.045-0.064,3.035-0.368c1.921-0.589,2.418-2.177,1.105-3.708
	c-1.521-1.771-3.492-2.965-5.457-4.147c-2.09-1.261-4.258-2.392-6.241-3.832c-1.053-0.765-2.058-1.584-2.926-2.563
	c-3.261-3.672-2.848-8.255,1.03-11.277c2.598-2.026,5.635-3.006,8.805-3.514c8.984-1.441,17.738-0.472,26.238,2.811
	c0.189,0.073,0.422,0.087,0.551,0.366c-1.04,1.184-2.111,2.37-3.144,3.592c-0.336,0.397-0.654,0.178-0.974,0.086
	c-3.989-1.156-8.064-1.662-12.205-1.672c-1.205-0.002-2.403,0.073-3.57,0.431c-0.467,0.143-0.907,0.33-1.293,0.627
	c-0.853,0.662-1.012,1.599-0.394,2.485c0.237,0.345,0.532,0.664,0.854,0.929c1.474,1.222,3.117,2.157,4.859,2.925
	c0.622,0.467,1.323,0.78,2.042,1.058l0.015,0.005c0.562,0.319,1.122,0.643,1.687,0.958c2.067,1.155,4.131,2.319,5.958,3.857
	c1.758,1.48,3.108,3.213,3.379,5.608c-0.002,0.244-0.003,0.486-0.004,0.729c-0.006,0.123-0.012,0.245-0.017,0.367
	c-0.038,0.052-0.044,0.107-0.017,0.166c-0.509,3.201-2.169,5.617-4.876,7.318c-0.069,0.039-0.14,0.079-0.21,0.118
	c-1.652,0.926-3.458,1.448-5.238,2.036l-0.004-0.013c-1.674,0.26-3.348,0.52-5.022,0.782c-0.117,0.007-0.234,0.013-0.353,0.021
	c-0.901,0.004-1.804-0.003-2.695,0.164l-0.019,0.006c-2.103-0.046-4.207-0.094-6.31-0.14c-0.304-0.016-0.607-0.03-0.911-0.045
	C130.211,84.293,126.827,83.75,123.507,82.85z"/>
<path id="XMLID_800_" fill="#1A659C" d="M102.736,49.271c4.275,0.078,8.549,0.08,12.825-0.001c0.449,0.021,0.832,0.114,0.724,0.714
	c-0.029,0.188-0.061,0.374-0.088,0.562c-0.32,2.673-0.64,5.346-0.958,8.018c-0.012,0.125-0.023,0.249-0.034,0.372
	c-0.315,1.813-0.508,3.64-0.675,5.471c-0.38,3.225-0.761,6.451-1.143,9.676c-0.212,0.967-0.335,1.943-0.351,2.934
	c-0.037,0.054-0.042,0.108-0.014,0.167c-0.343,1.755-0.487,3.537-0.666,5.313c-0.015,0.187-0.028,0.373-0.042,0.561
	c-0.13,0.342-0.11,0.729-0.702,0.727c-4.481-0.03-8.962-0.024-13.444-0.006c-0.517,0.001-0.612-0.183-0.542-0.648
	c0.086-0.567,0.113-1.145,0.167-1.717c0.02-0.194,0.041-0.387,0.062-0.579c0.093-0.725,0.188-1.451,0.282-2.177
	c0.01-0.123,0.02-0.249,0.028-0.373c0.238-1.813,0.623-3.609,0.59-5.452c0.026-0.377-0.05-0.771,0.191-1.107
	c0.045-0.176,0.108-0.349,0.13-0.527c0.372-3.044,0.745-6.09,1.104-9.137c0.309-2.622,0.6-5.246,0.897-7.869
	c0.013-0.123,0.024-0.245,0.036-0.367c0.156-1.14,0.379-2.276,0.444-3.423C101.604,49.555,101.925,49.203,102.736,49.271z"/>
<path id="XMLID_799_" fill="#6DB85C" d="M32.497,48.477c-0.058-0.004-0.112,0.006-0.166,0.029
	c-3.471,0.507-6.915,1.146-10.278,2.177l-0.011,0.005c-0.823,0.063-1.512,0.557-2.301,0.729c-0.27,0.213-1.022-0.665-0.909,0.414
	l-0.015-0.048c-0.066,0.081-0.133,0.161-0.199,0.243c-0.112,0.053-0.224,0.107-0.334,0.161c-0.413-0.396-0.833-0.412-1.388-0.228
	c-0.737,0.247-1.387-0.23-1.759-0.772c-0.369-0.539,0.125-0.984,0.583-1.324c0.545-0.403,1.077-0.824,1.608-1.246
	c2.088-1.659,4.047-3.51,6.635-4.409c0.308-0.107,0.728-0.186,0.787-0.652c0.119,0,0.238-0.001,0.356-0.002
	c0.124,0.187,0.244,0.184,0.361-0.005c0.278,0.021,0.377-0.283,0.613-0.343c2.277-0.587,4.445-1.482,6.598-2.417
	c0.695-0.139,1.24-0.432,1.273-1.257c0.06-0.003,0.119-0.006,0.178-0.009c0.243,0.005,0.362-0.116,0.358-0.361
	c0.118-0.185,0.394-0.262,0.369-0.546c0.783-0.363,1.256-0.977,1.436-1.826l0.006-0.006c0.495-0.047,0.327-0.437,0.365-0.721
	c0.059-0.001,0.117-0.004,0.176-0.008c1.181-0.597,2.036-1.659,1.989-2.493c-0.408,0.072-0.522,0.642-0.957,0.61
	c-1.936-0.137-3.928,0.388-5.803-0.492c-1.051-0.493-2.251-0.353-3.308-0.737c-1.119-0.407-2.191-0.986-3.357-1.221
	c-1.048-0.211-1.926-0.794-2.851-1.219c-1.948-0.894-3.762-2.084-5.634-3.147c-1.19-0.676-2.316-1.438-2.858-2.77
	c-0.359-0.884-0.862-1.653-1.457-2.382c-0.252-0.311-0.411-0.672-0.237-1.099c0.237-0.584,0.032-1.068-0.368-1.494
	c-0.608-0.649-0.797-1.48-0.958-2.313c-0.078-0.401-0.049-0.91,0.546-0.746c0.566,0.157,1.146,0.171,1.718,0.434
	c1.32,0.605,2.599,1.338,4.023,1.692c2.624,0.652,5.096,1.72,7.565,2.793c0.763,0.331,1.487,0.761,2.265,1.047
	c1.374,0.503,2.608,1.342,4.055,1.676c0.411,0.095,0.649,0.628,1.186,0.551c0.515-0.074,0.932,0.165,1.283,0.536
	c0.897,0.952,2.045,1.601,3.177,2.115c1.379,0.626,2.786,1.213,4.18,1.82c1.276,0.556,3.21-0.185,3.901-1.454
	c0.593-1.087,1.133-2.242,1.921-3.174c1.235-1.463,2.677-2.745,4.057-4.078c0.778-0.751,1.491-1.585,1.875-2.7
	c0.772-2.246,1.098-2.972,3.834-2.942c1.88,0.021,3.757,0.197,5.641,0.018c0.984-0.094,1.958,0.314,2.954,0.149l-0.012-0.002
	c0.027,0.098,0.07,0.15,0.165,0.06c0.115-0.03,0.161,0.04,0.189,0.133c0.184,0.735,0.727,0.792,1.337,0.728l0.056-0.019l0.048,0.037
	c-0.104,0.397,0.646,0.281,0.436,0.749c-0.114,0.253-0.297,0.372-0.565,0.344c-1.285-0.136-1.998,1.06-3.096,1.357
	c-0.015,0.004-0.015,0.056-0.023,0.085c-0.113,0.018-0.227,0.036-0.34,0.053c-0.418-0.369-0.585-0.062-0.74,0.282
	c-1.32,0.558-2.668,1.073-3.62,2.24l0.002-0.001c-1.106,0.74-1.91,1.75-2.544,2.912l0.004-0.002
	c-0.155,0.063-0.213,0.191-0.223,0.349l0.021-0.015c-0.054,0.074-0.109,0.147-0.164,0.221l0.005-0.009
	c-1.272,1.525-2.179,3.263-2.909,5.104l0.007,0c-0.1,0.082-0.199,0.164-0.299,0.246c-0.089-0.378,0.021-0.716,0.188-1.05
	c0.166-0.331,0.005-0.483-0.309-0.415c-0.939,0.205-1.888,0.151-2.834,0.146c-1.315-0.007-2.535,0.343-3.722,0.891
	c-0.899,0.415-1.45,1.281-2.233,1.775c-1.675,1.055-3.212,2.281-4.765,3.493c-0.388,0.303-0.855,0.49-1.161,0.966
	c-0.74,1.146-1.527,2.273-2.41,3.309c-1.088,1.279-2.598,2.127-3.584,3.542c-0.529,0.759-0.736,2.625-0.229,3.413
	c0.15,0.233,0.355,0.259,0.58,0.347c1.146,0.452,2.417,0.549,3.473,1.249C34.849,48.062,33.595,47.971,32.497,48.477z"/>
<path id="XMLID_797_" fill="#60A150" d="M65.219,15.038c-0.996,0.165-1.969-0.243-2.954-0.149c-1.884,0.179-3.761,0.003-5.641-0.018
	c-2.737-0.03-3.062,0.696-3.834,2.942c-0.384,1.115-1.097,1.949-1.875,2.7c-1.38,1.333-2.821,2.615-4.057,4.078
	c-0.788,0.932-1.328,2.086-1.921,3.174c-0.691,1.269-2.625,2.01-3.901,1.454c-1.394-0.607-2.801-1.194-4.18-1.82
	c-1.132-0.514-2.28-1.163-3.177-2.115c-0.351-0.371-0.768-0.61-1.283-0.536c-0.536,0.077-0.774-0.456-1.186-0.551
	c-1.447-0.333-2.681-1.172-4.055-1.676c-0.778-0.286-1.502-0.716-2.265-1.047c-2.47-1.073-4.941-2.141-7.565-2.793
	c-1.424-0.354-2.703-1.087-4.023-1.692c-0.572-0.263-1.151-0.277-1.718-0.434c-0.595-0.165-0.624,0.345-0.546,0.746
	c0.161,0.832,0.35,1.663,0.958,2.313c0.4,0.426,0.605,0.91,0.368,1.494c-0.174,0.427-0.015,0.788,0.237,1.099
	c0.595,0.729,1.098,1.498,1.457,2.382c0.542,1.332,1.667,2.093,2.858,2.77c1.872,1.063,3.687,2.253,5.634,3.147
	c0.925,0.425,1.803,1.008,2.851,1.219c1.166,0.235,2.238,0.814,3.357,1.221c1.057,0.384,2.257,0.244,3.308,0.737
	c1.875,0.88,3.868,0.355,5.803,0.492c0.435,0.031,0.549-0.539,0.957-0.61c0.047,0.834-0.808,1.896-1.989,2.493
	c0-0.49,0.455-0.759,0.579-1.249c-0.712,0.312-1.435,0.501-2.151,0.72c-0.031,0.01-0.036,0.107-0.054,0.164
	c-0.358,0.004-0.717,0.007-1.076,0.01c-1.669,0.137-3.167-0.834-4.827-0.759c-0.056,0.002-0.124-0.025-0.167-0.062
	c-1.211-1.067-2.855-1.016-4.248-1.659c-1.396-0.645-2.941-0.963-4.247-1.864c-0.366-0.252-0.805-0.534-1.219-0.548
	c-1.069-0.04-1.751-0.879-2.681-1.224c-1.067-0.396-2.097-1.104-3.053-1.836c-1.529-1.172-3.402-1.862-4.721-3.33
	c-0.458-0.51-0.937-0.868-1.611-0.948c-0.101-0.011-0.201-0.021-0.3-0.033l0.005,0.009c-0.25-0.66-0.619-1.255-0.994-1.847
	c-0.03-0.049-0.061-0.099-0.091-0.149c-0.808-1.867-1.522-3.771-2.17-5.701c0.02-0.054,0.01-0.101-0.032-0.14
	c-0.314-1.463-0.628-2.926-0.943-4.39l0.066,0.009c0.466-0.282,1.054-0.636,1.481-0.279c0.801,0.672,1.796,0.815,2.681,1.239
	c1.277,0.612,2.376,1.634,3.865,1.79c0.189,0.02,0.358,0.207,0.543,0.303c1.88,0.98,3.813,1.9,5.823,2.497
	c1.636,0.485,3.206,1.147,4.766,1.768c1.444,0.576,2.807,1.464,4.21,2.206c1.745,0.922,3.526,1.754,5.339,2.523
	c0.058,0.001,0.116,0.003,0.176,0.005c0.702,1.032,1.817,1.396,2.892,1.823c0.059,0.002,0.117,0.004,0.177,0.005
	c-0.037,0.309,0.112,0.496,0.362,0.66c1.404,0.924,2.812,1.833,4.521,2.071c0.119,0,0.238,0,0.358,0
	c-0.002,0.333,0.26,0.387,0.488,0.432c1.386,0.271,2.654-0.029,3.528-1.161c1.752-2.269,3.451-4.582,5.001-7.001
	c0.375-0.586,0.531-1.222,0.544-1.888c0.047-2.344,3.04-4.861,5.109-4.983c2.099-0.124,4.19,0.111,6.286,0.185
	c0.791,0.027,1.617-0.202,2.358,0.316c0.171,0.121,0.412,0.035,0.547-0.177C64.466,13.979,64.953,14.412,65.219,15.038z"/>
<path id="XMLID_796_" fill="#1D6332" d="M20.943,37.889c0.053-0.04,0.107-0.079,0.162-0.119c0.471-0.424,0.963-0.456,1.553-0.211
	c0.774,0.322,1.602,0.462,2.473,0.399c-1.828-0.459-3.393-1.498-5.077-2.267l0.003,0.002c-0.17-0.117-0.334-0.245-0.512-0.349
	c-2.048-1.196-4.072-2.428-5.803-4.084c0.673-0.252,1.275-0.068,1.897,0.234c0.744,0.36,1.451,0.773,2.275,1.017
	c0.779,0.23,1.608,0.454,2.334,0.808c1.666,0.811,3.391,1.434,5.152,1.951c1.473,0.432,2.81,1.255,4.372,1.452
	c0.572,0.072,1.184-0.084,1.848,0.237c-0.672,0.381-1.313,0.637-1.823,1.056c-1.201,0.985-2.637,1.459-4.012,2.075
	c-0.788,0.352-1.623,0.626-2.346,1.082c-1.292,0.813-2.732,1.303-4.048,2.086c-1.574,0.938-3.1,1.877-4.341,3.238
	c-0.633,0.694-1.069,1.565-1.664,2.26c-1.194,1.393-2.083,2.941-2.866,4.575c-0.679,1.415-0.954,2.956-1.254,4.475
	c-0.297,1.494-0.243,3.045-0.578,4.543c-0.038,0.168-0.056,0.39,0.143,0.484c0.297,0.145,0.322-0.14,0.438-0.302
	c0.059-0.085,0.197-0.113,0.3-0.168C9.375,63,9.201,63.646,8.987,64.275c-0.258,0.758-0.671,1.431-1.251,1.98
	c-0.211,0.202-0.458,0.506-0.767,0.385c-0.358-0.14-0.191-0.527-0.184-0.814c0.016-0.79,0.047-1.578,0.072-2.368
	c0.012-0.181,0.024-0.36,0.036-0.54c0.116-0.175,0.109-0.365,0.067-0.56c0.037-0.465,0.073-0.931,0.11-1.396
	c0.621-4.426,1.88-8.627,4.222-12.456c0.058-0.033,0.083-0.082,0.072-0.149c1.699-2.603,3.722-4.935,5.862-7.169
	c0.079-0.071,0.158-0.142,0.236-0.214C18.623,39.946,19.783,38.917,20.943,37.889z"/>
<path id="XMLID_793_" fill="#96C85B" d="M35.946,47.555c-1.056-0.7-2.328-0.797-3.473-1.249c-0.225-0.088-0.429-0.113-0.58-0.347
	c-0.507-0.788-0.301-2.654,0.229-3.413c0.987-1.415,2.496-2.263,3.584-3.542c0.883-1.036,1.67-2.164,2.41-3.309
	c0.306-0.476,0.773-0.663,1.161-0.966c1.552-1.212,3.09-2.438,4.765-3.493c0.783-0.494,1.334-1.36,2.233-1.775
	c1.188-0.548,2.407-0.898,3.722-0.891c0.946,0.005,1.896,0.059,2.834-0.146c0.314-0.068,0.474,0.084,0.309,0.415
	c-0.167,0.334-0.277,0.672-0.188,1.05l-0.008-0.021c-0.597,0.148-0.483,0.673-0.565,1.094l0.008-0.011
	c-0.182,0.083-0.21,0.197-0.069,0.347c-0.396,0.982-0.792,1.964-1.188,2.946c-0.045,0.046-0.065,0.103-0.059,0.167
	c-0.978,1.568-1.786,3.236-2.812,4.779c-0.444,0.668-1.089,1.186-1.392,1.951c-0.045,0.05-0.09,0.101-0.135,0.151
	c-0.403,0.219-0.672,0.564-0.88,0.964l0.004-0.003c-0.865,0.727-1.73,1.453-2.594,2.179c-0.048,0.035-0.097,0.07-0.144,0.105
	c-0.388,0.218-0.79,0.416-1.164,0.657c-1.534,0.988-3.294,1.446-4.931,2.195c-0.12,0.022-0.238,0.045-0.357,0.065
	C36.429,47.487,36.188,47.521,35.946,47.555z M49.113,32.229c-0.21,0-0.422-0.014-0.63,0.002c-0.952,0.075-2.045-0.109-2.817,0.31
	c-0.876,0.475-1.788,0.922-2.666,1.409c-1.284,0.711-2.246,1.799-3.244,2.812c-0.723,0.732-1.467,1.468-2.136,2.245
	c-0.759,0.88-1.318,1.952-1.877,2.988c-0.589,1.093,0.29,2.529,1.467,2.462c1.555-0.089,3.081-0.623,4.351-1.344
	c1.443-0.82,3.021-1.523,4.271-2.689c0.87-0.812,1.715-1.665,2.333-2.687c0.704-1.163,1.178-2.462,1.963-3.581
	c0.36-0.514,0.485-1.207,0.438-1.669c-0.053-0.506-0.881-0.167-1.361-0.257C49.174,32.224,49.143,32.229,49.113,32.229z"/>
<path id="XMLID_792_" fill="#427E42" d="M34.856,25.109c-0.06-0.001-0.119-0.003-0.177-0.005c-0.845-0.8-1.635-1.69-2.892-1.823
	c-0.06-0.002-0.118-0.004-0.176-0.005c0.004-0.337-0.021-0.581-0.409-0.793c-0.816-0.447-1.79-0.686-2.472-1.227
	c-0.835-0.663-1.886-0.868-2.671-1.622c-0.412-0.397-0.94-0.869-1.514-1.039c-1.995-0.59-3.566-2.059-5.571-2.631
	c-1.729-0.494-3.443-1.023-5.021-1.977c-1.24-0.75-2.708-1.021-3.99-1.776C7.846,10.959,5.5,10.14,3.347,8.935
	C3.16,8.83,2.879,8.896,2.643,8.882C2.546,7.926,2.449,6.969,2.333,5.834c1.678,1.029,3.078,2.061,4.649,2.791
	C7.035,8.65,7.085,8.675,7.138,8.701c0.407,0.316,0.84,0.582,1.341,0.719L8.473,9.414c1.868,1.094,3.804,2.053,5.774,2.941
	l-0.005-0.008c1.396,0.844,2.873,1.527,4.333,2.243c0.106,0.048,0.212,0.095,0.319,0.142c1.247,0.738,2.525,1.414,3.861,1.976h0.002
	c0.595,0.442,1.265,0.741,1.941,1.03c0.058,0.028,0.116,0.056,0.175,0.084c0.651,0.408,1.314,0.792,2.041,1.049
	c0.022,0.049,0.057,0.066,0.108,0.053c2.542,1.364,5,2.874,7.471,4.364l-0.004-0.003c1.058,0.774,2.109,1.557,3.262,2.186
	c0.595,0.424,1.19,0.848,1.786,1.271c0.243,0,0.374-0.114,0.369-0.368c1.834-0.109,2.958-1.247,3.817-2.734
	c0.204-0.355,0.392-0.74,0.335-1.205c-0.177-1.466-0.192-2.903,0.983-4.038c0.086-0.083,0.171-0.186,0.208-0.295
	c0.658-1.865,2.329-2.93,3.456-4.427c0.711-0.944,1.833-1.55,2.919-2.047c1.247-0.571,2.537-0.917,3.975-0.817
	c1.32,0.092,2.682,0.283,4-0.136c0.397-0.159,0.698,0.383,1.105,0.153v-0.001c0.015,0.099,0.048,0.159,0.15,0.072
	c0.234,0.135,0.468,0.27,0.702,0.405c0.087,0.146,0.19,0.271,0.372,0.296c0.142,0.161,0.282,0.321,0.425,0.481
	c-0.258,0.078-0.51,0.196-0.773,0.23c-2.147,0.277-4.248-0.496-6.413-0.275c-0.771,0.079-1.57,0.037-2.233,0.419
	c-1.653,0.953-3.214,2.031-4.361,3.633c-0.759,1.063-1.549,2.159-1.728,3.435c-0.161,1.158-0.25,2.206-0.906,3.277
	c-0.903,1.474-1.938,2.776-3.152,3.979c-0.774,0.767-1.801,0.695-2.689,1.061c-0.12,0-0.239,0-0.358,0
	c-0.157-0.574-0.432-0.992-1.115-0.911c-0.25,0.029-0.447-0.105-0.665-0.218c-0.914-0.474-1.986-0.652-2.673-1.541
	C35.222,25.087,35.002,25.126,34.856,25.109z"/>
<path id="XMLID_791_" fill="#529049" d="M2.643,8.882C2.879,8.896,3.16,8.83,3.347,8.935c2.153,1.206,4.499,2.025,6.618,3.275
	c1.282,0.755,2.75,1.025,3.99,1.776c1.578,0.954,3.292,1.483,5.021,1.977c2.005,0.572,3.576,2.041,5.571,2.631
	c0.574,0.169,1.103,0.642,1.514,1.039c0.785,0.754,1.836,0.959,2.671,1.622c0.682,0.542,1.656,0.78,2.472,1.227
	c0.388,0.213,0.413,0.457,0.409,0.793c-1.813-0.769-3.594-1.601-5.339-2.523c-1.403-0.742-2.766-1.63-4.21-2.206
	c-1.56-0.621-3.129-1.282-4.766-1.768c-2.009-0.596-3.943-1.517-5.823-2.497c-0.185-0.097-0.354-0.284-0.543-0.303
	c-1.489-0.155-2.588-1.178-3.865-1.79c-0.884-0.423-1.88-0.567-2.681-1.239c-0.428-0.357-1.015-0.002-1.481,0.279
	c-0.026-0.126-0.053-0.252-0.078-0.379C2.957,10.176,2.682,9.541,2.643,8.882z"/>
<path id="XMLID_790_" fill="#1D6332" d="M60.704,10.828c-0.407,0.23-0.708-0.312-1.105-0.153c-0.137-0.319-0.294-0.553-0.718-0.551
	c-1.201,0.005-2.422,0.21-3.583-0.335c-0.187-0.088-0.489-0.029-0.7,0.058c-0.966,0.398-1.957,0.69-2.994,0.81
	c-0.245,0.028-0.44,0.157-0.658,0.252c-2.121,0.923-3.214,2.995-4.87,4.438c-0.333,0.29-0.598,0.566-1.056,0.539
	c0.238-0.456,0.476-0.912,0.714-1.367c0.069-0.019,0.1-0.063,0.09-0.135c0.887-1.473,1.952-2.798,3.204-3.969l0.016-0.011
	C52.695,7.302,57.527,8.409,60.704,10.828z"/>
<path id="XMLID_789_" fill="#529049" d="M72.072,17.523c0.357,0.09,0.715,0.181,1.072,0.271c0.027,0.044,0.064,0.056,0.11,0.033
	c0.075,0.165,0.153,0.304,0.369,0.331c1.165,0.146,2.173,0.708,3.19,1.245c-0.1,1.084,0.688,0.411,1.065,0.551l0.022-0.014
	c0.017,0.646-0.612,0.598-0.929,0.884c-0.243-0.071-0.485-0.143-0.729-0.214c-1.511-0.77-3.139-1.212-4.73-1.762
	c-0.103-0.132-0.24-0.147-0.391-0.116c-0.242-0.063-0.483-0.126-0.725-0.189C71.176,18.574,71.774,18.301,72.072,17.523z"/>
<path id="XMLID_788_" fill="#427E42" d="M76.972,20.824c0.317-0.286,0.946-0.238,0.929-0.884c1.15,0.619,2.301,1.237,3.451,1.856
	c0.142,0.101,0.284,0.202,0.426,0.303c0.875,0.769,1.933,1.336,2.756,2.525c-1.17-0.581-2.125-1.055-3.081-1.53
	c-0.171-0.089-0.342-0.179-0.513-0.268c-1.265-0.787-2.64-1.344-4.005-1.921L76.972,20.824z"/>
<path id="XMLID_787_" fill="#EBF0E9" d="M49.028,10.414c-1.252,1.171-2.317,2.496-3.204,3.969c-0.42-0.193-0.435-0.354-0.286-0.875
	c0.235-0.823,1.163-1.013,1.31-1.868c0.076-0.432,0.95-0.157,1.043-0.897C47.986,10.003,48.599,10.37,49.028,10.414z"/>
<path id="XMLID_786_" fill="#EBF0E9" d="M45.222,44.33c0.022-0.049,0.033-0.126,0.069-0.141c0.035-0.014,0.095,0.035,0.144,0.058
	c-0.021,0.05-0.033,0.127-0.068,0.142C45.332,44.403,45.272,44.353,45.222,44.33z"/>
<path id="XMLID_785_" fill="#EBF0E9" d="M56.292,24.342c0.01-0.158,0.068-0.286,0.223-0.349
	C56.522,24.163,56.5,24.313,56.292,24.342z"/>
<path id="XMLID_783_" fill="#EBF0E9" d="M56.149,24.549c0.055-0.074,0.11-0.147,0.164-0.221
	C56.258,24.401,56.204,24.475,56.149,24.549z"/>
<path id="XMLID_782_" fill="#529049" d="M14.989,54.678c-1.593,1.533-2.921,3.287-4.145,5.128c-0.016-0.059-0.024-0.163-0.051-0.169
	c-0.254-0.049-0.99,0.665-0.601-0.398c0.011-0.03-0.106-0.138-0.179-0.163c-0.573-0.185-0.54-0.719-0.401-1.058
	c0.388-0.947,0.583-1.941,0.854-2.916c0.697-2.505,2.33-4.361,4.167-6.071c0.291-0.159,0.529-0.359,0.54-0.73
	c-0.028-0.395,0.417-0.31,0.543-0.547c0.245-0.118,0.425-0.301,0.54-0.548c0.122-0.122,0.242-0.244,0.363-0.365
	c0.345-0.016,0.525-0.197,0.542-0.546h0.001c0.233-0.008,0.354-0.13,0.362-0.364c0.059-0.001,0.119-0.001,0.178-0.003
	c0.699,0.079,0.973-0.553,1.385-0.901c1.845-1.563,4.238-1.722,6.378-2.463c0.967-0.336,2.084-0.64,3.158-0.759
	c1.511-0.167,2.656-1.141,3.699-1.98c1.166-0.94,2.065-2.284,3.174-3.371c0.211-0.207,0.497-0.77-0.284-0.761
	c0.018-0.057,0.022-0.154,0.054-0.164c0.716-0.219,1.439-0.409,2.151-0.72c-0.124,0.49-0.579,0.758-0.579,1.249
	c-0.059,0.004-0.117,0.007-0.176,0.008c-0.329,0.133-0.379,0.41-0.365,0.721l-0.006,0.006c-0.85,0.309-1.075,1.123-1.436,1.826
	c0.024,0.284-0.251,0.361-0.369,0.546c-0.227,0.012-0.347,0.131-0.358,0.361c-0.06,0.002-0.119,0.005-0.178,0.009
	c-0.608,0.229-0.943,0.741-1.273,1.257c-2.153,0.935-4.32,1.829-6.598,2.417c-0.236,0.06-0.335,0.364-0.613,0.343
	c-0.123-0.186-0.243-0.183-0.361,0.005c-0.119,0.001-0.237,0.002-0.356,0.002c-1.244,0.358-2.556,0.415-3.685,1.24
	c-1.206,0.88-2.537,1.613-3.54,2.728c-0.692,0.768-1.445,1.417-2.229,2.075c-1.183,0.993-2.357,2.04-3.086,3.467
	c-0.134,0.262-0.12,0.535,0.14,0.616c0.642,0.197,1.194,0.744,1.939,0.547c0.259-0.069,0.312,0.084,0.343,0.281
	c-0.061,0.061-0.121,0.122-0.181,0.183c-0.014,0.024-0.028,0.05-0.042,0.075c0.013-0.026,0.026-0.052,0.041-0.076
	c0.059-0.061,0.12-0.122,0.181-0.184C14.776,54.51,14.908,54.539,14.989,54.678z"/>
<path id="XMLID_781_" fill="#60A150" d="M14.633,54.51c-0.031-0.197-0.084-0.351-0.343-0.281c-0.746,0.197-1.297-0.35-1.939-0.547
	c-0.26-0.081-0.274-0.354-0.14-0.616c0.729-1.427,1.904-2.474,3.086-3.467c0.784-0.658,1.536-1.308,2.229-2.075
	c1.002-1.114,2.334-1.848,3.54-2.728c1.129-0.825,2.441-0.882,3.685-1.24c-0.059,0.466-0.479,0.545-0.787,0.652
	c-2.587,0.899-4.547,2.75-6.635,4.409c-0.531,0.422-1.063,0.843-1.608,1.246c-0.458,0.34-0.952,0.785-0.583,1.324
	c0.372,0.542,1.022,1.02,1.759,0.772c0.555-0.185,0.975-0.169,1.388,0.228c-1.15,0.759-2.235,1.607-3.295,2.49
	c-0.081-0.139-0.213-0.168-0.357-0.17L14.633,54.51z"/>
<path id="XMLID_780_" fill="#63A15A" d="M72.072,17.523c-0.297,0.778-0.896,1.05-1.674,1.019c-0.884-0.122-1.766-0.265-2.652-0.363
	c-1.349-0.146-2.672,0.069-3.992,0.33c0.008-0.029,0.008-0.081,0.023-0.085c1.098-0.297,1.811-1.493,3.096-1.357
	c0.268,0.028,0.452-0.091,0.565-0.344c0.211-0.468-0.54-0.352-0.436-0.749C68.692,16.491,70.381,17.007,72.072,17.523z"/>
<path id="XMLID_779_" fill="#60A150" d="M34.857,38.616c0.361-0.703,0.586-1.517,1.436-1.826
	C36.113,37.639,35.64,38.252,34.857,38.616z"/>
<path id="XMLID_778_" fill="#60A150" d="M32.678,40.789c0.33-0.516,0.666-1.028,1.273-1.257
	C33.918,40.357,33.374,40.65,32.678,40.789z"/>
<path id="XMLID_777_" fill="#63A15A" d="M65.562,15.229c0.445,0.243,0.891,0.485,1.336,0.728
	C66.289,16.021,65.745,15.964,65.562,15.229z"/>
<path id="XMLID_776_" fill="#60A150" d="M19.742,51.417c-0.099,0.09-0.2,0.181-0.3,0.271c-0.203,0.047-0.406,0.095-0.61,0.143
	C18.719,50.752,19.472,51.63,19.742,51.417z"/>
<path id="XMLID_775_" fill="#63A15A" d="M63.414,18.563c-0.216,0.175-0.462,0.271-0.74,0.282
	C62.828,18.501,62.995,18.194,63.414,18.563z"/>
<path id="XMLID_774_" fill="#60A150" d="M36.299,36.784c-0.015-0.311,0.036-0.587,0.365-0.721
	C36.626,36.348,36.794,36.737,36.299,36.784z"/>
<path id="XMLID_773_" fill="#60A150" d="M34.13,39.523c0.011-0.23,0.131-0.35,0.358-0.361C34.492,39.407,34.373,39.528,34.13,39.523
	z"/>
<path id="XMLID_772_" fill="#60A150" d="M25.106,43.553c0.119-0.188,0.239-0.191,0.361-0.005
	C25.35,43.737,25.229,43.74,25.106,43.553z"/>
<path id="XMLID_768_" fill="#60A150" d="M18.818,51.783c0.009,0.143-0.095,0.193-0.199,0.243
	C18.685,51.944,18.751,51.864,18.818,51.783z"/>
<path id="XMLID_756_" fill="#60A150" d="M65.208,15.036c0.058,0.009,0.113,0.03,0.165,0.06
	C65.278,15.186,65.235,15.134,65.208,15.036z"/>
<path id="XMLID_755_" fill="#529049" d="M62.602,12.308c0.595,0.261,0.84,0.907,1.356,1.255c-0.135,0.212-0.375,0.297-0.547,0.177
	c-0.741-0.518-1.567-0.289-2.358-0.316c-2.096-0.073-4.187-0.308-6.286-0.185c-2.069,0.122-5.062,2.639-5.109,4.983
	c-0.013,0.667-0.169,1.302-0.544,1.888c-1.55,2.42-3.249,4.733-5.001,7.001c-0.874,1.132-2.142,1.432-3.528,1.161
	c-0.229-0.045-0.49-0.099-0.488-0.432c0.889-0.366,1.916-0.294,2.689-1.061c1.214-1.204,2.249-2.506,3.152-3.979
	c0.656-1.071,0.746-2.119,0.906-3.277c0.179-1.276,0.969-2.372,1.728-3.435c1.146-1.603,2.708-2.681,4.361-3.633
	c0.663-0.382,1.462-0.34,2.233-0.419c2.165-0.221,4.266,0.552,6.413,0.275c0.263-0.034,0.515-0.152,0.773-0.23l-0.031,0.013
	C62.416,12.165,62.509,12.237,62.602,12.308z"/>
<path id="XMLID_754_" fill="#529049" d="M9.054,26.365c-0.477-0.72-0.951-1.441-1.432-2.157c-0.153-0.226-0.317-0.439-0.257-0.736
	c0.674,0.08,1.153,0.438,1.611,0.948c1.319,1.468,3.192,2.158,4.721,3.33c0.956,0.732,1.986,1.441,3.053,1.836
	c0.93,0.345,1.612,1.185,2.681,1.224c0.414,0.015,0.853,0.296,1.219,0.548c1.306,0.901,2.85,1.22,4.247,1.864
	c1.393,0.643,3.037,0.591,4.248,1.659c0.043,0.036,0.111,0.063,0.167,0.062c1.66-0.075,3.158,0.896,4.827,0.759
	c-0.001,0.258-0.127,0.432-0.354,0.539c-0.485,0-0.97-0.001-1.455-0.002c-1.027-0.623-2.224-0.734-3.344-1.025
	c-0.961-0.249-1.833-0.699-2.771-0.953c-1.313-0.355-2.539-0.929-3.786-1.439c-0.452-0.185-0.864-0.486-1.367-0.608
	c-1.235-0.302-2.368-0.917-3.509-1.428c-2.397-1.075-4.68-2.411-6.964-3.727c-0.42-0.242-0.771-0.791-1.385-0.67
	C9.153,26.38,9.103,26.372,9.054,26.365z"/>
<path id="XMLID_753_" fill="#427E42" d="M33.785,36.24c0.227-0.106,0.352-0.281,0.354-0.539c0.359-0.003,0.718-0.006,1.076-0.01
	c0.78-0.009,0.495,0.555,0.284,0.761c-1.109,1.086-2.008,2.43-3.174,3.371c-1.043,0.839-2.188,1.813-3.699,1.98
	c-1.074,0.12-2.191,0.423-3.158,0.759c-2.14,0.741-4.533,0.9-6.378,2.463c-0.412,0.349-0.686,0.98-1.385,0.901
	c0.074-0.547,0.485-0.838,0.888-1.078c1.267-0.759,2.457-1.682,3.923-2.043c1.479-0.363,2.837-1.057,4.264-1.564
	c1.09-0.386,2.09-0.979,3.124-1.497c1.045-0.523,1.763-1.423,2.656-2.114C33.019,37.276,33.866,37.129,33.785,36.24z"/>
<path id="XMLID_752_" fill="#529049" d="M34.856,25.109c0.146,0.017,0.366-0.022,0.43,0.062c0.687,0.888,1.759,1.067,2.673,1.541
	c0.217,0.113,0.415,0.247,0.665,0.218c0.683-0.081,0.958,0.337,1.115,0.911c-1.709-0.238-3.117-1.147-4.521-2.071
	C34.968,25.605,34.82,25.417,34.856,25.109z"/>
<path id="XMLID_751_" fill="#529049" d="M31.788,23.28c1.257,0.133,2.047,1.023,2.892,1.823
	C33.604,24.677,32.489,24.313,31.788,23.28z"/>
<path id="XMLID_750_" fill="#2C733A" d="M33.785,36.24c0.082,0.89-0.766,1.036-1.227,1.392c-0.894,0.69-1.611,1.591-2.656,2.114
	c-1.034,0.517-2.034,1.11-3.124,1.497c-1.427,0.507-2.785,1.201-4.264,1.564c-1.466,0.361-2.656,1.284-3.923,2.043
	c-0.402,0.24-0.814,0.531-0.888,1.078c-0.06,0.002-0.12,0.002-0.179,0.003c-0.239,0.001-0.358,0.122-0.361,0.364h-0.001
	c-0.349,0.011-0.528,0.194-0.542,0.546c-0.121,0.121-0.242,0.243-0.363,0.365c-0.402-0.042-0.583,0.14-0.54,0.548
	c-0.127,0.237-0.572,0.152-0.543,0.547c-0.469,0.026-0.561,0.336-0.54,0.73c-1.837,1.71-3.47,3.566-4.167,6.071
	C10.195,56.076,10,57.07,9.612,58.018c-0.139,0.339-0.172,0.873,0.401,1.058c0.073,0.025,0.19,0.133,0.179,0.163
	c-0.389,1.063,0.347,0.35,0.601,0.398c0.027,0.006,0.035,0.11,0.051,0.169c-0.374,0.734-0.747,1.468-1.121,2.201
	c-0.044,0.092-0.09,0.183-0.135,0.273l0.021,0.049l-0.041,0.033c-0.103,0.055-0.241,0.083-0.3,0.168
	c-0.116,0.162-0.142,0.446-0.438,0.302c-0.199-0.095-0.18-0.316-0.143-0.484c0.335-1.498,0.281-3.049,0.578-4.543
	c0.301-1.519,0.575-3.06,1.254-4.475c0.782-1.634,1.671-3.183,2.866-4.575c0.595-0.694,1.031-1.565,1.664-2.26
	c1.241-1.361,2.767-2.3,4.341-3.238c1.316-0.783,2.756-1.273,4.048-2.086c0.723-0.456,1.559-0.73,2.346-1.082
	c1.375-0.616,2.811-1.09,4.012-2.075c0.51-0.419,1.151-0.674,1.823-1.056c-0.664-0.321-1.276-0.166-1.848-0.237
	c-1.562-0.197-2.898-1.02-4.372-1.452c-1.761-0.517-3.486-1.14-5.152-1.951c-0.727-0.354-1.556-0.577-2.334-0.808
	c-0.824-0.244-1.531-0.657-2.275-1.017c-0.622-0.302-1.224-0.486-1.897-0.234l0.003-0.005c-0.171-0.761-0.802-1.331-1.377-1.245
	c0,0-0.063-0.06-0.062-0.06c0.052-0.153,0.103-0.306,0.155-0.459c0.278,0.01,0.554-0.297,0.837,0.018
	c0.405,0.453,1.035,0.458,1.513,0.733c1.074,0.619,2.253,0.965,3.366,1.476c1.022,0.47,2.047,0.949,3.081,1.376
	c1.227,0.507,2.503,0.924,3.779,1.324c2.117,0.665,4.093,1.798,6.385,1.865c0.308,0.009,0.618,0.299,0.907-0.046
	C32.815,36.238,33.3,36.24,33.785,36.24z"/>
<path id="XMLID_749_" fill="#D3D94E" d="M49.113,32.229c0.03,0,0.062-0.005,0.09,0c0.48,0.09,1.308-0.249,1.361,0.257
	c0.048,0.462-0.078,1.155-0.438,1.669c-0.785,1.119-1.259,2.418-1.963,3.581c-0.618,1.021-1.464,1.875-2.333,2.687
	c-1.25,1.167-2.827,1.87-4.271,2.689c-1.27,0.721-2.795,1.255-4.351,1.344c-1.178,0.067-2.057-1.369-1.467-2.462
	c0.56-1.036,1.119-2.108,1.877-2.988c0.669-0.777,1.413-1.513,2.136-2.245c0.998-1.012,1.96-2.101,3.244-2.812
	c0.878-0.486,1.789-0.934,2.666-1.409c0.772-0.418,1.865-0.234,2.817-0.31C48.691,32.215,48.903,32.229,49.113,32.229z"/>
<path id="XMLID_748_" fill="#6DB85C" d="M52.945,29.867c-0.069,0.427-0.216,0.814-0.565,1.094
	C52.462,30.54,52.348,30.016,52.945,29.867z"/>
<path id="XMLID_747_" fill="#6DB85C" d="M52.388,30.95c-0.023,0.116-0.047,0.231-0.069,0.347
	C52.178,31.147,52.207,31.034,52.388,30.95z"/>
<path id="XMLID_746_" fill="#F9F9F9" d="M51.131,34.243c0.127,0.108,0.048,0.143-0.059,0.167
	C51.066,34.346,51.086,34.29,51.131,34.243z"/>
<path id="XMLID_745_" fill="#2C733A" d="M45.02,15.884c0.458,0.027,0.723-0.249,1.056-0.539c1.655-1.443,2.749-3.515,4.87-4.438
	c0.218-0.095,0.413-0.224,0.658-0.252c1.038-0.12,2.028-0.411,2.994-0.81c0.211-0.087,0.514-0.146,0.7-0.058
	c1.161,0.546,2.383,0.34,3.583,0.335c0.424-0.001,0.581,0.232,0.718,0.551c-1.318,0.419-2.68,0.228-4,0.136
	c-1.438-0.099-2.728,0.246-3.975,0.817c-1.086,0.497-2.208,1.103-2.919,2.047c-1.126,1.497-2.798,2.562-3.456,4.427
	c-0.037,0.11-0.123,0.213-0.208,0.295c-1.176,1.135-1.161,2.572-0.983,4.038c0.057,0.465-0.131,0.85-0.335,1.205
	c-0.859,1.487-1.983,2.625-3.816,2.734c-0.637-0.562,0.052-0.739,0.32-0.833c1.33-0.472,1.987-1.357,1.852-2.792
	c-0.053-0.557,0.18-1.148-0.185-1.667c-0.162-0.231,0.044-0.254,0.155-0.387c0.636-0.758,1.574-1.351,1.468-2.548l-0.008,0.008
	c0.606-0.315,1.196-0.642,1.065-1.495l-0.013,0.006c0.717,0.084,0.651-0.31,0.465-0.778L45.02,15.884z"/>
<path id="XMLID_744_" fill="#1D6332" d="M43.516,18.146c0.106,1.197-0.832,1.79-1.468,2.548c-0.111,0.133-0.317,0.156-0.155,0.387
	c0.365,0.519,0.132,1.111,0.185,1.667c0.135,1.435-0.521,2.319-1.852,2.792c-0.268,0.094-0.957,0.272-0.32,0.833
	c0.004,0.254-0.127,0.368-0.37,0.368c-0.229-0.827-0.923-1.142-1.595-1.482c-0.866-0.902-0.865-0.9,0.133-1.782
	C39.979,21.796,41.761,19.985,43.516,18.146z"/>
<path id="XMLID_742_" fill="#E2EBF2" d="M37.941,25.261c0.671,0.34,1.365,0.655,1.595,1.482c-0.595-0.424-1.19-0.848-1.786-1.271
	C37.814,25.401,37.878,25.331,37.941,25.261z"/>
<path id="XMLID_741_" fill="#2C733A" d="M60.704,10.827c0.063-0.005,0.114,0.018,0.15,0.072
	C60.752,10.986,60.719,10.925,60.704,10.827z"/>
<path id="XMLID_740_" fill="#1D6332" d="M9.588,62.28c0.045-0.091,0.09-0.182,0.135-0.273C9.679,62.099,9.633,62.189,9.588,62.28z"
	/>
<path id="XMLID_739_" fill="#63A15A" d="M71.123,18.732c0.15-0.031,0.288-0.017,0.391,0.116
	C71.363,18.878,71.227,18.859,71.123,18.732z"/>
<path id="XMLID_738_" fill="#1D6332" d="M44.573,16.66c0.131,0.853-0.459,1.18-1.065,1.495
	C43.863,17.657,44.218,17.159,44.573,16.66z"/>
<path id="XMLID_737_" fill="#1D6332" d="M45.025,15.889c0.187,0.468,0.252,0.862-0.465,0.778
	C44.636,16.359,44.809,16.11,45.025,15.889z"/>
<path id="XMLID_736_" fill="#427E42" d="M32.33,36.237c-0.29,0.345-0.599,0.056-0.907,0.046c-2.292-0.067-4.268-1.2-6.385-1.865
	c-1.276-0.4-2.552-0.817-3.779-1.324c-1.034-0.428-2.058-0.907-3.081-1.376c-1.112-0.511-2.292-0.857-3.366-1.476
	c-0.478-0.275-1.107-0.28-1.513-0.733c-0.283-0.314-0.559-0.008-0.837-0.018c-0.147-0.008-0.281-0.042-0.358-0.187
	c-0.021-0.199,0.05-0.461-0.243-0.506c-0.239-0.037-0.279,0.167-0.312,0.351c-0.886-0.831-1.718-1.709-2.347-2.763
	c0.613-0.12,0.965,0.429,1.385,0.67c2.284,1.316,4.567,2.652,6.964,3.727c1.142,0.511,2.274,1.126,3.509,1.428
	c0.502,0.122,0.915,0.423,1.367,0.608c1.247,0.51,2.473,1.084,3.786,1.439c0.938,0.254,1.811,0.704,2.771,0.953
	C30.106,35.503,31.303,35.614,32.33,36.237z"/>
<path id="XMLID_735_" fill="#1D6332" d="M12.37,30.011c0.575-0.086,1.206,0.483,1.377,1.245
	C13.236,30.898,12.775,30.487,12.37,30.011z"/>
<path id="XMLID_734_" fill="#2C733A" d="M11.55,29.149c0.032-0.183,0.072-0.387,0.312-0.351c0.293,0.044,0.222,0.307,0.243,0.506
	c-0.065,0.071-0.13,0.142-0.195,0.212C11.79,29.395,11.67,29.272,11.55,29.149z"/>
<path id="XMLID_733_" fill="#1D6332" d="M11.91,29.517c0.065-0.07,0.129-0.141,0.195-0.212c0.077,0.145,0.211,0.179,0.358,0.187
	c-0.052,0.153-0.103,0.306-0.155,0.459C12.175,29.806,12.042,29.661,11.91,29.517z"/>
<path id="XMLID_732_" fill="#427E42" d="M62.602,12.308c-0.093-0.071-0.187-0.143-0.28-0.214
	C62.415,12.165,62.509,12.237,62.602,12.308z"/>
<path id="XMLID_731_" fill="#427E42" d="M76.813,19.403c0.373,0.15,0.793,0.204,1.065,0.551
	C77.501,19.814,76.713,20.488,76.813,19.403z"/>
<path id="XMLID_730_" fill="#427E42" d="M14.634,49.03c-0.021-0.395,0.071-0.704,0.54-0.73
	C15.163,48.671,14.925,48.871,14.634,49.03z"/>
<path id="XMLID_728_" fill="#427E42" d="M16.621,46.84c0.013-0.352,0.193-0.535,0.542-0.546
	C17.146,46.643,16.965,46.824,16.621,46.84z"/>
<path id="XMLID_727_" fill="#427E42" d="M15.717,47.753c-0.043-0.408,0.138-0.59,0.54-0.548
	C16.143,47.452,15.962,47.635,15.717,47.753z"/>
<path id="XMLID_726_" fill="#427E42" d="M17.163,46.294c0.003-0.242,0.123-0.363,0.361-0.364
	C17.517,46.164,17.396,46.286,17.163,46.294z"/>
<path id="XMLID_725_" fill="#60A150" d="M14.452,54.691c-0.015,0.024-0.028,0.05-0.041,0.076
	C14.424,54.742,14.438,54.717,14.452,54.691L14.452,54.691z"/>
<path id="XMLID_67_" fill="#60A150" d="M14.632,54.508c-0.061,0.062-0.122,0.123-0.181,0.184l0,0.001
	c0.06-0.061,0.12-0.122,0.181-0.183L14.632,54.508z"/>
</svg>
