<?xml version="1.0" encoding="utf-8"?>
<!-- Generator: Adobe Illustrator 16.0.0, SVG Export Plug-In . SVG Version: 6.00 Build 0)  -->
<!DOCTYPE svg PUBLIC "-//W3C//DTD SVG 1.1//EN" "http://www.w3.org/Graphics/SVG/1.1/DTD/svg11.dtd">
<svg version="1.1" id="Layer_1" xmlns="http://www.w3.org/2000/svg" xmlns:xlink="http://www.w3.org/1999/xlink" x="0px" y="0px"
	 width="212px" height="92px" viewBox="0 0 212 92" enable-background="new 0 0 212 92" xml:space="preserve">
<path id="XMLID_527_" fill-rule="evenodd" clip-rule="evenodd" fill="#F48022" d="M76.869,39.482l-6.035-6.31
	c3.56-22.271,29.811-11.919,29.631-32.524l9.596,8.95c-0.726,5.595-3.54,10.875-8.448,15.836c5.664-1.394,9.502-5.67,11.948-12.146
	l8.568,8.454c-1.669,6.493-4.199,11.923-8.447,15.242c5.497-1.395,9.35-5.671,11.947-12.145l6.037,5.596
	c-0.847,18.876-31.744,14.178-29.33,32.697l-9.294-8.408c0.143-5.784,3.25-11.704,8.45-17.025
	c-5.938,1.791-9.691,6.743-12.312,13.334l-8.449-8.217c0.574-5.383,3.21-10.969,8.208-16.789
	C83.643,27.205,79.733,31.981,76.869,39.482L76.869,39.482z M76.869,39.482"/>
<path id="XMLID_516_" fill-rule="evenodd" clip-rule="evenodd" fill="#1A3963" d="M56.482,89.991v-25.08h7.606l4.495,17.106
	l4.442-17.106h7.625v25.08h-4.694L75.94,70.248l-4.944,19.743h-4.882l-4.92-19.743l-0.018,19.743H56.482z M96.203,84.248
	l4.799,0.806c-0.614,1.755-1.589,3.095-2.914,4.017c-1.331,0.917-2.995,1.377-4.984,1.377c-3.159,0-5.5-1.033-7.012-3.101
	c-1.196-1.657-1.798-3.747-1.798-6.276c0-3.012,0.789-5.375,2.359-7.08c1.57-1.711,3.56-2.563,5.965-2.563
	c2.697,0,4.828,0.896,6.394,2.68c1.559,1.788,2.305,4.525,2.233,8.215H89.233c0.033,1.424,0.419,2.532,1.161,3.327
	c0.735,0.795,1.657,1.191,2.755,1.191c0.752,0,1.382-0.205,1.891-0.614C95.554,85.817,95.94,85.158,96.203,84.248L96.203,84.248z
	 M96.483,79.381c-0.034-1.398-0.39-2.458-1.075-3.185c-0.682-0.73-1.511-1.092-2.492-1.092c-1.045,0-1.909,0.387-2.592,1.15
	c-0.683,0.767-1.016,1.811-1.004,3.126H96.483z M109.764,89.991h-4.799V71.814h4.447v2.58c0.765-1.222,1.454-2.02,2.068-2.402
	c0.611-0.378,1.307-0.565,2.083-0.565c1.098,0,2.153,0.306,3.171,0.906l-1.489,4.193c-0.813-0.528-1.565-0.792-2.259-0.792
	c-0.678,0-1.251,0.188-1.716,0.557c-0.469,0.372-0.836,1.041-1.104,2.008c-0.268,0.969-0.402,3.001-0.402,6.088V89.991z
	 M117.685,80.681c0-1.6,0.392-3.146,1.18-4.641c0.787-1.5,1.902-2.639,3.346-3.425c1.442-0.791,3.047-1.188,4.827-1.188
	c2.749,0,4.996,0.896,6.753,2.68c1.758,1.794,2.634,4.046,2.634,6.78c0,2.754-0.889,5.036-2.657,6.845
	c-1.774,1.811-4.003,2.716-6.694,2.716c-1.664,0-3.251-0.378-4.765-1.132c-1.506-0.752-2.656-1.857-3.443-3.314
	C118.076,84.545,117.685,82.771,117.685,80.681L117.685,80.681z M122.625,80.936c0,1.806,0.424,3.188,1.277,4.146
	c0.857,0.964,1.908,1.443,3.163,1.443c1.251,0,2.301-0.479,3.147-1.443c0.846-0.958,1.273-2.352,1.273-4.18
	c0-1.78-0.428-3.151-1.273-4.11c-0.847-0.963-1.896-1.441-3.147-1.441c-1.255,0-2.306,0.479-3.163,1.441
	C123.049,77.751,122.625,79.134,122.625,80.936L122.625,80.936z M140.201,69.362v-4.451h4.798v4.451H140.201z M140.201,89.991
	V71.814h4.798v18.177H140.201z M149.933,89.991v-25.08h4.797v25.08H149.933z M149.933,89.991"/>
</svg>
