<?xml version="1.0" encoding="utf-8"?>
<!-- Generator: Adobe Illustrator 16.0.0, SVG Export Plug-In . SVG Version: 6.00 Build 0)  -->
<!DOCTYPE svg PUBLIC "-//W3C//DTD SVG 1.1//EN" "http://www.w3.org/Graphics/SVG/1.1/DTD/svg11.dtd">
<svg version="1.1" id="Layer_1" xmlns="http://www.w3.org/2000/svg" xmlns:xlink="http://www.w3.org/1999/xlink" x="0px" y="0px"
	 width="212px" height="92px" viewBox="0 0 212 92" enable-background="new 0 0 212 92" xml:space="preserve">
<g id="petromiralles">
	<g id="XMLID_97_">
		<path id="XMLID_122_" fill="#4265AE" d="M106.041,88.49c-1.596,0-3.021,0-4.504,0c1.014-5.283,2.015-10.499,3.017-15.715
			c-0.077-0.033-0.154-0.067-0.229-0.102c-0.308,0.585-0.628,1.163-0.923,1.755c-2.221,4.477-4.445,8.953-6.642,13.441
			c-0.25,0.513-0.533,0.734-1.115,0.693c-0.763-0.055-1.532-0.014-2.399-0.014c-0.559-5.321-1.113-10.573-1.665-15.823
			c-0.071-0.008-0.142-0.016-0.214-0.023c-1.023,5.265-2.048,10.53-3.075,15.808c-1.27,0-2.418,0-3.781,0
			c1.261-6.579,2.507-13.086,3.774-19.697c2.246,0,4.486-0.023,6.723,0.037c0.212,0.006,0.563,0.523,0.592,0.828
			c0.347,3.507,0.642,7.018,0.956,10.528c0.005,0.06,0.061,0.115,0.191,0.352c0.208-0.354,0.38-0.612,0.519-0.889
			c1.667-3.319,3.348-6.632,4.973-9.971c0.323-0.665,0.684-0.927,1.428-0.908c1.995,0.051,3.991,0.018,6.19,0.018
			C108.569,75.441,107.308,81.954,106.041,88.49z"/>
		<path id="XMLID_119_" fill="#4265AE" d="M51.901,68.89c3.571,0,7.13-0.241,10.643,0.058c4.736,0.405,4.95,5.138,3.349,7.727
			c-0.633,1.025-1.646,1.888-2.65,2.586c-0.773,0.537-0.97,1.013-0.768,1.874c0.564,2.405,1.064,4.824,1.611,7.332
			c-1.657,0-3.246,0-4.977,0c-0.494-2.503-0.998-5.054-1.526-7.731c-0.991,0-1.971-0.07-2.929,0.045
			c-0.268,0.033-0.601,0.583-0.682,0.945c-0.502,2.24-0.942,4.495-1.41,6.777c-1.476,0-2.899,0-4.486,0
			C49.36,81.919,50.63,75.407,51.901,68.89z M54.829,77.256c0.209,0.083,0.305,0.15,0.401,0.152c1.154,0.018,2.307,0.037,3.46,0.029
			c1.239-0.008,2.718-0.974,3.072-2.14c0.375-1.239,0.28-2.76-1.597-2.965c-1.241-0.136-2.499-0.166-3.748-0.154
			c-0.25,0.003-0.654,0.37-0.714,0.633C55.37,74.26,55.12,75.729,54.829,77.256z"/>
		<path id="XMLID_116_" fill="#4265AE" d="M132.911,88.511c-1.675,0-3.246,0-4.961,0c-0.498-2.539-0.999-5.092-1.526-7.778
			c-0.961,0-1.938-0.048-2.904,0.033c-0.242,0.021-0.587,0.423-0.649,0.702c-0.527,2.34-1,4.691-1.488,7.033
			c-1.539,0-2.966,0-4.472,0c1.277-6.544,2.545-13.03,3.824-19.581c0.146-0.028,0.345-0.104,0.543-0.103
			c3.192,0.01,6.387-0.013,9.578,0.062c2.521,0.059,4.257,1.424,4.603,3.458c0.483,2.854-0.657,5.467-3.199,6.847
			c-1.029,0.559-1.135,1.131-0.882,2.159C131.95,83.676,132.392,86.04,132.911,88.511z M123.646,77.44
			c1.39,0,2.639,0.011,3.888-0.003c1.477-0.017,2.621-0.83,3.124-2.188c0.471-1.279-0.057-2.644-1.285-2.837
			c-1.557-0.245-3.152-0.245-4.719-0.35C124.304,73.927,123.998,75.559,123.646,77.44z"/>
		<path id="XMLID_113_" fill="#4265AE" d="M84.459,76.166c-0.03,3.516-1.188,6.617-3.377,9.221c-2.604,3.097-5.895,4.313-9.937,3.15
			c-2.468-0.71-3.579-2.727-3.933-4.984c-0.747-4.757,0.616-9,4.052-12.397c2.52-2.492,5.613-3.228,9.074-2.205
			c1.915,0.566,2.918,2.003,3.488,3.745C84.189,73.803,84.258,75.006,84.459,76.166z M79.793,76.52
			c-0.092-0.719-0.177-1.305-0.24-1.893c-0.252-2.363-2.502-2.941-4.223-2.023c-1.296,0.692-1.979,1.855-2.356,3.084
			c-0.597,1.948-0.964,3.979-1.266,5.999c-0.214,1.432,0.707,3.047,1.659,3.368c1.588,0.535,3.232-0.096,4.204-1.534
			C79.03,81.362,79.334,78.87,79.793,76.52z"/>
		<path id="XMLID_112_" fill="#4265AE" d="M195.036,83.464c1.48-0.324,2.906-0.635,4.326-0.944c0.845,2.78,3.967,3.78,6.299,2.082
			c1.364-0.992,1.247-2.546-0.31-3.185c-0.959-0.394-2.004-0.582-3.009-0.861c-0.404-0.112-0.813-0.206-1.21-0.335
			c-3.551-1.146-4.124-3.438-3.014-6.643c1.266-3.647,5.84-5.712,9.615-4.892c1.427,0.31,2.836,0.643,3.745,1.886
			c0.461,0.631,0.767,1.381,1.073,2.105c0.054,0.128-0.201,0.528-0.383,0.587c-1.157,0.373-2.335,0.688-3.486,1.014
			c-1.294-2.273-3.296-2.926-5.284-1.624c-0.521,0.341-1.016,1.153-1.005,1.741c0.008,0.461,0.735,1.103,1.279,1.319
			c0.958,0.382,2.013,0.555,3.042,0.72c2.348,0.377,4.259,1.872,4.691,3.922c0.428,2.021-0.301,3.809-1.61,5.296
			c-2.687,3.056-6.205,3.832-10.021,3.081C197.081,88.201,195.419,87.016,195.036,83.464z"/>
		<path id="XMLID_111_" fill="#4265AE" d="M194.167,76.641c-0.2,1.335-0.371,2.462-0.554,3.683c-2.581,0-5.095,0-7.638,0
			c-0.295,1.513-0.57,2.925-0.879,4.516c3.313,0,6.414,0,9.61,0c-0.264,1.309-0.495,2.459-0.735,3.657c-4.685,0-9.337,0-14.112,0
			c0.382-1.975,0.758-3.903,1.13-5.833c0.821-4.277,1.651-8.554,2.449-12.835c0.135-0.715,0.357-1.054,1.193-1.044
			c4.068,0.052,8.141,0.023,12.212,0.025c0.274,0,0.549,0.026,0.939,0.045c-0.231,1.249-0.448,2.427-0.68,3.683
			c-2.891,0-5.725,0.023-8.559-0.019c-0.792-0.01-1.217,0.124-1.277,1.037c-0.067,0.99-0.328,1.967-0.53,3.085
			C189.237,76.641,191.607,76.641,194.167,76.641z"/>
		<path id="XMLID_110_" fill="#4265AE" d="M31.446,88.507c-4.759,0-9.351,0-14.098,0c0.25-1.382,0.471-2.705,0.728-4.021
			c0.959-4.922,1.937-9.842,2.892-14.764c0.099-0.51,0.128-0.931,0.839-0.925c4.354,0.029,8.707,0.024,13.061,0.034
			c0.065,0,0.13,0.039,0.37,0.117c-0.218,1.148-0.442,2.321-0.679,3.565c-3.203,0-6.354,0-9.623,0
			c-0.24,1.346-0.47,2.633-0.731,4.099c2.497,0,4.918,0,7.436,0c-0.2,1.308-0.373,2.435-0.563,3.677c-2.533,0-5.04,0-7.6,0
			c-0.3,1.497-0.579,2.888-0.893,4.457c3.154,0,6.246,0,9.563,0C31.893,86.123,31.673,87.297,31.446,88.507z"/>
		<path id="XMLID_107_" fill="#4265AE" d="M148.934,68.817c0.805,6.646,1.59,13.112,2.383,19.661c-1.686,0-3.279,0-4.969,0
			c-0.106-1.071-0.252-2.135-0.306-3.203c-0.031-0.646-0.309-0.855-0.911-0.85c-1.685,0.017-3.37-0.027-5.052,0.032
			c-0.323,0.011-0.756,0.313-0.925,0.604c-0.545,0.933-0.965,1.938-1.488,2.886c-0.142,0.256-0.47,0.558-0.727,0.573
			c-1.107,0.063-2.219,0.027-3.517,0.027c0.986-1.874,1.905-3.59,2.797-5.318c2.372-4.604,4.729-9.216,7.106-13.814
			c0.127-0.241,0.405-0.567,0.621-0.573C145.589,68.795,147.229,68.817,148.934,68.817z M144.87,74.165
			c-0.08-0.019-0.161-0.037-0.241-0.058c-1.071,2.213-2.143,4.425-3.247,6.709c1.442,0,2.721,0,4.203,0
			C145.341,78.545,145.105,76.356,144.87,74.165z"/>
		<path id="XMLID_104_" fill="#4265AE" d="M0.333,88.49c1.278-6.585,2.542-13.099,3.781-19.486c3.513,0,6.926-0.251,10.284,0.074
			c2.926,0.284,4.483,2.771,3.896,5.642c-0.385,1.886-1.207,3.588-2.814,4.877c-1.396,1.121-2.894,1.62-4.644,1.582
			c-1.535-0.032-3.072-0.007-4.601-0.007c-0.474,2.501-0.927,4.893-1.386,7.318C3.327,88.49,1.871,88.49,0.333,88.49z M6.939,77.658
			c1.389,0,2.659,0.12,3.894-0.033c1.18-0.146,2.136-0.793,2.618-1.999c0.518-1.295,0.044-2.821-1.135-3.023
			c-1.428-0.244-2.896-0.261-4.346-0.374C7.613,74.111,7.296,75.78,6.939,77.658z"/>
		<path id="XMLID_103_" fill="#4265AE" d="M49.676,72.723c-1.44,0-2.773,0.04-4.101-0.015c-0.714-0.03-0.988,0.259-1.112,0.912
			c-0.749,3.938-1.516,7.871-2.284,11.807c-0.199,1.022-0.422,2.043-0.639,3.082c-1.497,0-2.926,0-4.482,0
			c1.019-5.245,2.026-10.428,3.063-15.763c-1.353,0-2.631,0-4.072,0c0.238-1.283,0.429-2.409,0.672-3.522
			c0.036-0.164,0.323-0.391,0.496-0.392c4.345-0.021,8.691-0.017,13.152-0.017C50.129,70.157,49.914,71.377,49.676,72.723z"/>
		<path id="XMLID_102_" fill="#4265AE" d="M169.983,68.859c1.524,0,2.951,0,4.571,0c-1.026,5.316-2.038,10.551-3.079,15.939
			c2.677,0,5.217,0,7.947,0c-0.248,1.337-0.465,2.512-0.687,3.71c-4.213,0-8.343,0-12.56,0
			C167.448,81.944,168.709,75.436,169.983,68.859z"/>
		<path id="XMLID_99_" fill="#4265AE" d="M165.84,84.826c-0.269,1.352-0.493,2.475-0.729,3.658c-4.127,0-8.247,0-12.465,0
			c0.38-2.024,0.738-4.004,1.121-5.979c0.817-4.203,1.672-8.401,2.453-12.611c0.146-0.787,0.363-1.164,1.236-1.104
			c1.111,0.076,2.231,0.019,3.5,0.019c-0.379,1.943-0.738,3.771-1.093,5.599c-0.618,3.182-1.215,6.367-1.864,9.541
			c-0.142,0.689,0.059,0.887,0.708,0.882c1.964-0.016,3.928-0.004,5.892-0.004C164.976,84.826,165.352,84.826,165.84,84.826z"/>
		<path id="XMLID_98_" fill="#4265AE" d="M113.662,88.5c-1.555,0-2.949,0-4.511,0c1.272-6.586,2.529-13.093,3.794-19.636
			c1.486,0,2.907,0,4.518,0C116.187,75.462,114.927,81.971,113.662,88.5z"/>
	</g>
	<g id="XMLID_86_">
		<path id="XMLID_96_" fill="#EE4737" d="M95.523,36.579c-0.695-0.136-0.93-0.205-1.17-0.225c-1.419-0.119-2.263-0.699-1.964-2.301
			c0.256-1.369-0.208-2.359-1.332-2.629c1.128-0.505,2.551-0.907,3.691-1.711c1.613-1.138,1.241-2.86-0.636-3.549
			c-0.96-0.353-1.951-0.622-3.119-0.989c2.932-0.751,3.014-0.913,1.908-4.075c1.755,0.5,3.266,0.93,5.158,1.469
			c-1.349-3.814-4.377-5.997-6.401-8.884c0.08-0.108,0.159-0.217,0.239-0.325c1.155,0.888,2.313,1.775,3.466,2.666
			c0.831,0.641,1.59,1.414,2.502,1.902c1.33,0.711,2.098,0.192,2.063-1.296c-0.026-1.097-0.204-2.189-0.262-3.287
			c-0.074-1.406,0.422-1.75,1.817-1.527c1.547,0.247,3.164,0.707,4.658,0.478c2.419-0.372,2.732-1.028,2.737-3.471
			c0.004-1.46,0.014-2.92,0.035-4.38c0.003-0.134,0.109-0.268,0.271-0.636c0.245,1.497,0.468,2.77,0.661,4.048
			c0.43,2.871,3.456,4.057,5.861,3.969c2.511-0.091,4.546-1.041,6.297-2.798c0.109,0.063,0.218,0.125,0.327,0.188
			c-0.251,0.802-0.388,1.663-0.771,2.397c-1.635,3.151,0.632,5.076,3.162,5.525c1.021,0.182,2.103,0.03,3.405,0.03
			c-2.845,4.215,0.573,6.054,2.96,8.414c-1.8,0.457-1.812,1.574-1.246,2.907c0.233,0.555,0.464,1.112,0.661,1.681
			c0.386,1.114,0.357,2.169-0.507,3.087c-0.138,0.146-0.239,0.322-0.368,0.478c-2.073,2.543-2.074,2.859,0.259,5.667
			c-2.984-1.52-4.256,0.362-5.501,2.179c-0.904,1.317-1.965,2.112-3.655,1.693c-1.276-0.316-1.694,0.766-1.741,1.542
			c-0.077,1.346,0.025,2.784,0.438,4.06c0.699,2.173,1.698,4.25,2.409,6.465c-2.014-2.703-4.028-5.406-6.121-8.217
			c-0.727,0.65-1.121,1.004-1.513,1.355c-0.11-0.048-0.234-0.059-0.271-0.121c-0.313-0.528-0.61-1.066-0.912-1.604
			c-0.437,0.445-0.96,0.834-1.288,1.346c-0.502,0.783-0.868,1.653-1.318,2.534c-0.326-1.602-0.531-3.116-0.958-4.567
			c-0.465-1.58-1.641-2.266-3.142-1.658c-1.146,0.463-2.466,1.197-3.061,2.197c-1.905,3.201-3.504,6.586-5.24,9.89
			c-0.196,0.373-0.483,0.712-0.788,1.005c-0.059,0.058-0.58-0.2-0.571-0.265c0.065-0.424,0.134-0.889,0.357-1.242
			c0.723-1.146,1.625-2.193,2.242-3.39c0.496-0.962,0.679-2.084,1.002-3.135c-0.201,0.045-0.402,0.091-0.603,0.135
			c-0.614-0.524-1.403-0.951-1.776-1.611c-0.22-0.391,0.105-1.596,0.377-1.664c0.877-0.221,1.843-0.082,3.182-0.082
			c0.021-0.304,0.35-1.235,0.04-1.562c-0.388-0.409-1.312-0.466-1.983-0.411c-0.713,0.057-1.402,0.42-2.124,0.658
			c0.178-0.811,0.437-1.557,0.466-2.313c0.013-0.343-0.359-0.865-0.687-1.008c-0.302-0.133-0.861,0.02-1.162,0.242
			c-0.674,0.5-1.257,1.121-1.935,1.745c-0.459-1.902-0.459-1.902-5.417-1.766C90.834,40.006,93.817,39.367,95.523,36.579z"/>
		<path id="XMLID_95_" fill="#EE4737" d="M89.479,27.558c-1.347,2.542-4.21,3.742-6.339,2.634c-1.253-0.652-1.638-1.655-1.095-2.847
			c0.529-1.162,1.61-1.581,2.846-1.178C86.376,26.65,87.879,27.076,89.479,27.558z"/>
		<path id="XMLID_94_" fill="#EE4737" d="M103.618,52.078c-0.406-0.287-1.096-0.522-1.164-0.876
			c-0.129-0.673-0.122-1.556,0.226-2.096c0.557-0.867,1.407-1.56,2.189-2.265c0.806-0.727,2.272-0.186,3.257,1.146
			c0.713,0.963,0.545,2.427-0.474,2.848C106.415,51.348,105.087,51.639,103.618,52.078z"/>
		<path id="XMLID_92_" fill="#EE4737" d="M124.325,47.6c-0.029,1.823-0.924,3.096-2.146,3.052c-1.546-0.058-2.242-1.067-2.24-3.252
			c0-1.085,1.222-2.239,2.396-2.263C123.84,45.107,124.354,45.743,124.325,47.6z"/>
		<path id="XMLID_91_" fill="#EE4737" d="M104.742,9.541c-1.128,0.047-2.29,0.011-2.34-1.551c-0.054-1.682,1.411-2.894,3.286-2.916
			c1.359-0.015,1.563,0.807,1.511,1.872C107.072,9.478,106.569,9.734,104.742,9.541z"/>
		<path id="XMLID_90_" fill="#EE4737" d="M123.159,6.884c-0.321-1.828,0.576-3.752,1.803-4.286c0.27-0.117,0.96,0.046,0.974,0.143
			c0.077,0.597,0.258,1.414-0.048,1.782C125.188,5.365,124.229,5.99,123.159,6.884z"/>
		<path id="XMLID_89_" fill="#EE4737" d="M122.521,14.996c0.224-0.419,0.357-0.938,0.689-1.239c0.88-0.797,1.812-1.551,2.797-2.212
			c0.313-0.21,0.859-0.071,1.3-0.091c-0.163,0.394-0.229,0.88-0.504,1.164c-0.726,0.749-1.505,1.458-2.338,2.084
			c-0.45,0.339-1.052,0.477-1.584,0.706C122.762,15.27,122.643,15.133,122.521,14.996z"/>
		<path id="XMLID_88_" fill="#EE4737" d="M110.339,53.059c1.142,1.02,1.111,2.003,0.375,2.702c-0.573,0.544-1.51,0.709-2.285,1.04
			c-0.161-0.217-0.322-0.436-0.485-0.654C108.741,55.119,109.539,54.09,110.339,53.059z"/>
		<path id="XMLID_87_" fill="#EE4737" d="M95.514,8.899c-0.097-1.66,0.653-2.403,1.774-1.792c0.447,0.243,0.693,0.854,1.031,1.298
			c-0.449,0.191-0.882,0.468-1.35,0.549C96.497,9.036,95.991,8.925,95.514,8.899z"/>
	</g>
</g>
</svg>
