<?xml version="1.0" encoding="utf-8"?>
<!-- Generator: Adobe Illustrator 16.0.0, SVG Export Plug-In . SVG Version: 6.00 Build 0)  -->
<!DOCTYPE svg PUBLIC "-//W3C//DTD SVG 1.1//EN" "http://www.w3.org/Graphics/SVG/1.1/DTD/svg11.dtd">
<svg version="1.1" id="Layer_1" xmlns="http://www.w3.org/2000/svg" xmlns:xlink="http://www.w3.org/1999/xlink" x="0px" y="0px"
	 width="212px" height="92px" viewBox="0 0 212 92" enable-background="new 0 0 212 92" xml:space="preserve">
<g id="XMLID_142_">
	<g id="XMLID_264_">
		<path id="XMLID_267_" fill="#FFFFFF" d="M117.397,48.407c7.684-6.166,15.47-14.935,18.662-20.859
			c1.509-2.801,2.29-5.707,1.86-8.918c-1.425-10.64-13.598-19.101-24.011-16.653c-13.89,3.266-19.544,17.029-11.83,28.895
			C106.323,37.397,111.696,42.946,117.397,48.407z M107.834,42.83c-2.064-2.44-4.103-4.658-5.917-7.046
			c-1.815-2.391-3.525-4.88-5.073-7.452c-2.718-4.516-3.52-9.3-0.981-14.161c1.259-2.413,2.894-4.63,4.227-6.726
			c-1.639-1.833-3.358-3.758-5.027-5.626C89.145,5.53,78.125,18.337,76.034,24.361c-0.823,2.368-1.243,5.144-0.897,7.601
			c1.137,8.089,10.313,15.901,18.52,16.25C99.167,48.446,103.761,46.408,107.834,42.83z"/>
		<path id="XMLID_266_" fill="#03709F" d="M117.397,48.407c-5.701-5.461-11.074-11.01-15.318-17.536
			c-7.715-11.865-2.06-25.628,11.83-28.895c10.413-2.448,22.586,6.013,24.011,16.653c0.43,3.212-0.352,6.118-1.86,8.918
			C132.867,33.472,125.081,42.242,117.397,48.407z"/>
		<path id="XMLID_265_" fill="#F89F27" d="M107.834,42.83c-4.073,3.578-8.667,5.616-14.178,5.382
			c-8.207-0.349-17.382-8.161-18.52-16.25c-0.346-2.457,0.074-5.233,0.897-7.601C78.125,18.337,89.145,5.53,95.062,1.818
			c1.669,1.868,3.388,3.793,5.027,5.626c-1.333,2.096-2.967,4.313-4.227,6.726c-2.538,4.861-1.736,9.646,0.981,14.161
			c1.548,2.572,3.257,5.061,5.073,7.452C103.731,38.172,105.77,40.39,107.834,42.83z"/>
	</g>
	<g id="XMLID_143_">
		<path id="XMLID_263_" fill="#03709F" d="M11.441,84.91c1.844,0,3.313,0.112,4.757-0.031c1.524-0.151,3.084-0.375,4.523-0.872
			c3.238-1.12,4.799-3.386,4.825-6.597c0.026-3.279-1.576-6.002-4.919-6.729c-3.023-0.657-6.316-0.843-9.37-0.403
			c-4.365,0.628-6.166,3.27-6.205,7.698c-0.022,2.605-0.039,5.213-0.001,7.817c0.054,3.707,2.401,5.673,6.39,5.199
			C11.441,89.016,11.441,87.009,11.441,84.91z"/>
		<path id="XMLID_262_" fill="#03709F" d="M83.531,69.541c-1.972,0.36-3.856,0.505-5.604,1.068
			c-3.208,1.036-4.792,3.344-4.845,6.543c-0.057,3.38,1.461,5.672,4.752,6.861c3.719,1.347,7.499,1.327,11.192-0.076
			c3.066-1.166,4.481-3.372,4.511-6.537c0.03-3.212-1.431-5.498-4.419-6.574C87.319,70.179,85.368,69.948,83.531,69.541z"/>
		<path id="XMLID_261_" fill="#03709F" d="M175.653,79.005c2.958,0,5.771,0.222,8.526-0.078c1.859-0.202,3.635-1.221,3.875-3.463
			c0.242-2.262-1.077-3.76-2.98-4.561c-4.19-1.761-8.436-1.743-12.411,0.58c-3.623,2.119-4.378,6.717-1.84,9.919
			c3.498,4.413,12.899,4.844,17.53,0.213c-1.635-0.349-2.857-0.821-4.077-0.813c-1.357,0.01-2.702,0.582-4.07,0.682
			C178.279,81.625,176.513,81.246,175.653,79.005z"/>
		<path id="XMLID_260_" fill="#03709F" d="M34.41,78.958c3.19,0,6.02,0.231,8.789-0.081c1.871-0.213,3.606-1.341,3.747-3.583
			c0.132-2.119-1.131-3.578-2.95-4.36c-4.188-1.8-8.442-1.788-12.415,0.518c-4.429,2.571-4.55,8.42-0.396,11.395
			c3.68,2.635,10.543,2.813,14.394,0.392c0.465-0.294,0.982-0.506,1.475-0.756c-0.126-0.322-0.253-0.646-0.379-0.969
			c-1.095-0.267-2.194-0.76-3.285-0.74c-1.359,0.022-2.701,0.556-4.068,0.706C37.284,81.702,35.477,81.307,34.41,78.958z"/>
		<path id="XMLID_259_" fill="#03709F" d="M147.324,82.201c-1.238-1.49-1.947-1.732-3.961-1.389
			c-1.438,0.247-2.874,0.638-4.317,0.676c-2.176,0.059-3.054-0.698-3.51-2.521c2.789,0,5.62,0.236,8.389-0.082
			c1.867-0.215,3.606-1.363,3.757-3.589c0.144-2.121-1.138-3.572-2.962-4.354c-4.283-1.837-8.603-1.796-12.63,0.646
			c-3.597,2.181-4.218,6.757-1.585,9.955C134.01,85.798,143.328,86.161,147.324,82.201z"/>
		<path id="XMLID_258_" fill="#03709F" d="M102.951,84.173c0-2.411-0.05-4.688,0.014-6.961c0.068-2.422,1.106-3.512,3.161-3.446
			c2.302,0.073,3.083,1.481,3.059,3.568c-0.006,0.57-0.001,1.141,0.003,1.711c0.03,4.711,1.409,5.859,6.261,5.109
			c0-2.891,0.166-5.813-0.08-8.701c-0.101-1.181-0.813-2.641-1.727-3.364c-3.974-3.145-8.527-2.871-12.992-1.374
			c-3.915,1.313-4.199,4.744-4.148,8.244C96.571,83.699,97.83,84.812,102.951,84.173z"/>
		<path id="XMLID_257_" fill="#03709F" d="M200.834,80.123c-3.214,3.203-7.318-1.355-9.994,1.986
			c3.56,3.128,10.236,3.749,13.909,1.438c2.658-1.674,2.784-4.711,0.057-6.28c-1.656-0.952-3.626-1.355-5.448-2.024
			c-0.758-0.278-1.499-0.604-2.63-1.064c3.246-2.496,7.081,1.536,9.902-1.745c-3.49-2.757-7.231-2.995-11.089-2.368
			c-2.965,0.481-4.892,2.118-4.868,4.042c0.033,2.799,2.332,3.455,4.378,4.235c0.98,0.372,2.047,0.515,3.06,0.812
			C198.85,79.37,199.566,79.667,200.834,80.123z"/>
		<path id="XMLID_175_" fill="#03709F" d="M159.122,80.565c-0.387,0.014-0.772,0.023-1.157,0.036
			c-0.742-2.099-1.506-4.188-2.223-6.296c-1.225-3.595-2.452-4.347-7.146-3.75c2.006,4.174,3.592,8.342,5.914,12.048
			c2.151,3.435,6.047,3.355,8.196-0.152c2.247-3.671,3.788-7.774,5.722-11.867c-4.536-0.654-5.911,0.167-7.116,3.701
			C160.595,76.383,159.852,78.473,159.122,80.565z"/>
		<path id="XMLID_174_" fill="#03709F" d="M56.564,68.339c-0.102-1.62-0.191-3.04-0.279-4.448c-3.608,0.007-6.064,1.439-6.157,4.026
			c-0.195,5.43-0.06,10.872-0.06,16.296c4.126,0.219,6.248-1.628,6.341-5.37c0.021-0.895,0.078-1.797-0.008-2.685
			c-0.236-2.456,0.604-4.233,2.879-5.396c0.729-0.371,1.198-1.253,2.26-2.424C59.381,68.339,58.042,68.339,56.564,68.339z"/>
		<path id="XMLID_173_" fill="#03709F" d="M125.481,84.175c0-4.57,0-9.149,0-13.72c-4.259-0.137-6.27,1.728-6.344,5.713
			c-0.017,0.978-0.009,1.954-0.002,2.932C119.166,83.659,120.7,84.899,125.481,84.175z"/>
		<path id="XMLID_172_" fill="#03709F" d="M72.646,70.506c-11.681-0.84-12.183,4.578-11.143,13.803
			c4.232-0.004,6.19-1.823,6.096-6.032c-0.057-2.536,0.584-4.416,3.007-5.57C71.292,72.379,71.728,71.526,72.646,70.506z"/>
		<path id="XMLID_171_" fill="#03709F" d="M122.423,68.078c1.27-1.644,2.487-2.532,2.63-3.567c0.215-1.559-1.079-2.418-2.663-2.411
			c-1.584,0.006-2.868,0.859-2.619,2.437C119.935,65.572,121.143,66.443,122.423,68.078z"/>
		<path id="XMLID_168_" fill="#03709F" d="M11.441,84.91c0,2.099,0,4.105,0,6.082c-3.989,0.474-6.335-1.492-6.39-5.199
			c-0.038-2.604-0.021-5.212,0.001-7.817c0.039-4.429,1.839-7.07,6.205-7.698c3.054-0.439,6.347-0.254,9.37,0.403
			c3.343,0.728,4.945,3.45,4.919,6.729c-0.026,3.211-1.586,5.477-4.825,6.597c-1.438,0.497-2.999,0.721-4.523,0.872
			C14.754,85.022,13.285,84.91,11.441,84.91z M15.24,80.917c2.654,0.008,4.345-1.331,4.4-3.485c0.056-2.175-1.603-3.625-4.215-3.684
			c-2.756-0.063-4.491,1.338-4.492,3.627C10.932,79.563,12.57,80.909,15.24,80.917z"/>
		<path id="XMLID_165_" fill="#03709F" d="M83.531,69.541c1.837,0.407,3.788,0.638,5.587,1.285c2.988,1.076,4.449,3.362,4.419,6.574
			c-0.03,3.165-1.445,5.371-4.511,6.537c-3.694,1.403-7.474,1.423-11.192,0.076c-3.291-1.189-4.809-3.481-4.752-6.861
			c0.054-3.199,1.638-5.507,4.845-6.543C79.675,70.046,81.559,69.901,83.531,69.541z M83.432,80.911
			c2.688-0.046,4.284-1.443,4.217-3.691c-0.063-2.172-1.777-3.505-4.458-3.468c-2.668,0.037-4.306,1.471-4.223,3.697
			C79.05,79.642,80.747,80.957,83.432,80.911z"/>
		<path id="XMLID_162_" fill="#03709F" d="M175.653,79.005c0.859,2.241,2.626,2.62,4.553,2.479c1.368-0.1,2.713-0.672,4.07-0.682
			c1.22-0.008,2.442,0.465,4.077,0.813c-4.631,4.631-14.032,4.2-17.53-0.213c-2.538-3.202-1.783-7.8,1.84-9.919
			c3.976-2.323,8.221-2.341,12.411-0.58c1.903,0.801,3.223,2.299,2.98,4.561c-0.24,2.242-2.016,3.261-3.875,3.463
			C181.425,79.227,178.611,79.005,175.653,79.005z M176.096,74.407c0.08,0.444,0.159,0.89,0.24,1.335
			c1.409,0.112,2.832,0.386,4.219,0.262c0.592-0.053,1.107-0.937,1.656-1.443c-0.604-0.459-1.258-1.354-1.806-1.292
			C178.944,73.428,177.529,73.999,176.096,74.407z"/>
		<path id="XMLID_159_" fill="#03709F" d="M34.41,78.958c1.066,2.349,2.874,2.744,4.912,2.521c1.367-0.15,2.709-0.684,4.068-0.706
			c1.091-0.02,2.19,0.474,3.285,0.74c0.126,0.323,0.253,0.646,0.379,0.969c-0.493,0.25-1.009,0.462-1.475,0.756
			c-3.851,2.422-10.714,2.243-14.394-0.392c-4.154-2.975-4.033-8.823,0.396-11.395c3.973-2.306,8.227-2.317,12.415-0.518
			c1.819,0.782,3.082,2.241,2.95,4.36c-0.141,2.242-1.876,3.37-3.747,3.583C40.43,79.189,37.601,78.958,34.41,78.958z
			 M34.782,75.909c1.989,0,3.578,0.097,5.142-0.063c0.429-0.043,0.997-0.81,1.09-1.319c0.057-0.311-0.603-0.905-1.06-1.129
			C38.291,72.585,36.311,73.389,34.782,75.909z"/>
		<path id="XMLID_156_" fill="#03709F" d="M147.324,82.201c-3.996,3.96-13.314,3.597-16.819-0.656
			c-2.633-3.198-2.012-7.774,1.585-9.955c4.027-2.442,8.347-2.483,12.63-0.646c1.824,0.781,3.105,2.232,2.962,4.354
			c-0.15,2.226-1.89,3.374-3.757,3.589c-2.769,0.318-5.6,0.082-8.389,0.082c0.456,1.822,1.334,2.579,3.51,2.521
			c1.443-0.038,2.879-0.429,4.317-0.676C145.377,80.469,146.086,80.711,147.324,82.201z M135.94,75.94
			c1.546,0,3.103,0.098,4.633-0.061c0.456-0.047,1.184-0.825,1.165-1.24c-0.021-0.459-0.688-1.149-1.192-1.278
			C138.632,72.871,136.918,73.196,135.94,75.94z"/>
		<path id="XMLID_155_" fill="#03709F" d="M102.951,84.173c-5.121,0.639-6.38-0.474-6.449-5.214c-0.051-3.5,0.233-6.932,4.148-8.244
			c4.464-1.497,9.018-1.771,12.992,1.374c0.914,0.724,1.626,2.184,1.727,3.364c0.246,2.888,0.08,5.811,0.08,8.701
			c-4.852,0.75-6.23-0.398-6.261-5.109c-0.004-0.57-0.009-1.141-0.003-1.711c0.024-2.087-0.757-3.495-3.059-3.568
			c-2.055-0.065-3.093,1.024-3.161,3.446C102.901,79.485,102.951,81.762,102.951,84.173z"/>
		<path id="XMLID_154_" fill="#03709F" d="M200.834,80.123c-1.268-0.456-1.984-0.753-2.724-0.97
			c-1.013-0.297-2.079-0.439-3.06-0.812c-2.046-0.78-4.345-1.437-4.378-4.235c-0.023-1.924,1.903-3.561,4.868-4.042
			c3.857-0.627,7.599-0.389,11.089,2.368c-2.821,3.281-6.656-0.751-9.902,1.745c1.131,0.46,1.872,0.786,2.63,1.064
			c1.822,0.669,3.792,1.072,5.448,2.024c2.728,1.569,2.602,4.606-0.057,6.28c-3.673,2.312-10.35,1.69-13.909-1.438
			C193.516,78.768,197.62,83.326,200.834,80.123z"/>
		<path id="XMLID_153_" fill="#03709F" d="M159.122,80.565c0.729-2.093,1.473-4.183,2.189-6.28c1.205-3.534,2.58-4.355,7.116-3.701
			c-1.934,4.093-3.475,8.196-5.722,11.867c-2.149,3.508-6.045,3.587-8.196,0.152c-2.322-3.706-3.908-7.874-5.914-12.048
			c4.694-0.597,5.922,0.155,7.146,3.75c0.717,2.107,1.48,4.197,2.223,6.296C158.35,80.589,158.735,80.579,159.122,80.565z"/>
		<path id="XMLID_152_" fill="#03709F" d="M56.564,68.339c1.478,0,2.817,0,4.976,0c-1.062,1.171-1.531,2.053-2.26,2.424
			c-2.275,1.162-3.115,2.939-2.879,5.396c0.085,0.888,0.029,1.79,0.008,2.685c-0.093,3.742-2.215,5.589-6.341,5.37
			c0-5.424-0.136-10.866,0.06-16.296c0.093-2.587,2.549-4.02,6.157-4.026C56.373,65.299,56.462,66.719,56.564,68.339z"/>
		<path id="XMLID_151_" fill="#03709F" d="M125.481,84.175c-4.781,0.725-6.315-0.516-6.346-5.075
			c-0.007-0.978-0.015-1.954,0.002-2.932c0.074-3.985,2.085-5.85,6.344-5.713C125.481,75.025,125.481,79.604,125.481,84.175z"/>
		<path id="XMLID_150_" fill="#03709F" d="M72.646,70.506c-0.917,1.021-1.354,1.873-2.04,2.2c-2.422,1.154-3.064,3.034-3.007,5.57
			c0.094,4.209-1.864,6.028-6.096,6.032C60.462,75.084,60.965,69.666,72.646,70.506z"/>
		<path id="XMLID_149_" fill="#03709F" d="M122.423,68.078c-1.28-1.635-2.488-2.506-2.652-3.542
			c-0.249-1.577,1.035-2.431,2.619-2.437c1.584-0.007,2.878,0.853,2.663,2.411C124.91,65.546,123.692,66.435,122.423,68.078z"/>
		<path id="XMLID_148_" fill="#FFFFFF" d="M83.432,80.911c-2.685,0.046-4.382-1.27-4.463-3.462c-0.083-2.227,1.555-3.66,4.223-3.697
			c2.68-0.037,4.395,1.296,4.458,3.468C87.715,79.468,86.12,80.865,83.432,80.911z"/>
		<path id="XMLID_147_" fill="#FFFFFF" d="M176.096,74.407c1.434-0.408,2.849-0.979,4.31-1.139c0.548-0.062,1.202,0.833,1.806,1.292
			c-0.549,0.507-1.064,1.391-1.656,1.443c-1.387,0.124-2.81-0.149-4.219-0.262C176.255,75.297,176.176,74.852,176.096,74.407z"/>
		<path id="XMLID_146_" fill="#FFFFFF" d="M34.782,75.909c1.528-2.521,3.509-3.324,5.172-2.511c0.457,0.224,1.117,0.818,1.06,1.129
			c-0.093,0.51-0.661,1.276-1.09,1.319C38.36,76.006,36.771,75.909,34.782,75.909z"/>
		<path id="XMLID_145_" fill="#FFFFFF" d="M135.94,75.94c0.978-2.744,2.691-3.069,4.605-2.579c0.504,0.129,1.171,0.819,1.192,1.278
			c0.019,0.415-0.709,1.193-1.165,1.24C139.043,76.038,137.486,75.94,135.94,75.94z"/>
		<path id="XMLID_144_" fill="#FFFFFF" d="M15.24,80.917c-2.67-0.008-4.308-1.354-4.307-3.542c0.001-2.289,1.736-3.689,4.492-3.627
			c2.612,0.059,4.271,1.509,4.215,3.684C19.585,79.586,17.894,80.925,15.24,80.917z"/>
	</g>
</g>
</svg>
