<?xml version="1.0" encoding="utf-8"?>
<!-- Generator: Adobe Illustrator 16.0.0, SVG Export Plug-In . SVG Version: 6.00 Build 0)  -->
<!DOCTYPE svg PUBLIC "-//W3C//DTD SVG 1.1//EN" "http://www.w3.org/Graphics/SVG/1.1/DTD/svg11.dtd">
<svg version="1.1" id="Layer_1" xmlns="http://www.w3.org/2000/svg" xmlns:xlink="http://www.w3.org/1999/xlink" x="0px" y="0px"
	 width="212px" height="92px" viewBox="0 0 212 92" enable-background="new 0 0 212 92" xml:space="preserve">
<g id="XMLID_576_">
	<g>
		<path id="XMLID_39_" fill="#EE424C" d="M79.055,19.626c-1.47,3.369-3.055,6.231-3.992,9.29
			c-3.243,10.591,2.03,21.341,12.253,25.427c9.826,3.927,21.215-0.253,26.102-9.58c5.113-9.761,0.32-19.408-10.513-20.904
			c-2.561-0.354-5.21-0.161-7.814-0.086C89.565,23.934,83.896,24.846,79.055,19.626z M105.983,56.259
			c13.887-3.281,24.6-9.898,30.441-22.715c5.719-12.546,0.218-25.066-12.89-29.459c-11.329-3.797-21.988-1.317-31.972,4.604
			c-1.37,0.812-3.128,2.888-2.908,4.036c0.375,1.975,1.843,4.093,3.466,5.368c1.291,1.013,3.498,1.155,5.299,1.156
			c4.029,0.003,8.064-0.555,12.088-0.471c11.895,0.249,18.323,9.724,13.827,20.709c-1.36,3.323-3.613,6.559-6.225,9.021
			C114.015,51.428,110.089,53.471,105.983,56.259z"/>
		<path id="XMLID_38_" fill="#EE424C" d="M79.055,19.626c4.841,5.219,10.511,4.307,16.037,4.148
			c2.604-0.075,5.253-0.268,7.814,0.086c10.833,1.496,15.626,11.143,10.513,20.904c-4.887,9.327-16.276,13.506-26.102,9.58
			C77.093,50.258,71.82,39.508,75.063,28.917C76,25.857,77.584,22.996,79.055,19.626z"/>
		<path id="XMLID_37_" fill="#EE424C" d="M105.983,56.259c4.105-2.788,8.031-4.831,11.128-7.752
			c2.611-2.462,4.864-5.698,6.225-9.021c4.496-10.985-1.933-20.46-13.827-20.709c-4.024-0.084-8.059,0.474-12.088,0.471
			c-1.801-0.001-4.009-0.144-5.299-1.156c-1.624-1.275-3.091-3.393-3.466-5.368c-0.22-1.148,1.538-3.224,2.908-4.036
			c9.984-5.921,20.643-8.401,31.972-4.604c13.107,4.394,18.608,16.913,12.89,29.459C130.583,46.36,119.87,52.978,105.983,56.259z"/>
	</g>
</g>
<g id="XMLID_495_">
	<path id="XMLID_586_" fill="#111E2A" d="M73.853,76.035c-1.558-1.169-3.418-1.948-5.323-1.948c-1.86,0-2.467,0.823-2.467,1.342
		c0,1.083,1.429,1.774,3.896,2.943c1.73,0.822,4.804,2.25,4.804,6.188c0,2.251-1.385,6.188-7.401,6.188
		c-3.289,0-5.323-0.996-6.577-1.644v-4.458c2.163,1.558,4.37,2.077,5.668,2.077c1.861,0,2.683-0.736,2.683-1.516
		c0-1.169-1.125-1.687-4.458-3.332c-1.341-0.648-4.155-2.076-4.155-5.755c0-2.424,1.602-5.887,7.531-5.887
		c3.29,0,5.021,0.909,5.799,1.299V76.035z"/>
	<path id="XMLID_673_" fill="#111E2A" d="M94.234,84.301c0,0.952,0.043,1.774,0.866,1.774c0.389,0,0.865-0.216,2.12-0.995v3.505
		c-2.12,1.168-3.852,2.164-5.583,2.164c-1.126,0-2.425-0.649-2.943-1.861c-0.823,0.478-3.247,1.861-5.756,1.861
		c-2.25,0-5.67-1.254-5.67-4.847c0-3.029,2.035-5.02,5.801-6.232l5.323-1.731c0-1.73-0.043-3.852-3.333-3.852
		c-3.549,0-5.755,2.468-6.881,3.635v-4.846c2.207-1.991,4.934-2.641,7.963-2.641c1.688,0,4.761,0.26,6.794,2.554
		c1.298,1.472,1.298,3.029,1.298,4.371V84.301z M88.392,81.012c-2.077,0.476-5.021,1.472-5.021,3.766
		c0,1.298,0.822,2.164,1.904,2.164c1.73,0,2.554-0.996,3.116-1.559V81.012z"/>
	<path id="XMLID_677_" fill="#111E2A" d="M106.003,70.495v5.149c1.602-3.375,3.333-5.409,5.497-5.409
		c1.516,0,2.77,0.605,4.327,1.731l-1.903,5.755c-0.78-0.562-2.208-1.6-3.42-1.6c-1.557,0-4.501,1.255-4.501,10.689v3.679h-5.842
		V70.495H106.003z"/>
	<path id="XMLID_679_" fill="#111E2A" d="M133.439,84.301c0,0.952,0.043,1.774,0.865,1.774c0.391,0,0.866-0.216,2.121-0.995v3.505
		c-2.121,1.168-3.852,2.164-5.583,2.164c-1.125,0-2.424-0.649-2.942-1.861c-0.822,0.478-3.246,1.861-5.757,1.861
		c-2.249,0-5.67-1.254-5.67-4.847c0-3.029,2.035-5.02,5.8-6.232l5.323-1.731c0-1.73-0.043-3.852-3.332-3.852
		c-3.548,0-5.756,2.468-6.882,3.635v-4.846c2.208-1.991,4.934-2.641,7.964-2.641c1.688,0,4.762,0.26,6.795,2.554
		c1.298,1.472,1.298,3.029,1.298,4.371V84.301z M127.597,81.012c-2.077,0.476-5.02,1.472-5.02,3.766
		c0,1.298,0.822,2.164,1.904,2.164c1.73,0,2.554-0.996,3.115-1.559V81.012z"/>
	<path id="XMLID_760_" fill="#111E2A" d="M151.354,76.035c-1.559-1.169-3.419-1.948-5.323-1.948c-1.861,0-2.467,0.823-2.467,1.342
		c0,1.083,1.428,1.774,3.895,2.943c1.731,0.822,4.804,2.25,4.804,6.188c0,2.251-1.384,6.188-7.399,6.188
		c-3.29,0-5.325-0.996-6.579-1.644v-4.458c2.165,1.558,4.371,2.077,5.67,2.077c1.86,0,2.683-0.736,2.683-1.516
		c0-1.169-1.125-1.687-4.457-3.332c-1.343-0.648-4.155-2.076-4.155-5.755c0-2.424,1.602-5.887,7.53-5.887
		c3.29,0,5.021,0.909,5.8,1.299V76.035z"/>
</g>
</svg>
