<?xml version="1.0" encoding="utf-8"?>
<!-- Generator: Adobe Illustrator 16.0.0, SVG Export Plug-In . SVG Version: 6.00 Build 0)  -->
<!DOCTYPE svg PUBLIC "-//W3C//DTD SVG 1.1//EN" "http://www.w3.org/Graphics/SVG/1.1/DTD/svg11.dtd">
<svg version="1.1" id="Layer_1" xmlns="http://www.w3.org/2000/svg" xmlns:xlink="http://www.w3.org/1999/xlink" x="0px" y="0px"
	 width="212px" height="92px" viewBox="0 0 212 92" enable-background="new 0 0 212 92" xml:space="preserve">
<g id="XMLID_389_">
	<path id="XMLID_442_" fill="#ED1C2E" d="M112.009,82.836h6.032c-0.044-1.114-1.029-2.403-3.045-2.403
		C112.977,80.433,112.053,81.984,112.009,82.836z M121.79,86.129c-0.485,1.478-2.458,3.519-6.794,3.519
		c-4.471,0-7.355-2.4-7.355-5.571c0-2.504,2.223-5.646,7.181-5.646c5.96,0,7.311,3.751,7.208,6.409h-9.924
		c-0.03,1.427,1.136,2.604,2.911,2.604c1.777,0,2.421-0.925,2.439-1.3h4.334V86.129z"/>
	<g id="XMLID_400_">
		<g id="XMLID_411_">
			<g id="XMLID_439_">
				<rect id="XMLID_441_" x="124.556" y="75.426" fill="#ED1C2E" width="4.38" height="13.82"/>
				<path id="XMLID_440_" fill="#ED1C2E" d="M126.745,82.336"/>
			</g>
		</g>
		<g id="XMLID_407_">
			<g id="XMLID_408_">
				<rect id="XMLID_410_" x="132.629" y="75.426" fill="#ED1C2E" width="4.473" height="13.82"/>
				<path id="XMLID_409_" fill="#ED1C2E" d="M134.863,82.336"/>
			</g>
		</g>
		<g id="XMLID_405_">
			<path id="XMLID_406_" fill="#ED1C2E" d="M100.918,78.404c3.082,0,4.349,1.657,4.674,3.833v7.009h-4.279v-6.025v-0.284
				c0-0.788-0.567-1.903-2.195-1.903c-1.632,0-2.497,1.078-2.767,2.604v5.609h-4.378v-13.82h4.378v4.508
				C97.621,79.056,99.298,78.404,100.918,78.404L100.918,78.404z"/>
		</g>
		<path id="XMLID_404_" fill="#ED1C2E" d="M78.846,84.839c-0.174,1.244,1.166,2.305,3.054,2.305c2.125,0,3.066-0.793,3.066-1.854
			c0-0.926-0.655-1.401-2.844-1.401c-5.788-0.076-7.344-1.502-7.367-4.107c-0.021-2.044,1.369-4.557,7.197-4.557
			c5.549,0,7.102,1.794,7.202,4.508h-4.474l0,0c-0.018-1.453-0.835-2.204-2.755-2.204c-1.919,0-2.601,0.978-2.601,1.579
			c0,0.6,0.364,1.525,2.628,1.525c4.75,0.107,7.586,0.796,7.586,3.958c0,2.778-2.215,4.931-7.882,4.856
			c-5.51,0.07-7.382-1.808-7.382-4.608H78.846L78.846,84.839z"/>
	</g>
</g>
<g id="XMLID_271_">
	<polygon id="XMLID_388_" fill-rule="evenodd" clip-rule="evenodd" fill="#ED1C24" points="102.736,62.87 101.842,62.229 
		84.934,62.229 83.366,49.727 78.252,46.014 75.688,44.158 73.123,42.302 72.836,40.614 72.634,38.944 72.515,37.273 72.481,35.603 
		72.532,33.949 72.667,32.312 72.87,30.693 73.156,29.106 73.325,28.313 73.511,27.537 73.73,26.744 73.95,25.984 74.202,25.208 
		74.456,24.449 74.743,23.69 75.029,22.931 75.35,22.205 75.688,21.463 76.025,20.737 76.396,20.028 76.784,19.32 77.172,18.627 
		77.594,17.953 78.016,17.278 78.455,16.62 78.927,15.962 79.4,15.337 79.89,14.696 80.395,14.089 80.918,13.481 81.458,12.891 
		82.015,12.317 82.589,11.743 83.162,11.187 83.753,10.663 84.36,10.124 84.985,9.617 85.626,9.128 86.268,8.639 86.926,8.183 
		87.263,7.963 87.601,7.744 87.938,7.525 88.292,7.306 88.63,7.086 88.984,6.884 89.338,6.681 89.693,6.479 90.064,6.276 
		90.418,6.091 90.79,5.905 91.161,5.719 91.532,5.55 91.903,5.365 92.274,5.213 92.646,5.044 92.831,4.959 93.017,4.893 
		93.219,4.809 93.405,4.724 93.607,4.656 93.793,4.572 93.996,4.504 94.181,4.42 94.384,4.353 94.585,4.285 94.788,4.218 
		94.974,4.15 95.176,4.083 95.38,4.015 95.565,3.948 95.767,3.897 95.953,3.846 96.156,3.779 96.358,3.728 96.561,3.661 
		96.763,3.61 96.982,3.542 97.184,3.492 97.387,3.441 97.59,3.391 97.792,3.34 98.011,3.29 98.214,3.239 98.417,3.188 98.636,3.138 
		98.838,3.087 99.041,3.037 99.462,2.952 99.885,2.884 100.306,2.8 100.711,2.75 101.133,2.682 101.555,2.631 101.959,2.581 
		102.382,2.53 102.804,2.497 103.208,2.462 103.63,2.446 104.035,2.412 104.458,2.395 104.862,2.395 105.284,2.378 105.688,2.378 
		106.111,2.378 106.516,2.395 106.921,2.395 107.343,2.429 107.748,2.446 108.152,2.479 108.575,2.513 108.979,2.547 109.384,2.598 
		109.79,2.648 110.194,2.699 110.6,2.75 110.987,2.817 111.393,2.884 111.798,2.952 112.186,3.037 112.573,3.121 112.978,3.205 
		113.366,3.29 113.754,3.391 114.143,3.492 114.531,3.593 114.92,3.711 115.307,3.829 115.695,3.948 116.084,4.066 116.455,4.201 
		116.843,4.335 117.214,4.471 117.602,4.623 117.973,4.757 118.345,4.909 118.716,5.078 119.087,5.23 119.441,5.398 119.813,5.567 
		120.167,5.736 120.537,5.922 120.893,6.091 121.247,6.276 121.601,6.462 121.939,6.664 122.293,6.85 122.631,7.052 122.967,7.255 
		123.306,7.474 123.644,7.677 123.98,7.896 124.639,8.334 125.28,8.808 125.921,9.28 126.546,9.769 127.169,10.275 127.76,10.798 
		128.351,11.338 128.925,11.895 129.498,12.469 130.055,13.043 130.594,13.65 131.117,14.257 131.624,14.882 132.113,15.523 
		132.603,16.165 133.058,16.823 133.514,17.498 133.952,18.189 134.374,18.898 134.763,19.606 135.15,20.332 135.522,21.058 
		135.876,21.817 136.214,22.56 136.518,23.335 136.821,24.111 137.092,24.905 137.36,25.698 137.598,26.508 137.816,27.318 
		138.003,28.145 138.188,28.988 138.492,30.642 138.729,32.295 138.847,33.966 138.896,35.636 138.847,37.307 138.729,38.978 
		138.492,40.648 138.188,42.302 127.962,49.727 126.394,62.229 109.52,62.229 108.507,62.87 108.187,63.106 107.85,63.31 
		107.494,63.479 107.14,63.613 106.77,63.715 106.398,63.799 106.026,63.85 105.638,63.85 105.25,63.85 104.88,63.799 
		104.508,63.715 104.136,63.613 103.765,63.479 103.411,63.31 103.074,63.106 102.736,62.87 	"/>
	<polygon id="XMLID_387_" fill-rule="evenodd" clip-rule="evenodd" fill="#FFD400" points="104.188,57.69 102.331,56.374 
		90.098,56.374 88.782,46.402 78.691,39.079 78.438,37.932 78.303,36.75 78.252,35.569 78.32,34.388 78.472,33.207 78.725,32.042 
		79.045,30.895 79.45,29.781 97.421,47.87 80.007,26.474 80.142,25.951 80.293,25.445 80.479,24.922 80.666,24.432 80.884,23.943 
		81.121,23.454 81.374,22.981 81.644,22.525 81.948,22.07 82.251,21.631 82.572,21.209 82.91,20.805 83.264,20.4 83.618,20.012 
		84.007,19.64 84.395,19.286 99.952,46.132 86.115,16.754 86.47,16.316 86.841,15.894 87.212,15.472 87.617,15.084 88.022,14.713 
		88.427,14.342 88.866,14.004 89.305,13.667 89.76,13.363 90.233,13.076 90.705,12.807 91.211,12.553 91.717,12.3 92.224,12.097 
		92.763,11.895 93.303,11.709 102.736,45.085 95.834,10.36 96.307,10.09 96.797,9.854 97.303,9.634 97.809,9.415 98.333,9.229 
		98.855,9.077 99.395,8.925 99.936,8.808 100.475,8.706 101.015,8.622 101.555,8.571 102.112,8.537 102.652,8.521 103.208,8.537 
		103.749,8.571 104.288,8.639 105.638,44.681 107.107,8.639 107.646,8.571 108.203,8.537 108.744,8.521 109.283,8.537 
		109.823,8.571 110.38,8.622 110.902,8.706 111.443,8.808 111.982,8.925 112.505,9.077 113.029,9.229 113.553,9.415 114.075,9.634 
		114.581,9.854 115.088,10.09 115.594,10.36 108.541,45.085 118.108,11.709 118.632,11.895 119.137,12.097 119.644,12.3 
		120.149,12.553 120.64,12.807 121.112,13.076 121.584,13.363 122.057,13.667 122.495,14.004 122.935,14.342 123.355,14.713 
		123.777,15.084 124.166,15.472 124.554,15.894 124.926,16.316 125.28,16.754 111.477,46.132 127.001,19.286 127.389,19.64 
		127.776,20.012 128.131,20.4 128.485,20.805 128.807,21.209 129.127,21.631 129.431,22.07 129.7,22.525 129.971,22.981 
		130.224,23.454 130.46,23.943 130.679,24.432 130.882,24.922 131.067,25.445 131.236,25.951 131.388,26.474 113.991,47.87 
		131.775,29.781 132.231,30.895 132.569,32.042 132.822,33.207 132.974,34.388 133.041,35.569 132.99,36.75 132.839,37.932 
		132.603,39.079 122.512,46.402 121.298,56.374 109.08,56.374 107.241,57.69 107.056,57.81 106.87,57.91 106.684,57.994 
		106.499,58.062 106.296,58.112 106.094,58.146 105.908,58.181 105.706,58.181 105.503,58.181 105.3,58.146 105.115,58.112 
		104.913,58.062 104.727,57.994 104.542,57.91 104.356,57.81 104.188,57.69 	"/>
</g>
</svg>
